# This file uses centimeters as units for non-parametric coordinates.

v 0.000000 -0.000000 250.000000
v 500.000000 -100.000000 250.000000
v 0.000000 0.000000 -250.000000
v 500.000000 -100.000000 -250.000000
v 124.999985 -0.000000 250.000000
v 124.999985 0.000000 -250.000000
v 375.000000 -100.000000 250.000000
v 375.000000 -100.000000 -250.000000
v 250.000000 -50.000000 250.000000
v 250.000000 -50.000000 -250.000000
v 194.819626 -14.622232 250.000000
v 194.819626 -14.622232 -250.000000
v 305.180389 -85.377769 250.000000
v 305.180389 -85.377769 -250.000000
vt 0.011411 0.011412
vt 0.255705 0.011412
vt 0.255705 0.988590
vt 0.011411 0.988590
vt 0.392158 0.011412
vt 0.392158 0.988590
vt 0.500000 0.011412
vt 0.500000 0.988590
vt 0.607842 0.011412
vt 0.607842 0.988590
vt 0.744295 0.988590
vt 0.744295 0.011412
vt 0.988589 0.011412
vt 0.988589 0.988590
vn 0.000000 1.000000 0.000000
vn 0.074845 0.997195 0.000000
vn 0.074845 0.997195 0.000000
vn 0.000000 1.000000 0.000000
vn 0.371391 0.928477 0.000000
vn 0.371391 0.928477 0.000000
vn 0.074845 0.997195 0.000000
vn 0.074845 0.997195 0.000000
vn 0.000000 1.000000 0.000000
vn 0.000000 1.000000 0.000000
vn 0.371391 0.928477 0.000000
vn 0.371391 0.928477 0.000000
vn 0.539728 0.841839 0.000000
vn 0.539728 0.841839 0.000000
s 1
f 1/1/1 5/2/2 6/3/3 3/4/4
f 11/5/5 12/6/6 6/3/3 5/2/2
f 8/11/7 7/12/8 2/13/9 4/14/10
f 13/9/11 14/10/12 10/8/13 9/7/14
f 9/7/14 10/8/13 12/6/6 11/5/5
f 8/11/7 14/10/12 13/9/11 7/12/8
