# This file uses centimeters as units for non-parametric coordinates.

v 0.000000 -0.000000 250.000000
v 0.000000 0.000000 -250.000000
v 250.000000 -0.000000 250.000000
v 250.000000 0.000000 -250.000000
v 375.000000 -1000.000000 250.000000
v 375.000000 -1000.000000 -250.000000
v 375.000000 -82.745041 250.000000
v 375.000000 -82.745041 -250.000000
v 332.509186 -17.895060 250.000000
v 332.509186 -17.895060 -250.000000
vt 0.601653 0.011411
vt 0.892575 0.011411
vt 0.892575 0.508798
vt 0.601653 0.508798
vt 0.988590 0.011411
vt 0.988590 0.508798
vt 0.593255 0.924078
vt 0.011411 0.924078
vt 0.011411 0.011616
vt 0.593255 0.011616
vt 0.593255 0.988590
vt 0.011411 0.988590
vn 0.000000 1.000000 0.000000
vn 0.053740 0.998555 0.000000
vn 0.053740 0.998555 0.000000
vn 0.000000 1.000000 0.000000
vn 0.551980 0.833857 0.000000
vn 0.551980 0.833857 0.000000
vn 0.999065 0.043225 0.000000
vn 0.999065 0.043225 0.000000
vn 1.000000 0.000000 0.000000
vn 1.000000 0.000000 0.000000
s 1
f 1/1/1 3/2/2 4/3/3 2/4/4
f 4/3/3 3/2/2 9/5/5 10/6/6
f 8/7/7 7/8/8 5/9/9 6/10/10
f 10/11/6 9/12/5 7/8/8 8/7/7
