# This file uses centimeters as units for non-parametric coordinates.

v -12.587487 358.468872 19.797333
v -25.826826 347.717651 19.923004
v -3.370667 354.674286 19.946594
v -39.598053 336.722229 19.965729
v -25.908407 338.961517 19.837738
v -35.750683 332.011444 19.161285
v 11.139685 327.628906 19.747040
v -25.828463 312.533386 19.981812
v 13.886219 319.232239 19.854187
v -23.754560 307.540741 19.120697
v -12.562539 310.962524 19.764587
v -15.027239 286.936462 19.837891
v 19.419127 289.090240 19.948242
v 19.871422 281.313141 19.917786
v -5.051844 351.513550 16.768219
v 16.911308 290.306183 16.063812
v -12.448300 281.313141 19.860565
v 19.871460 281.313141 -19.917877
v -8.428789 361.626648 13.695831
v -24.518948 351.157013 16.492340
v -37.859909 339.872192 15.900665
v -25.933445 336.783997 16.496155
v 6.246461 327.504150 16.678192
v 11.509528 316.049591 16.113953
v -5.190364 310.549164 16.463287
v -4.694746 289.012665 16.626770
v -19.992313 281.720367 15.938995
v -12.370510 361.020721 15.996826
v -3.300925 354.712646 -19.950104
v -40.075638 347.158569 9.085052
v -5.058748 351.507202 -16.766144
v -20.364983 307.478729 16.971405
v -8.520762 299.339569 16.463745
v 15.807262 291.800659 8.268829
v -18.802605 299.345978 12.173248
v 6.930079 328.693329 -6.185486
v -16.953320 288.016785 16.846130
v -32.572609 332.758575 15.949493
v 13.872148 319.228210 -10.404846
v -23.427952 315.466522 16.802948
v 8.186007 327.885925 -11.404938
v -12.402127 360.754883 -16.932190
v 11.781465 311.641968 -8.112762
v -19.518484 281.108795 -17.793152
v -8.363280 361.594086 -19.960907
v -20.221354 286.381622 -14.864288
v 2.748779 334.646881 -16.452057
v 11.172456 327.541168 -12.486664
v -17.090420 287.963776 -16.970520
v 6.272627 309.424652 -16.463806
v -37.824253 339.935364 -15.881287
v -31.684910 331.570526 -16.386017
v -23.425346 315.466522 -16.805695
v -13.962548 289.426819 -16.465698
v 15.863910 290.400513 -16.949066
v 12.640192 307.270447 -15.913361
v -24.538359 351.163696 -16.515686
v -25.932920 336.785278 -16.496460
v -35.755825 332.004578 -19.153046
v 7.364186 319.204865 -19.997223
v -3.583609 312.409088 -17.029602
v -20.364094 307.476715 -16.971252
v 19.424402 289.111053 -19.942169
v -16.050570 286.949188 -19.915009
v 2.825981 325.746368 -16.896149
v -25.828386 312.533173 -19.980774
v -39.592846 336.716034 -19.956940
v -23.656311 340.583099 -19.964691
v -24.289366 308.127716 -19.876953
v -33.336666 369.770996 7.847189
v -31.328484 368.888733 -11.690062
v -41.127453 354.667206 -14.203585
vt 0.585356 0.772970
vt 0.520322 0.847815
vt 0.562402 0.720866
vt 0.467355 0.848277
vt 0.453809 0.925666
vt 0.425315 0.903916
vt 0.560243 0.482377
vt 0.468928 0.691366
vt 0.509450 0.466850
vt 0.459427 0.616370
vt 0.438728 0.679642
vt 0.242415 0.216015
vt 0.229386 0.410747
vt 0.195369 0.213457
vt 0.195369 0.396169
vt 0.197833 0.438816
vt 0.497120 0.012670
vt 0.505032 0.032067
vt 0.413817 0.012431
vt 0.577205 0.013381
vt 0.424332 0.035410
vt 0.578517 0.034868
vt 0.602362 0.047875
vt 0.632959 0.012537
vt 0.602757 0.238143
vt 0.578326 0.221023
vt 0.463840 0.191387
vt 0.451693 0.080940
vt 0.413849 0.238120
vt 0.504914 0.218666
vt 0.424547 0.215081
vt 0.401225 0.724016
vt 0.381242 0.905345
vt 0.382664 0.696354
vt 0.400472 0.891773
vt 0.539532 0.720154
vt 0.577646 0.696168
vt 0.571104 0.713053
vt 0.604318 0.743356
vt 0.011412 0.172510
vt 0.058455 0.397880
vt 0.011412 0.397711
vt 0.058583 0.172374
vt 0.746417 0.422259
vt 0.505796 0.239547
vt 0.746765 0.239547
vt 0.518649 0.462228
vt 0.722696 0.464907
vt 0.812837 0.687092
vt 0.676506 0.686476
vt 0.676354 0.667585
vt 0.616969 0.682652
vt 0.802668 0.669124
vt 0.636193 0.664496
vt 0.616938 0.466054
vt 0.641564 0.481696
vt 0.664639 0.011581
vt 0.636102 0.232728
vt 0.636145 0.016131
vt 0.664602 0.237274
vt 0.684077 0.214233
vt 0.683694 0.034564
vt 0.727769 0.073092
vt 0.773189 0.204749
vt 0.864553 0.080091
vt 0.859216 0.190540
vt 0.972477 0.458381
vt 0.973007 0.640604
vt 0.922216 0.641209
vt 0.922191 0.470151
vt 0.902965 0.620067
vt 0.922052 0.415922
vt 0.876303 0.483108
vt 0.756281 0.575717
vt 0.862891 0.435897
vt 0.747242 0.619781
vt 0.849859 0.439011
vt 0.747811 0.433155
vt 0.248086 0.623949
vt 0.088096 0.623442
vt 0.132691 0.604779
vt 0.040899 0.607651
vt 0.233708 0.602804
vt 0.020395 0.619802
vt 0.040904 0.415767
vt 0.017160 0.399341
vt 0.142410 0.415436
vt 0.352525 0.262326
vt 0.290023 0.244171
vt 0.498391 0.243550
vt 0.278373 0.261086
vt 0.483220 0.265509
vt 0.476543 0.309574
vt 0.498423 0.469057
vt 0.476886 0.452135
vt 0.296464 0.449404
vt 0.283833 0.468904
vt 0.277543 0.452258
vt 0.258604 0.440351
vt 0.184633 0.213710
vt 0.191167 0.230621
vt 0.153080 0.235751
vt 0.181276 0.409888
vt 0.149381 0.426446
vt 0.184709 0.438441
vt 0.674633 0.835202
vt 0.580529 0.812597
vt 0.593933 0.771407
vt 0.621294 0.940431
vt 0.748118 0.890963
vt 0.432581 0.614333
vt 0.343482 0.732380
vt 0.287347 0.550461
vt 0.214531 0.718217
vt 0.319132 0.769915
vt 0.877054 0.769531
vt 0.944861 0.750706
vt 0.926289 0.836490
vt 0.814588 0.747903
vt 0.877093 0.827657
vt 0.822412 0.625760
vt 0.808563 0.817203
vt 0.978136 0.656297
vt 0.771290 0.400115
vt 0.778483 0.270859
vt 0.916526 0.400624
vt 0.916484 0.211047
vt 0.814496 0.212821
vt 0.935877 0.193045
vt 0.773597 0.241353
vt 0.935642 0.418592
vt 0.760658 0.210312
vt 0.977700 0.383254
vt 0.977501 0.192985
vt 0.284972 0.237329
vt 0.284972 0.011410
vt 0.302716 0.029382
vt 0.254773 0.016279
vt 0.302716 0.219378
vt 0.258323 0.236741
vt 0.407317 0.034207
vt 0.400128 0.217005
vt 0.365155 0.748866
vt 0.365143 0.940750
vt 0.315959 0.775989
vt 0.247428 0.749574
vt 0.247108 0.940746
vt 0.071562 0.760544
vt 0.076755 0.804641
vt 0.038239 0.807755
vt 0.100470 0.792170
vt 0.011411 0.674166
vt 0.229424 0.777993
vt 0.113399 0.630028
vt 0.132010 0.824690
vt 0.167241 0.629590
vt 0.129386 0.847699
vt 0.102952 0.122117
vt 0.061840 0.060227
vt 0.121001 0.066395
vt 0.128845 0.239170
vt 0.241969 0.180790
vt 0.102198 0.247870
vt 0.236081 0.012175
vt 0.132785 0.216985
vt 0.022271 0.085881
vt 0.134037 0.030399
vt 0.250823 0.198475
vt 0.011411 0.038700
vt 0.967611 0.813325
vt 0.986960 0.708188
vt 0.988590 0.826195
vt 0.967700 0.698252
vt 0.972521 0.881724
vt 0.030620 0.847862
vt 0.011411 0.834280
vt 0.011959 0.685873
vt 0.576362 0.672172
vt 0.610448 0.469096
vt 0.611685 0.691778
vt 0.563284 0.471629
vt 0.757845 0.894854
vt 0.607357 0.718310
vt 0.648988 0.689691
vt 0.734455 0.804764
vt 0.786349 0.873167
vt 0.829512 0.824916
vt 0.943998 0.870894
vt 0.870585 0.925114
vt 0.770237 0.905308
vt 0.790218 0.988592
vn -0.007551 0.020985 0.999751
vn -0.007551 0.020985 0.999751
vn -0.007551 0.020985 0.999751
vn 0.001972 -0.009756 0.999950
vn 0.001972 -0.009756 0.999951
vn 0.001972 -0.009756 0.999951
vn 0.010958 -0.009839 0.999892
vn 0.010958 -0.009839 0.999892
vn 0.010958 -0.009839 0.999892
vn 0.032536 -0.142363 0.989280
vn 0.032536 -0.142363 0.989280
vn 0.032536 -0.142363 0.989280
vn 0.001006 0.013089 0.999914
vn 0.001006 0.013089 0.999914
vn 0.001006 0.013089 0.999914
vn 0.010934 -0.045792 0.998891
vn 0.010934 -0.045792 0.998891
vn 0.010934 -0.045792 0.998891
vn -0.004195 -0.171659 0.985147
vn -0.004195 -0.171659 0.985147
vn -0.004195 -0.171659 0.985148
vn -0.002948 -0.004088 0.999987
vn -0.002948 -0.004088 0.999987
vn -0.002948 -0.004088 0.999987
vn -0.001770 0.003220 0.999993
vn -0.001770 0.003220 0.999993
vn -0.001770 0.003220 0.999993
vn -0.546539 0.686378 0.479771
vn -0.546539 0.686378 0.479771
vn -0.546539 0.686378 0.479771
vn -0.327144 0.808759 0.488760
vn -0.327144 0.808759 0.488760
vn -0.327144 0.808759 0.488760
vn 0.998313 0.058059 0.000001
vn 0.998313 0.058059 0.000001
vn 0.998313 0.058059 0.000001
vn 0.000000 -1.000000 0.000000
vn 0.000000 -1.000000 0.000000
vn 0.000000 -1.000000 0.000000
vn 0.298806 0.749042 0.591313
vn 0.298806 0.749042 0.591313
vn 0.298806 0.749042 0.591313
vn -0.551578 0.684795 0.476253
vn -0.551578 0.684795 0.476253
vn -0.551578 0.684795 0.476253
vn 0.503573 -0.725554 0.469026
vn 0.503573 -0.725554 0.469026
vn 0.503573 -0.725554 0.469026
vn -0.774495 -0.632579 0.000217
vn -0.774496 -0.632579 0.000217
vn -0.774495 -0.632579 0.000217
vn 0.950446 0.310890 0.000120
vn 0.950446 0.310890 0.000120
vn 0.950446 0.310890 0.000120
vn -0.324291 0.804580 0.497480
vn -0.324291 0.804580 0.497480
vn -0.324291 0.804580 0.497480
vn 0.233334 -0.752932 0.615344
vn 0.233334 -0.752932 0.615344
vn 0.233334 -0.752932 0.615344
vn 0.244768 -0.877995 0.411357
vn 0.244768 -0.877995 0.411357
vn 0.244768 -0.877995 0.411357
vn -0.058406 0.913475 0.402681
vn -0.058406 0.913475 0.402681
vn -0.058406 0.913475 0.402681
vn -0.757651 0.280801 0.589165
vn -0.757651 0.280801 0.589165
vn -0.757651 0.280801 0.589165
vn -0.459989 -0.207477 0.863344
vn -0.459989 -0.207477 0.863344
vn -0.459989 -0.207477 0.863344
vn 0.199203 0.808278 0.554080
vn 0.199203 0.808278 0.554080
vn 0.199203 0.808278 0.554080
vn -0.554533 0.705175 0.441839
vn -0.554533 0.705175 0.441839
vn -0.554533 0.705175 0.441839
vn 0.508840 -0.729799 0.456592
vn 0.508840 -0.729799 0.456592
vn 0.508840 -0.729799 0.456592
vn -0.624958 0.723446 0.293347
vn -0.624958 0.723447 0.293347
vn -0.624958 0.723446 0.293347
vn 0.485696 -0.734013 0.474683
vn 0.485696 -0.734013 0.474683
vn 0.485696 -0.734013 0.474683
vn 0.480320 -0.830503 0.282058
vn 0.480320 -0.830503 0.282058
vn 0.480320 -0.830503 0.282058
vn 0.278049 -0.811550 0.513883
vn 0.278049 -0.811550 0.513883
vn 0.278049 -0.811550 0.513883
vn 0.186097 -0.833674 0.519957
vn 0.186097 -0.833674 0.519957
vn 0.186097 -0.833674 0.519957
vn -0.048008 0.943980 0.326492
vn -0.048008 0.943980 0.326492
vn -0.048008 0.943980 0.326492
vn -0.068272 0.923514 0.377440
vn -0.068272 0.923514 0.377440
vn -0.068272 0.923514 0.377440
vn -0.472392 0.521197 0.710773
vn -0.472392 0.521198 0.710773
vn -0.472392 0.521197 0.710773
vn -0.007796 -0.007418 0.999942
vn -0.007796 -0.007418 0.999942
vn -0.007796 -0.007418 0.999942
vn -0.084701 0.004385 0.996397
vn -0.084701 0.004385 0.996397
vn -0.084701 0.004385 0.996397
vn -0.001559 0.014207 0.999898
vn -0.001559 0.014207 0.999898
vn -0.001559 0.014207 0.999898
vn 0.035593 -0.010534 0.999311
vn 0.035593 -0.010534 0.999311
vn 0.035593 -0.010534 0.999311
vn -0.023578 0.007046 0.999697
vn -0.023578 0.007046 0.999697
vn -0.023578 0.007046 0.999697
vn 0.025557 0.008176 0.999640
vn 0.025557 0.008176 0.999640
vn 0.025557 0.008176 0.999640
vn 0.020162 0.002283 0.999794
vn 0.020162 0.002283 0.999794
vn 0.020162 0.002283 0.999794
vn -0.014257 0.379273 0.925175
vn -0.014257 0.379273 0.925175
vn -0.014257 0.379273 0.925175
vn 0.903800 0.425125 0.049135
vn 0.903800 0.425125 0.049135
vn 0.903800 0.425125 0.049135
vn -0.382048 -0.127095 0.915361
vn -0.382049 -0.127095 0.915361
vn -0.382048 -0.127095 0.915361
vn 0.973867 0.204540 -0.098720
vn 0.973867 0.204540 -0.098720
vn 0.973867 0.204540 -0.098720
vn -0.902281 0.425252 0.071060
vn -0.902281 0.425252 0.071060
vn -0.902281 0.425252 0.071060
vn 0.882425 -0.470453 0.001091
vn 0.882424 -0.470453 0.001091
vn 0.882424 -0.470453 0.001091
vn -0.773873 0.633341 -0.000004
vn -0.773873 0.633341 -0.000004
vn -0.773873 0.633341 -0.000004
vn -0.327809 -0.525980 0.784784
vn -0.327809 -0.525980 0.784784
vn -0.327808 -0.525980 0.784784
vn 0.231317 0.961012 0.151484
vn 0.231317 0.961012 0.151484
vn 0.231317 0.961012 0.151484
vn -0.062811 -0.997877 0.017209
vn -0.062811 -0.997877 0.017209
vn -0.062811 -0.997877 0.017209
vn 0.807784 0.589475 0.001979
vn 0.807784 0.589475 0.001979
vn 0.807784 0.589475 0.001979
vn 0.228988 -0.973429 0.000142
vn 0.228988 -0.973429 0.000142
vn 0.228988 -0.973429 0.000142
vn -0.018254 -0.999833 0.000059
vn -0.018254 -0.999833 0.000059
vn -0.018254 -0.999833 0.000059
vn -0.056881 0.997120 0.050161
vn -0.056881 0.997120 0.050161
vn -0.056881 0.997120 0.050161
vn -0.773534 0.633755 -0.000059
vn -0.773534 0.633755 -0.000059
vn -0.773534 0.633755 -0.000059
vn -0.450785 0.892632 0.000428
vn -0.450785 0.892632 0.000428
vn -0.450785 0.892632 0.000428
vn 0.390099 0.920757 -0.005452
vn 0.390099 0.920757 -0.005452
vn 0.390099 0.920757 -0.005452
vn 0.390099 0.920757 -0.005452
vn -0.956309 -0.292353 -0.001654
vn -0.956309 -0.292353 -0.001654
vn -0.956309 -0.292353 -0.001654
vn 0.258815 0.965924 -0.002367
vn 0.258815 0.965924 -0.002367
vn 0.258815 0.965924 -0.002367
vn -0.982044 -0.188651 -0.000014
vn -0.982044 -0.188651 -0.000014
vn -0.982044 -0.188651 -0.000014
vn -0.987480 -0.157488 0.008970
vn -0.987480 -0.157488 0.008970
vn -0.987480 -0.157488 0.008970
vn 0.876775 -0.480900 -0.000090
vn 0.876775 -0.480900 -0.000090
vn 0.876775 -0.480900 -0.000090
vn -0.991992 -0.125760 -0.011654
vn -0.991992 -0.125760 -0.011654
vn -0.991992 -0.125760 -0.011654
vn 0.885265 0.465087 -0.000271
vn 0.885265 0.465087 -0.000271
vn 0.885265 0.465087 -0.000271
vn -0.923494 -0.383612 0.000000
vn -0.923494 -0.383612 0.000000
vn -0.923494 -0.383612 0.000000
vn 0.805512 0.592579 0.000996
vn 0.805512 0.592579 0.000996
vn 0.805512 0.592579 0.000996
vn -0.875563 0.483104 -0.000022
vn -0.875563 0.483104 -0.000022
vn -0.875563 0.483104 -0.000022
vn -0.986208 -0.165455 0.004258
vn -0.986208 -0.165455 0.004258
vn -0.986208 -0.165455 0.004258
vn 0.801408 -0.598119 -0.000293
vn 0.801408 -0.598118 -0.000293
vn 0.801408 -0.598118 -0.000293
vn 0.998361 0.057237 0.000162
vn 0.998361 0.057237 0.000162
vn 0.998361 0.057237 0.000162
vn -0.889848 -0.456194 -0.007667
vn -0.889848 -0.456194 -0.007667
vn -0.889848 -0.456194 -0.007667
vn -0.883997 -0.467493 -0.000068
vn -0.883997 -0.467493 -0.000068
vn -0.883997 -0.467493 -0.000068
vn -0.154406 -0.987925 -0.012751
vn -0.154406 -0.987925 -0.012751
vn -0.154406 -0.987925 -0.012751
vn -0.152651 0.988279 -0.001252
vn -0.152651 0.988279 -0.001252
vn -0.152651 0.988279 -0.001252
vn 0.966757 -0.249438 0.056232
vn 0.966757 -0.249438 0.056232
vn 0.966757 -0.249438 0.056232
vn -0.775391 -0.631481 -0.000002
vn -0.775391 -0.631481 -0.000002
vn -0.775391 -0.631482 -0.000002
vn 0.064328 0.988422 -0.137421
vn 0.064328 0.988422 -0.137421
vn 0.064328 0.988422 -0.137421
vn 0.599187 0.800609 0.000498
vn 0.599187 0.800609 0.000498
vn 0.599187 0.800609 0.000498
vn 0.983172 0.181356 -0.021958
vn 0.983172 0.181356 -0.021958
vn 0.983172 0.181356 -0.021958
vn 0.951137 0.308768 -0.000483
vn 0.951137 0.308768 -0.000483
vn 0.951137 0.308768 -0.000483
vn 0.005425 -0.999976 0.004407
vn 0.005425 -0.999976 0.004407
vn 0.005425 -0.999976 0.004407
vn -0.208959 0.977894 -0.007694
vn -0.208959 0.977894 -0.007694
vn -0.208959 0.977894 -0.007694
vn 0.901049 0.414896 -0.126380
vn 0.901049 0.414896 -0.126380
vn 0.901049 0.414896 -0.126380
vn 0.747694 0.659457 0.077907
vn 0.747694 0.659457 0.077907
vn 0.747694 0.659457 0.077907
vn 0.769383 -0.369474 -0.521095
vn 0.769383 -0.369474 -0.521095
vn 0.769383 -0.369474 -0.521095
vn -0.876348 0.481679 -0.000190
vn -0.876348 0.481679 -0.000190
vn -0.876348 0.481679 -0.000190
vn 0.835530 -0.266787 -0.480327
vn 0.835530 -0.266787 -0.480327
vn 0.835530 -0.266787 -0.480327
vn 0.322025 0.840559 -0.435615
vn 0.322025 0.840559 -0.435615
vn 0.322025 0.840559 -0.435615
vn 0.980416 0.196922 -0.002428
vn 0.980416 0.196922 -0.002428
vn 0.980416 0.196922 -0.002428
vn -0.128051 -0.991221 0.032905
vn -0.128051 -0.991221 0.032905
vn -0.128051 -0.991222 0.032905
vn -0.017790 0.937372 -0.347875
vn -0.017790 0.937372 -0.347875
vn -0.017790 0.937372 -0.347875
vn 0.820679 0.127006 -0.557096
vn 0.820679 0.127006 -0.557096
vn 0.820679 0.127006 -0.557096
vn -0.944080 -0.329620 0.007985
vn -0.944080 -0.329620 0.007985
vn -0.944080 -0.329620 0.007985
vn 0.300973 0.952203 -0.052191
vn 0.300973 0.952203 -0.052191
vn 0.300973 0.952204 -0.052191
vn -0.762478 0.233527 -0.603400
vn -0.762478 0.233527 -0.603401
vn -0.762478 0.233527 -0.603400
vn 0.706888 0.041363 -0.706115
vn 0.706888 0.041363 -0.706115
vn 0.706888 0.041363 -0.706115
vn 0.982100 0.188178 -0.008242
vn 0.982100 0.188178 -0.008242
vn 0.982100 0.188178 -0.008242
vn -0.021370 0.011987 -0.999700
vn -0.021370 0.011987 -0.999700
vn -0.021370 0.011987 -0.999700
vn 0.020275 -0.009235 -0.999752
vn 0.020275 -0.009235 -0.999752
vn 0.020275 -0.009235 -0.999752
vn 0.446476 -0.508073 -0.736561
vn 0.446476 -0.508073 -0.736561
vn 0.446476 -0.508073 -0.736561
vn -0.029219 0.011061 -0.999512
vn -0.029219 0.011061 -0.999512
vn -0.029219 0.011061 -0.999512
vn -0.022872 0.049622 -0.998506
vn -0.022872 0.049622 -0.998506
vn -0.022872 0.049622 -0.998506
vn -0.047330 -0.334729 -0.941125
vn -0.047330 -0.334729 -0.941125
vn -0.047330 -0.334729 -0.941125
vn 0.043878 -0.044304 -0.998054
vn 0.043878 -0.044304 -0.998054
vn 0.043878 -0.044304 -0.998054
vn 0.004305 -0.026472 -0.999640
vn 0.004305 -0.026472 -0.999640
vn 0.004305 -0.026472 -0.999640
vn 0.113493 0.082474 -0.990110
vn 0.113493 0.082474 -0.990110
vn 0.113493 0.082474 -0.990110
vn -0.016758 0.017051 -0.999714
vn -0.016758 0.017051 -0.999714
vn -0.016758 0.017051 -0.999714
vn 0.147973 0.024788 -0.988681
vn 0.147973 0.024788 -0.988681
vn 0.147973 0.024788 -0.988681
vn -0.542236 0.676102 -0.498865
vn -0.542236 0.676102 -0.498865
vn -0.542236 0.676102 -0.498865
vn -0.542236 0.676102 -0.498865
vn 0.506716 -0.726961 -0.463429
vn 0.506716 -0.726961 -0.463429
vn 0.506716 -0.726961 -0.463429
vn 0.236239 -0.682575 -0.691579
vn 0.236239 -0.682575 -0.691579
vn 0.236239 -0.682575 -0.691579
vn 0.240879 -0.825535 -0.510362
vn 0.240879 -0.825535 -0.510362
vn 0.240879 -0.825535 -0.510362
vn -0.036419 0.901320 -0.431620
vn -0.036419 0.901320 -0.431620
vn -0.036419 0.901320 -0.431620
vn -0.331358 0.849835 -0.409857
vn -0.331358 0.849835 -0.409857
vn -0.331358 0.849835 -0.409857
vn -0.050733 0.825439 -0.562207
vn -0.050733 0.825439 -0.562207
vn -0.050733 0.825439 -0.562207
vn -0.623386 0.644782 -0.442320
vn -0.623385 0.644782 -0.442320
vn -0.623385 0.644782 -0.442320
vn 0.507810 -0.731094 -0.455664
vn 0.507810 -0.731094 -0.455664
vn 0.507810 -0.731094 -0.455664
vn -0.624214 0.721695 -0.299187
vn -0.624214 0.721695 -0.299187
vn -0.624214 0.721695 -0.299187
vn 0.485414 -0.730148 -0.480892
vn 0.485414 -0.730148 -0.480892
vn 0.485414 -0.730148 -0.480892
vn -0.316602 0.804068 -0.503227
vn -0.316602 0.804068 -0.503227
vn -0.316602 0.804068 -0.503227
vn 0.286870 0.565562 -0.773204
vn 0.286870 0.565562 -0.773204
vn 0.286870 0.565562 -0.773204
vn -0.049492 -0.314963 -0.947813
vn -0.049492 -0.314963 -0.947813
vn -0.049492 -0.314963 -0.947813
vn 0.000708 -0.001049 -0.999999
vn 0.000708 -0.001049 -0.999999
vn 0.000708 -0.001049 -0.999999
vn -0.001133 0.002665 -0.999996
vn -0.001133 0.002665 -0.999996
vn -0.001133 0.002665 -0.999996
vn 0.033803 -0.141287 -0.989392
vn 0.033803 -0.141287 -0.989391
vn 0.033803 -0.141287 -0.989391
vn -0.077387 0.382742 -0.920609
vn -0.077387 0.382742 -0.920609
vn -0.077387 0.382742 -0.920609
vn 0.003962 -0.022176 -0.999746
vn 0.003962 -0.022176 -0.999746
vn 0.003962 -0.022176 -0.999746
vn -0.000574 -0.003148 -0.999995
vn -0.000574 -0.003148 -0.999995
vn -0.000574 -0.003148 -0.999995
vn -0.223496 0.321489 0.920160
vn -0.223496 0.321489 0.920160
vn -0.223496 0.321489 0.920160
vn -0.460821 0.184852 0.868029
vn -0.460821 0.184852 0.868029
vn -0.460821 0.184852 0.868029
vn -0.976071 -0.215948 -0.025541
vn -0.976071 -0.215948 -0.025541
vn -0.976071 -0.215948 -0.025541
vn -0.184593 0.191716 -0.963935
vn -0.184593 0.191716 -0.963935
vn -0.184593 0.191716 -0.963935
vn -0.086338 0.230781 -0.969168
vn -0.086339 0.230781 -0.969168
vn -0.086338 0.230781 -0.969168
vn -0.119735 0.085793 -0.989092
vn -0.119735 0.085793 -0.989092
vn -0.119735 0.085793 -0.989092
vn -0.911985 0.407988 0.042761
vn -0.911985 0.407988 0.042761
vn -0.911985 0.407988 0.042761
vn -0.911985 0.407988 0.042761
s off
f 1/1/1 2/2/2 3/3/3
f 3/3/4 2/2/5 5/4/6
f 2/2/7 4/5/8 5/4/9
f 5/4/10 4/5/11 6/6/12
f 7/7/13 8/8/14 9/9/15
f 8/8/16 11/10/17 9/9/18
f 8/8/19 10/11/20 11/10/21
f 13/12/22 12/13/23 14/14/24
f 12/13/25 17/15/26 14/14/27
f 2/17/28 20/18/29 4/19/30
f 23/32/31 8/33/32 7/34/33
f 18/40/34 13/41/35 14/42/36
f 17/44/37 18/45/38 14/46/39
f 1/20/40 3/24/41 19/23/42
f 1/20/43 20/18/44 2/17/45
f 3/49/46 5/50/47 22/51/48
f 4/57/49 59/58/50 6/59/51
f 48/67/52 7/68/53 9/69/54
f 40/35/55 8/33/56 23/32/57
f 9/79/58 11/80/59 25/81/60
f 32/82/61 11/80/62 10/84/63
f 26/88/64 12/89/65 13/90/66
f 12/100/67 37/101/68 27/102/69
f 17/15/70 12/13/71 27/16/72
f 1/20/73 19/23/74 28/22/75
f 1/20/76 28/22/77 20/18/78
f 15/53/79 3/49/80 22/51/81
f 21/21/82 4/19/83 20/18/84
f 5/50/85 6/52/86 22/51/87
f 22/51/88 6/52/89 38/54/90
f 24/83/91 9/79/92 25/81/93
f 25/81/94 11/80/95 32/82/96
f 16/92/97 26/88/98 13/90/99
f 26/88/100 37/91/101 12/89/102
f 20/106/103 30/107/104 21/108/105
f 15/111/106 22/112/107 23/113/108
f 22/112/109 38/115/110 40/114/111
f 23/113/112 22/112/113 40/114/114
f 33/116/115 25/117/116 32/118/117
f 25/117/118 33/116/119 26/119/120
f 25/117/121 26/119/122 16/121/123
f 24/123/124 25/117/125 16/121/126
f 35/120/127 37/122/128 26/119/129
f 23/124/130 36/125/131 15/126/132
f 33/116/133 35/120/134 26/119/135
f 34/74/136 24/71/137 16/76/138
f 37/101/139 46/103/140 27/102/141
f 15/126/142 29/129/143 3/131/144
f 66/135/145 8/136/146 40/137/147
f 32/118/148 35/120/149 33/116/150
f 16/92/151 13/90/152 34/93/153
f 17/44/154 27/48/155 44/47/156
f 19/133/157 3/131/158 29/129/159
f 59/55/160 38/54/161 6/52/162
f 10/84/163 62/85/164 32/82/165
f 7/34/166 36/36/167 23/32/168
f 66/135/169 40/137/170 53/139/171
f 49/98/172 46/99/173 37/91/174
f 28/22/175 42/26/176 71/27/177 70/28/178
f 30/63/179 51/61/180 21/62/181
f 48/37/182 36/36/183 7/34/184
f 32/143/185 62/144/186 35/145/187
f 35/145/188 62/144/189 37/146/190
f 31/127/191 29/129/192 15/126/193
f 46/103/194 44/104/195 27/102/196
f 36/125/197 31/127/198 15/126/199
f 8/136/200 66/135/201 10/138/202
f 45/134/203 19/133/204 29/129/205
f 4/57/206 21/62/207 51/61/208
f 37/146/209 62/144/210 49/147/211
f 24/71/212 39/70/213 9/69/214
f 63/43/215 13/41/216 18/40/217
f 38/141/218 52/142/219 53/139/220
f 38/141/221 53/139/222 40/137/223
f 69/86/224 62/85/225 10/84/226
f 45/25/227 28/22/228 19/23/229
f 24/71/230 43/73/231 39/70/232
f 4/57/233 67/60/234 59/58/235
f 48/37/236 41/38/237 36/36/238
f 63/94/239 34/93/240 13/90/241
f 24/71/242 34/74/243 43/73/244
f 48/67/245 9/69/246 39/70/247
f 44/47/248 18/45/249 17/44/250
f 42/26/251 28/22/252 45/25/253
f 31/127/254 36/125/255 47/128/256
f 36/125/257 41/130/258 47/128/259
f 43/73/260 60/72/261 39/70/262
f 4/57/263 51/61/264 67/60/265
f 50/75/266 60/72/267 43/73/268
f 43/148/269 56/149/270 50/150/271
f 34/74/272 56/77/273 43/73/274
f 38/54/275 59/55/276 52/56/277
f 41/38/278 48/37/279 65/39/280
f 48/67/281 39/70/282 60/72/283
f 66/135/284 69/140/285 10/138/286
f 63/94/287 55/95/288 34/93/289
f 44/104/290 46/103/291 64/105/292
f 65/132/293 47/128/294 41/130/295
f 56/77/296 34/74/297 55/78/298
f 58/151/299 31/152/300 53/153/301
f 53/153/302 31/152/303 47/154/304
f 59/157/305 58/151/306 52/155/307
f 58/151/308 53/153/309 52/155/310
f 53/153/311 47/154/312 65/156/313
f 61/158/314 60/159/315 50/160/316
f 61/158/317 50/160/318 54/162/319
f 61/158/320 54/162/321 62/165/322
f 50/160/323 56/167/324 55/164/325
f 50/160/326 55/164/327 54/162/328
f 62/165/329 54/162/330 49/168/331
f 45/25/332 67/29/333 57/30/334 42/26/335
f 68/170/336 31/171/337 58/172/338
f 69/161/339 60/159/340 61/158/341
f 69/86/342 61/87/343 62/85/344
f 63/94/345 54/96/346 55/95/347
f 54/96/348 64/97/349 49/98/350
f 63/94/351 64/97/352 54/96/353
f 64/97/354 46/99/355 49/98/356
f 68/170/357 29/173/358 31/171/359
f 67/29/360 51/31/361 57/30/362
f 68/170/363 58/172/364 59/174/365
f 66/175/366 53/176/367 65/177/368
f 60/159/369 65/166/370 48/169/371
f 64/178/372 18/179/373 44/180/374
f 67/182/375 45/183/376 29/184/377
f 29/184/378 68/185/379 67/182/380
f 67/182/381 68/185/382 59/186/383
f 65/166/384 60/159/385 66/163/386
f 66/163/387 60/159/388 69/161/389
f 63/181/390 18/179/391 64/178/392
f 70/109/393 20/106/394 28/110/395
f 70/109/396 30/107/397 20/106/398
f 30/63/399 72/64/400 51/61/401
f 71/187/402 42/188/403 57/189/404
f 72/190/405 71/187/406 57/189/407
f 72/190/408 57/189/409 51/191/410
f 30/63/411 70/65/412 71/66/413 72/64/414
