# This file uses centimeters as units for non-parametric coordinates.

v -12.587487 358.468872 19.797344
v -25.826826 347.717651 19.923019
v -3.370667 354.674286 19.946594
v -39.598053 336.722229 19.965744
v -25.908407 338.961517 19.837742
v -35.750683 332.011444 19.161301
v 11.139685 327.628906 19.747049
v -25.828463 312.533386 19.981804
v 13.886219 319.232239 19.854183
v -23.754560 307.540741 19.120693
v -12.562539 310.962524 19.764576
v -15.027239 286.936462 19.837894
v 19.419127 289.090240 19.948254
v 19.871422 281.313141 19.917774
v -5.051844 351.513550 16.768229
v 16.911308 290.306183 16.063824
v -12.448300 281.313141 19.860554
v 19.871460 281.313141 -19.917889
v -8.428789 361.626648 13.695831
v -24.518948 351.157013 16.492350
v -37.859909 339.872192 15.900650
v -25.933445 336.783997 16.496143
v 6.246461 327.504150 16.678202
v 11.509528 316.049591 16.113949
v -5.190364 310.549164 16.463299
v -4.694746 289.012665 16.626780
v -19.992313 281.720367 15.939007
v -12.370510 361.020721 15.996838
v -3.300925 354.712646 -19.950104
v -40.075638 347.158569 9.085045
v -5.058748 351.507202 -16.766148
v -20.364983 307.478729 16.971416
v -8.520762 299.339569 16.463757
v 15.807262 291.800659 8.268834
v -18.802605 299.345978 12.173253
v 6.930079 328.693329 -6.185474
v -16.953320 288.016785 16.846123
v -32.572609 332.758575 15.949498
v 13.872148 319.228210 -10.404835
v -23.427952 315.466522 16.802959
v 8.186007 327.885925 -11.404934
v -12.402127 360.754883 -16.932180
v 11.781465 311.641968 -8.112755
v -19.518484 281.108795 -17.793159
v -8.363280 361.594086 -19.960918
v -20.221354 286.381622 -14.864273
v 2.748779 334.646881 -16.452065
v 11.172456 327.541168 -12.486649
v -17.090420 287.963776 -16.970520
v 6.272627 309.424652 -16.463795
v -37.824253 339.935364 -15.881290
v -31.684910 331.570526 -16.386013
v -23.425346 315.466522 -16.805685
v -13.962548 289.426819 -16.465702
v 15.863910 290.400513 -16.949081
v 12.640192 307.270447 -15.913353
v -24.538359 351.163696 -16.515694
v -25.932920 336.785278 -16.496449
v -35.755825 332.004578 -19.153042
v 7.364186 319.204865 -19.997215
v -3.583609 312.409088 -17.029591
v -20.364094 307.476715 -16.971264
v 19.424402 289.111053 -19.942169
v -16.050570 286.949188 -19.915009
v 2.825981 325.746368 -16.896152
v -25.828386 312.533173 -19.980774
v -39.592846 336.716034 -19.956930
v -23.656311 340.583099 -19.964695
v -24.289366 308.127716 -19.876957
v -24.825960 359.873047 10.139465
v -21.516506 360.667877 -13.399620
v -35.988052 347.568634 -12.496052
vt 0.490437 0.798004
vt 0.427433 0.881429
vt 0.468199 0.739926
vt 0.376119 0.881943
vt 0.362996 0.968204
vt 0.335391 0.943961
vt 0.987966 0.483316
vt 0.899501 0.716262
vt 0.938758 0.466008
vt 0.890297 0.632669
vt 0.870245 0.703194
vt 0.056988 0.186061
vt 0.044366 0.403117
vt 0.011411 0.183210
vt 0.011411 0.386867
vt 0.013798 0.434403
vt 0.485989 0.012090
vt 0.493653 0.033711
vt 0.405286 0.011823
vt 0.563574 0.012883
vt 0.415472 0.037437
vt 0.564846 0.036833
vt 0.587946 0.051331
vt 0.617587 0.011942
vt 0.588329 0.263411
vt 0.564660 0.244327
vt 0.511249 0.222066
vt 0.491854 0.073740
vt 0.405316 0.263385
vt 0.493540 0.241701
vt 0.402487 0.080385
vt 0.426442 0.216373
vt 0.415681 0.237705
vt 0.791835 0.755559
vt 0.772476 0.957675
vt 0.773853 0.724726
vt 0.791105 0.942547
vt 0.925825 0.751255
vt 0.962750 0.724519
vt 0.956411 0.743339
vt 0.988589 0.777117
vt 0.935426 0.014266
vt 0.981000 0.265472
vt 0.935426 0.265283
vt 0.981124 0.014114
vt 0.367212 0.465882
vt 0.134102 0.262225
vt 0.367550 0.262225
vt 0.146553 0.510433
vt 0.344232 0.513419
vt 0.552014 0.734100
vt 0.419938 0.733414
vt 0.419791 0.712357
vt 0.362260 0.729152
vt 0.542162 0.714072
vt 0.380884 0.708914
vt 0.362229 0.487723
vt 0.386086 0.505158
vt 0.648678 0.011595
vt 0.621031 0.258094
vt 0.621073 0.016666
vt 0.648641 0.263159
vt 0.667509 0.237479
vt 0.667138 0.037213
vt 0.709837 0.080158
vt 0.712241 0.216147
vt 0.590021 0.312280
vt 0.590534 0.515393
vt 0.541329 0.516067
vt 0.541304 0.325400
vt 0.522678 0.492502
vt 0.541170 0.264954
vt 0.496849 0.339842
vt 0.380573 0.443067
vt 0.483855 0.287219
vt 0.371816 0.492183
vt 0.471230 0.290689
vt 0.372367 0.284163
vt 0.235129 0.688197
vt 0.080133 0.687632
vt 0.123335 0.666830
vt 0.034408 0.670031
vt 0.221200 0.664629
vt 0.014544 0.683575
vt 0.034413 0.456150
vt 0.011411 0.437841
vt 0.132751 0.455781
vt 0.727355 0.274016
vt 0.666804 0.253780
vt 0.868668 0.253088
vt 0.655517 0.272634
vt 0.853971 0.277564
vt 0.847502 0.326680
vt 0.868700 0.504445
vt 0.847834 0.485584
vt 0.673044 0.482540
vt 0.660808 0.504275
vt 0.654714 0.485721
vt 0.636366 0.472450
vt 0.921651 0.243379
vt 0.927981 0.262229
vt 0.891084 0.267946
vt 0.918400 0.462045
vt 0.887500 0.480502
vt 0.921726 0.493872
vt 0.432195 0.890561
vt 0.408762 0.988589
vt 0.366063 0.974625
vt 0.483271 0.892494
vt 0.489997 0.814011
vt 0.861030 0.578412
vt 0.774711 0.709991
vt 0.720328 0.507218
vt 0.649785 0.694205
vt 0.751121 0.751829
vt 0.077765 0.851389
vt 0.143454 0.830405
vt 0.125462 0.926024
vt 0.017248 0.827281
vt 0.077802 0.916178
vt 0.024828 0.691136
vt 0.011411 0.904525
vt 0.175691 0.725174
vt 0.729102 0.244418
vt 0.736071 0.100345
vt 0.869805 0.244985
vt 0.869764 0.033675
vt 0.770960 0.035653
vt 0.888552 0.013610
vt 0.731338 0.067456
vt 0.888325 0.265013
vt 0.718802 0.032857
vt 0.929070 0.225624
vt 0.928877 0.013544
vt 0.278383 0.263227
vt 0.278383 0.011410
vt 0.295572 0.031442
vt 0.249126 0.016837
vt 0.295572 0.243218
vt 0.252565 0.262572
vt 0.396908 0.036820
vt 0.389945 0.240573
vt 0.913678 0.760991
vt 0.913666 0.974871
vt 0.866018 0.791223
vt 0.799626 0.761780
vt 0.799316 0.974867
vt 0.952372 0.749455
vt 0.957403 0.798608
vt 0.920089 0.802078
vt 0.268307 0.853598
vt 0.182028 0.722067
vt 0.393236 0.837797
vt 0.280832 0.672869
vt 0.298862 0.889846
vt 0.332993 0.672380
vt 0.296320 0.915493
vt 0.100094 0.135024
vt 0.060265 0.066040
vt 0.117580 0.072914
vt 0.125179 0.265496
vt 0.234772 0.200423
vt 0.099363 0.275193
vt 0.229068 0.012479
vt 0.128996 0.240768
vt 0.021931 0.094635
vt 0.130208 0.032792
vt 0.243350 0.220136
vt 0.011411 0.042045
vt 0.176277 0.865999
vt 0.195022 0.748810
vt 0.196601 0.880345
vt 0.176363 0.737735
vt 0.181034 0.942240
vt 0.515031 0.921131
vt 0.496422 0.905992
vt 0.496953 0.740572
vt 0.608778 0.716518
vt 0.641800 0.490163
vt 0.642999 0.738372
vt 0.596108 0.492985
vt 0.699725 0.939599
vt 0.553933 0.742817
vt 0.594265 0.710917
vt 0.677065 0.839182
vt 0.727338 0.915426
vt 0.521853 0.796911
vt 0.521344 0.739476
vt 0.577549 0.815950
vt 0.598618 0.888098
vt 0.643352 0.899669
vn -0.007550 0.020984 0.999751
vn -0.007550 0.020984 0.999751
vn -0.007550 0.020984 0.999751
vn 0.001973 -0.009757 0.999950
vn 0.001973 -0.009757 0.999951
vn 0.001973 -0.009757 0.999951
vn 0.010959 -0.009840 0.999892
vn 0.010959 -0.009840 0.999892
vn 0.010959 -0.009840 0.999892
vn 0.032537 -0.142363 0.989280
vn 0.032537 -0.142363 0.989280
vn 0.032537 -0.142363 0.989280
vn 0.001006 0.013087 0.999914
vn 0.001006 0.013087 0.999914
vn 0.001006 0.013087 0.999914
vn 0.010934 -0.045793 0.998891
vn 0.010934 -0.045793 0.998891
vn 0.010934 -0.045793 0.998891
vn -0.004195 -0.171658 0.985148
vn -0.004195 -0.171658 0.985148
vn -0.004195 -0.171658 0.985148
vn -0.002948 -0.004091 0.999987
vn -0.002948 -0.004091 0.999987
vn -0.002948 -0.004091 0.999987
vn -0.001770 0.003218 0.999993
vn -0.001770 0.003218 0.999993
vn -0.001770 0.003218 0.999993
vn -0.546540 0.686378 0.479771
vn -0.546540 0.686378 0.479771
vn -0.546540 0.686378 0.479771
vn -0.327144 0.808759 0.488760
vn -0.327144 0.808759 0.488760
vn -0.327144 0.808759 0.488760
vn 0.998313 0.058059 0.000001
vn 0.998313 0.058059 0.000001
vn 0.998313 0.058059 0.000001
vn 0.000000 -1.000000 0.000000
vn 0.000000 -1.000000 0.000000
vn 0.000000 -1.000000 0.000000
vn 0.298807 0.749042 0.591312
vn 0.298807 0.749042 0.591312
vn 0.298807 0.749042 0.591312
vn -0.551578 0.684796 0.476252
vn -0.551578 0.684795 0.476252
vn -0.551579 0.684795 0.476252
vn 0.503574 -0.725555 0.469024
vn 0.503574 -0.725555 0.469024
vn 0.503574 -0.725555 0.469024
vn -0.774495 -0.632580 0.000217
vn -0.774495 -0.632580 0.000217
vn -0.774495 -0.632580 0.000217
vn 0.950446 0.310890 0.000120
vn 0.950446 0.310890 0.000120
vn 0.950446 0.310890 0.000120
vn -0.324291 0.804579 0.497482
vn -0.324291 0.804579 0.497482
vn -0.324291 0.804579 0.497482
vn 0.233334 -0.752931 0.615346
vn 0.233334 -0.752931 0.615346
vn 0.233334 -0.752931 0.615346
vn 0.244767 -0.877993 0.411359
vn 0.244768 -0.877993 0.411359
vn 0.244768 -0.877994 0.411359
vn -0.058406 0.913475 0.402681
vn -0.058406 0.913475 0.402681
vn -0.058406 0.913475 0.402681
vn -0.757651 0.280803 0.589164
vn -0.757651 0.280803 0.589164
vn -0.757651 0.280803 0.589164
vn -0.459987 -0.207478 0.863345
vn -0.459987 -0.207478 0.863345
vn -0.459987 -0.207478 0.863345
vn 0.199205 0.808277 0.554080
vn 0.199205 0.808277 0.554080
vn 0.199205 0.808277 0.554080
vn -0.554533 0.705175 0.441839
vn -0.554533 0.705175 0.441839
vn -0.554533 0.705175 0.441839
vn 0.508839 -0.729798 0.456593
vn 0.508839 -0.729798 0.456593
vn 0.508839 -0.729798 0.456593
vn -0.624959 0.723447 0.293345
vn -0.624959 0.723447 0.293345
vn -0.624959 0.723447 0.293345
vn 0.485697 -0.734014 0.474681
vn 0.485697 -0.734014 0.474681
vn 0.485697 -0.734014 0.474681
vn 0.480321 -0.830503 0.282058
vn 0.480321 -0.830503 0.282058
vn 0.480321 -0.830503 0.282058
vn 0.278049 -0.811550 0.513883
vn 0.278049 -0.811550 0.513883
vn 0.278049 -0.811550 0.513883
vn 0.186096 -0.833673 0.519960
vn 0.186096 -0.833673 0.519960
vn 0.186096 -0.833673 0.519960
vn -0.048008 0.943980 0.326492
vn -0.048008 0.943980 0.326492
vn -0.048008 0.943980 0.326492
vn -0.068272 0.923514 0.377439
vn -0.068272 0.923514 0.377439
vn -0.068272 0.923514 0.377439
vn -0.472393 0.521197 0.710774
vn -0.472393 0.521197 0.710774
vn -0.472393 0.521197 0.710774
vn -0.007796 -0.007418 0.999942
vn -0.007796 -0.007418 0.999942
vn -0.007796 -0.007418 0.999942
vn -0.084699 0.004386 0.996397
vn -0.084699 0.004386 0.996397
vn -0.084699 0.004386 0.996397
vn -0.001560 0.014208 0.999898
vn -0.001560 0.014208 0.999898
vn -0.001560 0.014208 0.999898
vn 0.035593 -0.010534 0.999311
vn 0.035593 -0.010534 0.999311
vn 0.035593 -0.010534 0.999311
vn -0.023578 0.007046 0.999697
vn -0.023578 0.007046 0.999697
vn -0.023578 0.007046 0.999697
vn 0.025557 0.008176 0.999640
vn 0.025557 0.008176 0.999640
vn 0.025557 0.008176 0.999640
vn 0.020163 0.002284 0.999794
vn 0.020163 0.002284 0.999794
vn 0.020163 0.002284 0.999794
vn -0.014258 0.379272 0.925175
vn -0.014258 0.379272 0.925175
vn -0.014258 0.379272 0.925175
vn 0.903800 0.425125 0.049135
vn 0.903800 0.425125 0.049135
vn 0.903800 0.425125 0.049135
vn -0.382049 -0.127095 0.915361
vn -0.382049 -0.127095 0.915361
vn -0.382049 -0.127095 0.915361
vn 0.973867 0.204540 -0.098720
vn 0.973867 0.204540 -0.098720
vn 0.973867 0.204540 -0.098720
vn -0.902281 0.425253 0.071060
vn -0.902281 0.425253 0.071060
vn -0.902281 0.425253 0.071060
vn 0.882425 -0.470453 0.001091
vn 0.882424 -0.470453 0.001091
vn 0.882425 -0.470453 0.001091
vn -0.773873 0.633341 -0.000004
vn -0.773873 0.633341 -0.000004
vn -0.773873 0.633341 -0.000004
vn -0.327809 -0.525981 0.784784
vn -0.327809 -0.525981 0.784784
vn -0.327809 -0.525981 0.784784
vn 0.231318 0.961012 0.151484
vn 0.231318 0.961012 0.151484
vn 0.231318 0.961012 0.151484
vn -0.062811 -0.997877 0.017209
vn -0.062811 -0.997877 0.017209
vn -0.062811 -0.997877 0.017209
vn 0.807784 0.589475 0.001979
vn 0.807784 0.589475 0.001979
vn 0.807784 0.589475 0.001979
vn 0.228988 -0.973429 0.000142
vn 0.228988 -0.973429 0.000142
vn 0.228988 -0.973429 0.000142
vn -0.018254 -0.999833 0.000059
vn -0.018254 -0.999833 0.000059
vn -0.018254 -0.999833 0.000059
vn -0.056881 0.997120 0.050161
vn -0.056881 0.997120 0.050161
vn -0.056881 0.997120 0.050161
vn -0.773534 0.633755 -0.000059
vn -0.773534 0.633755 -0.000059
vn -0.773534 0.633755 -0.000059
vn -0.450786 0.892632 0.000428
vn -0.450786 0.892632 0.000428
vn -0.450786 0.892632 0.000428
vn -0.057791 0.998311 0.005996
vn -0.057791 0.998311 0.005996
vn -0.057791 0.998311 0.005996
vn -0.057791 0.998311 0.005996
vn -0.956309 -0.292353 -0.001654
vn -0.956309 -0.292353 -0.001654
vn -0.956309 -0.292353 -0.001654
vn 0.258815 0.965924 -0.002367
vn 0.258815 0.965924 -0.002367
vn 0.258815 0.965924 -0.002367
vn -0.982044 -0.188651 -0.000014
vn -0.982044 -0.188651 -0.000014
vn -0.982044 -0.188651 -0.000014
vn -0.987480 -0.157488 0.008970
vn -0.987480 -0.157488 0.008970
vn -0.987480 -0.157488 0.008970
vn 0.876775 -0.480900 -0.000090
vn 0.876775 -0.480900 -0.000090
vn 0.876775 -0.480901 -0.000090
vn -0.991992 -0.125760 -0.011654
vn -0.991992 -0.125760 -0.011654
vn -0.991992 -0.125760 -0.011654
vn 0.885265 0.465087 -0.000271
vn 0.885265 0.465087 -0.000271
vn 0.885265 0.465087 -0.000271
vn -0.923495 -0.383612 0.000000
vn -0.923495 -0.383612 0.000000
vn -0.923495 -0.383612 0.000000
vn 0.805512 0.592579 0.000996
vn 0.805512 0.592579 0.000996
vn 0.805512 0.592579 0.000996
vn -0.875562 0.483105 -0.000022
vn -0.875562 0.483105 -0.000022
vn -0.875562 0.483105 -0.000022
vn -0.986208 -0.165455 0.004258
vn -0.986208 -0.165455 0.004258
vn -0.986208 -0.165455 0.004258
vn 0.801408 -0.598118 -0.000293
vn 0.801408 -0.598118 -0.000293
vn 0.801408 -0.598118 -0.000293
vn 0.998361 0.057237 0.000162
vn 0.998361 0.057237 0.000162
vn 0.998361 0.057237 0.000162
vn -0.889848 -0.456193 -0.007667
vn -0.889848 -0.456193 -0.007667
vn -0.889848 -0.456193 -0.007667
vn -0.883997 -0.467493 -0.000068
vn -0.883997 -0.467493 -0.000068
vn -0.883997 -0.467493 -0.000068
vn -0.154406 -0.987925 -0.012751
vn -0.154406 -0.987925 -0.012751
vn -0.154406 -0.987925 -0.012751
vn -0.152651 0.988279 -0.001252
vn -0.152651 0.988279 -0.001252
vn -0.152651 0.988279 -0.001252
vn 0.966757 -0.249438 0.056232
vn 0.966757 -0.249438 0.056232
vn 0.966757 -0.249438 0.056232
vn -0.775391 -0.631481 -0.000002
vn -0.775391 -0.631481 -0.000002
vn -0.775392 -0.631481 -0.000002
vn 0.064329 0.988422 -0.137420
vn 0.064329 0.988422 -0.137420
vn 0.064329 0.988422 -0.137420
vn 0.599187 0.800609 0.000498
vn 0.599187 0.800609 0.000498
vn 0.599187 0.800609 0.000498
vn 0.983172 0.181356 -0.021958
vn 0.983172 0.181356 -0.021958
vn 0.983172 0.181356 -0.021958
vn 0.951137 0.308767 -0.000483
vn 0.951138 0.308767 -0.000483
vn 0.951137 0.308767 -0.000483
vn 0.005425 -0.999976 0.004407
vn 0.005425 -0.999976 0.004407
vn 0.005425 -0.999976 0.004407
vn -0.208959 0.977894 -0.007694
vn -0.208959 0.977894 -0.007694
vn -0.208959 0.977894 -0.007694
vn 0.901049 0.414896 -0.126379
vn 0.901049 0.414896 -0.126379
vn 0.901049 0.414896 -0.126379
vn 0.747694 0.659457 0.077907
vn 0.747694 0.659457 0.077907
vn 0.747694 0.659457 0.077907
vn 0.769383 -0.369473 -0.521094
vn 0.769383 -0.369473 -0.521094
vn 0.769383 -0.369473 -0.521094
vn -0.876348 0.481679 -0.000190
vn -0.876348 0.481679 -0.000190
vn -0.876348 0.481679 -0.000190
vn 0.835530 -0.266787 -0.480327
vn 0.835530 -0.266787 -0.480327
vn 0.835530 -0.266787 -0.480327
vn 0.322025 0.840559 -0.435615
vn 0.322025 0.840559 -0.435615
vn 0.322025 0.840559 -0.435615
vn 0.980416 0.196922 -0.002428
vn 0.980416 0.196922 -0.002428
vn 0.980416 0.196922 -0.002428
vn -0.128051 -0.991221 0.032905
vn -0.128051 -0.991221 0.032905
vn -0.128051 -0.991222 0.032905
vn -0.017789 0.937372 -0.347875
vn -0.017789 0.937372 -0.347875
vn -0.017789 0.937372 -0.347875
vn 0.820679 0.127007 -0.557096
vn 0.820679 0.127007 -0.557096
vn 0.820679 0.127007 -0.557096
vn -0.944080 -0.329620 0.007985
vn -0.944080 -0.329620 0.007985
vn -0.944080 -0.329620 0.007985
vn 0.300973 0.952203 -0.052191
vn 0.300973 0.952204 -0.052191
vn 0.300973 0.952204 -0.052191
vn -0.762479 0.233528 -0.603399
vn -0.762479 0.233528 -0.603399
vn -0.762479 0.233528 -0.603399
vn 0.706888 0.041363 -0.706115
vn 0.706888 0.041363 -0.706115
vn 0.706888 0.041363 -0.706115
vn 0.982100 0.188178 -0.008242
vn 0.982100 0.188178 -0.008242
vn 0.982100 0.188178 -0.008242
vn -0.021371 0.011987 -0.999700
vn -0.021371 0.011987 -0.999700
vn -0.021371 0.011987 -0.999700
vn 0.020275 -0.009235 -0.999752
vn 0.020275 -0.009235 -0.999752
vn 0.020275 -0.009235 -0.999752
vn 0.446476 -0.508072 -0.736561
vn 0.446476 -0.508072 -0.736561
vn 0.446476 -0.508072 -0.736561
vn -0.029218 0.011062 -0.999512
vn -0.029218 0.011062 -0.999512
vn -0.029218 0.011062 -0.999512
vn -0.022872 0.049621 -0.998506
vn -0.022872 0.049621 -0.998506
vn -0.022872 0.049621 -0.998506
vn -0.047330 -0.334729 -0.941125
vn -0.047330 -0.334729 -0.941125
vn -0.047330 -0.334729 -0.941125
vn 0.043878 -0.044304 -0.998054
vn 0.043878 -0.044304 -0.998054
vn 0.043878 -0.044304 -0.998054
vn 0.004306 -0.026472 -0.999640
vn 0.004306 -0.026472 -0.999640
vn 0.004306 -0.026472 -0.999640
vn 0.113493 0.082476 -0.990110
vn 0.113493 0.082476 -0.990110
vn 0.113493 0.082476 -0.990110
vn -0.016758 0.017053 -0.999714
vn -0.016758 0.017053 -0.999714
vn -0.016758 0.017053 -0.999714
vn 0.147972 0.024788 -0.988681
vn 0.147972 0.024788 -0.988681
vn 0.147972 0.024788 -0.988681
vn -0.542236 0.676102 -0.498865
vn -0.542236 0.676102 -0.498865
vn -0.542236 0.676102 -0.498865
vn -0.542236 0.676102 -0.498865
vn 0.506717 -0.726962 -0.463428
vn 0.506717 -0.726962 -0.463428
vn 0.506717 -0.726962 -0.463428
vn 0.236240 -0.682576 -0.691578
vn 0.236240 -0.682576 -0.691578
vn 0.236240 -0.682576 -0.691578
vn 0.240880 -0.825534 -0.510363
vn 0.240880 -0.825534 -0.510364
vn 0.240880 -0.825534 -0.510364
vn -0.036419 0.901319 -0.431622
vn -0.036419 0.901319 -0.431622
vn -0.036419 0.901319 -0.431622
vn -0.331358 0.849835 -0.409857
vn -0.331358 0.849835 -0.409857
vn -0.331358 0.849835 -0.409857
vn -0.050733 0.825439 -0.562207
vn -0.050733 0.825439 -0.562207
vn -0.050733 0.825439 -0.562207
vn -0.623387 0.644780 -0.442320
vn -0.623387 0.644780 -0.442320
vn -0.623387 0.644780 -0.442320
vn 0.507810 -0.731094 -0.455665
vn 0.507810 -0.731094 -0.455665
vn 0.507810 -0.731094 -0.455665
vn -0.624214 0.721695 -0.299188
vn -0.624214 0.721695 -0.299188
vn -0.624214 0.721695 -0.299188
vn 0.485414 -0.730149 -0.480891
vn 0.485414 -0.730149 -0.480891
vn 0.485414 -0.730149 -0.480891
vn -0.316602 0.804069 -0.503226
vn -0.316602 0.804069 -0.503226
vn -0.316602 0.804069 -0.503226
vn 0.286871 0.565562 -0.773204
vn 0.286871 0.565562 -0.773204
vn 0.286871 0.565562 -0.773204
vn -0.049492 -0.314962 -0.947813
vn -0.049492 -0.314962 -0.947813
vn -0.049492 -0.314962 -0.947813
vn 0.000709 -0.001050 -0.999999
vn 0.000709 -0.001050 -0.999999
vn 0.000709 -0.001050 -0.999999
vn -0.001134 0.002667 -0.999996
vn -0.001134 0.002667 -0.999996
vn -0.001134 0.002667 -0.999996
vn 0.033801 -0.141286 -0.989392
vn 0.033801 -0.141286 -0.989392
vn 0.033801 -0.141286 -0.989392
vn -0.077387 0.382741 -0.920609
vn -0.077387 0.382741 -0.920609
vn -0.077387 0.382741 -0.920609
vn 0.003962 -0.022175 -0.999746
vn 0.003962 -0.022175 -0.999746
vn 0.003962 -0.022175 -0.999746
vn -0.000574 -0.003147 -0.999995
vn -0.000574 -0.003147 -0.999995
vn -0.000574 -0.003147 -0.999995
vn -0.400271 0.530523 0.747214
vn -0.400271 0.530523 0.747214
vn -0.400271 0.530523 0.747214
vn -0.473256 0.507932 0.719746
vn -0.473256 0.507932 0.719745
vn -0.473256 0.507932 0.719745
vn -0.937749 0.301803 -0.171879
vn -0.937749 0.301803 -0.171879
vn -0.937749 0.301803 -0.171879
vn -0.336262 0.388231 -0.858024
vn -0.336262 0.388231 -0.858024
vn -0.336262 0.388231 -0.858024
vn -0.412812 0.399601 -0.818477
vn -0.412812 0.399601 -0.818477
vn -0.412812 0.399601 -0.818477
vn -0.418332 0.450426 -0.788742
vn -0.418332 0.450426 -0.788742
vn -0.418332 0.450426 -0.788742
vn -0.652997 0.752351 -0.086962
vn -0.652997 0.752351 -0.086962
vn -0.652997 0.752351 -0.086962
vn -0.652997 0.752351 -0.086962
s off
f 1/1/1 2/2/2 3/3/3
f 3/3/4 2/2/5 5/4/6
f 2/2/7 4/5/8 5/4/9
f 5/4/10 4/5/11 6/6/12
f 7/7/13 8/8/14 9/9/15
f 8/8/16 11/10/17 9/9/18
f 8/8/19 10/11/20 11/10/21
f 13/12/22 12/13/23 14/14/24
f 12/13/25 17/15/26 14/14/27
f 2/17/28 20/18/29 4/19/30
f 23/34/31 8/35/32 7/36/33
f 18/42/34 13/43/35 14/44/36
f 17/46/37 18/47/38 14/48/39
f 1/20/40 3/24/41 19/23/42
f 1/20/43 20/18/44 2/17/45
f 3/51/46 5/52/47 22/53/48
f 4/59/49 59/60/50 6/61/51
f 48/67/52 7/68/53 9/69/54
f 40/37/55 8/35/56 23/34/57
f 9/79/58 11/80/59 25/81/60
f 32/82/61 11/80/62 10/84/63
f 26/88/64 12/89/65 13/90/66
f 12/100/67 37/101/68 27/102/69
f 17/15/70 12/13/71 27/16/72
f 1/20/73 19/23/74 28/22/75
f 1/20/76 28/22/77 20/18/78
f 15/55/79 3/51/80 22/53/81
f 21/21/82 4/19/83 20/18/84
f 5/52/85 6/54/86 22/53/87
f 22/53/88 6/54/89 38/56/90
f 24/83/91 9/79/92 25/81/93
f 25/81/94 11/80/95 32/82/96
f 16/92/97 26/88/98 13/90/99
f 26/88/100 37/91/101 12/89/102
f 20/106/103 30/107/104 21/108/105
f 15/111/106 22/112/107 23/113/108
f 22/112/109 38/115/110 40/114/111
f 23/113/112 22/112/113 40/114/114
f 33/116/115 25/117/116 32/118/117
f 25/117/118 33/116/119 26/119/120
f 25/117/121 26/119/122 16/121/123
f 24/123/124 25/117/125 16/121/126
f 35/120/127 37/122/128 26/119/129
f 23/124/130 36/125/131 15/126/132
f 33/116/133 35/120/134 26/119/135
f 34/74/136 24/71/137 16/76/138
f 37/101/139 46/103/140 27/102/141
f 15/126/142 29/129/143 3/131/144
f 66/135/145 8/136/146 40/137/147
f 32/118/148 35/120/149 33/116/150
f 16/92/151 13/90/152 34/93/153
f 17/46/154 27/50/155 44/49/156
f 19/133/157 3/131/158 29/129/159
f 59/57/160 38/56/161 6/54/162
f 10/84/163 62/85/164 32/82/165
f 7/36/166 36/38/167 23/34/168
f 66/135/169 40/137/170 53/139/171
f 49/98/172 46/99/173 37/91/174
f 28/22/175 42/26/176 71/27/177 70/28/178
f 30/65/179 51/63/180 21/64/181
f 48/39/182 36/38/183 7/36/184
f 32/143/185 62/144/186 35/145/187
f 35/145/188 62/144/189 37/146/190
f 31/127/191 29/129/192 15/126/193
f 46/103/194 44/104/195 27/102/196
f 36/125/197 31/127/198 15/126/199
f 8/136/200 66/135/201 10/138/202
f 45/134/203 19/133/204 29/129/205
f 4/59/206 21/64/207 51/63/208
f 37/146/209 62/144/210 49/147/211
f 24/71/212 39/70/213 9/69/214
f 63/45/215 13/43/216 18/42/217
f 38/141/218 52/142/219 53/139/220
f 38/141/221 53/139/222 40/137/223
f 69/86/224 62/85/225 10/84/226
f 45/25/227 28/22/228 19/23/229
f 24/71/230 43/73/231 39/70/232
f 4/59/233 67/62/234 59/60/235
f 48/39/236 41/40/237 36/38/238
f 63/94/239 34/93/240 13/90/241
f 24/71/242 34/74/243 43/73/244
f 48/67/245 9/69/246 39/70/247
f 44/49/248 18/47/249 17/46/250
f 42/26/251 28/22/252 45/25/253
f 31/127/254 36/125/255 47/128/256
f 36/125/257 41/130/258 47/128/259
f 43/73/260 60/72/261 39/70/262
f 4/59/263 51/63/264 67/62/265
f 50/75/266 60/72/267 43/73/268
f 43/148/269 56/149/270 50/150/271
f 34/74/272 56/77/273 43/73/274
f 38/56/275 59/57/276 52/58/277
f 41/40/278 48/39/279 65/41/280
f 48/67/281 39/70/282 60/72/283
f 66/135/284 69/140/285 10/138/286
f 63/94/287 55/95/288 34/93/289
f 44/104/290 46/103/291 64/105/292
f 65/132/293 47/128/294 41/130/295
f 56/77/296 34/74/297 55/78/298
f 58/151/299 31/152/300 53/153/301
f 53/153/302 31/152/303 47/154/304
f 59/157/305 58/151/306 52/155/307
f 58/151/308 53/153/309 52/155/310
f 53/153/311 47/154/312 65/156/313
f 61/158/314 60/159/315 50/160/316
f 61/158/317 50/160/318 54/162/319
f 61/158/320 54/162/321 62/165/322
f 50/160/323 56/167/324 55/164/325
f 50/160/326 55/164/327 54/162/328
f 62/165/329 54/162/330 49/168/331
f 45/25/332 67/29/333 57/30/334 42/26/335
f 68/170/336 31/171/337 58/172/338
f 69/161/339 60/159/340 61/158/341
f 69/86/342 61/87/343 62/85/344
f 63/94/345 54/96/346 55/95/347
f 54/96/348 64/97/349 49/98/350
f 63/94/351 64/97/352 54/96/353
f 64/97/354 46/99/355 49/98/356
f 68/170/357 29/173/358 31/171/359
f 67/29/360 51/33/361 57/30/362
f 68/170/363 58/172/364 59/174/365
f 66/175/366 53/176/367 65/177/368
f 60/159/369 65/166/370 48/169/371
f 64/178/372 18/179/373 44/180/374
f 67/182/375 45/183/376 29/184/377
f 29/184/378 68/185/379 67/182/380
f 67/182/381 68/185/382 59/186/383
f 65/166/384 60/159/385 66/163/386
f 66/163/387 60/159/388 69/161/389
f 63/181/390 18/179/391 64/178/392
f 70/109/393 20/106/394 28/110/395
f 70/109/396 30/107/397 20/106/398
f 30/65/399 72/66/400 51/63/401
f 71/187/402 42/188/403 57/189/404
f 72/190/405 71/187/406 57/189/407
f 72/190/408 57/189/409 51/191/410
f 30/31/411 70/28/412 71/27/413 72/32/414
