# This file uses centimeters as units for non-parametric coordinates.

v -56.560516 57.977390 57.394287
v -29.148474 64.529564 58.855721
v -0.063585 63.483070 57.712654
v 28.415112 60.528862 56.883961
v 55.575668 55.997372 56.264473
v -57.781239 58.966629 28.856287
v -28.870323 65.093155 28.896431
v 0.142656 63.156021 28.146984
v 29.094070 66.420151 28.960382
v 56.395741 59.871414 28.500319
v -58.323387 60.752823 0.242611
v -28.799002 66.101990 0.444383
v 0.374532 67.172333 0.415391
v 28.270668 66.667747 0.308126
v 56.406097 60.571995 0.198039
v -58.116520 62.026142 -29.007444
v -28.140667 60.551853 -28.063164
v 0.114890 62.800289 -28.125109
v 29.105795 66.318932 -28.959606
v 56.240421 59.369858 -28.068855
v -56.693157 56.525505 -57.487988
v -29.261824 56.525505 -58.563450
v -0.066278 60.288334 -57.550014
v 28.195080 59.414982 -57.299633
v 54.952339 53.305912 -55.075108
vt 0.026425 0.023575
vt 0.259901 0.011413
vt 0.262271 0.260737
vt 0.016029 0.261069
vt 0.507625 0.020928
vt 0.509381 0.266974
vt 0.262878 0.497517
vt 0.011412 0.499195
vt 0.750185 0.027821
vt 0.755968 0.260204
vt 0.511356 0.497757
vt 0.268485 0.734758
vt 0.013173 0.742619
vt 0.981520 0.032977
vt 0.988504 0.264034
vt 0.748956 0.498652
vt 0.509146 0.735276
vt 0.258936 0.988587
vt 0.025296 0.979635
vt 0.988592 0.499567
vt 0.756068 0.742218
vt 0.507602 0.980153
vt 0.987182 0.734807
vt 0.748313 0.978069
vt 0.976210 0.959553
vn -0.220263 0.974996 0.029431
vn -0.083956 0.996325 0.016953
vn -0.086662 0.995328 0.042563
vn -0.206253 0.977693 0.039692
vn 0.024437 0.998539 0.048191
vn 0.003883 0.997811 0.066018
vn 0.093601 0.986467 0.134613
vn 0.093252 0.991570 0.089958
vn 0.199626 0.964217 0.174458
vn 0.212020 0.972901 0.092254
vn -0.075726 0.996765 -0.026924
vn -0.127921 0.991697 -0.013171
vn -0.036492 0.999066 -0.023161
vn 0.085475 0.996329 -0.004793
vn 0.226286 0.974046 -0.005368
vn -0.050671 0.990591 -0.127130
vn -0.019395 0.992939 -0.117027
vn -0.065432 0.989377 -0.129811
vn 0.093340 0.987748 -0.125065
vn 0.236945 0.963540 -0.124287
vn -0.037160 0.990369 -0.133371
vn 0.024981 0.986916 -0.159286
vn -0.075567 0.988387 -0.131838
vn 0.089788 0.976629 -0.195278
vn 0.241712 0.942585 -0.230455
s 1
f 1/1/1 2/2/2 7/3/3 6/4/4
f 2/2/2 3/5/5 8/6/6 7/3/3
f 3/5/5 4/9/7 9/10/8 8/6/6
f 4/9/7 5/14/9 10/15/10 9/10/8
f 6/4/4 7/3/3 12/7/11 11/8/12
f 7/3/3 8/6/6 13/11/13 12/7/11
f 8/6/6 9/10/8 14/16/14 13/11/13
f 9/10/8 10/15/10 15/20/15 14/16/14
f 11/8/12 12/7/11 17/12/16 16/13/17
f 12/7/11 13/11/13 18/17/18 17/12/16
f 13/11/13 14/16/14 19/21/19 18/17/18
f 14/16/14 15/20/15 20/23/20 19/21/19
f 16/13/17 17/12/16 22/18/21 21/19/22
f 17/12/16 18/17/18 23/22/23 22/18/21
f 18/17/18 19/21/19 24/24/24 23/22/23
f 19/21/19 20/23/20 25/25/25 24/24/24
