# This file uses centimeters as units for non-parametric coordinates.

v -1.377881 -11.164665 2.556539
v 4.891968 -11.164665 3.330016
v -9.171104 60.770416 37.581253
v -2.706623 -11.164665 0.411978
v 4.483986 -11.164665 -4.356766
v -6.200457 30.740738 20.394707
v -0.876731 37.343979 20.040321
v -2.837944 51.596069 16.873741
v -8.162212 44.992447 17.228127
v 3.292799 -11.164665 -5.495787
v 6.836510 -11.164665 -0.709921
v 31.310272 56.909943 19.148445
v 6.361198 -11.164665 -7.955074
v 9.904766 -11.164665 -3.169394
v 18.470764 44.579697 12.161350
v 19.565201 31.620407 13.939953
v 23.846054 30.105782 9.994793
v 22.751808 43.065262 8.216572
v 2.306437 -11.164665 -6.140566
v 9.085560 -11.164665 -7.718468
v 7.702112 72.081757 -37.581253
v 1.654387 -11.164665 -9.501934
v 8.432770 -11.164665 -11.079884
v 6.279898 63.024139 -25.240135
v 11.894703 61.399460 -26.004791
v 10.683060 50.975037 -29.718018
v 5.068350 52.599716 -28.953552
v -1.266789 -11.164665 -1.243889
v -5.721092 -11.164665 -6.679058
v -18.266678 92.282104 4.288340
v -4.205751 -11.164665 0.812012
v -8.659744 -11.164665 -4.622507
v -8.556175 74.243164 0.858784
v -11.791229 73.810577 -3.863406
v -16.128540 65.213776 -0.828516
v -12.893391 65.647125 3.893661
v 1.834869 -11.164665 -4.582357
v -2.928734 -11.164665 -9.075642
v -22.948837 70.192719 -18.619537
v -0.737691 -11.164665 -1.610768
v -5.501127 -11.164665 -6.103945
v -10.600567 51.350403 -15.846062
v -13.215160 40.086365 -18.735886
v -16.875839 38.005066 -14.268875
v -14.261246 49.269104 -11.379433
v 2.376842 -11.164665 -2.208924
v -0.960249 -11.164665 -8.372021
v 41.594315 43.969727 -19.921303
v 1.415491 -11.164665 0.054462
v 0.734526 -11.164665 -6.734610
v 22.794342 25.522995 -7.854843
v 21.893311 30.209541 -13.110065
v 22.879601 45.230103 -10.589314
v 25.479126 37.429428 -5.406523
v -5.234671 -11.164665 -0.979996
v -6.836557 -11.164665 2.512550
v -41.594315 33.825302 7.074261
v 2.116966 -11.164665 -0.415409
v -2.413368 -11.164665 7.590771
v -30.044746 30.199623 4.402447
v -31.976318 26.224327 10.064888
v -25.905228 29.776382 12.095737
v -23.973274 33.752441 6.432915
v -0.034286 -11.107445 -5.290508
v 3.804302 -11.136818 -5.297756
v 2.907658 123.562622 -10.201263
v -0.042168 -11.192608 -9.128284
v 3.796387 -11.221886 -9.135532
v 0.887710 110.840607 -11.834908
v 0.895578 110.924530 -7.997179
v 4.734182 110.896301 -8.004427
v 4.726315 110.810852 -11.842155
v -1.484013 107.736206 -14.105415
v -1.466489 107.924652 -5.581665
v 7.059097 107.858276 -5.597734
v 7.041550 107.670593 -14.121437
v -1.667869 83.605194 -13.570213
v -1.650357 83.794403 -5.046463
v 6.875229 83.728790 -5.062532
v 6.857681 83.540344 -13.586235
v 0.643820 78.836823 -11.125088
v 0.651705 78.922272 -7.287359
v 4.490280 78.892517 -7.294607
v 4.482412 78.807831 -11.132336
vt 0.823600 0.446479
vt 0.850434 0.480784
vt 0.808627 0.602492
vt 0.847908 0.228768
vt 0.879510 0.228768
vt 0.741095 0.705253
vt 0.636722 0.657590
vt 0.638508 0.623282
vt 0.654469 0.549240
vt 0.553748 0.331529
vt 0.564557 0.331529
vt 0.879534 0.831372
vt 0.915778 0.806598
vt 0.917834 0.846533
vt 0.886232 0.842514
vt 0.793551 0.670472
vt 0.809512 0.744516
vt 0.705138 0.792179
vt 0.877777 0.418455
vt 0.916522 0.418455
vt 0.471343 0.473382
vt 0.498179 0.439074
vt 0.535084 0.765139
vt 0.498840 0.765139
vt 0.382423 0.719890
vt 0.387940 0.652562
vt 0.447140 0.783950
vt 0.409517 0.644692
vt 0.323782 0.430280
vt 0.339247 0.430280
vt 0.850788 0.767902
vt 0.896926 0.628645
vt 0.905888 0.695974
vt 0.963280 0.414233
vt 0.987400 0.414233
vt 0.220432 0.833111
vt 0.238292 0.857974
vt 0.222828 0.870752
vt 0.204966 0.845887
vt 0.375050 0.804559
vt 0.355166 0.826801
vt 0.319949 0.760097
vt 0.542251 0.631700
vt 0.566375 0.631700
vt 0.640215 0.853982
vt 0.631250 0.921310
vt 0.904583 0.794780
vt 0.889117 0.794780
vt 0.965620 0.505168
vt 0.987199 0.513035
vt 0.751135 0.776426
vt 0.779436 0.780399
vt 0.758304 0.840541
vt 0.482661 0.012681
vt 0.497688 0.122337
vt 0.469386 0.113895
vt 0.486344 0.445176
vt 0.452179 0.445176
vt 0.584698 0.856910
vt 0.576744 0.821695
vt 0.593687 0.818303
vt 0.601641 0.853523
vt 0.596092 0.388521
vt 0.614809 0.334362
vt 0.654440 0.444017
vt 0.503920 0.011527
vt 0.520865 0.011527
vt 0.704553 0.342789
vt 0.723270 0.396947
vt 0.661066 0.444003
vt 0.802596 0.011513
vt 0.819540 0.011513
vt 0.500089 0.159602
vt 0.534259 0.159602
vt 0.548418 0.536596
vt 0.520117 0.545036
vt 0.295072 0.455268
vt 0.318873 0.453022
vt 0.277787 0.548986
vt 0.305671 0.011548
vt 0.333065 0.011548
vt 0.382111 0.548971
vt 0.356320 0.408342
vt 0.380121 0.410595
vt 0.337197 0.011533
vt 0.364589 0.011533
vt 0.392224 0.845351
vt 0.369774 0.817117
vt 0.384586 0.806431
vt 0.407038 0.834670
vt 0.243353 0.108521
vt 0.221491 0.153182
vt 0.210715 0.012553
vt 0.273949 0.549994
vt 0.259137 0.549994
vt 0.416021 0.412571
vt 0.437883 0.457229
vt 0.388938 0.550947
vt 0.459810 0.013510
vt 0.474624 0.013510
vt 0.886198 0.110444
vt 0.873020 0.168964
vt 0.823958 0.012553
vt 0.948878 0.435232
vt 0.924867 0.435232
vt 0.724305 0.495478
vt 0.754916 0.328254
vt 0.768094 0.386774
vt 0.812248 0.072801
vt 0.836258 0.072801
vt 0.786545 0.397586
vt 0.343958 0.856319
vt 0.319948 0.832975
vt 0.332914 0.817535
vt 0.356925 0.840880
vt 0.791381 0.400014
vt 0.813895 0.389202
vt 0.791967 0.556425
vt 0.840071 0.133749
vt 0.855050 0.133749
vt 0.553747 0.404546
vt 0.568724 0.404546
vt 0.625499 0.729330
vt 0.602984 0.718518
vt 0.879028 0.823327
vt 0.852540 0.828007
vt 0.818209 0.725656
vt 0.216851 0.727379
vt 0.223205 0.824608
vt 0.183886 0.811102
vt 0.328090 0.815583
vt 0.324658 0.780311
vt 0.316116 0.771804
vt 0.332936 0.803823
vt 0.863254 0.860770
vt 0.787547 0.855646
vt 0.793899 0.758420
vt 0.238238 0.848580
vt 0.250579 0.786722
vt 0.311401 0.882558
vt 0.210713 0.596119
vt 0.222123 0.596119
vt 0.253186 0.596119
vt 0.277070 0.811069
vt 0.297837 0.513199
vt 0.306090 0.513199
vt 0.286661 0.806188
vt 0.273956 0.728150
vt 0.312785 0.765660
vt 0.340310 0.513199
vt 0.716640 0.791281
vt 0.745181 0.801316
vt 0.730107 0.851285
vt 0.571390 0.844254
vt 0.546081 0.762744
vt 0.574623 0.752709
vt 0.169483 0.807190
vt 0.209838 0.830727
vt 0.184241 0.853707
vt 0.166637 0.845384
vt 0.065639 0.904992
vt 0.096239 0.923447
vt 0.017160 0.944482
vt 0.192352 0.710745
vt 0.214647 0.710745
vt 0.408765 0.755232
vt 0.378162 0.773690
vt 0.319948 0.754853
vt 0.540270 0.988590
vt 0.503215 0.988590
vt 0.647651 0.675218
vt 0.665254 0.675218
vt 0.703321 0.869465
vt 0.674780 0.890119
vt 0.954068 0.894368
vt 0.925526 0.873711
vt 0.948234 0.661010
vt 0.988588 0.661010
vt 0.173721 0.647698
vt 0.193069 0.647552
vt 0.183863 0.713357
vt 0.161815 0.632114
vt 0.204788 0.631769
vt 0.160889 0.506749
vt 0.203861 0.506409
vt 0.172491 0.481436
vt 0.191840 0.481282
vt 0.169034 0.013704
vt 0.188383 0.013552
vt 0.034473 0.012016
vt 0.043640 0.078268
vt 0.024291 0.078109
vt 0.055309 0.094582
vt 0.012337 0.094240
vt 0.054382 0.219947
vt 0.011410 0.219605
vt 0.042410 0.244531
vt 0.023063 0.244379
vt 0.038953 0.712263
vt 0.019604 0.712110
vt 0.967726 0.854609
vt 0.967691 0.834667
vt 0.987034 0.834625
vt 0.987071 0.854569
vt 0.076065 0.647552
vt 0.095410 0.647107
vt 0.087137 0.713357
vt 0.063935 0.631769
vt 0.106897 0.630793
vt 0.061236 0.506409
vt 0.104201 0.505430
vt 0.072486 0.481282
vt 0.091831 0.480842
vt 0.062421 0.013552
vt 0.081766 0.013110
vt 0.120591 0.645412
vt 0.139936 0.645847
vt 0.128827 0.711505
vt 0.109147 0.629282
vt 0.152110 0.630262
vt 0.111845 0.503914
vt 0.154808 0.504898
vt 0.124170 0.479142
vt 0.143514 0.479585
vt 0.134234 0.011411
vt 0.153578 0.011853
vn 0.365166 -0.275967 0.889098
vn 0.364127 -0.275201 0.889762
vn 0.601902 -0.449858 0.659804
vn -0.760777 0.623098 0.181571
vn -0.401185 0.308221 -0.862584
vn -0.404023 0.310577 -0.860411
vn 0.368181 -0.153061 -0.917069
vn 0.368181 -0.153061 -0.917069
vn 0.368181 -0.153061 -0.917069
vn 0.368181 -0.153061 -0.917069
vn 0.981742 0.158476 0.105201
vn 0.982455 0.157419 0.100010
vn 0.964945 0.176050 0.194649
vn -0.983485 -0.102157 0.149406
vn -0.982268 -0.099940 0.158627
vn -0.949084 -0.061980 0.308866
vn 0.339130 -0.256783 0.905016
vn 0.339130 -0.256783 0.905016
vn 0.364127 -0.275201 0.889762
vn 0.365166 -0.275967 0.889098
vn 0.984543 0.154014 0.083400
vn 0.984543 0.154014 0.083400
vn 0.982455 0.157419 0.100010
vn 0.981742 0.158476 0.105201
vn -0.404023 0.310577 -0.860411
vn -0.401185 0.308221 -0.862584
vn -0.339107 0.256791 -0.905022
vn -0.339107 0.256791 -0.905022
vn -0.986535 -0.108604 0.122289
vn -0.986535 -0.108604 0.122289
vn -0.982268 -0.099940 0.158627
vn -0.983485 -0.102157 0.149406
vn -0.772203 0.016491 0.635162
vn -0.772767 0.016335 0.634480
vn -0.528851 0.071445 0.845702
vn 0.796845 -0.015652 -0.603980
vn 0.805472 -0.007852 -0.592582
vn 0.805459 -0.007863 -0.592599
vn -0.701865 -0.294785 -0.648449
vn -0.701865 -0.294785 -0.648449
vn -0.701865 -0.294785 -0.648449
vn -0.701865 -0.294785 -0.648449
vn 0.546598 -0.388006 0.742079
vn 0.546439 -0.388326 0.742029
vn 0.539168 -0.402730 0.739667
vn -0.454161 0.547364 -0.702944
vn -0.456180 0.544349 -0.703977
vn -0.331825 0.702394 -0.629711
vn -0.806912 0.006530 0.590635
vn -0.806912 0.006530 0.590635
vn -0.772767 0.016335 0.634480
vn -0.772203 0.016491 0.635162
vn 0.548468 -0.384235 0.742662
vn 0.548468 -0.384235 0.742662
vn 0.546439 -0.388326 0.742029
vn 0.546598 -0.388006 0.742079
vn 0.805459 -0.007863 -0.592599
vn 0.805472 -0.007852 -0.592582
vn 0.806915 -0.006528 -0.590632
vn 0.806915 -0.006528 -0.590632
vn -0.477156 0.511954 -0.714301
vn -0.477156 0.511954 -0.714301
vn -0.456180 0.544349 -0.703977
vn -0.454161 0.547364 -0.702944
vn 0.233684 0.280633 0.930933
vn 0.233164 0.278041 0.931841
vn 0.297750 0.752881 0.586954
vn -0.229143 -0.368081 -0.901116
vn -0.226148 -0.252435 -0.940816
vn -0.226183 -0.253292 -0.940577
vn 0.353919 -0.350060 0.867294
vn 0.353919 -0.350060 0.867294
vn 0.353919 -0.350060 0.867294
vn 0.353919 -0.350060 0.867294
vn 0.971705 -0.029448 -0.234357
vn 0.970527 -0.027509 -0.239417
vn 0.942851 0.009070 -0.333090
vn -0.993189 0.088396 0.075900
vn -0.992944 0.086518 0.081092
vn -0.992039 0.123705 -0.023568
vn 0.225721 0.241690 0.943735
vn 0.225721 0.241690 0.943735
vn 0.233164 0.278041 0.931841
vn 0.233684 0.280633 0.930933
vn 0.975153 -0.035432 -0.218681
vn 0.975153 -0.035432 -0.218681
vn 0.970527 -0.027509 -0.239417
vn 0.971705 -0.029448 -0.234357
vn -0.226183 -0.253292 -0.940577
vn -0.226148 -0.252435 -0.940816
vn -0.225707 -0.241690 -0.943739
vn -0.225707 -0.241690 -0.943739
vn -0.992132 0.081435 0.095091
vn -0.992132 0.081435 0.095091
vn -0.992944 0.086518 0.081092
vn -0.993189 0.088396 0.075900
vn 0.802614 0.103087 -0.587524
vn 0.802814 0.100998 -0.587612
vn 0.703329 0.478518 -0.525689
vn -0.805495 -0.170892 0.567427
vn -0.805635 -0.080104 0.586971
vn -0.805660 -0.080795 0.586842
vn 0.455668 -0.491811 -0.741949
vn 0.455668 -0.491811 -0.741949
vn 0.455668 -0.491811 -0.741949
vn 0.455668 -0.491811 -0.741949
vn -0.621046 0.036967 -0.782902
vn -0.624025 0.039348 -0.780413
vn -0.678162 0.084437 -0.730046
vn 0.524627 0.035585 0.850588
vn 0.527891 0.033256 0.848661
vn 0.460444 0.079809 0.884094
vn 0.805278 0.071414 -0.588581
vn 0.805278 0.071414 -0.588581
vn 0.802814 0.100998 -0.587612
vn 0.802614 0.103087 -0.587524
vn -0.611781 0.029621 -0.790473
vn -0.611781 0.029621 -0.790473
vn -0.624025 0.039348 -0.780413
vn -0.621046 0.036967 -0.782902
vn -0.805660 -0.080795 0.586842
vn -0.805635 -0.080104 0.586971
vn -0.805286 -0.071413 0.588570
vn -0.805286 -0.071413 0.588570
vn 0.536655 0.026966 0.843371
vn 0.536655 0.026966 0.843371
vn 0.527891 0.033256 0.848661
vn 0.524627 0.035585 0.850588
vn 0.652903 0.036240 -0.756574
vn 0.653488 0.035962 -0.756082
vn 0.410292 0.136145 -0.901734
vn -0.681116 -0.029639 0.731575
vn -0.688128 -0.020065 0.725312
vn -0.688118 -0.020079 0.725321
vn 0.775022 -0.479321 0.411816
vn 0.775022 -0.479321 0.411816
vn 0.775022 -0.479321 0.411816
vn 0.775022 -0.479321 0.411816
vn -0.705364 -0.211472 -0.676565
vn -0.705253 -0.211739 -0.676598
vn -0.700164 -0.223742 -0.678019
vn 0.642491 0.341889 0.685796
vn 0.643828 0.339449 0.685755
vn 0.563213 0.469229 0.680158
vn 0.689303 0.018443 -0.724238
vn 0.689303 0.018443 -0.724238
vn 0.653488 0.035962 -0.756082
vn 0.652903 0.036240 -0.756574
vn -0.706678 -0.208319 -0.676173
vn -0.706678 -0.208319 -0.676173
vn -0.705253 -0.211739 -0.676598
vn -0.705364 -0.211472 -0.676565
vn -0.688118 -0.020079 0.725321
vn -0.688128 -0.020065 0.725312
vn -0.689305 -0.018441 0.724237
vn -0.689305 -0.018441 0.724237
vn 0.657798 0.313215 0.684980
vn 0.657798 0.313215 0.684980
vn 0.643828 0.339449 0.685755
vn 0.642491 0.341889 0.685796
vn 0.361532 -0.443585 -0.820078
vn 0.363139 -0.442931 -0.819721
vn -0.068584 -0.559696 -0.825855
vn 0.799169 0.488620 0.350114
vn -0.298817 0.471912 0.829463
vn -0.293903 0.473879 0.830096
vn -0.966096 0.021878 0.257256
vn -0.966096 0.021878 0.257256
vn -0.966096 0.021878 0.257256
vn -0.966096 0.021878 0.257256
vn -0.256378 0.183796 -0.948941
vn -0.262035 0.183912 -0.947372
vn -0.159355 0.180868 -0.970512
vn 0.533264 -0.181502 0.826248
vn 0.543095 -0.181074 0.819915
vn 0.697415 -0.170090 0.696191
vn 0.401055 -0.426960 -0.810469
vn 0.401055 -0.426960 -0.810469
vn 0.363139 -0.442931 -0.819721
vn 0.361532 -0.443585 -0.820078
vn -0.280153 0.184242 -0.942109
vn -0.280153 0.184242 -0.942109
vn -0.262035 0.183912 -0.947372
vn -0.256378 0.183796 -0.948941
vn -0.293903 0.473879 0.830096
vn -0.298817 0.471912 0.829463
vn -0.401068 0.426972 0.810456
vn -0.401068 0.426972 0.810456
vn 0.504195 -0.182610 0.844063
vn 0.504195 -0.182610 0.844063
vn 0.543095 -0.181074 0.819915
vn 0.533264 -0.181502 0.826248
vn -0.686967 -0.437712 -0.580073
vn -0.687926 -0.436620 -0.579760
vn -0.362095 -0.700312 -0.615183
vn -0.626469 0.722172 0.293266
vn 0.643423 0.479052 0.597089
vn 0.640059 0.482229 0.598147
vn 0.894215 -0.161696 0.417414
vn 0.894215 -0.161696 0.417414
vn 0.894215 -0.161696 0.417414
vn 0.894215 -0.161696 0.417414
vn -0.412136 -0.340300 0.845187
vn -0.406566 -0.341201 0.847518
vn -0.504277 -0.323081 0.800827
vn 0.112236 0.369446 -0.922449
vn 0.100454 0.369856 -0.923643
vn -0.098012 0.368973 -0.924258
vn -0.710093 -0.410577 -0.572010
vn -0.710093 -0.410577 -0.572010
vn -0.687926 -0.436620 -0.579760
vn -0.686967 -0.437712 -0.580073
vn -0.388582 -0.344007 0.854789
vn -0.388582 -0.344007 0.854789
vn -0.406566 -0.341201 0.847518
vn -0.412136 -0.340300 0.845187
vn 0.640059 0.482229 0.598147
vn 0.643423 0.479052 0.597089
vn 0.710080 0.410567 0.572033
vn 0.710080 0.410567 0.572033
vn 0.146561 0.367951 -0.918222
vn 0.146561 0.367951 -0.918222
vn 0.100454 0.369856 -0.923643
vn 0.112236 0.369446 -0.922449
vn 0.003170 0.171324 0.985210
vn 0.003170 0.171324 0.985210
vn 0.003170 0.171324 0.985210
vn -0.000893 0.127504 -0.991838
vn -0.000893 0.127504 -0.991838
vn -0.000893 0.127504 -0.991838
vn -0.007618 -0.999725 0.022176
vn -0.007618 -0.999725 0.022176
vn -0.007618 -0.999725 0.022176
vn -0.007618 -0.999725 0.022176
vn 0.989876 0.141839 -0.005172
vn 0.989876 0.141839 -0.005172
vn 0.989876 0.141839 -0.005172
vn -0.987599 0.156989 -0.001456
vn -0.987599 0.156989 -0.001456
vn -0.987599 0.156989 -0.001456
vn -0.790376 0.612506 -0.011958
vn -0.790376 0.612506 -0.011958
vn -0.790376 0.612506 -0.011958
vn -0.790376 0.612506 -0.011958
vn 0.006255 0.624033 0.781373
vn 0.006255 0.624033 0.781373
vn 0.006255 0.624033 0.781373
vn 0.006255 0.624033 0.781373
vn 0.799619 0.600322 -0.014952
vn 0.799619 0.600322 -0.014952
vn 0.799619 0.600322 -0.014952
vn 0.799619 0.600322 -0.014952
vn 0.002987 0.588796 -0.808276
vn 0.002987 0.588796 -0.808276
vn 0.002987 0.588796 -0.808276
vn 0.002987 0.588796 -0.808276
vn -0.999969 0.007661 0.001886
vn -0.999969 0.007661 0.001886
vn -0.999969 0.007661 0.001886
vn -0.999969 0.007661 0.001886
vn 0.002055 0.022159 0.999752
vn 0.002055 0.022159 0.999752
vn 0.002055 0.022159 0.999752
vn 0.002055 0.022159 0.999752
vn 0.999969 -0.007661 -0.001888
vn 0.999969 -0.007661 -0.001888
vn 0.999969 -0.007661 -0.001888
vn 0.999969 -0.007661 -0.001888
vn -0.002055 -0.022159 -0.999752
vn -0.002055 -0.022159 -0.999752
vn -0.002055 -0.022159 -0.999752
vn -0.002055 -0.022159 -0.999752
vn -0.902057 -0.431467 0.011420
vn -0.902057 -0.431467 0.011420
vn -0.902057 -0.431467 0.011420
vn -0.902057 -0.431467 0.011420
vn -0.001493 -0.418441 0.908243
vn -0.001493 -0.418441 0.908243
vn -0.001493 -0.418441 0.908243
vn -0.001493 -0.418441 0.908243
vn 0.895374 -0.445243 0.008028
vn 0.895374 -0.445243 0.008028
vn 0.895374 -0.445243 0.008028
vn 0.895374 -0.445243 0.008028
vn -0.005187 -0.458271 -0.888797
vn -0.005187 -0.458271 -0.888797
vn -0.005187 -0.458271 -0.888797
vn -0.005187 -0.458271 -0.888797
vn -0.999969 0.007661 0.001884
vn -0.999969 0.007661 0.001884
vn -0.999969 0.007661 0.001884
vn -0.999969 0.007661 0.001884
vn 0.002055 0.022159 0.999752
vn 0.002055 0.022159 0.999752
vn 0.002055 0.022159 0.999752
vn 0.002055 0.022159 0.999752
vn 0.999969 -0.007661 -0.001892
vn 0.999969 -0.007661 -0.001892
vn 0.999969 -0.007661 -0.001892
vn 0.999969 -0.007661 -0.001892
vn -0.002055 -0.022159 -0.999752
vn -0.002055 -0.022159 -0.999752
vn -0.002055 -0.022159 -0.999752
vn -0.002055 -0.022159 -0.999752
s off
f 6/1/1 7/2/2 3/3/3
f 3/6/4 8/7/5 9/8/6
f 4/12/7 5/13/8 2/14/9 1/15/10
f 7/16/11 8/17/12 3/18/13
f 9/8/14 6/9/15 3/6/16
f 1/4/17 2/5/18 7/2/19 6/1/20
f 2/19/21 5/20/22 8/17/23 7/16/24
f 9/21/25 8/22/26 5/23/27 4/24/28
f 4/10/29 1/11/30 6/9/31 9/8/32
f 15/25/33 16/26/34 12/27/35
f 12/31/36 17/32/37 18/33/38
f 13/36/39 14/37/40 11/38/41 10/39/42
f 16/26/43 17/28/44 12/27/45
f 18/40/46 15/41/47 12/42/48
f 10/43/49 11/44/50 16/45/51 15/46/52
f 11/29/53 14/30/54 17/28/55 16/26/56
f 18/33/57 17/32/58 14/34/59 13/35/60
f 13/47/61 10/48/62 15/49/63 18/50/64
f 24/51/65 25/52/66 21/53/67
f 21/54/68 26/55/69 27/56/70
f 22/59/71 23/60/72 20/61/73 19/62/74
f 25/63/75 26/64/76 21/65/77
f 27/68/78 24/69/79 21/70/80
f 19/73/81 20/74/82 25/75/83 24/76/84
f 20/66/85 23/67/86 26/64/87 25/63/88
f 27/56/89 26/55/90 23/57/91 22/58/92
f 22/71/93 19/72/94 24/69/95 27/68/96
f 33/77/97 34/78/98 30/79/99
f 30/82/100 35/83/101 36/84/102
f 31/87/103 32/88/104 29/89/105 28/90/106
f 34/91/107 35/92/108 30/93/109
f 36/96/110 33/97/111 30/98/112
f 28/80/113 29/81/114 34/78/115 33/77/116
f 29/94/117 32/95/118 35/92/119 34/91/120
f 36/84/121 35/83/122 32/85/123 31/86/124
f 31/99/125 28/100/126 33/97/127 36/96/128
f 42/101/129 43/102/130 39/103/131
f 39/106/132 44/107/133 45/108/134
f 40/112/135 41/113/136 38/114/137 37/115/138
f 43/116/139 44/117/140 39/118/141
f 45/108/142 42/111/143 39/106/144
f 37/104/145 38/105/146 43/102/147 42/101/148
f 38/119/149 41/120/150 44/117/151 43/116/152
f 45/108/153 44/107/154 41/109/155 40/110/156
f 40/121/157 37/122/158 42/123/159 45/124/160
f 51/125/161 52/126/162 48/127/163
f 48/128/164 53/129/165 54/130/166
f 49/131/167 50/132/168 47/133/169 46/134/170
f 52/135/171 53/136/172 48/137/173
f 54/138/174 51/139/175 48/140/176
f 46/142/177 47/143/178 52/144/179 51/139/180
f 47/145/181 50/146/182 53/147/183 52/148/184
f 54/149/185 53/147/186 50/146/187 49/150/188
f 49/141/189 46/142/190 51/139/191 54/138/192
f 60/151/193 61/152/194 57/153/195
f 57/154/196 62/155/197 63/156/198
f 58/157/199 59/158/200 56/159/201 55/160/202
f 61/161/203 62/162/204 57/163/205
f 63/166/206 60/167/207 57/168/208
f 55/171/209 56/172/210 61/173/211 60/174/212
f 56/164/213 59/165/214 62/162/215 61/161/216
f 63/175/217 62/176/218 59/177/219 58/178/220
f 58/169/221 55/170/222 60/167/223 63/166/224
f 70/179/225 71/180/226 66/181/227
f 66/190/228 72/191/229 69/192/230
f 67/201/231 68/202/232 65/203/233 64/204/234
f 71/205/235 72/206/236 66/207/237
f 69/216/238 70/217/239 66/218/240
f 73/219/241 74/220/242 70/217/243 69/216/244
f 74/182/245 75/183/246 71/180/247 70/179/248
f 75/208/249 76/209/250 72/206/251 71/205/252
f 69/192/253 72/191/254 76/193/255 73/194/256
f 77/221/257 78/222/258 74/220/259 73/219/260
f 78/184/261 79/185/262 75/183/263 74/182/264
f 79/210/265 80/211/266 76/209/267 75/208/268
f 73/194/269 76/193/270 80/195/271 77/196/272
f 81/223/273 82/224/274 78/222/275 77/221/276
f 82/186/277 83/187/278 79/185/279 78/184/280
f 83/212/281 84/213/282 80/211/283 79/210/284
f 77/196/285 80/195/286 84/197/287 81/198/288
f 67/225/289 64/226/290 82/224/291 81/223/292
f 64/188/293 65/189/294 83/187/295 82/186/296
f 65/214/297 68/215/298 84/213/299 83/212/300
f 81/198/301 84/197/302 68/199/303 67/200/304
