# This file uses centimeters as units for non-parametric coordinates.

v 6.631184 0.000000 -3.826284
v 0.000000 0.000000 7.652569
v 62.973022 12.260056 36.356354
v 0.000000 0.000000 0.000000
v 43.241119 15.090942 5.014229
v 31.489944 18.628311 18.178558
v 25.964355 15.090942 34.938812
v 25.516510 10.655785 -0.641930
v 15.741920 14.191437 9.089279
v 12.200737 10.655785 22.416687
v 56.647491 15.059090 18.145752
v 47.225952 18.595123 27.268219
v 44.049072 15.059090 39.992523
v -6.631184 0.000000 -3.826284
v 0.000000 12.260056 -72.718811
v -17.270660 15.090942 -39.952850
v 0.000000 18.628311 -36.357117
v 17.270660 15.090942 -39.952850
v -13.315964 10.655785 -21.774673
v 0.000000 14.191437 -18.178558
v 13.315964 10.655785 -21.774673
v -12.609863 15.059090 -58.139038
v 0.000000 18.595123 -54.536438
v 12.609863 15.059090 -58.139038
v -66.378784 12.260056 28.363037
v -29.774857 15.090942 33.969879
v -32.025909 18.628311 16.465759
v -41.078949 15.090942 1.321220
v -12.455940 10.655785 22.816086
v -15.446091 14.191437 9.377861
v -24.855804 10.655785 -0.756860
v -48.474884 15.059090 35.508728
v -49.202728 18.595123 22.414780
v -56.733704 15.059090 11.673546
v 6.114864 0.393224 3.526640
v -6.220818 0.170934 3.498173
v 0.000000 17.202377 67.086792
v -0.031993 0.320566 -0.009911
v 15.938187 21.083069 36.862946
v 0.000000 25.932312 33.547211
v -15.939331 21.083069 36.862183
v 12.285995 15.001297 20.095444
v 0.000000 19.849777 16.773605
v -12.360954 14.835739 20.066833
v 11.634827 21.038437 53.631592
v -0.000298 25.888062 50.320435
v -11.634827 21.038437 53.642273
v -0.073209 0.234088 -7.086658
v 58.097076 17.202377 -33.546448
v 23.958588 21.083069 -32.231903
v 29.046249 25.932312 -16.773605
v 39.897156 21.083069 -4.630852
v 11.255646 15.001297 -20.682144
v 14.529228 19.849777 -8.383751
v 23.541641 15.001297 0.592208
v 40.634155 21.038437 -36.895752
v 43.581390 25.888062 -25.157166
v 52.275085 21.038437 -16.742325
v -56.861115 9.687996 -34.147644
v -40.190125 17.107010 -6.273842
v -29.988480 22.114182 -18.917084
v -23.740005 17.841721 -33.740234
v -24.164581 13.112831 0.023043
v -15.288734 18.068314 -9.109497
v -11.430550 14.025307 -21.115875
v -51.776886 15.504074 -17.928696
v -43.731689 20.549011 -26.834106
v -40.006256 15.509033 -38.053131
v 2.722836 0.230849 4.534149
v -5.294228 0.230849 0.090384
v -24.363708 22.447205 43.952179
v 0.000000 0.230849 0.000000
v -2.950573 27.576065 29.940033
v -12.182236 33.985901 21.976471
v -23.825836 27.576065 18.367386
v 0.747061 19.537735 17.613220
v -6.091118 25.947571 10.985184
v -15.345383 19.537735 8.703232
v -11.853600 27.518845 39.367676
v -18.273163 33.927917 32.967377
v -27.098465 27.518845 30.916214
v 2.565336 0.230849 -4.624462
v 45.224762 21.919632 2.910614
v 27.495193 27.576065 -12.692261
v 22.963333 33.985901 -1.376128
v 23.330307 27.576065 10.813904
v 15.890884 19.537735 -10.821152
v 12.593460 25.947571 -1.927805
v 14.232063 19.537735 7.507038
v 36.874390 27.518845 -7.760048
v 32.904053 33.927917 0.381571
v 33.832550 27.518845 9.403419
v -25.885391 22.447205 -43.076324
v -24.456787 27.576065 -17.523575
v -12.939835 33.985901 -21.541595
v -3.989983 27.576065 -29.820633
v -15.641975 19.537735 -8.157730
v -6.466770 25.947571 -10.767746
v 0.148207 19.537735 -17.654419
v -28.164673 27.518845 -29.950333
v -19.412613 33.927917 -32.302856
v -13.223648 27.518845 -38.930511
vt 0.147972 0.053794
vt 0.090948 0.116274
vt 0.034138 0.011850
vt 0.230056 0.142703
vt 0.147766 0.220628
vt 0.011411 0.137343
vt 0.265411 0.260241
vt 0.204584 0.325060
vt 0.043000 0.257271
vt 0.285316 0.385477
vt 0.261399 0.429453
vt 0.121274 0.348542
vt 0.397511 0.341147
vt 0.375031 0.429453
vt 0.213565 0.429453
vt 0.511140 0.314925
vt 0.488664 0.429453
vt 0.285316 0.473428
vt 0.397511 0.517758
vt 0.202780 0.531881
vt 0.118779 0.512055
vt 0.624820 0.345829
vt 0.602300 0.429453
vt 0.511140 0.543981
vt 0.266132 0.594283
vt 0.158474 0.641833
vt 0.049056 0.626903
vt 0.715954 0.429453
vt 0.624820 0.513076
vt 0.253139 0.701864
vt 0.121288 0.755737
vt 0.039436 0.750911
vt 0.188428 0.805680
vt 0.084103 0.869641
vt 0.895084 0.100634
vt 0.822353 0.122593
vt 0.822355 0.011409
vt 0.921982 0.211837
vt 0.822355 0.233823
vt 0.749627 0.100564
vt 0.899153 0.323029
vt 0.822355 0.345057
vt 0.722721 0.211841
vt 0.745088 0.323220
vt 0.777240 0.842986
vt 0.777689 0.883745
vt 0.655616 0.883534
vt 0.685923 0.802063
vt 0.686959 0.965505
vt 0.778629 0.924785
vt 0.987728 0.421278
vt 0.914353 0.401733
vt 0.966791 0.305471
vt 0.958575 0.531861
vt 0.861948 0.498123
vt 0.861754 0.344083
vt 0.886380 0.616101
vt 0.809503 0.594392
vt 0.786045 0.426167
vt 0.753398 0.534629
vt 0.141786 0.886413
vt 0.142328 0.839485
vt 0.264403 0.895015
vt 0.234096 0.976572
vt 0.958283 0.832261
vt 0.988590 0.892026
vt 0.866516 0.988589
vt 0.866969 0.947826
vt 0.685388 0.760368
vt 0.741056 0.707014
vt 0.786770 0.794083
vt 0.612535 0.683527
vt 0.691565 0.615879
vt 0.811183 0.682311
vt 0.573174 0.577256
vt 0.630260 0.518397
vt 0.784224 0.574441
vt 0.705311 0.492810
vt 0.011411 0.854734
vt 0.012346 0.813694
vt 0.123285 0.914867
vt 0.092308 0.973729
vt 0.525177 0.844417
vt 0.550449 0.924037
vt 0.439510 0.984381
vt 0.438967 0.937451
vt 0.280857 0.891258
vt 0.320919 0.933830
vt 0.249154 0.974218
vt 0.801167 0.758859
vt 0.839239 0.831704
vt 0.784073 0.845305
vt 0.877313 0.904588
vt 0.804529 0.928523
vt 0.935018 0.851780
vt 0.879367 0.789261
vt 0.878379 0.696396
vt 0.919809 0.738904
vt 0.851104 0.792209
vt 0.801326 0.749702
vt 0.960136 0.568363
vt 0.988477 0.568363
vt 0.279830 0.547419
vt 0.352613 0.504913
vt 0.390688 0.558217
vt 0.332840 0.600722
vt 0.428763 0.728762
vt 0.395669 0.728762
vt 0.622616 0.936550
vt 0.571725 0.979052
vt 0.555917 0.899419
vt 0.570812 0.667736
vt 0.586620 0.749441
vt 0.530224 0.743286
vt 0.597606 0.815367
vt 0.521409 0.812931
vt 0.668343 0.785312
vt 0.637511 0.723113
vt 0.601057 0.884131
vt 0.542078 0.873267
vt 0.656647 0.862266
vt 0.249543 0.718874
vt 0.278450 0.718874
vt 0.266400 0.889415
vt 0.210809 0.846907
vt 0.325376 0.846907
vt 0.306793 0.718874
vt 0.322011 0.892976
vt 0.376719 0.908576
vt 0.336258 0.980018
vt 0.345188 0.810569
vt 0.417179 0.837213
vt 0.415405 0.952528
vt 0.473123 0.892114
vt 0.673702 0.957748
vt 0.601933 0.914821
vt 0.641999 0.873781
vt 0.469140 0.696418
vt 0.526494 0.738925
vt 0.486031 0.792231
vt 0.414040 0.749723
vt 0.533823 0.568384
vt 0.566917 0.568384
vt 0.456648 0.786311
vt 0.404897 0.828819
vt 0.337552 0.775513
vt 0.380598 0.733006
vt 0.270243 0.604972
vt 0.299150 0.604972
vn 0.365166 0.930800 0.016269
vn 0.365166 0.930800 0.016269
vn 0.365166 0.930800 0.016269
vn 0.196672 0.930800 0.308108
vn 0.196672 0.930800 0.308108
vn 0.196672 0.930800 0.308108
vn -0.084452 0.926852 -0.365804
vn -0.084452 0.926852 -0.365804
vn -0.084452 0.926852 -0.365804
vn -0.084452 0.926852 -0.365804
vn -0.359022 0.926852 0.109764
vn -0.359022 0.926852 0.109764
vn -0.359022 0.926852 0.109764
vn -0.359022 0.926852 0.109764
vn -0.324666 0.742175 -0.586317
vn -0.324666 0.742175 -0.586317
vn -0.324666 0.742175 -0.586317
vn -0.324666 0.742175 -0.586317
vn -0.670099 0.742175 0.011989
vn -0.670099 0.742175 0.011989
vn -0.670099 0.742175 0.011989
vn -0.670099 0.742175 0.011989
vn 0.137936 0.974276 -0.178216
vn 0.137936 0.974276 -0.178216
vn 0.137936 0.974276 -0.178216
vn 0.137936 0.974276 -0.178216
vn -0.085372 0.974276 0.208564
vn -0.085372 0.974276 0.208564
vn -0.085372 0.974276 0.208564
vn -0.085372 0.974276 0.208564
vn -0.168493 0.930800 -0.324377
vn -0.168493 0.930800 -0.324377
vn -0.168493 0.930800 -0.324377
vn 0.168493 0.930800 -0.324377
vn 0.168493 0.930800 -0.324377
vn 0.168493 0.930800 -0.324377
vn -0.274569 0.926852 0.256040
vn -0.274569 0.926852 0.256040
vn -0.274569 0.926852 0.256040
vn -0.274569 0.926852 0.256040
vn 0.274569 0.926852 0.256040
vn 0.274569 0.926852 0.256040
vn 0.274569 0.926852 0.256040
vn 0.274569 0.926852 0.256040
vn -0.345433 0.742175 0.574328
vn -0.345432 0.742175 0.574328
vn -0.345432 0.742175 0.574328
vn -0.345433 0.742175 0.574328
vn 0.345433 0.742175 0.574328
vn 0.345432 0.742175 0.574328
vn 0.345432 0.742175 0.574328
vn 0.345433 0.742175 0.574328
vn -0.223307 0.974276 -0.030348
vn -0.223307 0.974276 -0.030348
vn -0.223307 0.974276 -0.030348
vn -0.223307 0.974276 -0.030348
vn 0.223307 0.974276 -0.030348
vn 0.223307 0.974276 -0.030348
vn 0.223307 0.974276 -0.030348
vn 0.223307 0.974276 -0.030348
vn -0.251365 0.930800 0.265379
vn -0.251365 0.930800 0.265379
vn -0.251365 0.930800 0.265379
vn -0.361658 0.930800 -0.053048
vn -0.361658 0.930800 -0.053048
vn -0.361658 0.930800 -0.053048
vn 0.328420 0.931340 0.157306
vn 0.328420 0.931340 0.157306
vn 0.328420 0.931340 0.157306
vn 0.328420 0.931340 0.157306
vn 0.146829 0.919552 -0.364506
vn 0.146829 0.919552 -0.364506
vn 0.146829 0.919552 -0.364506
vn 0.146829 0.919552 -0.364506
vn 0.677964 0.734596 0.027092
vn 0.677964 0.734596 0.027092
vn 0.677964 0.734596 0.027092
vn 0.677964 0.734596 0.027092
vn 0.336982 0.745018 -0.575666
vn 0.336982 0.745018 -0.575666
vn 0.336982 0.745018 -0.575666
vn 0.336982 0.745018 -0.575666
vn 0.044410 0.974276 0.220941
vn 0.044410 0.974276 0.220941
vn 0.044410 0.974276 0.220941
vn 0.044410 0.974276 0.220941
vn -0.101763 0.974276 -0.201076
vn -0.101763 0.974276 -0.201076
vn -0.101763 0.974276 -0.201076
vn -0.101763 0.974276 -0.201076
vn 0.232347 0.863681 0.447292
vn 0.232347 0.863681 0.447292
vn 0.232347 0.863681 0.447292
vn -0.232347 0.863681 0.447292
vn -0.232347 0.863681 0.447292
vn -0.232347 0.863681 0.447292
vn 0.377176 0.856755 -0.351723
vn 0.377176 0.856755 -0.351723
vn 0.377176 0.856755 -0.351723
vn 0.377176 0.856755 -0.351723
vn -0.380555 0.854217 -0.354249
vn -0.380555 0.854217 -0.354249
vn -0.380555 0.854217 -0.354249
vn -0.380555 0.854217 -0.354249
vn 0.411077 0.597650 -0.688353
vn 0.411077 0.597650 -0.688353
vn 0.411077 0.597650 -0.688353
vn 0.411077 0.597650 -0.688353
vn -0.417599 0.595094 -0.686640
vn -0.417599 0.595094 -0.686640
vn -0.417599 0.595094 -0.686640
vn -0.417599 0.595094 -0.686640
vn 0.322117 0.945687 0.043784
vn 0.322117 0.945687 0.043784
vn 0.322117 0.945687 0.043784
vn 0.322117 0.945687 0.043784
vn -0.322115 0.945687 0.043785
vn -0.322115 0.945687 0.043785
vn -0.322115 0.945687 0.043785
vn -0.322115 0.945687 0.043785
vn 0.271193 0.863681 -0.424864
vn 0.271193 0.863681 -0.424864
vn 0.271193 0.863681 -0.424864
vn 0.503540 0.863681 -0.022427
vn 0.503540 0.863681 -0.022427
vn 0.503540 0.863681 -0.022427
vn -0.493189 0.856755 -0.150783
vn -0.493189 0.856755 -0.150783
vn -0.493189 0.856755 -0.150783
vn -0.493189 0.856755 -0.150783
vn -0.116013 0.856755 0.502505
vn -0.116013 0.856755 0.502505
vn -0.116013 0.856755 0.502505
vn -0.116013 0.856755 0.502505
vn -0.802635 0.596284 -0.014916
vn -0.802635 0.596284 -0.014916
vn -0.802635 0.596284 -0.014916
vn -0.802635 0.596284 -0.014916
vn -0.390101 0.597621 0.700479
vn -0.390101 0.597621 0.700479
vn -0.390101 0.597621 0.700479
vn -0.390101 0.597621 0.700479
vn -0.123140 0.945687 -0.300853
vn -0.123140 0.945687 -0.300853
vn -0.123140 0.945687 -0.300853
vn -0.123140 0.945687 -0.300853
vn 0.198977 0.945687 0.257069
vn 0.198977 0.945687 0.257069
vn 0.198977 0.945687 0.257069
vn 0.198977 0.945687 0.257069
vn -0.602435 0.792475 -0.095161
vn -0.602435 0.792475 -0.095161
vn -0.602435 0.792475 -0.095161
vn -0.383879 0.788128 -0.481136
vn -0.383879 0.788128 -0.481136
vn -0.383879 0.788128 -0.481136
vn 0.013552 0.904687 0.425860
vn 0.013552 0.904687 0.425860
vn 0.013552 0.904687 0.425860
vn 0.013552 0.904687 0.425860
vn 0.381750 0.913693 -0.139401
vn 0.381750 0.913693 -0.139401
vn 0.381750 0.913693 -0.139401
vn 0.381750 0.913693 -0.139401
vn 0.346216 0.651195 0.675337
vn 0.346216 0.651195 0.675337
vn 0.346216 0.651195 0.675337
vn 0.346216 0.651195 0.675337
vn 0.760042 0.649773 0.011419
vn 0.760042 0.649774 0.011419
vn 0.760042 0.649773 0.011419
vn 0.760042 0.649774 0.011419
vn -0.275722 0.939190 0.204692
vn -0.275722 0.939190 0.204692
vn -0.275722 0.939190 0.204692
vn -0.275722 0.939190 0.204692
vn 0.012885 0.943123 -0.332193
vn 0.012885 0.943123 -0.332193
vn 0.012885 0.943123 -0.332193
vn 0.012885 0.943123 -0.332193
vn -0.019406 0.696679 0.717121
vn -0.019406 0.696679 0.717121
vn -0.019406 0.696679 0.717120
vn -0.597852 0.696679 0.396499
vn -0.597852 0.696679 0.396499
vn -0.597852 0.696679 0.396499
vn 0.706593 0.685340 -0.176169
vn 0.706593 0.685340 -0.176169
vn 0.706593 0.685340 -0.176169
vn 0.706593 0.685339 -0.176169
vn -0.224999 0.685492 -0.692443
vn -0.224999 0.685492 -0.692443
vn -0.224999 0.685492 -0.692443
vn -0.224999 0.685492 -0.692443
vn 0.798027 0.389050 -0.460209
vn 0.798027 0.389050 -0.460209
vn 0.798027 0.389050 -0.460209
vn 0.798027 0.389050 -0.460209
vn -0.032573 0.389053 -0.920639
vn -0.032573 0.389053 -0.920639
vn -0.032573 0.389053 -0.920639
vn -0.032573 0.389053 -0.920639
vn 0.415583 0.855020 0.310212
vn 0.415583 0.855020 0.310212
vn 0.415583 0.855020 0.310212
vn 0.415583 0.855020 0.310212
vn -0.483308 0.855020 -0.188026
vn -0.483308 0.855020 -0.188026
vn -0.483308 0.855020 -0.188026
vn -0.483308 0.855020 -0.188026
vn 0.704856 0.682476 -0.193402
vn 0.704856 0.682476 -0.193402
vn 0.704856 0.682476 -0.193402
vn 0.583559 0.689004 0.429805
vn 0.583559 0.689004 0.429806
vn 0.583559 0.689004 0.429805
vn -0.497991 0.631950 -0.593838
vn -0.497991 0.631950 -0.593838
vn -0.497991 0.631950 -0.593838
vn -0.497991 0.631950 -0.593838
vn -0.621936 0.646953 0.441188
vn -0.621937 0.646953 0.441188
vn -0.621937 0.646953 0.441188
vn -0.621937 0.646953 0.441188
vn -0.782315 0.358433 -0.509420
vn -0.782315 0.358433 -0.509420
vn -0.782315 0.358433 -0.509420
vn -0.782315 0.358433 -0.509420
vn -0.796052 0.415966 0.439629
vn -0.796052 0.415966 0.439629
vn -0.796052 0.415966 0.439629
vn -0.796052 0.415966 0.439628
vn 0.174106 0.855656 -0.487381
vn 0.174106 0.855656 -0.487381
vn 0.174106 0.855656 -0.487381
vn 0.174106 0.855656 -0.487381
vn -0.004074 0.855656 0.517529
vn -0.004074 0.855656 0.517529
vn -0.004074 0.855656 0.517529
vn -0.004074 0.855656 0.517529
vn -0.611341 0.696679 -0.375367
vn -0.611341 0.696679 -0.375367
vn -0.611341 0.696679 -0.375367
vn -0.044453 0.696679 -0.716004
vn -0.044453 0.696679 -0.716004
vn -0.044453 0.696679 -0.716004
vn -0.200666 0.685492 0.699882
vn -0.200666 0.685492 0.699882
vn -0.200666 0.685492 0.699882
vn -0.200666 0.685492 0.699882
vn 0.712040 0.685631 0.151360
vn 0.712040 0.685631 0.151360
vn 0.712040 0.685631 0.151360
vn 0.712040 0.685631 0.151360
vn -0.000383 0.389053 0.921215
vn -0.000383 0.389053 0.921215
vn -0.000383 0.389053 0.921215
vn -0.000383 0.389053 0.921215
vn 0.813559 0.389055 0.432155
vn 0.813559 0.389055 0.432155
vn 0.813559 0.389055 0.432155
vn 0.813559 0.389055 0.432155
vn -0.476443 0.855020 0.204800
vn -0.476443 0.855020 0.204800
vn -0.476443 0.855020 0.204800
vn -0.476443 0.855020 0.204800
vn 0.404491 0.855020 -0.324544
vn 0.404490 0.855020 -0.324544
vn 0.404490 0.855020 -0.324544
vn 0.404490 0.855020 -0.324544
s off
f 11/1/1 12/2/2 3/3/3
f 3/3/4 12/2/5 13/6/6
f 8/7/7 9/8/8 6/5/9 5/4/10
f 7/9/11 6/5/12 9/8/13 10/12/14
f 1/10/15 4/11/16 9/8/17 8/7/18
f 10/12/19 9/8/20 4/11/21 2/15/22
f 5/4/23 6/5/24 12/2/25 11/1/26
f 13/6/27 12/2/28 6/5/29 7/9/30
f 22/29/31 23/23/32 15/28/33
f 15/28/34 23/23/35 24/22/36
f 19/19/37 20/14/38 17/17/39 16/24/40
f 18/16/41 17/17/42 20/14/43 21/13/44
f 14/18/45 4/11/46 20/14/47 19/19/48
f 21/13/49 20/14/50 4/11/51 1/10/52
f 16/24/53 17/17/54 23/23/55 22/29/56
f 24/22/57 23/23/58 17/17/59 18/16/60
f 32/32/61 33/31/62 25/34/63
f 25/34/64 33/31/65 34/33/66
f 29/21/67 30/20/68 27/26/69 26/27/70
f 28/30/71 27/26/72 30/20/73 31/25/74
f 2/15/75 4/11/76 30/20/77 29/21/78
f 31/25/79 30/20/80 4/11/81 14/18/82
f 26/27/83 27/26/84 33/31/85 32/32/86
f 34/33/87 33/31/88 27/26/89 28/30/90
f 45/35/91 46/36/92 37/37/93
f 37/37/94 46/36/95 47/40/96
f 42/41/97 43/42/98 40/39/99 39/38/100
f 41/43/101 40/39/102 43/42/103 44/44/104
f 35/45/105 38/46/106 43/47/107 42/48/108
f 44/49/109 43/47/110 38/46/111 36/50/112
f 39/38/113 40/39/114 46/36/115 45/35/116
f 47/40/117 46/36/118 40/39/119 41/43/120
f 56/51/121 57/52/122 49/53/123
f 49/53/124 57/52/125 58/56/126
f 53/57/127 54/58/128 51/55/129 50/54/130
f 52/59/131 51/55/132 54/58/133 55/60/134
f 48/61/135 38/62/136 54/63/137 53/64/138
f 55/65/139 54/66/140 38/67/141 35/68/142
f 50/54/143 51/55/144 57/52/145 56/51/146
f 58/56/147 57/52/148 51/55/149 52/59/150
f 66/69/151 67/70/152 59/71/153
f 59/71/154 67/70/155 68/74/156
f 63/75/157 64/76/158 61/73/159 60/72/160
f 62/77/161 61/73/162 64/76/163 65/78/164
f 36/79/165 38/80/166 64/81/167 63/82/168
f 65/83/169 64/84/170 38/85/171 48/86/172
f 60/72/173 61/73/174 67/70/175 66/69/176
f 68/74/177 67/70/178 61/73/179 62/77/180
f 79/87/181 80/88/182 71/89/183
f 71/90/184 80/91/185 81/92/186
f 76/97/187 77/98/188 74/99/189 73/100/190
f 75/103/191 74/104/192 77/105/193 78/106/194
f 69/101/195 72/102/196 77/98/197 76/97/198
f 78/106/199 77/105/200 72/107/201 70/108/202
f 73/95/203 74/93/204 80/91/205 79/96/206
f 81/92/207 80/91/208 74/93/209 75/94/210
f 90/109/211 91/110/212 83/111/213
f 83/112/214 91/113/215 92/114/216
f 87/121/217 88/119/218 85/115/219 84/117/220
f 86/116/221 85/115/222 88/119/223 89/120/224
f 82/122/225 72/123/226 88/124/227 87/125/228
f 89/126/229 88/124/230 72/123/231 69/127/232
f 84/117/233 85/115/234 91/113/235 90/118/236
f 92/114/237 91/113/238 85/115/239 86/116/240
f 100/128/241 101/129/242 93/130/243
f 93/135/244 101/136/245 102/137/246
f 97/138/247 98/139/248 95/140/249 94/141/250
f 96/144/251 95/145/252 98/146/253 99/147/254
f 70/142/255 72/143/256 98/139/257 97/138/258
f 99/147/259 98/146/260 72/148/261 82/149/262
f 94/131/263 95/132/264 101/129/265 100/128/266
f 102/133/267 101/129/268 95/132/269 96/134/270
