# This file uses centimeters as units for non-parametric coordinates.

v -9.688950 0.000000 35.578537
v 28.210068 0.000000 23.221970
v 34.376526 0.000000 6.759262
v 20.871735 0.000000 -28.476334
v 0.040436 0.000000 -37.191772
v -20.674515 0.000000 -29.737091
v -34.447479 0.000000 6.896210
v -25.711441 0.000000 24.013138
v -9.510040 8.005543 38.536453
v 30.272293 8.005543 25.332260
v 37.355804 8.005543 6.641006
v 23.020935 8.005543 -30.519104
v 0.793839 6.074670 -37.892532
v -22.398376 8.005543 -32.108688
v -37.356186 8.005543 7.397461
v -27.767563 8.005543 26.138306
v -9.683609 8.699480 36.550903
v 28.901672 8.699480 23.905945
v 35.348892 8.699480 6.753922
v 21.555710 8.699480 -29.167938
v 0.026321 6.273270 -35.824966
v -21.244431 8.699480 -30.525589
v -35.405350 8.699480 7.063675
v -26.395035 8.699480 24.704361
v -10.586548 6.273270 34.012222
v 27.325439 6.273270 21.957779
v 0.243378 2.187131 0.939941
v 32.695389 6.273270 7.332993
v 19.394302 6.273270 -27.687073
v -19.802475 6.273270 -28.601074
v -32.925034 6.273270 6.669998
v -24.733353 6.273270 22.780609
v -31.554031 6.273270 -11.117173
v -33.512115 8.699480 -11.918259
v -35.182571 8.005543 -12.563705
v -32.672119 0.000000 -11.598969
v 13.739777 6.273270 32.168961
v 14.601898 8.699480 34.062958
v 15.318680 8.005543 35.699463
v 14.244843 0.000000 33.238220
v 31.665802 6.273270 -11.973953
v 33.643723 8.699480 -12.828445
v 35.305786 8.005543 -13.518906
v 32.812881 0.000000 -12.486267
v -5.829239 9.796679 -36.725616
v -6.209946 9.085634 -38.536072
v 6.902313 9.251477 -37.348557
v 6.809998 9.965148 -35.438919
vt 0.904023 0.157685
vt 0.826250 0.168118
vt 0.826250 0.032449
vt 0.904023 0.012416
vt 0.826250 0.400629
vt 0.904023 0.398890
vt 0.826250 0.556285
vt 0.904023 0.576258
vt 0.910812 0.535524
vt 0.910812 0.375593
vt 0.988591 0.374445
vt 0.988591 0.556026
vt 0.910812 0.188628
vt 0.988591 0.178594
vt 0.910812 0.033288
vt 0.988591 0.013444
vt 0.781598 0.568228
vt 0.781598 0.770589
vt 0.691723 0.703935
vt 0.703830 0.547350
vt 0.722584 0.763279
vt 0.693334 0.831315
vt 0.781598 0.971830
vt 0.703830 0.988585
vt 0.819461 0.387390
vt 0.741687 0.378019
vt 0.741687 0.198342
vt 0.819461 0.193472
vt 0.741687 0.554225
vt 0.819461 0.577265
vt 0.741687 0.032056
vt 0.819461 0.011411
vt 0.271475 0.055849
vt 0.507803 0.073758
vt 0.376686 0.377139
vt 0.639785 0.172957
vt 0.134040 0.164962
vt 0.516177 0.055358
vt 0.655098 0.154032
vt 0.691952 0.315031
vt 0.117898 0.146277
vt 0.280247 0.031185
vt 0.054459 0.321472
vt 0.523141 0.039460
vt 0.668412 0.140172
vt 0.681949 0.502596
vt 0.104563 0.132343
vt 0.281933 0.011901
vt 0.030363 0.317646
vt 0.067778 0.494270
vt 0.737229 0.321752
vt 0.717730 0.320656
vt 0.562733 0.655246
vt 0.011411 0.314408
vt 0.181943 0.664120
vt 0.717313 0.517603
vt 0.701166 0.510893
vt 0.583732 0.669631
vt 0.374578 0.734304
vt 0.048756 0.502053
vt 0.032528 0.508323
vt 0.167935 0.682817
vt 0.597965 0.682754
vt 0.156725 0.698201
vt 0.441376 0.749100
vt 0.440479 0.730552
vt 0.317691 0.743052
vt 0.313992 0.760641
vt 0.382034 0.754388
vt 0.034982 0.522499
vt 0.034982 0.689127
vt 0.011411 0.683502
vt 0.011411 0.541425
vt 0.034982 0.879364
vt 0.011411 0.871064
vt 0.963207 0.552612
vt 0.975502 0.695863
vt 0.939636 0.761763
vt 0.939636 0.573610
vt 0.040238 0.531827
vt 0.074468 0.588713
vt 0.063809 0.738468
vt 0.040238 0.724460
vt 0.826254 0.574301
vt 0.849822 0.566517
vt 0.849822 0.750924
vt 0.826254 0.747098
vt 0.910809 0.776676
vt 0.910809 0.540748
vt 0.934383 0.549120
vt 0.934383 0.785448
vn 0.544396 -0.327179 0.772390
vn 0.544396 -0.327179 0.772390
vn 0.544396 -0.327179 0.772390
vn 0.544396 -0.327179 0.772390
vn 0.886331 -0.320653 0.334066
vn 0.886331 -0.320653 0.334066
vn 0.886331 -0.320653 0.334066
vn 0.886331 -0.320653 0.334066
vn 0.761392 -0.328114 -0.559127
vn 0.761392 -0.328114 -0.559127
vn 0.761392 -0.328114 -0.559127
vn 0.761392 -0.328114 -0.559127
vn 0.361173 -0.301077 -0.882557
vn 0.361173 -0.301077 -0.882557
vn 0.361173 -0.301077 -0.882557
vn 0.361173 -0.301077 -0.882557
vn -0.322070 -0.342170 -0.882718
vn -0.322070 -0.342169 -0.882718
vn -0.322070 -0.342170 -0.882718
vn -0.322070 -0.342170 -0.882718
vn -0.941923 -0.321599 -0.096723
vn -0.941923 -0.321599 -0.096723
vn -0.941923 -0.321599 -0.096723
vn -0.941923 -0.321599 -0.096723
vn -0.840261 -0.331008 0.429412
vn -0.840261 -0.331008 0.429412
vn -0.840261 -0.331008 0.429412
vn -0.840261 -0.331008 0.429412
vn -0.544506 -0.311123 0.778920
vn -0.544506 -0.311123 0.778920
vn -0.544506 -0.311123 0.778920
vn -0.544506 -0.311123 0.778920
vn -0.009526 0.992025 -0.125684
vn -0.009526 0.992025 -0.125684
vn -0.009526 0.992025 -0.125684
vn -0.116512 0.992267 -0.042782
vn -0.116512 0.992267 -0.042782
vn -0.116512 0.992267 -0.042782
vn -0.126222 0.991979 0.006731
vn -0.126222 0.991979 0.006731
vn -0.126222 0.991979 0.006731
vn -0.046474 0.992776 0.110617
vn -0.046474 0.992776 0.110617
vn -0.046474 0.992776 0.110617
vn 0.040122 0.993106 0.110136
vn 0.040122 0.993106 0.110136
vn 0.040122 0.993106 0.110136
vn 0.123885 0.992251 0.009549
vn 0.123885 0.992251 0.009549
vn 0.123885 0.992251 0.009549
vn 0.112346 0.992026 -0.057122
vn 0.112346 0.992026 -0.057122
vn 0.112346 0.992026 -0.057122
vn 0.077254 0.992252 -0.097302
vn 0.077254 0.992252 -0.097302
vn 0.077254 0.992252 -0.097302
vn 0.201428 0.936480 0.287110
vn 0.201428 0.936480 0.287110
vn 0.201428 0.936480 0.287110
vn 0.201428 0.936480 0.287110
vn 0.334584 0.933864 0.126302
vn 0.334584 0.933864 0.126302
vn 0.334584 0.933864 0.126302
vn 0.334584 0.933864 0.126302
vn 0.281591 0.937192 -0.205858
vn 0.281591 0.937192 -0.205858
vn 0.281591 0.937192 -0.205858
vn 0.281592 0.937192 -0.205858
vn 0.204701 0.930463 -0.303869
vn 0.204701 0.930463 -0.303869
vn 0.204701 0.930463 -0.303869
vn 0.204701 0.930463 -0.303869
vn -0.185513 0.934728 -0.303099
vn -0.185513 0.934728 -0.303099
vn -0.185513 0.934728 -0.303099
vn -0.185513 0.934728 -0.303099
vn -0.354845 0.934190 -0.037057
vn -0.354845 0.934190 -0.037057
vn -0.354845 0.934190 -0.037057
vn -0.354845 0.934190 -0.037057
vn -0.308059 0.938242 0.157484
vn -0.308059 0.938242 0.157484
vn -0.308059 0.938242 0.157484
vn -0.308059 0.938242 0.157484
vn -0.210403 0.929318 0.303477
vn -0.210403 0.929318 0.303477
vn -0.210403 0.929318 0.303477
vn -0.210403 0.929318 0.303477
vn -0.430689 0.683268 -0.589620
vn -0.430689 0.683268 -0.589620
vn -0.430689 0.683268 -0.589620
vn -0.430689 0.683268 -0.589620
vn -0.691329 0.675251 -0.257099
vn -0.691329 0.675251 -0.257099
vn -0.691329 0.675252 -0.257099
vn -0.691329 0.675251 -0.257099
vn -0.571398 0.696371 0.434249
vn -0.571398 0.696371 0.434249
vn -0.571398 0.696371 0.434249
vn -0.571398 0.696371 0.434249
vn -0.300140 0.575019 0.761097
vn -0.300140 0.575019 0.761097
vn -0.300140 0.575019 0.761097
vn -0.300140 0.575019 0.761097
vn 0.252673 0.650178 0.716537
vn 0.252673 0.650178 0.716536
vn 0.252673 0.650178 0.716536
vn 0.252673 0.650178 0.716537
vn 0.733583 0.676472 0.065125
vn 0.733583 0.676472 0.065125
vn 0.733583 0.676472 0.065125
vn 0.733583 0.676472 0.065125
vn 0.637150 0.698993 -0.324728
vn 0.637150 0.698993 -0.324728
vn 0.637150 0.698993 -0.324728
vn 0.637150 0.698993 -0.324728
vn 0.460776 0.638796 -0.616137
vn 0.460776 0.638796 -0.616137
vn 0.460776 0.638796 -0.616137
vn 0.460776 0.638796 -0.616137
vn 0.620491 0.666681 0.412950
vn 0.620491 0.666681 0.412950
vn 0.620491 0.666681 0.412950
vn 0.620491 0.666681 0.412950
vn -0.301830 0.932534 -0.198191
vn -0.301830 0.932534 -0.198191
vn -0.301830 0.932534 -0.198191
vn -0.301830 0.932534 -0.198191
vn -0.792122 -0.318062 -0.520941
vn -0.792122 -0.318062 -0.520941
vn -0.792122 -0.318062 -0.520941
vn -0.792122 -0.318062 -0.520941
vn 0.101630 0.992474 0.068311
vn 0.101630 0.992474 0.068311
vn 0.101630 0.992474 0.068311
vn -0.064585 0.685752 -0.724964
vn -0.064585 0.685752 -0.724964
vn -0.064585 0.685752 -0.724964
vn -0.064585 0.685752 -0.724964
vn 0.037880 0.936203 0.349411
vn 0.037880 0.936203 0.349411
vn 0.037880 0.936203 0.349411
vn 0.037880 0.936203 0.349411
vn 0.099812 -0.325990 0.940089
vn 0.099812 -0.325990 0.940089
vn 0.099812 -0.325990 0.940089
vn 0.099812 -0.325990 0.940089
vn -0.073668 0.992455 -0.098015
vn -0.073668 0.992455 -0.098015
vn -0.073668 0.992455 -0.098015
vn -0.715100 0.697211 0.050287
vn -0.715100 0.697211 0.050287
vn -0.715100 0.697211 0.050287
vn -0.715100 0.697211 0.050287
vn 0.347340 0.937165 -0.032820
vn 0.347340 0.937165 -0.032820
vn 0.347340 0.937165 -0.032820
vn 0.347340 0.937165 -0.032820
vn 0.940826 -0.327725 -0.086277
vn 0.940826 -0.327725 -0.086277
vn 0.940826 -0.327725 -0.086277
vn 0.940826 -0.327725 -0.086277
vn -0.097691 0.992289 0.076288
vn -0.097691 0.992289 0.076288
vn -0.097691 0.992289 0.076288
vn 0.462242 0.872469 -0.158523
vn 0.462242 0.872469 -0.158523
vn 0.462242 0.872469 -0.158524
vn 0.462242 0.872469 -0.158523
vn 0.040006 -0.119371 -0.992043
vn 0.040006 -0.119371 -0.992043
vn 0.040006 -0.119371 -0.992043
vn 0.155646 -0.132266 -0.978918
vn 0.155646 -0.132266 -0.978918
vn 0.155646 -0.132266 -0.978918
vn -0.433642 0.853317 -0.289489
vn -0.433642 0.853317 -0.289489
vn -0.433642 0.853317 -0.289489
vn -0.433642 0.853317 -0.289489
s off
f 39/1/1 40/2/2 2/3/3 10/4/4
f 2/9/5 3/10/6 11/11/7 10/12/8
f 43/14/9 44/13/10 4/15/11 12/16/12
f 4/17/13 5/18/14 47/19/15 12/20/16
f 5/18/17 6/23/18 14/24/19 46/22/20
f 35/25/21 36/26/22 7/27/23 15/28/24
f 7/27/25 8/31/26 16/32/27 15/28/28
f 8/7/29 1/5/30 9/6/31 16/8/32
f 25/33/33 37/34/34 27/35/35
f 26/36/36 28/40/37 27/35/38
f 28/40/39 41/46/40 27/35/41
f 29/53/42 21/59/43 27/35/44
f 21/59/45 30/55/46 27/35/47
f 27/35/48 33/50/49 31/43/50
f 31/43/51 32/37/52 27/35/53
f 32/37/54 25/33/55 27/35/56
f 38/38/57 39/44/58 10/45/59 18/39/60
f 10/45/61 11/51/62 19/52/63 18/39/64
f 42/57/65 43/56/66 12/63/67 20/58/68
f 12/63/69 47/65/70 48/66/71 20/58/72
f 45/67/73 46/68/74 14/64/75 22/62/76
f 34/60/77 35/61/78 15/54/79 23/49/80
f 15/54/81 16/47/82 24/41/83 23/49/84
f 16/47/85 9/48/86 17/42/87 24/41/88
f 37/34/89 38/38/90 18/39/91 26/36/92
f 18/70/93 19/71/94 28/72/95 26/73/96
f 41/46/97 42/57/98 20/58/99 29/53/100
f 20/76/101 48/77/102 21/78/103 29/79/104
f 21/80/105 45/81/106 22/82/107 30/83/108
f 33/84/109 34/85/110 23/86/111 31/87/112
f 23/49/113 24/41/114 32/37/115 31/43/116
f 24/41/117 17/42/118 25/33/119 32/37/120
f 22/62/121 34/60/122 33/50/123 30/55/124
f 14/64/125 35/61/126 34/60/127 22/62/128
f 6/29/129 36/26/130 35/25/131 14/30/132
f 30/55/133 33/50/134 27/35/135
f 17/88/136 38/89/137 37/90/138 25/91/139
f 9/48/140 39/44/141 38/38/142 17/42/143
f 1/5/144 40/2/145 39/1/146 9/6/147
f 27/35/148 37/34/149 26/36/150
f 19/71/151 42/74/152 41/75/153 28/72/154
f 11/51/155 43/56/156 42/57/157 19/52/158
f 3/10/159 44/13/160 43/14/161 11/11/162
f 27/35/163 41/46/164 29/53/165
f 13/69/166 46/68/167 45/67/168 21/59/169
f 5/18/170 46/22/171 13/21/172
f 47/19/173 5/18/174 13/21/175
f 48/66/176 47/65/177 13/69/178 21/59/179
