# This file uses centimeters as units for non-parametric coordinates.

v -130.588425 0.000000 4.532966
v -119.836388 0.000000 4.532966
v -130.872742 106.756279 3.807036
v -120.264999 108.500420 5.211922
v -130.159821 106.778648 -7.977997
v -119.552071 108.522781 -6.573112
v -130.588425 0.000000 -7.299041
v -119.836388 0.000000 -7.299041
v -124.588097 107.659119 -11.703065
v -125.836708 107.619934 8.936988
v -125.212402 0.000000 8.978124
v -125.212402 0.000000 -11.744199
v -148.914322 63.986977 2.112383
v -148.318268 54.159184 2.117774
v 147.345901 63.893204 2.112035
v 149.049301 54.252995 2.117466
v 147.345901 63.893204 -3.361468
v 149.049301 54.252995 -3.366899
v -148.914322 63.986977 -3.361817
v -148.318268 54.159184 -3.367204
v 148.176468 59.172234 -5.623188
v 148.176468 59.172234 4.373756
v -148.624954 59.174606 4.374411
v -148.624954 59.174606 -5.623844
v -76.755569 54.842499 -5.520131
v -76.892853 49.522690 -4.102945
v -76.632652 48.631168 1.288119
v -76.256256 53.216278 4.303149
v -76.123894 58.335094 2.847808
v -76.382645 59.225365 -2.532451
v -43.332645 49.687504 -10.934343
v -43.403763 44.236801 -10.184929
v -43.310116 42.687351 -4.942048
v -43.146191 46.862286 -1.381023
v -43.076862 52.118183 -2.193105
v -43.169670 53.665127 -7.425411
v 34.473236 54.086296 -5.622235
v 34.545444 49.139675 -3.162716
v 34.490475 49.361126 2.316072
v 34.363659 54.489746 4.364441
v 34.293350 59.231766 1.907866
v 34.347950 59.010815 -3.560156
v 118.940826 0.000000 9.229772
v 129.692902 0.000000 9.229772
v 121.995178 108.236420 7.987072
v 131.867645 103.290405 7.987072
v 121.995178 108.236420 -2.956237
v 131.867645 103.290405 -2.956237
v 118.940826 0.000000 -2.602235
v 129.692902 0.000000 -2.602235
v 126.931435 105.763435 -7.067517
v 126.931435 105.763435 12.098353
v 124.316864 0.000000 13.674930
v 124.316864 0.000000 -7.047393
v -140.592789 92.171829 2.113125
v -143.258392 82.654694 2.117810
v 142.275513 90.576675 2.112747
v 141.219803 80.825394 2.114933
v 142.190353 90.581863 -3.358953
v 141.133667 80.830765 -3.367531
v -140.527451 92.153732 -3.361928
v -143.192612 82.636490 -3.367853
v 141.632828 85.809486 -5.621307
v 141.804108 85.798920 4.371935
v -141.931244 87.520927 4.375190
v -141.800125 87.484627 -5.624603
v 15.154335 83.509583 1.027718
v 15.163114 77.991699 1.354100
v 15.172057 76.051315 6.483413
v 15.171952 79.972244 10.377457
v 15.163614 85.300728 9.973797
v 15.154942 87.237259 4.854448
v -125.013794 25.577154 -9.031045
v -119.211433 25.577154 -6.687825
v -117.402977 25.577154 5.005161
v -122.156197 25.577154 9.445579
v -128.028732 25.577154 6.648543
v -129.837173 25.577154 -5.044444
v -119.836388 67.015930 4.532966
v -125.212402 67.015930 8.194715
v -130.588425 67.015930 4.532966
v -130.588425 67.015930 -7.299041
v -125.212402 67.015930 -10.501583
v -119.836388 67.015930 -7.299041
v 126.684738 57.380119 -10.307051
v 131.298965 57.380119 -6.080121
v 128.897720 57.380119 5.505666
v 122.890442 57.380119 8.000184
v 118.369400 57.380119 3.323603
v 120.770645 57.380119 -8.262185
v 124.188515 95.662148 -10.501583
v 129.564545 95.662148 -7.299041
v 129.564545 95.662148 4.532966
v 124.188515 95.662148 8.194715
v 118.812492 95.662148 4.532966
v 118.812492 95.662148 -7.299041
vt 0.613051 0.098398
vt 0.596180 0.098398
vt 0.585333 0.014785
vt 0.604414 0.014785
vt 0.604414 0.233864
vt 0.585333 0.233864
vt 0.566252 0.014785
vt 0.575337 0.098398
vt 0.583117 0.366601
vt 0.602892 0.369480
vt 0.566252 0.233864
vt 0.565242 0.363777
vt 0.932491 0.172817
vt 0.928059 0.105345
vt 0.947835 0.117522
vt 0.950366 0.156047
vt 0.910185 0.122115
vt 0.912715 0.160640
vt 0.538330 0.369062
vt 0.539035 0.285447
vt 0.559629 0.285447
vt 0.557411 0.369062
vt 0.521915 0.285447
vt 0.519249 0.369062
vt 0.538330 0.149983
vt 0.557411 0.149983
vt 0.519249 0.149983
vt 0.540546 0.017116
vt 0.558420 0.014295
vt 0.520770 0.019995
vt 0.969509 0.122046
vt 0.969509 0.054304
vt 0.988590 0.068835
vt 0.988590 0.107515
vt 0.950428 0.068835
vt 0.950428 0.107515
vt 0.471833 0.014785
vt 0.513828 0.014785
vt 0.511658 0.098398
vt 0.470156 0.098398
vt 0.513828 0.233864
vt 0.471833 0.233864
vt 0.511251 0.369553
vt 0.469424 0.369480
vt 0.788032 0.014785
vt 0.830027 0.014785
vt 0.837536 0.098398
vt 0.796034 0.098398
vt 0.830027 0.233864
vt 0.788032 0.233864
vt 0.827451 0.363777
vt 0.785622 0.363850
vt 0.109162 0.752296
vt 0.125436 0.751065
vt 0.146584 0.987643
vt 0.128783 0.986641
vt 0.088065 0.643363
vt 0.102884 0.642826
vt 0.163664 0.988589
vt 0.143604 0.750633
vt 0.111753 0.389028
vt 0.129956 0.389443
vt 0.121538 0.642600
vt 0.146576 0.017382
vt 0.129116 0.014529
vt 0.146787 0.389672
vt 0.163332 0.020097
vt 0.969804 0.239225
vt 0.969804 0.271906
vt 0.952345 0.264529
vt 0.952345 0.246600
vt 0.986562 0.264512
vt 0.986562 0.246619
vt 0.028494 0.987137
vt 0.043871 0.752188
vt 0.062753 0.752638
vt 0.046295 0.986133
vt 0.028315 0.750970
vt 0.011411 0.988082
vt 0.062164 0.642927
vt 0.081513 0.643162
vt 0.048048 0.642397
vt 0.046554 0.388578
vt 0.064109 0.388340
vt 0.029074 0.388986
vt 0.028503 0.016874
vt 0.045961 0.014018
vt 0.011745 0.019587
vt 0.945233 0.209219
vt 0.945233 0.241904
vt 0.927431 0.234526
vt 0.927431 0.216596
vt 0.962313 0.234509
vt 0.962313 0.216614
vt 0.212220 0.985969
vt 0.192752 0.985969
vt 0.190140 0.752475
vt 0.209274 0.751624
vt 0.168553 0.642998
vt 0.187161 0.642691
vt 0.193477 0.388177
vt 0.212923 0.388356
vt 0.192753 0.013857
vt 0.212218 0.013857
vt 0.240418 0.983032
vt 0.220988 0.983032
vt 0.218378 0.745074
vt 0.237475 0.745920
vt 0.236271 0.637041
vt 0.254842 0.637345
vt 0.221714 0.384114
vt 0.241122 0.383935
vt 0.220990 0.014537
vt 0.240416 0.014537
vt 0.706093 0.202363
vt 0.684772 0.202363
vt 0.689835 0.014784
vt 0.708916 0.014784
vt 0.708460 0.327509
vt 0.689379 0.327509
vt 0.670753 0.014784
vt 0.668725 0.202363
vt 0.699114 0.360531
vt 0.716635 0.352446
vt 0.670298 0.327509
vt 0.681594 0.368615
vt 0.969865 0.212384
vt 0.969865 0.149731
vt 0.987385 0.163171
vt 0.987385 0.198944
vt 0.952344 0.163171
vt 0.952344 0.198944
vt 0.636521 0.369043
vt 0.644925 0.181463
vt 0.661302 0.181463
vt 0.655602 0.369043
vt 0.623933 0.181463
vt 0.617439 0.369043
vt 0.636065 0.056318
vt 0.655146 0.056318
vt 0.616984 0.056318
vt 0.645800 0.023296
vt 0.663320 0.031379
vt 0.628279 0.015210
vt 0.929267 0.079154
vt 0.929267 0.011411
vt 0.948348 0.025942
vt 0.948348 0.064622
vt 0.910185 0.025942
vt 0.910185 0.064622
vt 0.845029 0.014784
vt 0.887024 0.014784
vt 0.899367 0.202363
vt 0.858247 0.202363
vt 0.903695 0.327509
vt 0.861700 0.327509
vt 0.888280 0.352446
vt 0.849440 0.352446
vt 0.740555 0.014784
vt 0.782551 0.014784
vt 0.761588 0.202363
vt 0.720466 0.202363
vt 0.765880 0.327509
vt 0.723885 0.327509
vt 0.778140 0.368615
vt 0.739299 0.368615
vt 0.262454 0.429171
vt 0.276372 0.429171
vt 0.303164 0.942751
vt 0.285892 0.947090
vt 0.297052 0.015204
vt 0.279399 0.017114
vt 0.319671 0.938375
vt 0.295284 0.429198
vt 0.314010 0.013662
vt 0.927876 0.241566
vt 0.927838 0.274234
vt 0.910185 0.266857
vt 0.910206 0.248934
vt 0.944796 0.266849
vt 0.944815 0.248963
vt 0.338436 0.942720
vt 0.352545 0.429624
vt 0.372127 0.429594
vt 0.355641 0.947270
vt 0.339313 0.429624
vt 0.321862 0.938557
vt 0.344378 0.016159
vt 0.362050 0.017792
vt 0.327441 0.014333
vt 0.927521 0.178274
vt 0.927392 0.210964
vt 0.910184 0.203587
vt 0.910249 0.185653
vt 0.943964 0.203567
vt 0.944029 0.185669
vt 0.396908 0.942262
vt 0.377437 0.942047
vt 0.394197 0.424373
vt 0.412403 0.424343
vt 0.377438 0.012567
vt 0.396898 0.012286
vt 0.465013 0.939132
vt 0.445580 0.939345
vt 0.417681 0.430168
vt 0.435851 0.430197
vt 0.445582 0.014633
vt 0.465002 0.014910
vn 0.487039 -0.077383 0.869945
vn 0.487039 -0.077383 0.869945
vn 0.487039 -0.077384 0.869945
vn 0.487039 -0.077383 0.869945
vn -0.161216 0.986851 -0.011636
vn -0.161216 0.986851 -0.011636
vn -0.161216 0.986851 -0.011636
vn -0.161216 0.986851 -0.011636
vn 0.487039 -0.077383 -0.869945
vn 0.487039 -0.077383 -0.869945
vn 0.487039 -0.077383 -0.869945
vn 0.487039 -0.077383 -0.869945
vn 0.000000 -1.000000 0.000000
vn 0.000000 -1.000000 0.000000
vn 0.000000 -1.000000 0.000000
vn 0.000000 -1.000000 0.000000
vn 0.987612 -0.156917 0.000000
vn 0.987612 -0.156917 0.000000
vn 0.987612 -0.156917 0.000000
vn 0.987612 -0.156917 0.000000
vn -0.987612 0.156917 0.000000
vn -0.987612 0.156917 0.000000
vn -0.987612 0.156917 0.000000
vn -0.987612 0.156917 0.000000
vn -0.161216 0.986851 -0.011636
vn -0.161216 0.986851 -0.011636
vn -0.161216 0.986851 -0.011636
vn -0.161216 0.986851 -0.011636
vn -0.487039 0.077383 0.869945
vn -0.487040 0.077383 0.869945
vn -0.487039 0.077383 0.869945
vn -0.487040 0.077383 0.869945
vn 0.000000 -1.000000 0.000000
vn 0.000000 -1.000000 0.000000
vn 0.000000 -1.000000 0.000000
vn 0.000000 -1.000000 0.000000
vn -0.487039 0.077383 -0.869945
vn -0.487039 0.077383 -0.869945
vn -0.487039 0.077383 -0.869945
vn -0.487039 0.077383 -0.869945
vn -0.025412 -0.354337 0.934773
vn -0.025412 -0.354337 0.934773
vn -0.025412 -0.354337 0.934773
vn -0.025412 -0.354337 0.934773
vn 0.976624 0.214955 0.000000
vn 0.976624 0.214955 0.000000
vn 0.976624 0.214955 0.000000
vn 0.976624 0.214955 0.000000
vn -0.025412 -0.354336 -0.934773
vn -0.025412 -0.354336 -0.934773
vn -0.025412 -0.354336 -0.934773
vn -0.025412 -0.354336 -0.934773
vn -0.994810 -0.101752 0.000000
vn -0.994810 -0.101752 0.000000
vn -0.994810 -0.101752 0.000000
vn -0.994810 -0.101752 0.000000
vn -0.071926 -0.997410 0.000001
vn -0.071926 -0.997410 0.000001
vn -0.071926 -0.997410 0.000001
vn -0.071926 -0.997410 0.000001
vn 0.070406 0.997518 -0.000001
vn 0.070406 0.997518 -0.000001
vn 0.070406 0.997518 -0.000001
vn 0.070406 0.997518 -0.000001
vn 0.976623 0.214961 0.000000
vn 0.976623 0.214961 0.000000
vn 0.976623 0.214961 0.000000
vn 0.976623 0.214961 0.000000
vn 0.026271 0.370268 0.928554
vn 0.026271 0.370268 0.928554
vn 0.026271 0.370268 0.928554
vn 0.026271 0.370268 0.928554
vn -0.994811 -0.101745 0.000000
vn -0.994811 -0.101745 0.000000
vn -0.994811 -0.101745 0.000000
vn -0.994811 -0.101745 0.000000
vn 0.026271 0.370268 -0.928553
vn 0.026271 0.370268 -0.928553
vn 0.026271 0.370268 -0.928553
vn 0.026271 0.370268 -0.928553
vn -0.285342 -0.337527 -0.897026
vn -0.285342 -0.337527 -0.897026
vn -0.285342 -0.337527 -0.897026
vn -0.285342 -0.337527 -0.897026
vn -0.322447 -0.946587 0.000000
vn -0.322447 -0.946587 0.000000
vn -0.322447 -0.946587 0.000000
vn -0.322447 -0.946587 0.000000
vn 0.057697 -0.351581 0.934378
vn 0.057697 -0.351581 0.934378
vn 0.057697 -0.351581 0.934378
vn 0.057697 -0.351581 0.934378
vn 0.289074 0.352340 0.890108
vn 0.289074 0.352340 0.890108
vn 0.289074 0.352340 0.890108
vn 0.289074 0.352340 0.890108
vn 0.322447 0.946587 -0.000001
vn 0.322447 0.946587 -0.000001
vn 0.322447 0.946587 -0.000001
vn 0.322447 0.946587 -0.000001
vn -0.051150 0.367571 -0.928588
vn -0.051150 0.367572 -0.928588
vn -0.051150 0.367571 -0.928588
vn -0.051150 0.367572 -0.928588
vn 0.107270 -0.350136 -0.930536
vn 0.107270 -0.350136 -0.930536
vn 0.107270 -0.350136 -0.930536
vn 0.107270 -0.350136 -0.930536
vn 0.124355 -0.992238 0.000000
vn 0.124355 -0.992238 0.000000
vn 0.124355 -0.992238 0.000000
vn 0.124355 -0.992238 0.000000
vn -0.019616 -0.352100 0.935757
vn -0.019616 -0.352100 0.935757
vn -0.019616 -0.352100 0.935757
vn -0.019616 -0.352100 0.935757
vn -0.108816 0.365869 0.924283
vn -0.108816 0.365869 0.924283
vn -0.108816 0.365868 0.924283
vn -0.108816 0.365869 0.924283
vn -0.124355 0.992238 0.000000
vn -0.124355 0.992238 0.000000
vn -0.124355 0.992238 0.000000
vn -0.124355 0.992238 0.000000
vn 0.017208 0.367999 -0.929667
vn 0.017208 0.367999 -0.929667
vn 0.017208 0.367999 -0.929667
vn 0.017208 0.367999 -0.929667
vn 0.015422 -0.355841 -0.934419
vn 0.015422 -0.355841 -0.934419
vn 0.015422 -0.355841 -0.934419
vn 0.015422 -0.355841 -0.934419
vn 0.043698 -0.999045 0.000000
vn 0.043698 -0.999045 0.000000
vn 0.043698 -0.999045 0.000000
vn 0.043698 -0.999045 0.000000
vn 0.015422 -0.355842 0.934419
vn 0.015422 -0.355842 0.934419
vn 0.015422 -0.355842 0.934419
vn 0.015422 -0.355842 0.934419
vn -0.015822 0.371867 0.928151
vn -0.015822 0.371867 0.928151
vn -0.015822 0.371867 0.928151
vn -0.015822 0.371867 0.928151
vn -0.042119 0.999113 0.000000
vn -0.042119 0.999113 0.000000
vn -0.042119 0.999113 0.000000
vn -0.042119 0.999113 0.000000
vn -0.015822 0.371867 -0.928151
vn -0.015822 0.371867 -0.928151
vn -0.015822 0.371867 -0.928151
vn -0.015822 0.371867 -0.928151
vn 0.488025 0.044309 0.871705
vn 0.488025 0.044309 0.871705
vn 0.488025 0.044309 0.871705
vn 0.488025 0.044309 0.871705
vn -0.459620 0.888116 0.000000
vn -0.459620 0.888116 0.000000
vn -0.459620 0.888116 0.000000
vn -0.459620 0.888116 0.000000
vn 0.487836 -0.052296 -0.871367
vn 0.487836 -0.052296 -0.871367
vn 0.487836 -0.052296 -0.871367
vn 0.487836 -0.052296 -0.871367
vn 0.000000 -1.000000 0.000000
vn 0.000000 -1.000000 0.000000
vn 0.000000 -1.000000 0.000000
vn 0.000000 -1.000000 0.000000
vn 0.999966 -0.008203 0.000000
vn 0.999966 -0.008203 0.000000
vn 0.999966 -0.008203 0.000000
vn 0.999966 -0.008203 0.000000
vn -0.999966 0.008204 0.000000
vn -0.999966 0.008204 0.000000
vn -0.999966 0.008204 0.000000
vn -0.999966 0.008204 0.000000
vn -0.459630 0.888111 0.000000
vn -0.459630 0.888111 0.000000
vn -0.459630 0.888111 0.000000
vn -0.459630 0.888111 0.000000
vn -0.487836 0.052296 0.871367
vn -0.487836 0.052296 0.871367
vn -0.487836 0.052296 0.871367
vn -0.487836 0.052296 0.871367
vn 0.000000 -1.000000 0.000000
vn 0.000000 -1.000000 0.000000
vn 0.000000 -1.000000 0.000000
vn 0.000000 -1.000000 0.000000
vn -0.488025 -0.044309 -0.871705
vn -0.488025 -0.044309 -0.871705
vn -0.488025 -0.044309 -0.871705
vn -0.488025 -0.044309 -0.871705
vn -0.048925 -0.351747 0.934816
vn -0.048925 -0.351747 0.934816
vn -0.048925 -0.351747 0.934816
vn -0.048925 -0.351747 0.934816
vn 0.988373 -0.152048 0.000000
vn 0.988373 -0.152048 0.000000
vn 0.988373 -0.152048 0.000000
vn 0.988373 -0.152048 0.000000
vn 0.029835 -0.352012 -0.935520
vn 0.029835 -0.352012 -0.935520
vn 0.029835 -0.352012 -0.935520
vn 0.029835 -0.352012 -0.935520
vn -1.000000 0.000003 0.000000
vn -1.000000 0.000003 0.000000
vn -1.000000 0.000003 0.000000
vn -1.000000 0.000003 0.000000
vn -0.027158 -0.999631 0.000000
vn -0.027158 -0.999631 0.000000
vn -0.027158 -0.999631 0.000000
vn -0.027158 -0.999631 0.000000
vn 0.027158 0.999631 0.000000
vn 0.027158 0.999631 0.000000
vn 0.027158 0.999631 0.000000
vn 0.027158 0.999631 0.000000
vn 0.988373 -0.152047 0.000000
vn 0.988373 -0.152047 0.000000
vn 0.988373 -0.152047 0.000000
vn 0.988373 -0.152047 0.000000
vn -0.029147 0.367898 0.929409
vn -0.029147 0.367898 0.929409
vn -0.029147 0.367898 0.929409
vn -0.029147 0.367898 0.929409
vn -1.000000 -0.000004 0.000000
vn -1.000000 -0.000004 0.000000
vn -1.000000 -0.000004 0.000000
vn -1.000000 -0.000004 0.000000
vn 0.049098 0.367610 -0.928683
vn 0.049098 0.367610 -0.928683
vn 0.049098 0.367610 -0.928683
vn 0.049098 0.367610 -0.928683
vn -0.037517 -0.352262 -0.935149
vn -0.037517 -0.352262 -0.935149
vn -0.037517 -0.352262 -0.935149
vn -0.037517 -0.352262 -0.935149
vn 0.034926 -0.999390 0.000000
vn 0.034926 -0.999390 0.000000
vn 0.034926 -0.999390 0.000000
vn 0.034926 -0.999390 0.000000
vn 0.061887 -0.358450 0.931496
vn 0.061887 -0.358450 0.931496
vn 0.061887 -0.358450 0.931496
vn 0.061887 -0.358450 0.931496
vn 0.036672 0.368325 0.928973
vn 0.036672 0.368325 0.928973
vn 0.036672 0.368325 0.928973
vn 0.036672 0.368325 0.928973
vn -0.033440 0.999441 0.000000
vn -0.033440 0.999441 0.000000
vn -0.033440 0.999441 0.000000
vn -0.033440 0.999441 0.000000
vn -0.061590 0.374326 -0.925250
vn -0.061590 0.374326 -0.925250
vn -0.061590 0.374326 -0.925250
vn -0.061590 0.374326 -0.925250
vn 0.487944 0.047852 -0.871562
vn 0.487944 0.047852 -0.871562
vn 0.487944 0.047852 -0.871562
vn 0.487944 0.047852 -0.871562
vn 0.995226 0.097600 0.000000
vn 0.995226 0.097600 0.000000
vn 0.995226 0.097600 0.000000
vn 0.995226 0.097600 0.000000
vn 0.487944 0.047852 0.871562
vn 0.487944 0.047852 0.871562
vn 0.487944 0.047852 0.871562
vn 0.487944 0.047852 0.871562
vn -0.487945 -0.047852 0.871562
vn -0.487945 -0.047852 0.871562
vn -0.487945 -0.047852 0.871562
vn -0.487945 -0.047852 0.871562
vn -0.995226 -0.097600 0.000000
vn -0.995226 -0.097600 0.000000
vn -0.995226 -0.097600 0.000000
vn -0.995226 -0.097600 0.000000
vn -0.487945 -0.047852 -0.871562
vn -0.487945 -0.047852 -0.871562
vn -0.487945 -0.047852 -0.871562
vn -0.487945 -0.047852 -0.871562
vn 0.450930 0.001088 0.892559
vn 0.450930 0.001088 0.892559
vn 0.450930 0.001088 0.892559
vn 0.450930 0.001088 0.892559
vn -0.528543 -0.000490 0.848907
vn -0.528543 -0.000490 0.848907
vn -0.528543 -0.000490 0.848907
vn -0.528543 -0.000490 0.848907
vn -0.999007 0.001281 -0.044537
vn -0.999007 0.001281 -0.044537
vn -0.999007 0.001281 -0.044537
vn -0.999007 0.001281 -0.044537
vn -0.451071 0.001113 -0.892488
vn -0.451071 0.001113 -0.892488
vn -0.451071 0.001113 -0.892488
vn -0.451071 0.001113 -0.892488
vn 0.528601 -0.000480 -0.848870
vn 0.528601 -0.000480 -0.848870
vn 0.528601 -0.000480 -0.848870
vn 0.528601 -0.000480 -0.848870
vn 0.999007 0.001227 0.044540
vn 0.999007 0.001227 0.044540
vn 0.999007 0.001227 0.044540
vn 0.999007 0.001227 0.044540
vn 0.488490 0.007644 -0.872536
vn 0.488490 0.007644 -0.872536
vn 0.488490 0.007644 -0.872536
vn 0.488490 0.007644 -0.872536
vn 0.999878 0.015647 0.000000
vn 0.999878 0.015647 0.000000
vn 0.999878 0.015647 0.000000
vn 0.999878 0.015647 0.000000
vn 0.488490 0.007644 0.872536
vn 0.488490 0.007644 0.872536
vn 0.488490 0.007644 0.872536
vn 0.488490 0.007644 0.872536
vn -0.488490 -0.007644 0.872536
vn -0.488490 -0.007644 0.872536
vn -0.488490 -0.007644 0.872536
vn -0.488490 -0.007644 0.872536
vn -0.999878 -0.015647 0.000000
vn -0.999878 -0.015647 0.000000
vn -0.999878 -0.015647 0.000000
vn -0.999878 -0.015647 0.000000
vn -0.488490 -0.007644 -0.872536
vn -0.488490 -0.007644 -0.872536
vn -0.488490 -0.007644 -0.872536
vn -0.488490 -0.007644 -0.872536
vn 0.436419 0.277923 -0.855744
vn 0.436419 0.277923 -0.855744
vn 0.436419 0.277923 -0.855744
vn 0.436419 0.277923 -0.855744
vn 0.981976 0.189007 0.000000
vn 0.981976 0.189007 0.000000
vn 0.981976 0.189007 0.000000
vn 0.981976 0.189007 0.000000
vn 0.504712 -0.011397 0.863213
vn 0.504712 -0.011397 0.863213
vn 0.504712 -0.011397 0.863213
vn 0.504712 -0.011397 0.863213
vn -0.473183 -0.145940 0.868792
vn -0.473183 -0.145940 0.868792
vn -0.473183 -0.145940 0.868792
vn -0.473183 -0.145940 0.868792
vn -0.999533 -0.030572 0.000000
vn -0.999533 -0.030572 0.000000
vn -0.999533 -0.030572 0.000000
vn -0.999533 -0.030572 0.000000
vn -0.524826 0.191304 -0.829434
vn -0.524826 0.191304 -0.829434
vn -0.524826 0.191304 -0.829434
vn -0.524826 0.191304 -0.829434
s off
f 75/1/1 76/2/2 11/3/3 2/4/4
f 9/13/5 10/14/6 4/15/7 6/16/8
f 12/19/9 73/20/10 74/21/11 8/22/12
f 11/31/13 12/32/14 8/33/15 2/34/16
f 2/37/17 8/38/18 74/39/19 75/40/20
f 7/45/21 1/46/22 77/47/23 78/48/24
f 3/17/25 10/14/26 9/13/27 5/18/28
f 1/7/29 11/3/30 76/2/31 77/8/32
f 7/35/33 12/32/34 11/31/35 1/36/36
f 78/23/37 73/20/38 12/19/39 7/24/40
f 27/53/41 28/54/42 23/55/43 14/56/44
f 21/68/45 22/69/46 16/70/47 18/71/48
f 24/74/49 25/75/50 26/76/51 20/77/52
f 23/89/53 24/90/54 20/91/55 14/92/56
f 14/95/57 20/96/58 26/97/59 27/98/60
f 19/105/61 13/106/62 29/107/63 30/108/64
f 15/72/65 22/69/66 21/68/67 17/73/68
f 13/59/69 23/55/70 28/54/71 29/60/72
f 19/93/73 24/90/74 23/89/75 13/94/76
f 30/78/77 25/75/78 24/74/79 19/79/80
f 26/76/81 25/75/82 31/80/83 32/81/84
f 27/98/85 26/97/86 32/99/87 33/100/88
f 33/57/89 34/58/90 28/54/91 27/53/92
f 29/60/93 28/54/94 34/58/95 35/63/96
f 30/108/97 29/107/98 35/109/99 36/110/100
f 36/82/101 31/80/102 25/75/103 30/78/104
f 32/81/105 31/80/106 37/83/107 38/84/108
f 33/100/109 32/99/110 38/101/111 39/102/112
f 39/61/113 40/62/114 34/58/115 33/57/116
f 35/63/117 34/58/118 40/62/119 41/66/120
f 36/110/121 35/109/122 41/111/123 42/112/124
f 42/85/125 37/83/126 31/80/127 36/82/128
f 38/84/129 37/83/130 21/86/131 18/87/132
f 39/102/133 38/101/134 18/103/135 16/104/136
f 22/64/137 40/62/138 39/61/139 16/65/140
f 41/66/141 40/62/142 22/64/143 15/67/144
f 42/112/145 41/111/146 15/113/147 17/114/148
f 17/88/149 21/86/150 37/83/151 42/85/152
f 87/115/153 88/116/154 53/117/155 44/118/156
f 51/127/157 52/128/158 46/129/159 48/130/160
f 54/133/161 85/134/162 86/135/163 50/136/164
f 53/145/165 54/146/166 50/147/167 44/148/168
f 44/151/169 50/152/170 86/153/171 87/154/172
f 49/159/173 43/160/174 89/161/175 90/162/176
f 45/131/177 52/128/178 51/127/179 47/132/180
f 43/121/181 53/117/182 88/116/183 89/122/184
f 49/149/185 54/146/186 53/145/187 43/150/188
f 90/137/189 85/134/190 54/133/191 49/138/192
f 69/167/193 70/168/194 65/169/195 56/170/196
f 63/176/197 64/177/198 58/178/199 60/179/200
f 66/182/201 67/183/202 68/184/203 62/185/204
f 65/191/205 66/192/206 62/193/207 56/194/208
f 56/197/209 62/198/210 68/199/211 69/200/212
f 61/203/213 55/204/214 71/205/215 72/206/216
f 57/180/217 64/177/218 63/176/219 59/181/220
f 55/173/221 65/169/222 70/168/223 71/174/224
f 61/195/225 66/192/226 65/191/227 55/196/228
f 72/186/229 67/183/230 66/182/231 61/187/232
f 68/184/233 67/183/234 63/188/235 60/189/236
f 69/200/237 68/199/238 60/201/239 58/202/240
f 64/171/241 70/168/242 69/167/243 58/172/244
f 71/174/245 70/168/246 64/171/247 57/175/248
f 72/206/249 71/205/250 57/207/251 59/208/252
f 59/190/253 63/188/254 67/183/255 72/186/256
f 74/21/257 73/20/258 83/25/259 84/26/260
f 75/40/261 74/39/262 84/41/263 79/42/264
f 79/5/265 80/6/266 76/2/267 75/1/268
f 77/8/269 76/2/270 80/6/271 81/11/272
f 78/48/273 77/47/274 81/49/275 82/50/276
f 82/27/277 83/25/278 73/20/279 78/23/280
f 10/9/281 80/6/282 79/5/283 4/10/284
f 81/11/285 80/6/286 10/9/287 3/12/288
f 82/50/289 81/49/290 3/51/291 5/52/292
f 5/30/293 9/28/294 83/25/295 82/27/296
f 84/26/297 83/25/298 9/28/299 6/29/300
f 79/42/301 84/41/302 6/43/303 4/44/304
f 86/135/305 85/134/306 91/139/307 92/140/308
f 87/154/309 86/153/310 92/155/311 93/156/312
f 93/119/313 94/120/314 88/116/315 87/115/316
f 89/122/317 88/116/318 94/120/319 95/125/320
f 90/162/321 89/161/322 95/163/323 96/164/324
f 96/141/325 91/139/326 85/134/327 90/137/328
f 92/140/329 91/139/330 51/142/331 48/143/332
f 93/156/333 92/155/334 48/157/335 46/158/336
f 52/123/337 94/120/338 93/119/339 46/124/340
f 95/125/341 94/120/342 52/123/343 45/126/344
f 96/164/345 95/163/346 45/165/347 47/166/348
f 47/144/349 51/142/350 91/139/351 96/141/352
