# This file uses centimeters as units for non-parametric coordinates.

v 2.838135 0.000000 3.369141
v -5.175781 0.000000 -1.074219
v -19.506836 18.705750 33.001709
v 0.115967 0.000000 -1.165771
v -2.569580 23.023987 21.917725
v -9.875488 28.421783 15.625000
v -19.079590 23.023987 12.768555
v 0.347900 16.256714 12.170410
v -5.053711 21.652985 6.933594
v -12.371826 16.256714 5.126953
v -9.613037 22.975922 29.376221
v -14.691162 28.372955 24.310303
v -21.667480 22.975922 22.692871
v 2.679443 0.000000 -5.792236
v 35.290527 13.552856 -2.185059
v 20.227051 18.315125 -13.226318
v 17.449951 23.712158 -3.991699
v 18.597412 18.315125 5.578613
v 12.329102 11.546326 -10.314941
v 9.716797 16.943359 -3.283691
v 11.016846 11.546326 4.180908
v 27.960205 18.266296 -10.003662
v 25.408936 23.663330 -3.308105
v 26.770020 18.266296 3.729248
v -19.702148 22.714233 -34.783936
v -18.572998 27.033997 -14.575195
v -9.466553 32.430267 -17.755127
v -2.386475 27.033997 -24.304199
v -11.602783 18.321228 -7.177734
v -4.351807 23.717499 -9.240723
v 0.878906 18.321228 -14.685059
v -21.502686 26.985168 -24.407959
v -14.581299 32.381439 -26.269531
v -9.692383 26.985168 -31.506348
v -1.861572 4.472351 3.552246
v -1.989746 4.472351 -3.955078
v -32.043457 24.502563 -0.164795
v 0.244141 4.472351 -0.238037
v -17.242432 29.126740 7.312012
v -15.765381 34.905243 -0.451660
v -17.510986 29.126740 -8.154297
v -9.124756 21.880341 5.389404
v -7.623291 27.658081 -0.592041
v -9.338379 21.880341 -6.524658
v -25.415039 29.074097 5.364990
v -23.901367 34.852600 -0.305176
v -25.610352 29.074097 -5.926514
v 4.577637 4.472351 -0.317383
v 15.374756 18.983459 24.298096
v 17.041016 24.083710 9.088135
v 9.350586 29.862213 10.900879
v 3.027344 24.083710 15.637207
v 11.737061 16.836548 4.681396
v 5.676270 22.615051 5.706787
v 0.909424 16.836548 9.686279
v 17.919922 24.031830 15.899658
v 12.121582 29.810333 16.827393
v 7.690430 24.031830 20.678711
v 15.979004 28.794861 -28.076172
v 2.099609 33.419037 -18.994141
v 8.087158 39.197540 -13.836670
v 15.631104 33.419037 -11.492920
v -0.292969 24.089050 -11.016846
v 4.138184 29.868317 -6.713867
v 10.144043 24.089050 -5.236816
v 7.873535 33.367157 -25.103760
v 12.030029 39.145660 -20.953369
v 17.755127 33.367157 -19.628906
v -3.399658 11.705017 0.988770
v 0.842285 11.705017 -3.436279
v -18.731689 30.384827 -18.518066
v 0.000000 11.705017 0.000000
v -14.465332 34.697723 -5.682373
v -9.143066 40.086365 -9.326172
v -5.725098 34.697723 -14.788818
v -8.660889 27.938080 -2.130127
v -4.351807 33.327484 -4.730225
v -1.934814 27.938080 -9.149170
v -18.078613 34.648895 -11.505127
v -13.940430 40.038300 -13.922119
v -11.700439 34.648895 -18.157959
v 2.551270 11.705017 2.447510
v -5.352783 25.238037 22.906494
v 4.364014 29.994965 15.057373
v -1.135254 35.383606 11.688232
v -7.519531 29.994965 10.791016
v 3.826904 23.236084 9.454346
v -0.274658 28.624725 6.567383
v -5.322266 23.236084 6.134033
v 0.952148 29.945374 19.506836
v -2.935791 35.335541 16.711426
v -7.720947 29.945374 16.394043
v 25.109863 34.387970 -7.067871
v 11.865234 38.700867 -9.790039
v 12.359619 44.090271 -3.363037
v 15.380859 38.700867 2.331543
v 5.889893 29.999542 -6.549072
v 5.981445 35.388947 -1.507568
v 8.605957 29.999542 2.801514
v 18.719482 38.652802 -10.003662
v 18.737793 44.041443 -5.212402
v 21.295166 38.652802 -1.153564
vt 0.664787 0.854493
vt 0.720394 0.906096
vt 0.620793 0.955034
vt 0.577902 0.534338
vt 0.627517 0.622662
vt 0.555640 0.639096
vt 0.677133 0.710921
vt 0.582303 0.739947
vt 0.752407 0.646975
vt 0.679837 0.571183
vt 0.452943 0.386641
vt 0.506900 0.441478
vt 0.417349 0.510263
vt 0.352516 0.455411
vt 0.543620 0.221440
vt 0.590345 0.221440
vt 0.120640 0.304799
vt 0.215470 0.249950
vt 0.265149 0.318730
vt 0.189750 0.373566
vt 0.318414 0.538770
vt 0.263891 0.538770
vt 0.973461 0.879528
vt 0.904479 0.934374
vt 0.892905 0.831633
vt 0.108642 0.317511
vt 0.120216 0.417932
vt 0.047709 0.404103
vt 0.127260 0.498807
vt 0.028655 0.487147
vt 0.222400 0.470588
vt 0.189199 0.392007
vt 0.119962 0.577395
vt 0.043057 0.564182
vt 0.104645 0.635629
vt 0.177089 0.690472
vt 0.169794 0.759257
vt 0.074648 0.704412
vt 0.151243 0.518295
vt 0.198910 0.518295
vt 0.253996 0.635629
vt 0.245632 0.518295
vt 0.176212 0.775728
vt 0.247523 0.794646
vt 0.194763 0.881173
vt 0.206396 0.675809
vt 0.300220 0.708126
vt 0.297893 0.847864
vt 0.373166 0.774677
vt 0.396544 0.954360
vt 0.296941 0.902331
vt 0.352538 0.852643
vt 0.445407 0.197716
vt 0.520113 0.252553
vt 0.467416 0.341093
vt 0.373592 0.286256
vt 0.511624 0.011537
vt 0.566146 0.011537
vt 0.809369 0.286274
vt 0.741894 0.341111
vt 0.654167 0.252571
vt 0.710262 0.197734
vt 0.570970 0.011555
vt 0.618640 0.011555
vt 0.121748 0.785233
vt 0.181286 0.842851
vt 0.074648 0.841426
vt 0.121748 0.899976
vt 0.455314 0.708533
vt 0.470784 0.767247
vt 0.386895 0.840892
vt 0.371677 0.782169
vt 0.011411 0.732551
vt 0.029396 0.673832
vt 0.113284 0.747473
vt 0.095613 0.806193
vt 0.325450 0.524041
vt 0.364501 0.524041
vt 0.368147 0.759655
vt 0.306523 0.700941
vt 0.429275 0.700941
vt 0.402796 0.524041
vt 0.973372 0.691310
vt 0.988590 0.770202
vt 0.904765 0.768715
vt 0.889169 0.711094
vt 0.887157 0.825840
vt 0.970605 0.848480
vt 0.421795 0.868385
vt 0.412238 0.927104
vt 0.335267 0.817081
vt 0.772782 0.812888
vt 0.739266 0.922911
vt 0.693613 0.864191
vt 0.549493 0.551255
vt 0.487048 0.492535
vt 0.524904 0.418894
vt 0.604140 0.477613
vt 0.475729 0.676902
vt 0.431081 0.676902
vt 0.924245 0.536033
vt 0.875446 0.594756
vt 0.821931 0.521108
vt 0.862932 0.462388
vt 0.760681 0.336744
vt 0.799733 0.336744
vt 0.784283 0.700665
vt 0.765611 0.778816
vt 0.704550 0.750657
vt 0.714107 0.691734
vt 0.664869 0.795686
vt 0.716809 0.843073
vt 0.011410 0.865295
vt 0.054231 0.806575
vt 0.094918 0.911757
vt 0.337980 0.831710
vt 0.264595 0.936895
vt 0.250950 0.878175
vt 0.093601 0.210970
vt 0.137934 0.269702
vt 0.064549 0.364505
vt 0.011410 0.305782
vt 0.166357 0.011628
vt 0.204654 0.011628
vt 0.369239 0.305800
vt 0.291511 0.364523
vt 0.250827 0.269720
vt 0.312705 0.210988
vt 0.210706 0.011646
vt 0.255354 0.011646
vt 0.535195 0.825326
vt 0.482062 0.764480
vt 0.555381 0.724415
vt 0.598145 0.766654
vt 0.541736 0.666239
vt 0.457909 0.687816
vt 0.599151 0.917460
vt 0.574247 0.972225
vt 0.526895 0.874128
vt 0.820087 0.948004
vt 0.869453 0.849907
vt 0.892531 0.904672
vt 0.899052 0.333292
vt 0.943449 0.388060
vt 0.894084 0.456743
vt 0.839249 0.401984
vt 0.953258 0.168333
vt 0.988286 0.168333
vt 0.721424 0.524979
vt 0.665141 0.579738
vt 0.617792 0.511055
vt 0.663318 0.456286
vt 0.569056 0.291328
vt 0.604462 0.291328
vt 0.797912 0.741900
vt 0.852746 0.778924
vt 0.803320 0.825631
vt 0.760683 0.801068
vt 0.826398 0.868676
vt 0.887961 0.834436
vt 0.835225 0.886520
vt 0.795166 0.941295
vt 0.770264 0.838684
vt 0.245226 0.850378
vt 0.181398 0.952988
vt 0.178129 0.898214
vt 0.889307 0.606843
vt 0.919056 0.661602
vt 0.866293 0.730286
vt 0.831584 0.675527
vt 0.961500 0.489666
vt 0.986718 0.489666
vt 0.728105 0.507947
vt 0.793882 0.453182
vt 0.802749 0.521865
vt 0.750744 0.576630
vt 0.805579 0.693807
vt 0.770552 0.693807
vt 0.480762 0.769760
vt 0.515471 0.825643
vt 0.463719 0.843940
vt 0.434915 0.804431
vt 0.466989 0.892570
vt 0.524719 0.890521
vt 0.175420 0.933831
vt 0.126054 0.988590
vt 0.145175 0.890493
vt 0.084235 0.933831
vt 0.849644 0.197318
vt 0.901587 0.252086
vt 0.882470 0.340509
vt 0.816252 0.285741
vt 0.881716 0.011410
vt 0.917118 0.011410
vt 0.717941 0.349968
vt 0.686814 0.404736
vt 0.621099 0.316313
vt 0.648138 0.261545
vt 0.559472 0.075637
vt 0.585757 0.075637
vt 0.569053 0.891602
vt 0.574147 0.826288
vt 0.639862 0.845080
vt 0.639671 0.893771
vt 0.666210 0.803833
vt 0.605274 0.768422
vn -0.019977 0.673858 0.738591
vn -0.019977 0.673858 0.738591
vn -0.019977 0.673858 0.738591
vn -0.615758 0.673857 0.408361
vn -0.615758 0.673857 0.408361
vn -0.615758 0.673857 0.408361
vn 0.727027 0.662250 -0.181264
vn 0.727027 0.662251 -0.181264
vn 0.727027 0.662251 -0.181264
vn 0.727026 0.662251 -0.181264
vn -0.231509 0.662406 -0.712476
vn -0.231509 0.662406 -0.712476
vn -0.231509 0.662406 -0.712476
vn -0.231509 0.662406 -0.712476
vn 0.804396 0.369923 -0.464870
vn 0.804396 0.369923 -0.464870
vn 0.804396 0.369923 -0.464870
vn 0.804396 0.369923 -0.464870
vn -0.020886 0.346871 -0.937680
vn -0.020886 0.346871 -0.937680
vn -0.020886 0.346871 -0.937680
vn -0.020886 0.346871 -0.937680
vn 0.434767 0.840038 0.324521
vn 0.434767 0.840038 0.324521
vn 0.434767 0.840038 0.324521
vn 0.434767 0.840038 0.324521
vn -0.505610 0.840038 -0.196712
vn -0.505610 0.840038 -0.196712
vn -0.505610 0.840038 -0.196712
vn -0.505610 0.840038 -0.196712
vn 0.704493 0.659308 -0.262685
vn 0.704493 0.659308 -0.262685
vn 0.704493 0.659308 -0.262685
vn 0.637617 0.665987 0.387178
vn 0.637617 0.665987 0.387178
vn 0.637617 0.665987 0.387178
vn -0.610073 0.552118 -0.568310
vn -0.610073 0.552118 -0.568310
vn -0.610073 0.552118 -0.568310
vn -0.610073 0.552118 -0.568310
vn -0.589142 0.641722 0.491025
vn -0.589142 0.641722 0.491025
vn -0.589142 0.641722 0.491025
vn -0.589142 0.641722 0.491025
vn -0.759574 0.392291 -0.518801
vn -0.759574 0.392291 -0.518801
vn -0.759574 0.392291 -0.518801
vn -0.759574 0.392291 -0.518801
vn -0.740935 0.483588 0.466003
vn -0.740935 0.483588 0.466003
vn -0.740935 0.483588 0.466003
vn -0.740934 0.483588 0.466003
vn 0.136045 0.840722 -0.524098
vn 0.136045 0.840722 -0.524098
vn 0.136045 0.840722 -0.524098
vn 0.136045 0.840722 -0.524098
vn 0.043927 0.840722 0.539683
vn 0.043927 0.840722 0.539683
vn 0.043927 0.840722 0.539683
vn 0.043927 0.840722 0.539683
vn -0.629651 0.673857 -0.386596
vn -0.629651 0.673857 -0.386596
vn -0.629651 0.673857 -0.386596
vn -0.045773 0.673858 -0.737442
vn -0.045773 0.673858 -0.737442
vn -0.045773 0.673857 -0.737442
vn -0.151099 0.607480 0.779832
vn -0.151099 0.607480 0.779832
vn -0.151099 0.607480 0.779832
vn -0.151099 0.607480 0.779832
vn 0.759408 0.607587 0.232676
vn 0.759408 0.607587 0.232676
vn 0.759408 0.607587 0.232676
vn 0.759408 0.607587 0.232676
vn 0.022737 0.324742 0.945529
vn 0.022737 0.324742 0.945529
vn 0.022737 0.324742 0.945529
vn 0.022737 0.324742 0.945529
vn 0.824866 0.312955 0.470802
vn 0.824866 0.312955 0.470802
vn 0.824866 0.312955 0.470802
vn 0.824866 0.312955 0.470802
vn -0.498427 0.840038 0.214259
vn -0.498427 0.840038 0.214259
vn -0.498427 0.840038 0.214259
vn -0.498427 0.840038 0.214259
vn 0.423162 0.840038 -0.339515
vn 0.423162 0.840038 -0.339515
vn 0.423162 0.840038 -0.339515
vn 0.423162 0.840038 -0.339515
vn -0.720992 0.572322 0.390664
vn -0.720992 0.572322 0.390664
vn -0.720992 0.572322 0.390664
vn -0.734202 0.572322 -0.365232
vn -0.734202 0.572322 -0.365232
vn -0.734202 0.572322 -0.365232
vn 0.575399 0.560251 0.595849
vn 0.575399 0.560251 0.595849
vn 0.575399 0.560251 0.595849
vn 0.575399 0.560251 0.595849
vn 0.554175 0.560412 -0.615491
vn 0.554175 0.560412 -0.615491
vn 0.554175 0.560412 -0.615491
vn 0.554175 0.560412 -0.615491
vn 0.828624 0.291470 0.477941
vn 0.828624 0.291470 0.477941
vn 0.828624 0.291470 0.477941
vn 0.828624 0.291470 0.477941
vn 0.822375 0.272321 -0.499541
vn 0.822375 0.272321 -0.499541
vn 0.822375 0.272321 -0.499540
vn 0.822375 0.272321 -0.499540
vn -0.075679 0.764216 0.640505
vn -0.075679 0.764216 0.640505
vn -0.075679 0.764216 0.640505
vn -0.075679 0.764216 0.640505
vn -0.098014 0.764216 -0.637470
vn -0.098014 0.764216 -0.637470
vn -0.098014 0.764216 -0.637470
vn -0.098014 0.764216 -0.637470
vn 0.640264 0.557213 0.528749
vn 0.640264 0.557213 0.528749
vn 0.640264 0.557213 0.528749
vn -0.018261 0.564120 0.825491
vn -0.018261 0.564120 0.825491
vn -0.018261 0.564120 0.825491
vn 0.200206 0.452024 -0.869248
vn 0.200206 0.452024 -0.869248
vn 0.200206 0.452024 -0.869248
vn 0.200206 0.452024 -0.869248
vn -0.790403 0.539241 -0.290659
vn -0.790403 0.539241 -0.290659
vn -0.790403 0.539241 -0.290659
vn -0.790403 0.539241 -0.290659
vn 0.071836 0.310258 -0.947934
vn 0.071836 0.310258 -0.947934
vn 0.071836 0.310258 -0.947934
vn 0.071836 0.310258 -0.947934
vn -0.814509 0.389417 -0.430034
vn -0.814509 0.389417 -0.430034
vn -0.814509 0.389417 -0.430034
vn -0.814509 0.389417 -0.430034
vn 0.620652 0.765096 -0.171520
vn 0.620652 0.765096 -0.171520
vn 0.620652 0.765096 -0.171520
vn 0.620653 0.765096 -0.171520
vn -0.529691 0.765096 0.366137
vn -0.529691 0.765096 0.366137
vn -0.529691 0.765096 0.366137
vn -0.529691 0.765096 0.366137
vn 0.022171 0.572322 -0.819729
vn 0.022171 0.572322 -0.819729
vn 0.022171 0.572322 -0.819729
vn 0.683401 0.572322 -0.453222
vn 0.683401 0.572322 -0.453222
vn 0.683401 0.572322 -0.453222
vn -0.815873 0.505098 0.281474
vn -0.815873 0.505098 0.281474
vn -0.815873 0.505098 0.281474
vn -0.815873 0.505098 0.281474
vn 0.193625 0.505204 0.840999
vn 0.193625 0.505204 0.840999
vn 0.193625 0.505204 0.840999
vn 0.193625 0.505203 0.840999
vn -0.825728 0.254125 0.503581
vn -0.825728 0.254125 0.503581
vn -0.825728 0.254126 0.503581
vn -0.825728 0.254125 0.503581
vn 0.004805 0.244504 0.969636
vn 0.004805 0.244504 0.969636
vn 0.004805 0.244504 0.969636
vn 0.004805 0.244504 0.969636
vn -0.516854 0.764216 -0.385793
vn -0.516854 0.764216 -0.385793
vn -0.516854 0.764216 -0.385793
vn -0.516854 0.764216 -0.385793
vn 0.601071 0.764216 0.233852
vn 0.601071 0.764216 0.233852
vn 0.601071 0.764216 0.233852
vn 0.601071 0.764216 0.233852
vn -0.818927 0.521160 -0.240317
vn -0.818927 0.521160 -0.240317
vn -0.818927 0.521160 -0.240317
vn -0.274288 0.521160 -0.808182
vn -0.274288 0.521160 -0.808182
vn -0.274288 0.521160 -0.808182
vn -0.012097 0.509285 0.860513
vn -0.012097 0.509285 0.860513
vn -0.012097 0.509285 0.860513
vn -0.012097 0.509285 0.860513
vn 0.859166 0.509443 -0.047969
vn 0.859166 0.509443 -0.047970
vn 0.859166 0.509443 -0.047969
vn 0.859166 0.509443 -0.047969
vn 0.253650 0.257597 0.932366
vn 0.253650 0.257597 0.932366
vn 0.253650 0.257597 0.932366
vn 0.253650 0.257597 0.932366
vn 0.943748 0.240363 0.227081
vn 0.943748 0.240363 0.227081
vn 0.943748 0.240363 0.227081
vn 0.943748 0.240363 0.227081
vn -0.543652 0.719737 0.431764
vn -0.543652 0.719737 0.431764
vn -0.543652 0.719737 0.431764
vn -0.543652 0.719737 0.431764
vn 0.408696 0.719737 -0.561200
vn 0.408696 0.719737 -0.561200
vn 0.408696 0.719738 -0.561200
vn 0.408696 0.719737 -0.561200
vn 0.084809 0.506306 0.858174
vn 0.084809 0.506306 0.858173
vn 0.084809 0.506306 0.858173
vn -0.618190 0.513085 0.595470
vn -0.618190 0.513085 0.595470
vn -0.618190 0.513085 0.595470
vn 0.773358 0.405322 -0.487475
vn 0.773358 0.405322 -0.487475
vn 0.773358 0.405322 -0.487475
vn 0.773358 0.405322 -0.487475
vn -0.368763 0.488760 -0.790650
vn -0.368763 0.488760 -0.790650
vn -0.368763 0.488760 -0.790650
vn -0.368763 0.488760 -0.790650
vn 0.727230 0.274573 -0.629084
vn 0.727230 0.274573 -0.629084
vn 0.727230 0.274573 -0.629084
vn 0.727230 0.274573 -0.629084
vn -0.279877 0.346940 -0.895154
vn -0.279877 0.346940 -0.895154
vn -0.279877 0.346940 -0.895154
vn -0.279877 0.346940 -0.895154
vn 0.604225 0.720698 0.339863
vn 0.604225 0.720698 0.339863
vn 0.604225 0.720698 0.339862
vn 0.604225 0.720698 0.339862
vn -0.682396 0.720698 -0.122191
vn -0.682396 0.720698 -0.122191
vn -0.682396 0.720698 -0.122191
vn -0.682396 0.720698 -0.122191
vn 0.617583 0.521160 -0.589053
vn 0.617583 0.521160 -0.589053
vn 0.617583 0.521160 -0.589053
vn 0.837050 0.521160 0.166550
vn 0.837050 0.521160 0.166550
vn 0.837050 0.521160 0.166550
vn -0.801568 0.455773 -0.386989
vn -0.801568 0.455773 -0.386989
vn -0.801568 0.455773 -0.386989
vn -0.801568 0.455773 -0.386989
vn -0.469539 0.455874 0.756117
vn -0.469539 0.455874 0.756117
vn -0.469539 0.455874 0.756117
vn -0.469539 0.455874 0.756117
vn -0.947937 0.224047 -0.226314
vn -0.947937 0.224047 -0.226314
vn -0.947937 0.224047 -0.226314
vn -0.947937 0.224047 -0.226314
vn -0.684708 0.215441 0.696248
vn -0.684708 0.215441 0.696248
vn -0.684708 0.215441 0.696248
vn -0.684708 0.215441 0.696248
vn -0.102092 0.719737 -0.686699
vn -0.102092 0.719737 -0.686699
vn -0.102092 0.719737 -0.686699
vn -0.102092 0.719737 -0.686699
vn 0.281666 0.719738 0.634541
vn 0.281666 0.719738 0.634541
vn 0.281666 0.719737 0.634541
vn 0.281666 0.719738 0.634541
s off
f 11/1/1 12/2/2 3/3/3
f 3/4/4 12/5/5 13/6/6
f 8/11/7 9/12/8 6/13/9 5/14/10
f 7/17/11 6/18/12 9/19/13 10/20/14
f 1/15/15 4/16/16 9/12/17 8/11/18
f 10/20/19 9/19/20 4/21/21 2/22/22
f 5/9/23 6/7/24 12/5/25 11/10/26
f 13/6/27 12/5/28 6/7/29 7/8/30
f 22/23/31 23/24/32 15/25/33
f 15/26/34 23/27/35 24/28/36
f 19/35/37 20/36/38 17/37/39 16/38/40
f 18/30/41 17/29/42 20/33/43 21/34/44
f 14/39/45 4/40/46 20/36/47 19/35/48
f 21/41/49 20/36/50 4/40/51 1/42/52
f 16/31/53 17/29/54 23/27/55 22/32/56
f 24/28/57 23/27/58 17/29/59 18/30/60
f 32/43/61 33/44/62 25/45/63
f 25/50/64 33/51/65 34/52/66
f 29/53/67 30/54/68 27/55/69 26/56/70
f 28/59/71 27/60/72 30/61/73 31/62/74
f 2/57/75 4/58/76 30/54/77 29/53/78
f 31/62/79 30/61/80 4/63/81 14/64/82
f 26/46/83 27/47/84 33/44/85 32/43/86
f 34/48/87 33/44/88 27/47/89 28/49/90
f 45/65/91 46/66/92 37/67/93
f 37/67/94 46/66/95 47/68/96
f 42/69/97 43/70/98 40/71/99 39/72/100
f 41/73/101 40/74/102 43/75/103 44/76/104
f 35/77/105 38/78/106 43/79/107 42/80/108
f 44/81/109 43/79/110 38/78/111 36/82/112
f 39/83/113 40/84/114 46/85/115 45/86/116
f 47/87/117 46/85/118 40/84/119 41/88/120
f 56/89/121 57/90/122 49/91/123
f 49/92/124 57/93/125 58/94/126
f 53/95/127 54/96/128 51/97/129 50/98/130
f 52/101/131 51/102/132 54/103/133 55/104/134
f 48/99/135 38/100/136 54/96/137 53/95/138
f 55/104/139 54/103/140 38/105/141 35/106/142
f 50/107/143 51/108/144 57/109/145 56/110/146
f 58/111/147 57/109/148 51/108/149 52/112/150
f 66/113/151 67/114/152 59/115/153
f 59/116/154 67/117/155 68/118/156
f 63/119/157 64/120/158 61/121/159 60/122/160
f 62/125/161 61/126/162 64/127/163 65/128/164
f 36/123/165 38/124/166 64/120/167 63/119/168
f 65/128/169 64/127/170 38/129/171 48/130/172
f 60/131/173 61/132/174 67/133/175 66/134/176
f 68/135/177 67/133/178 61/132/179 62/136/180
f 79/137/181 80/138/182 71/139/183
f 71/140/184 80/141/185 81/142/186
f 76/143/187 77/144/188 74/145/189 73/146/190
f 75/149/191 74/150/192 77/151/193 78/152/194
f 69/147/195 72/148/196 77/144/197 76/143/198
f 78/152/199 77/151/200 72/153/201 70/154/202
f 73/155/203 74/156/204 80/157/205 79/158/206
f 81/159/207 80/157/208 74/156/209 75/160/210
f 90/161/211 91/162/212 83/163/213
f 83/164/214 91/165/215 92/166/216
f 87/167/217 88/168/218 85/169/219 84/170/220
f 86/173/221 85/174/222 88/175/223 89/176/224
f 82/171/225 72/172/226 88/168/227 87/167/228
f 89/176/229 88/175/230 72/177/231 69/178/232
f 84/179/233 85/180/234 91/181/235 90/182/236
f 92/183/237 91/181/238 85/180/239 86/184/240
f 100/185/241 101/186/242 93/187/243
f 93/187/244 101/186/245 102/188/246
f 97/189/247 98/190/248 95/191/249 94/192/250
f 96/195/251 95/196/252 98/197/253 99/198/254
f 70/193/255 72/194/256 98/190/257 97/189/258
f 99/198/259 98/197/260 72/199/261 82/200/262
f 94/201/263 95/202/264 101/203/265 100/204/266
f 102/205/267 101/203/268 95/202/269 96/206/270
