# This file uses centimeters as units for non-parametric coordinates.

v -1.146245 -6.061459 6.088400
v 3.835201 -1.353109 -1.463377
v 19.122124 13.452053 17.850304
v -4.742670 -1.709747 6.428719
v 0.237304 2.998567 -1.123285
v 10.652065 8.740997 15.667248
v 12.638855 10.757160 10.886478
v 9.040737 15.108967 11.226273
v 7.053709 13.092710 16.007614
v -1.783204 -0.240301 6.558084
v 5.572271 -3.901577 0.515628
v 9.752941 22.384262 -10.322952
v -5.514908 -0.776935 2.340817
v 1.840091 -4.438305 -3.701425
v 6.665039 15.464020 -0.228271
v 10.351086 12.467766 -3.109384
v 6.619406 11.931133 -7.326651
v 2.933359 14.927292 -4.445553
v -5.245113 -1.451743 10.627079
v 2.161121 0.205028 3.814220
v -10.745907 24.570084 -4.290295
v -8.424759 -3.821373 6.593513
v -1.019776 -2.164698 -0.218993
v -6.885242 19.597816 4.926491
v -2.489996 19.478416 1.530766
v -5.670404 17.108727 -2.502680
v -10.065651 17.228127 0.893068
vt 0.287381 0.988601
vt 0.206916 0.955177
vt 0.324405 0.846547
vt 0.390801 0.642558
vt 0.502365 0.810664
vt 0.422394 0.844089
vt 0.631208 0.632727
vt 0.550249 0.550149
vt 0.704268 0.573743
vt 0.625284 0.489198
vt 0.421900 0.343703
vt 0.346866 0.402687
vt 0.376485 0.233598
vt 0.982192 0.283243
vt 0.909132 0.223276
vt 0.988610 0.081221
vt 0.733887 0.480842
vt 0.392528 0.633710
vt 0.471512 0.506893
vt 0.641328 0.793952
vt 0.674896 0.713340
vt 0.832370 0.780680
vt 0.628986 0.987127
vt 0.798308 0.700805
vt 0.550002 0.860801
vt 0.019083 0.881937
vt 0.267388 0.684830
vt 0.092143 0.942397
vt 0.433995 0.344194
vt 0.482373 0.294057
vt 0.603810 0.460197
vt 0.553458 0.285210
vt 0.421160 0.020516
vt 0.492245 0.011423
vt 0.867666 0.013389
vt 0.814845 0.188376
vt 0.753139 0.137256
vt 0.734874 0.461672
vt 0.611215 0.400721
vt 0.917771 0.932074
vt 0.816079 0.808698
vt 0.988363 0.869649
vt 0.886918 0.746764
vt 0.325639 0.835241
vt 0.388332 0.764460
vt 0.440165 0.933549
vt 0.712660 0.501487
vt 0.836319 0.440290
vt 0.854584 0.763968
vt 0.916290 0.713831
vt 0.196303 0.491901
vt 0.267141 0.500995
vt 0.082517 0.754629
vt 0.153108 0.763477
vt 0.796580 0.827377
vt 0.870628 0.884395
vt 0.731912 0.981720
vt 0.011431 0.013389
vt 0.096586 0.137256
vt 0.022785 0.135290
vt 0.150147 0.097933
vt 0.174829 0.459706
vt 0.050429 0.489198
vt 0.130154 0.896929
vt 0.254553 0.783138
vt 0.183468 0.964270
vt 0.308114 0.850479
vt 0.252085 0.374178
vt 0.319715 0.413993
vt 0.164956 0.497063
vt 0.415483 0.061805
vt 0.347853 0.022236
vt 0.301697 0.441765
vt 0.426343 0.469537
vt 0.274053 0.793952
vt 0.348100 0.791986
vt 0.949365 0.338541
vt 0.987869 0.660745
vt 0.881241 0.378110
vt 0.919746 0.700560
vn 0.509346 -0.848088 -0.145991
vn 0.509345 -0.848089 -0.145991
vn 0.509346 -0.848088 -0.145991
vn -0.082362 0.930084 0.357994
vn -0.082362 0.930084 0.357994
vn -0.082362 0.930084 0.357994
vn -0.597569 -0.441510 -0.669313
vn -0.597569 -0.441510 -0.669313
vn -0.597569 -0.441510 -0.669313
vn -0.597400 -0.441606 -0.669401
vn -0.597400 -0.441606 -0.669401
vn -0.597400 -0.441606 -0.669401
vn 0.532680 0.494091 -0.687114
vn 0.532681 0.494091 -0.687114
vn 0.532680 0.494091 -0.687114
vn -0.142447 -0.193701 0.970664
vn -0.142447 -0.193701 0.970664
vn -0.142447 -0.193701 0.970664
vn 0.750810 -0.654758 0.087037
vn 0.750811 -0.654758 0.087037
vn 0.750811 -0.654758 0.087037
vn 0.777714 -0.625818 0.059278
vn 0.777714 -0.625818 0.059278
vn 0.777714 -0.625818 0.059278
vn 0.464432 0.443875 -0.766340
vn 0.464432 0.443875 -0.766340
vn 0.464432 0.443875 -0.766340
vn 0.464444 0.443859 -0.766342
vn 0.464444 0.443859 -0.766342
vn 0.464444 0.443859 -0.766342
vn -0.777712 0.625818 -0.059301
vn -0.777712 0.625818 -0.059301
vn -0.777712 0.625818 -0.059301
vn -0.750881 0.654684 -0.086985
vn -0.750881 0.654684 -0.086985
vn -0.750881 0.654684 -0.086985
vn -0.312419 -0.327920 0.891551
vn -0.312419 -0.327920 0.891551
vn -0.312419 -0.327920 0.891551
vn -0.312354 -0.328008 0.891542
vn -0.312354 -0.328008 0.891542
vn -0.312354 -0.328008 0.891542
vn 0.745757 0.420738 0.516552
vn 0.745757 0.420738 0.516552
vn 0.745757 0.420738 0.516552
vn -0.631812 -0.032589 -0.774437
vn -0.631812 -0.032589 -0.774437
vn -0.631812 -0.032589 -0.774437
vn -0.211448 -0.928501 0.305249
vn -0.211448 -0.928501 0.305249
vn -0.211448 -0.928501 0.305249
vn -0.211398 -0.928505 0.305269
vn -0.211398 -0.928505 0.305269
vn -0.211398 -0.928505 0.305269
vn 0.715670 -0.382117 -0.584639
vn 0.715670 -0.382117 -0.584639
vn 0.715670 -0.382117 -0.584639
vn -0.524562 0.768506 0.366379
vn -0.524562 0.768506 0.366379
vn -0.524562 0.768506 0.366379
vn 0.632980 -0.005981 0.774145
vn 0.632980 -0.005981 0.774145
vn 0.632980 -0.005981 0.774145
vn 0.613652 -0.004298 0.789565
vn 0.613652 -0.004298 0.789565
vn 0.613652 -0.004298 0.789565
vn 0.724479 -0.343831 -0.597420
vn 0.724479 -0.343831 -0.597420
vn 0.724479 -0.343831 -0.597420
vn 0.724539 -0.343806 -0.597362
vn 0.724539 -0.343806 -0.597361
vn 0.724539 -0.343806 -0.597362
vn -0.613649 0.004303 -0.789567
vn -0.613649 0.004303 -0.789567
vn -0.613649 0.004303 -0.789567
vn -0.632987 0.005988 -0.774139
vn -0.632987 0.005988 -0.774139
vn -0.632987 0.005988 -0.774139
vn -0.650964 0.567876 0.503749
vn -0.650964 0.567876 0.503749
vn -0.650964 0.567876 0.503749
vn -0.650961 0.567877 0.503752
vn -0.650961 0.567877 0.503752
vn -0.650961 0.567877 0.503752
vn 0.297440 0.886762 0.353811
vn 0.297439 0.886762 0.353811
vn 0.297440 0.886762 0.353811
vn -0.530626 -0.521106 -0.668494
vn -0.530626 -0.521106 -0.668494
vn -0.530626 -0.521106 -0.668494
vn 0.395711 -0.893362 0.212880
vn 0.395711 -0.893362 0.212880
vn 0.395711 -0.893362 0.212880
vn 0.395662 -0.893388 0.212862
vn 0.395662 -0.893388 0.212862
vn 0.395662 -0.893388 0.212862
vn 0.663678 0.285844 -0.691248
vn 0.663678 0.285844 -0.691248
vn 0.663678 0.285844 -0.691248
vn -0.826876 0.271212 0.492666
vn -0.826876 0.271212 0.492666
vn -0.826876 0.271212 0.492666
vn 0.624912 0.249073 0.739897
vn 0.624912 0.249073 0.739897
vn 0.624912 0.249073 0.739897
vn 0.598232 0.235128 0.766051
vn 0.598232 0.235128 0.766051
vn 0.598232 0.235128 0.766051
vn 0.750413 0.103726 -0.652780
vn 0.750413 0.103726 -0.652780
vn 0.750413 0.103726 -0.652780
vn 0.750463 0.103773 -0.652714
vn 0.750463 0.103773 -0.652715
vn 0.750463 0.103773 -0.652715
vn -0.598232 -0.235121 -0.766052
vn -0.598232 -0.235121 -0.766052
vn -0.598232 -0.235121 -0.766052
vn -0.624942 -0.249081 -0.739869
vn -0.624942 -0.249081 -0.739869
vn -0.624942 -0.249081 -0.739869
vn -0.808059 0.094480 0.581476
vn -0.808059 0.094480 0.581476
vn -0.808059 0.094480 0.581476
vn -0.807988 0.094544 0.581564
vn -0.807988 0.094544 0.581564
vn -0.807988 0.094544 0.581564
s off
f 6/1/1 7/2/2 3/3/3
f 3/4/4 8/5/5 9/6/6
f 4/7/7 5/8/8 1/9/9
f 1/9/10 5/8/11 2/10/12
f 7/11/13 8/12/14 3/13/15
f 9/14/16 6/15/17 3/16/18
f 1/18/19 2/19/20 6/20/21
f 6/20/22 2/19/23 7/21/24
f 2/10/25 5/8/26 7/11/27
f 7/11/28 5/8/29 8/12/30
f 8/22/31 5/23/32 9/24/33
f 9/24/34 5/23/35 4/25/36
f 1/26/37 6/27/38 4/28/39
f 4/17/40 6/15/41 9/14/42
f 15/29/43 16/30/44 12/31/45
f 12/35/46 17/36/47 18/37/48
f 13/40/49 14/41/50 10/42/51
f 10/42/52 14/41/53 11/43/54
f 16/30/55 17/32/56 12/31/57
f 18/44/58 15/45/59 12/46/60
f 10/47/61 11/48/62 15/49/63
f 15/49/64 11/48/65 16/50/66
f 14/34/67 17/32/68 11/33/69
f 11/33/70 17/32/71 16/30/72
f 17/36/73 14/38/74 18/37/75
f 18/37/76 14/38/77 13/39/78
f 13/51/79 10/52/80 18/53/81
f 18/53/82 10/52/83 15/54/84
f 24/55/85 25/56/86 21/57/87
f 21/58/88 26/59/89 27/60/90
f 22/64/91 23/65/92 19/66/93
f 19/66/94 23/65/95 20/67/96
f 25/61/97 26/59/98 21/58/99
f 27/68/100 24/69/101 21/70/102
f 19/73/103 20/74/104 24/75/105
f 24/75/106 20/74/107 25/76/108
f 23/77/109 26/78/110 20/79/111
f 20/79/112 26/78/113 25/80/114
f 26/59/115 23/62/116 27/60/117
f 27/60/118 23/62/119 22/63/120
f 22/72/121 19/71/122 27/68/123
f 27/68/124 19/71/125 24/69/126
