# This file uses centimeters as units for non-parametric coordinates.

v 19.371033 9.675069 11.282726
v 1.358199 -10.731410 18.140953
v -10.863996 -1.308388 20.228401
v 14.522969 -9.563507 15.761169
v -10.665423 8.562890 18.855537
v -18.498745 -2.954484 15.988594
v 17.434517 14.122614 11.187878
v -10.281985 13.519281 8.703049
v 4.860351 -14.400150 5.580505
v -19.371033 -9.065776 4.815910
v -18.699692 10.776670 13.987015
v -5.387490 13.609312 -6.877151
v -8.386470 8.241692 -16.492744
v -16.290985 2.389643 -10.465256
v -19.089542 -6.656655 -8.205048
v -2.399776 -9.504463 -17.100906
v -7.981616 0.500673 -20.228401
v 13.778999 -5.080991 17.302738
v 13.195751 -11.704280 10.872749
v 9.631577 -13.910969 6.046402
v 6.485747 -13.876224 -3.326462
v 10.373956 13.515699 0.866653
v 3.322361 14.400150 -6.999649
v 3.732705 11.484362 -13.431419
v 5.137775 7.743538 -17.104744
v 3.480249 3.823158 -16.890648
v 3.699285 -0.797503 -19.770943
v 5.024525 -8.171066 -17.479195
v 5.917926 -9.882612 -15.899048
v 17.713047 11.187919 16.034286
v 6.488993 12.327419 -7.497360
v 11.801558 9.728227 -9.024323
v 8.727218 5.755396 -7.588104
v 11.748558 -3.623716 -7.876640
vt 0.277824 0.443470
vt 0.328060 0.442156
vt 0.294908 0.509454
vt 0.233550 0.181404
vt 0.278428 0.161461
vt 0.111145 0.527070
vt 0.127612 0.177396
vt 0.211725 0.052220
vt 0.256005 0.049248
vt 0.060517 0.505666
vt 0.056911 0.065991
vt 0.159529 0.012220
vt 0.036334 0.437772
vt 0.076246 0.044048
vt 0.011409 0.370751
vt 0.011800 0.240588
vt 0.666307 0.015277
vt 0.634695 0.517074
vt 0.579697 0.405507
vt 0.694380 0.400176
vt 0.611568 0.011407
vt 0.782895 0.113326
vt 0.870361 0.332208
vt 0.894616 0.093497
vt 0.877366 0.167277
vt 0.871749 0.211253
vt 0.910890 0.483629
vt 0.985887 0.186037
vt 0.944395 0.205555
vt 0.978975 0.373858
vt 0.332031 0.238535
vt 0.549971 0.405511
vt 0.438469 0.408266
vt 0.579617 0.011411
vt 0.419876 0.514291
vt 0.395854 0.066044
vt 0.574976 0.517083
vt 0.345223 0.055714
vt 0.513291 0.955541
vt 0.364589 0.988590
vt 0.498302 0.887655
vt 0.404149 0.814161
vt 0.458041 0.820630
vt 0.130443 0.803543
vt 0.422508 0.690467
vt 0.140297 0.958700
vt 0.133622 0.622720
vt 0.322141 0.499180
vt 0.416094 0.515870
vt 0.988136 0.527829
vt 0.893399 0.867398
vt 0.833037 0.500031
vt 0.764006 0.655189
vt 0.791219 0.836010
vt 0.604654 0.555074
vt 0.741545 0.510046
vt 0.757418 0.561981
vt 0.738694 0.616430
vt 0.741167 0.680593
vt 0.609226 0.662569
vt 0.672276 0.801508
vt 0.756136 0.782994
vt 0.766229 0.806765
vt 0.956426 0.978929
vt 0.854239 0.940072
vt 0.988589 0.747157
vt 0.121692 0.664861
vt 0.011412 0.638628
vt 0.046739 0.499687
vt 0.053608 0.746130
vn 0.899073 0.395472 0.187803
vn 0.899073 0.395472 0.187803
vn 0.899073 0.395472 0.187803
vn -0.044741 0.879516 0.473761
vn -0.044741 0.879516 0.473761
vn -0.044741 0.879516 0.473761
vn 0.906628 -0.189857 0.376803
vn 0.906628 -0.189857 0.376803
vn 0.906628 -0.189857 0.376803
vn 0.261889 0.127773 0.956603
vn 0.261889 0.127773 0.956603
vn 0.261889 0.127773 0.956602
vn -0.304301 -0.564647 0.767186
vn -0.304301 -0.564647 0.767186
vn -0.304301 -0.564647 0.767186
vn 0.195091 -0.289853 0.936976
vn 0.195091 -0.289853 0.936976
vn 0.195091 -0.289853 0.936976
vn 0.147238 -0.920098 0.362961
vn 0.147238 -0.920098 0.362961
vn 0.147238 -0.920098 0.362961
vn -0.502548 0.129002 0.854871
vn -0.502548 0.129002 0.854871
vn -0.502548 0.129002 0.854871
vn -0.490463 0.118671 0.863344
vn -0.490463 0.118671 0.863344
vn -0.490463 0.118671 0.863344
vn 0.110804 -0.945241 0.306987
vn 0.110804 -0.945241 0.306987
vn 0.110804 -0.945241 0.306987
vn -0.365750 -0.804225 0.468454
vn -0.365750 -0.804225 0.468454
vn -0.365750 -0.804225 0.468454
vn -0.216386 -0.951737 0.217656
vn -0.216386 -0.951737 0.217656
vn -0.216386 -0.951737 0.217656
vn -0.054944 0.919326 0.389641
vn -0.054944 0.919326 0.389641
vn -0.054944 0.919326 0.389641
vn -0.995683 -0.027494 -0.088651
vn -0.995683 -0.027494 -0.088651
vn -0.995683 -0.027494 -0.088651
vn 0.057600 -0.923342 0.379633
vn 0.057600 -0.923342 0.379633
vn 0.057600 -0.923342 0.379633
vn -0.976784 0.210654 -0.038964
vn -0.976784 0.210654 -0.038964
vn -0.976784 0.210654 -0.038964
vn -0.952183 0.303451 0.035560
vn -0.952183 0.303451 0.035560
vn -0.952183 0.303451 0.035560
vn -0.370153 0.922321 -0.110953
vn -0.370153 0.922321 -0.110953
vn -0.370153 0.922321 -0.110953
vn -0.015150 0.998964 0.042913
vn -0.015150 0.998964 0.042913
vn -0.015150 0.998964 0.042913
vn -0.015150 0.998964 0.042913
vn -0.631792 0.711991 -0.306445
vn -0.631792 0.711991 -0.306445
vn -0.631792 0.711991 -0.306445
vn -0.205900 -0.961436 -0.182335
vn -0.205900 -0.961436 -0.182335
vn -0.205900 -0.961436 -0.182335
vn 0.105698 -0.993627 -0.039159
vn 0.105698 -0.993627 -0.039159
vn 0.105698 -0.993627 -0.039159
vn -0.006583 0.699365 -0.714734
vn -0.006583 0.699365 -0.714734
vn -0.006583 0.699365 -0.714734
vn -0.046459 -0.034876 -0.998311
vn -0.046459 -0.034876 -0.998311
vn -0.046459 -0.034876 -0.998311
vn -0.673315 0.714788 -0.189011
vn -0.673315 0.714788 -0.189011
vn -0.673315 0.714788 -0.189011
vn 0.117090 0.473209 -0.873134
vn 0.117090 0.473209 -0.873134
vn 0.117090 0.473209 -0.873134
vn 0.117090 0.473209 -0.873134
vn 0.004504 -0.296060 -0.955159
vn 0.004504 -0.296060 -0.955159
vn 0.004504 -0.296060 -0.955159
vn 0.004504 -0.296060 -0.955159
vn -0.478552 -0.070627 -0.875214
vn -0.478552 -0.070627 -0.875214
vn -0.478552 -0.070627 -0.875214
vn -0.234991 -0.962907 -0.132621
vn -0.234991 -0.962907 -0.132621
vn -0.234991 -0.962907 -0.132621
vn -0.148985 -0.966166 -0.210538
vn -0.148985 -0.966166 -0.210538
vn -0.148985 -0.966166 -0.210538
vn -0.148985 -0.966166 -0.210538
vn -0.690933 -0.536821 -0.484186
vn -0.690933 -0.536821 -0.484186
vn -0.690933 -0.536821 -0.484186
vn -0.704173 0.278383 -0.653179
vn -0.704173 0.278383 -0.653179
vn -0.704173 0.278383 -0.653179
vn -0.017552 0.998754 -0.046722
vn -0.017552 0.998754 -0.046722
vn -0.017552 0.998754 -0.046722
vn -0.110073 0.890327 -0.441817
vn -0.110073 0.890327 -0.441817
vn -0.110073 0.890327 -0.441817
vn -0.110073 0.890327 -0.441817
vn 0.079038 -0.653632 -0.752674
vn 0.079038 -0.653632 -0.752674
vn 0.079038 -0.653632 -0.752674
vn 0.964990 0.000657 -0.262285
vn 0.964990 0.000657 -0.262285
vn 0.964990 0.000657 -0.262285
vn 0.813525 0.300932 -0.497612
vn 0.813525 0.300932 -0.497612
vn 0.813525 0.300932 -0.497612
vn 0.813525 0.300932 -0.497611
vn 0.749710 -0.531791 -0.393870
vn 0.749710 -0.531791 -0.393870
vn 0.749710 -0.531791 -0.393870
vn 0.749710 -0.531791 -0.393870
vn 0.477910 0.811103 -0.337216
vn 0.477910 0.811103 -0.337216
vn 0.477910 0.811103 -0.337216
vn 0.413326 0.797874 -0.438814
vn 0.413326 0.797874 -0.438814
vn 0.413326 0.797874 -0.438814
vn 0.413326 0.797874 -0.438814
vn 0.824857 -0.027257 -0.564685
vn 0.824857 -0.027257 -0.564685
vn 0.824857 -0.027257 -0.564685
vn 0.832737 -0.072131 -0.548950
vn 0.832737 -0.072131 -0.548950
vn 0.832737 -0.072131 -0.548950
vn 0.712284 -0.659034 -0.241508
vn 0.712284 -0.659034 -0.241508
vn 0.712284 -0.659034 -0.241508
vn -0.027441 0.854373 0.518935
vn -0.027441 0.854373 0.518935
vn -0.027441 0.854373 0.518935
vn 0.096753 0.023441 0.995032
vn 0.096753 0.023441 0.995032
vn 0.096753 0.023441 0.995032
vn 0.035865 0.069059 0.996968
vn 0.035865 0.069059 0.996968
vn 0.035865 0.069059 0.996968
vn 0.477909 0.811103 -0.337216
vn 0.477909 0.811103 -0.337216
vn 0.477909 0.811103 -0.337216
vn 0.349896 0.890599 -0.290528
vn 0.349896 0.890599 -0.290528
vn 0.349896 0.890599 -0.290528
vn 0.349896 0.890599 -0.290528
vn 0.920361 -0.186834 -0.343554
vn 0.920361 -0.186834 -0.343554
vn 0.920361 -0.186834 -0.343554
vn 0.920361 -0.186834 -0.343554
vn 0.950400 -0.163990 -0.264285
vn 0.950400 -0.163990 -0.264285
vn 0.950400 -0.163990 -0.264285
vn 0.950400 -0.163990 -0.264285
vn 0.941448 -0.283918 -0.181843
vn 0.941448 -0.283918 -0.181843
vn 0.941448 -0.283918 -0.181843
vn 0.941448 -0.283918 -0.181843
vn 0.725542 -0.644563 -0.241095
vn 0.725542 -0.644563 -0.241095
vn 0.725542 -0.644563 -0.241095
s off
f 1/1/1 7/2/2 30/3/3
f 7/17/4 11/18/5 5/19/6
f 1/1/7 30/3/8 18/6/9
f 2/31/10 5/32/11 3/33/12
f 2/31/13 3/33/14 6/35/15
f 2/31/16 4/38/17 18/36/18
f 4/39/19 2/40/20 19/41/21
f 5/32/22 6/35/23 3/33/24
f 11/37/25 6/35/26 5/32/27
f 9/42/28 19/41/29 2/40/30
f 2/40/31 6/46/32 10/44/33
f 2/40/34 10/44/35 9/42/36
f 7/17/37 8/20/38 11/18/39
f 11/50/40 14/51/41 6/52/42
f 9/42/43 20/43/44 19/41/45
f 14/51/46 10/53/47 6/52/48
f 10/53/49 14/51/50 15/54/51
f 12/23/52 11/18/53 8/20/54
f 12/23/55 8/20/56 22/22/57 23/26/58
f 11/18/59 12/23/60 14/27/61
f 15/47/62 9/42/63 10/44/64
f 9/42/65 21/45/66 20/43/67
f 13/55/68 24/56/69 25/57/70
f 13/55/71 25/57/72 26/58/73
f 12/23/74 13/30/75 14/27/76
f 13/55/77 26/58/78 27/59/79 17/60/80
f 16/61/81 17/60/82 27/59/83 28/62/84
f 15/64/85 14/65/86 16/66/87
f 15/47/88 16/48/89 9/42/90
f 16/48/91 29/49/92 21/45/93 9/42/94
f 14/67/95 17/68/96 16/69/97
f 13/70/98 17/68/99 14/67/100
f 7/17/101 22/22/102 8/20/103
f 23/26/104 24/29/105 13/30/106 12/23/107
f 28/62/108 29/63/109 16/61/110
f 19/13/111 29/11/112 4/10/113
f 33/4/114 34/7/115 27/12/116 26/8/117
f 32/5/118 33/4/119 26/8/120 25/9/121
f 23/26/122 31/25/123 24/29/124
f 31/25/125 32/24/126 25/28/127 24/29/128
f 34/7/129 28/14/130 27/12/131
f 34/7/132 29/11/133 28/14/134
f 21/16/135 29/11/136 20/15/137
f 30/21/138 7/17/139 5/19/140
f 5/32/141 2/31/142 30/34/143
f 30/34/144 2/31/145 18/36/146
f 22/22/147 31/25/148 23/26/149
f 7/17/150 32/24/151 31/25/152 22/22/153
f 1/1/154 33/4/155 32/5/156 7/2/157
f 18/6/158 34/7/159 33/4/160 1/1/161
f 4/10/162 29/11/163 34/7/164 18/6/165
f 20/15/166 29/11/167 19/13/168
