# This file uses centimeters as units for non-parametric coordinates.

v -9.306046 -24.004358 -76.562271
v -13.441263 -23.992779 -83.775238
v -21.730068 -24.030199 -83.838066
v -25.883724 -24.079048 -76.687775
v -21.748438 -24.090639 -69.474945
v -13.459701 -24.053455 -69.412125
v -9.667274 15.557269 -49.994392
v -13.409443 19.784000 -51.647575
v -19.167255 19.188654 -50.601719
v -21.183037 14.366590 -47.902405
v -17.441004 10.139858 -46.249081
v -11.683055 10.735196 -47.295074
v -13.861900 20.033421 -12.050871
v -16.935829 24.155622 -12.141827
v -21.590836 23.537228 -11.873739
v -23.447990 19.288130 -12.660795
v -20.432308 15.467374 -12.670765
v -16.434343 15.680456 -11.175453
v -16.224979 -24.094946 13.593384
v -18.299623 -24.141708 17.313019
v -22.634916 -24.155622 17.373245
v -24.895500 -24.122747 13.713703
v -22.820789 -24.075806 9.994068
v -18.485563 -24.062119 9.933975
v -26.123268 18.305016 -31.143427
v -20.963158 18.912851 -31.767691
v -17.583378 14.742789 -30.961243
v -19.900845 10.175019 -29.250834
v -24.704781 9.786903 -29.582426
v -28.053011 13.793554 -30.334110
v -24.826054 10.669460 7.119667
v -20.601656 9.505580 8.015572
v -18.315466 5.905572 5.950352
v -20.963430 3.711008 3.333523
v -24.380562 5.575698 1.626667
v -26.680204 8.955713 3.645176
v -13.734890 5.610498 -69.842041
v -9.831569 3.203597 -65.908539
v -12.723995 0.724495 -61.383961
v -19.519812 0.652301 -60.792610
v -23.423338 3.059204 -64.726112
v -20.530638 5.538297 -69.250694
vt 0.393883 0.081192
vt 0.393975 0.013102
vt 0.627520 0.144631
vt 0.608534 0.181766
vt 0.739340 0.316391
vt 0.705996 0.332001
vt 0.393498 0.148693
vt 0.588974 0.224479
vt 0.732467 0.504067
vt 0.699569 0.511675
vt 0.667950 0.357483
vt 0.773829 0.689340
vt 0.741306 0.690194
vt 0.663535 0.527823
vt 0.658249 0.879629
vt 0.629848 0.860134
vt 0.706966 0.698462
vt 0.392802 0.967396
vt 0.393169 0.932286
vt 0.612537 0.835429
vt 0.393428 0.897736
vt 0.389201 0.988233
vt 0.323809 0.988588
vt 0.333272 0.709450
vt 0.386885 0.708773
vt 0.012401 0.969584
vt 0.012014 0.902083
vt 0.226114 0.789161
vt 0.245673 0.831873
vt 0.011924 0.833990
vt 0.207126 0.752028
vt 0.315321 0.630341
vt 0.353365 0.655823
vt 0.281975 0.614734
vt 0.310802 0.464491
vt 0.346392 0.472132
vt 0.279190 0.457396
vt 0.354149 0.297650
vt 0.387671 0.290222
vt 0.324005 0.297744
vt 0.272633 0.143719
vt 0.286153 0.110919
vt 0.245967 0.162774
vt 0.011671 0.048669
vt 0.011411 0.014122
vt 0.012042 0.083783
vt 0.831694 0.751237
vt 0.897086 0.751588
vt 0.902890 0.985499
vt 0.849276 0.984816
vt 0.880250 0.576618
vt 0.834825 0.566740
vt 0.779947 0.383049
vt 0.820657 0.388942
vt 0.877682 0.748378
vt 0.824069 0.742795
vt 0.815705 0.201139
vt 0.852429 0.203669
vt 0.790181 0.021837
vt 0.823509 0.013380
vt 0.940745 0.154286
vt 0.986170 0.144414
vt 0.921339 0.314754
vt 0.883439 0.311624
vt 0.924344 0.016992
vt 0.977958 0.011410
vt 0.948686 0.485391
vt 0.917146 0.471276
vt 0.912956 0.622360
vt 0.885998 0.606246
vt 0.970429 0.813984
vt 0.937102 0.824972
vt 0.954388 0.496214
vt 0.988590 0.496346
vt 0.779947 0.572983
vt 0.806905 0.590585
vt 0.826453 0.852776
vt 0.792252 0.852909
vn 0.811114 0.242118 -0.532422
vn 0.811114 0.242118 -0.532422
vn 0.798910 0.338298 -0.497290
vn 0.796383 0.352223 -0.491643
vn -0.034692 0.434361 -0.900070
vn -0.034692 0.434362 -0.900070
vn -0.068125 0.583971 -0.808911
vn -0.067039 0.579257 -0.812384
vn -0.849449 0.267713 -0.454716
vn -0.849449 0.267713 -0.454716
vn -0.875750 0.326098 -0.355979
vn -0.871426 0.314694 -0.376278
vn -0.817098 -0.147871 0.557212
vn -0.817098 -0.147871 0.557212
vn -0.804226 -0.293262 0.516932
vn -0.809131 -0.257914 0.528004
vn 0.035486 -0.321435 0.946266
vn 0.035486 -0.321435 0.946266
vn 0.067687 -0.529264 0.845753
vn 0.066082 -0.519035 0.852195
vn 0.859182 -0.176115 0.480406
vn 0.859182 -0.176115 0.480406
vn 0.880953 -0.239395 0.408182
vn 0.884364 -0.252089 0.392877
vn 0.682302 0.666625 0.300125
vn 0.682302 0.666625 0.300125
vn 0.682302 0.666625 0.300125
vn 0.682302 0.666625 0.300125
vn -0.108908 0.994043 0.004172
vn -0.108908 0.994043 0.004172
vn -0.108908 0.994043 0.004172
vn -0.108908 0.994043 0.004172
vn -0.907863 0.260188 -0.328766
vn -0.907863 0.260188 -0.328766
vn -0.907863 0.260188 -0.328766
vn -0.907863 0.260188 -0.328766
vn -0.678451 -0.671377 -0.298255
vn -0.678451 -0.671377 -0.298255
vn -0.678451 -0.671377 -0.298255
vn -0.678451 -0.671377 -0.298255
vn 0.093749 -0.995473 0.015626
vn 0.093749 -0.995473 0.015626
vn 0.093749 -0.995473 0.015626
vn 0.093749 -0.995473 0.015626
vn 0.894614 -0.234107 0.380604
vn 0.894614 -0.234107 0.380604
vn 0.894614 -0.234107 0.380604
vn 0.894614 -0.234107 0.380604
vn -0.881698 0.451940 0.135492
vn -0.881698 0.451940 0.135492
vn -0.881698 0.451940 0.135492
vn -0.881698 0.451940 0.135492
vn 0.009474 0.817305 0.576127
vn 0.009474 0.817305 0.576127
vn 0.009474 0.817305 0.576127
vn 0.009474 0.817305 0.576127
vn 0.774142 0.415181 0.477837
vn 0.774142 0.415181 0.477837
vn 0.774142 0.415181 0.477837
vn 0.774142 0.415181 0.477837
vn 0.789392 -0.566459 -0.236610
vn 0.789392 -0.566459 -0.236610
vn 0.789392 -0.566459 -0.236610
vn 0.789392 -0.566459 -0.236610
vn 0.074973 -0.804845 -0.588731
vn 0.074973 -0.804845 -0.588731
vn 0.074973 -0.804845 -0.588731
vn 0.074973 -0.804845 -0.588731
vn -0.768782 -0.435583 -0.468232
vn -0.768782 -0.435583 -0.468232
vn -0.768783 -0.435583 -0.468232
vn -0.768783 -0.435583 -0.468232
vn -0.141110 0.963294 -0.228371
vn -0.141110 0.963294 -0.228371
vn -0.141110 0.963294 -0.228371
vn -0.141110 0.963294 -0.228371
vn 0.766638 0.563313 -0.308129
vn 0.766638 0.563313 -0.308129
vn 0.766638 0.563313 -0.308129
vn 0.766638 0.563313 -0.308129
vn 0.873165 -0.486640 -0.027646
vn 0.873165 -0.486640 -0.027646
vn 0.873165 -0.486640 -0.027646
vn 0.873165 -0.486640 -0.027646
vn 0.001941 -0.952625 0.304140
vn 0.001941 -0.952625 0.304140
vn 0.001941 -0.952625 0.304140
vn 0.001941 -0.952625 0.304140
vn -0.737286 -0.564226 0.371563
vn -0.737286 -0.564226 0.371563
vn -0.737286 -0.564226 0.371563
vn -0.737286 -0.564226 0.371563
vn -0.912133 0.394567 0.111040
vn -0.912133 0.394567 0.111040
vn -0.912133 0.394567 0.111040
vn -0.912133 0.394567 0.111040
vn -0.057463 0.270617 0.960971
vn -0.057463 0.270617 0.960971
vn -0.057463 0.270617 0.960971
vn -0.057463 0.270617 0.960971
vn 0.836938 0.193972 0.511771
vn 0.836938 0.193972 0.511771
vn 0.836938 0.193972 0.511771
vn 0.836938 0.193972 0.511771
vn 0.798731 -0.083738 -0.595833
vn 0.798731 -0.083738 -0.595833
vn 0.798731 -0.083738 -0.595833
vn 0.798731 -0.083738 -0.595833
vn 0.146592 -0.239836 -0.959682
vn 0.146592 -0.239836 -0.959682
vn 0.146592 -0.239836 -0.959682
vn 0.146592 -0.239836 -0.959682
vn -0.831489 -0.196992 -0.519443
vn -0.831489 -0.196992 -0.519443
vn -0.831489 -0.196992 -0.519443
vn -0.831489 -0.196992 -0.519443
vn -0.871812 0.092894 0.480953
vn -0.871812 0.092894 0.480953
vn -0.871812 0.092894 0.480953
vn -0.871812 0.092894 0.480953
vn 0.796383 0.352223 -0.491643
vn 0.798910 0.338298 -0.497290
vn 0.750023 0.516838 -0.412728
vn 0.750023 0.516838 -0.412728
vn 0.884364 -0.252089 0.392877
vn 0.880953 -0.239395 0.408182
vn 0.898646 -0.368245 0.238392
vn 0.898646 -0.368245 0.238392
vn 0.066082 -0.519035 0.852195
vn 0.067687 -0.529264 0.845753
vn 0.115756 -0.826814 0.550436
vn 0.115756 -0.826814 0.550436
vn -0.809131 -0.257914 0.528004
vn -0.804226 -0.293262 0.516932
vn -0.750093 -0.498949 0.434063
vn -0.750093 -0.498949 0.434063
vn -0.871426 0.314694 -0.376278
vn -0.875750 0.326098 -0.355979
vn -0.892449 0.406624 -0.195427
vn -0.892449 0.406624 -0.195427
vn -0.067039 0.579257 -0.812384
vn -0.068125 0.583971 -0.808911
vn -0.119841 0.794890 -0.594801
vn -0.119841 0.794890 -0.594801
s off
f 1/1/1 2/2/2 37/3/3 38/4/4
f 2/22/5 3/23/6 42/24/7 37/25/8
f 3/26/9 4/27/10 41/28/11 42/29/12
f 4/27/13 5/30/14 40/31/15 41/28/16
f 5/47/17 6/48/18 39/49/19 40/50/20
f 6/7/21 1/1/22 38/4/23 39/8/24
f 7/6/25 8/5/26 26/9/27 27/10/28
f 8/51/29 9/52/30 25/53/31 26/54/32
f 9/33/33 10/32/34 30/35/35 25/36/36
f 10/32/37 11/34/38 29/37/39 30/35/40
f 11/61/41 12/62/42 28/63/43 29/64/44
f 12/11/45 7/6/46 27/10/47 28/14/48
f 15/39/49 16/38/50 36/41/51 31/42/52
f 14/58/53 15/57/54 31/59/55 32/60/56
f 13/13/57 14/12/58 32/15/59 33/16/60
f 18/17/61 13/13/62 33/16/63 34/20/64
f 17/68/65 18/67/66 34/69/67 35/70/68
f 16/38/69 17/40/70 35/43/71 36/41/72
f 26/54/73 25/53/74 15/57/75 14/58/76
f 27/10/77 26/9/78 14/12/79 13/13/80
f 28/14/81 27/10/82 13/13/83 18/17/84
f 29/64/85 28/63/86 18/67/87 17/68/88
f 30/35/89 29/37/90 17/40/91 16/38/92
f 25/36/93 30/35/94 16/38/95 15/39/96
f 32/71/97 31/72/98 21/73/99 20/74/100
f 33/16/101 32/15/102 20/18/103 19/19/104
f 34/20/105 33/16/106 19/19/107 24/21/108
f 35/75/109 34/76/110 24/77/111 23/78/112
f 36/41/113 35/43/114 23/46/115 22/44/116
f 31/42/117 36/41/118 22/44/119 21/45/120
f 38/4/121 37/3/122 8/5/123 7/6/124
f 39/8/125 38/4/126 7/6/127 12/11/128
f 40/65/129 39/66/130 12/62/131 11/61/132
f 41/28/133 40/31/134 11/34/135 10/32/136
f 42/29/137 41/28/138 10/32/139 9/33/140
f 37/55/141 42/56/142 9/52/143 8/51/144
