# This file uses centimeters as units for non-parametric coordinates.

v 12.066978 10.931760 -12.066978
v -0.000030 10.931760 -17.065281
v -12.066978 10.931760 -12.066978
v -17.065292 10.931760 0.000000
v -12.066978 10.931760 12.066978
v -0.000030 10.931760 17.065281
v 12.066978 10.931760 12.066978
v 17.065292 10.931760 0.000000
v 11.546892 40.966820 -12.525922
v 0.368887 40.966820 -17.156006
v -10.809118 40.966820 -12.525922
v -15.439236 40.966820 -1.347914
v -10.809118 40.966820 9.830093
v 0.368887 40.966820 14.460176
v 11.546892 40.966820 9.830093
v 16.176950 40.966820 -1.347914
v 13.347095 0.000000 -13.347095
v -0.000030 0.000000 -18.875635
v -0.000030 0.000000 -0.000000
v -13.347095 0.000000 -13.347095
v -18.875599 0.000000 -0.000000
v -13.347095 0.000000 13.347095
v -0.000030 0.000000 18.875635
v 13.347095 0.000000 13.347095
v 18.875599 0.000000 -0.000000
v 1.141417 555.454468 -1.858090
v -1.180751 555.454468 -2.819955
v -3.502917 555.454468 -1.858090
v -4.464727 555.454468 0.464062
v -3.502917 555.454468 2.786214
v -1.180751 555.454468 3.748080
v 1.141417 555.454468 2.786214
v 2.103287 555.454468 0.464062
v -14.001541 389.402771 -12.018031
v -14.947330 389.506317 -13.154799
v -15.529401 390.192230 -10.110265
v -16.248549 390.023621 -12.668389
v -16.655922 390.311432 -11.337584
v -14.172786 389.574249 -10.898154
v 7.194981 124.429321 -6.259242
v 10.342843 124.429321 1.340340
v 7.194981 124.429321 8.939919
v -0.404564 124.429321 12.087768
v -8.004215 124.429321 8.939919
v -11.152029 124.429321 1.340340
v -8.004215 124.429321 -6.259242
v -0.404564 124.429321 -9.407087
v -1.180743 560.977966 0.464062
vt 0.164972 0.969503
vt 0.092059 0.969503
vt 0.094288 0.917285
vt 0.161830 0.917285
vt 0.172708 0.988508
vt 0.092059 0.988508
vt 0.019146 0.969503
vt 0.026746 0.917285
vt 0.089614 0.772183
vt 0.135534 0.772183
vt 0.011411 0.988508
vt 0.043695 0.772183
vt 0.084924 0.022832
vt 0.098957 0.022832
vt 0.070893 0.022832
vt 0.084924 0.013229
vt 0.202521 0.032317
vt 0.275434 0.032317
vt 0.267289 0.084534
vt 0.199747 0.084534
vt 0.194785 0.013311
vt 0.275434 0.013311
vt 0.348347 0.032317
vt 0.334831 0.084534
vt 0.283533 0.229635
vt 0.237613 0.229635
vt 0.356082 0.013311
vt 0.329452 0.229635
vt 0.278238 0.978986
vt 0.264206 0.978986
vt 0.292269 0.978986
vt 0.278238 0.988589
vt 0.379573 0.032317
vt 0.452486 0.032317
vt 0.454715 0.084534
vt 0.387173 0.084534
vt 0.371838 0.013311
vt 0.452486 0.013311
vt 0.525399 0.032317
vt 0.522257 0.084534
vt 0.450041 0.229635
vt 0.404122 0.229635
vt 0.533135 0.013311
vt 0.495961 0.229635
vt 0.445351 0.978986
vt 0.431320 0.978986
vt 0.459384 0.978986
vt 0.445351 0.988589
vt 0.556623 0.032317
vt 0.629536 0.032317
vt 0.637681 0.084534
vt 0.570138 0.084534
vt 0.548887 0.013311
vt 0.629536 0.013311
vt 0.702449 0.032317
vt 0.705223 0.084534
vt 0.621438 0.229635
vt 0.575520 0.229635
vt 0.710185 0.013311
vt 0.667357 0.229635
vt 0.626734 0.978986
vt 0.612701 0.978986
vt 0.640764 0.978986
vt 0.626734 0.988589
vt 0.839995 0.011411
vt 0.920644 0.021022
vt 0.839995 0.044227
vt 0.954048 0.044227
vt 0.759347 0.021022
vt 0.920644 0.067431
vt 0.725942 0.044227
vt 0.839995 0.077043
vt 0.759347 0.067431
vt 0.988590 0.017839
vt 0.982875 0.019816
vt 0.979357 0.014522
vt 0.975012 0.018970
vt 0.987554 0.015893
vt 0.972550 0.016656
vn 0.382672 -0.007491 -0.923854
vn 0.382672 -0.007491 -0.923854
vn 0.382672 -0.007491 -0.923854
vn 0.382672 -0.007491 -0.923854
vn -0.382683 0.001910 -0.923878
vn -0.382683 0.001910 -0.923878
vn -0.382683 0.001910 -0.923878
vn -0.382683 0.001910 -0.923878
vn -0.923381 0.032826 -0.382479
vn -0.923381 0.032826 -0.382479
vn -0.923381 0.032826 -0.382479
vn -0.923381 0.032826 -0.382479
vn -0.921800 0.067041 0.381824
vn -0.921800 0.067041 0.381824
vn -0.921800 0.067041 0.381824
vn -0.921800 0.067041 0.381824
vn -0.381314 0.084530 0.920573
vn -0.381314 0.084530 0.920573
vn -0.381314 0.084530 0.920573
vn -0.381314 0.084530 0.920573
vn 0.381599 0.075219 0.921262
vn 0.381599 0.075219 0.921262
vn 0.381599 0.075219 0.921262
vn 0.381599 0.075219 0.921262
vn 0.922966 0.044455 0.382305
vn 0.922966 0.044455 0.382305
vn 0.922966 0.044455 0.382305
vn 0.922966 0.044455 0.382305
vn 0.923832 0.010150 -0.382663
vn 0.923832 0.010150 -0.382663
vn 0.923832 0.010150 -0.382663
vn 0.923832 0.010150 -0.382663
vn 0.000000 -1.000000 0.000000
vn 0.000000 -1.000000 0.000000
vn 0.000000 -1.000000 0.000000
vn 0.000000 -1.000000 0.000000
vn 0.000000 -1.000000 0.000000
vn 0.000000 -1.000000 0.000000
vn 0.000000 -1.000000 0.000000
vn 0.000000 -1.000000 0.000000
vn 0.000000 -1.000000 0.000000
vn 0.000000 -1.000000 0.000000
vn 0.000000 -1.000000 0.000000
vn 0.000000 -1.000000 0.000000
vn 0.000000 -1.000000 0.000000
vn 0.000000 -1.000000 0.000000
vn 0.000000 -1.000000 0.000000
vn 0.000000 -1.000000 0.000000
vn 0.000000 -1.000000 0.000000
vn 0.000000 -1.000000 0.000000
vn 0.000000 -1.000000 0.000000
vn 0.000000 -1.000000 0.000000
vn 0.000000 -1.000000 0.000000
vn 0.000000 -1.000000 0.000000
vn 0.000000 -1.000000 0.000000
vn 0.000000 -1.000000 0.000000
vn 0.291760 0.943556 -0.156776
vn 0.291760 0.943556 -0.156776
vn 0.291760 0.943556 -0.156776
vn 0.316091 0.936699 -0.150603
vn 0.316091 0.936699 -0.150603
vn 0.316091 0.936699 -0.150603
vn 0.245858 0.960218 -0.132420
vn 0.245858 0.960218 -0.132420
vn 0.245858 0.960218 -0.132420
vn 0.371914 0.924395 -0.084693
vn 0.371914 0.924395 -0.084693
vn 0.371914 0.924395 -0.084693
vn 0.378280 0.151239 -0.913253
vn 0.378280 0.151239 -0.913253
vn 0.378281 0.151239 -0.913253
vn 0.378281 0.151239 -0.913253
vn -0.378282 0.151239 -0.913252
vn -0.378282 0.151239 -0.913252
vn -0.378282 0.151239 -0.913252
vn -0.378282 0.151239 -0.913252
vn -0.913253 0.151237 -0.378281
vn -0.913253 0.151237 -0.378281
vn -0.913253 0.151237 -0.378281
vn -0.913253 0.151237 -0.378281
vn -0.913253 0.151237 0.378281
vn -0.913253 0.151237 0.378281
vn -0.913253 0.151237 0.378281
vn -0.913253 0.151237 0.378281
vn -0.378282 0.151239 0.913252
vn -0.378282 0.151239 0.913252
vn -0.378282 0.151239 0.913252
vn -0.378282 0.151239 0.913252
vn 0.378280 0.151239 0.913253
vn 0.378280 0.151239 0.913253
vn 0.378281 0.151239 0.913253
vn 0.378281 0.151239 0.913253
vn 0.913253 0.151237 0.378281
vn 0.913253 0.151237 0.378281
vn 0.913253 0.151237 0.378281
vn 0.913253 0.151237 0.378281
vn 0.913253 0.151237 -0.378281
vn 0.913253 0.151237 -0.378281
vn 0.913253 0.151237 -0.378281
vn 0.913253 0.151237 -0.378281
vn 0.381166 0.088968 -0.920216
vn 0.381166 0.088968 -0.920216
vn 0.381166 0.088968 -0.920216
vn 0.381166 0.088968 -0.920216
vn -0.381395 0.081953 -0.920772
vn -0.381395 0.081953 -0.920772
vn -0.381395 0.081953 -0.920772
vn -0.381395 0.081953 -0.920772
vn -0.922233 0.059676 -0.382001
vn -0.922233 0.059676 -0.382001
vn -0.922233 0.059676 -0.382001
vn -0.922233 0.059676 -0.382001
vn -0.923310 0.035109 0.382448
vn -0.923310 0.035109 0.382448
vn -0.923310 0.035109 0.382448
vn -0.923310 0.035109 0.382448
vn -0.382584 0.022709 0.923642
vn -0.382584 0.022709 0.923642
vn -0.382584 0.022709 0.923642
vn -0.382584 0.022709 0.923642
vn 0.382514 0.029794 0.923469
vn 0.382514 0.029794 0.923469
vn 0.382514 0.029794 0.923469
vn 0.382514 0.029794 0.923469
vn 0.922621 0.052183 0.382162
vn 0.922621 0.052183 0.382162
vn 0.922621 0.052183 0.382162
vn 0.922621 0.052183 0.382162
vn 0.921160 0.076680 -0.381556
vn 0.921160 0.076680 -0.381556
vn 0.921160 0.076680 -0.381556
vn 0.921160 0.076680 -0.381556
vn 0.923747 0.016881 -0.382630
vn 0.923747 0.016881 -0.382630
vn 0.923747 0.016881 -0.382630
vn 0.923747 0.016881 -0.382630
vn 0.923722 0.018436 0.382620
vn 0.923722 0.018436 0.382620
vn 0.923722 0.018436 0.382620
vn 0.923722 0.018436 0.382620
vn 0.382618 0.018562 0.923720
vn 0.382618 0.018562 0.923720
vn 0.382618 0.018562 0.923720
vn 0.382618 0.018562 0.923720
vn -0.382624 0.017184 0.923744
vn -0.382624 0.017184 0.923744
vn -0.382624 0.017184 0.923744
vn -0.382624 0.017184 0.923744
vn -0.923777 0.015110 0.382632
vn -0.923777 0.015110 0.382633
vn -0.923777 0.015110 0.382633
vn -0.923777 0.015110 0.382633
vn -0.923798 0.013555 -0.382641
vn -0.923798 0.013555 -0.382641
vn -0.923798 0.013555 -0.382641
vn -0.923798 0.013555 -0.382641
vn -0.382646 0.013429 -0.923798
vn -0.382646 0.013429 -0.923798
vn -0.382646 0.013429 -0.923798
vn -0.382646 0.013429 -0.923798
vn 0.382642 0.014807 -0.923778
vn 0.382642 0.014807 -0.923778
vn 0.382642 0.014807 -0.923778
vn 0.382642 0.014807 -0.923778
vn 0.335412 0.481447 -0.809758
vn 0.335412 0.481447 -0.809758
vn 0.335412 0.481447 -0.809758
vn -0.335409 0.481443 -0.809761
vn -0.335409 0.481443 -0.809761
vn -0.335409 0.481443 -0.809761
vn -0.809767 0.481445 -0.335393
vn -0.809767 0.481445 -0.335393
vn -0.809767 0.481445 -0.335393
vn -0.809771 0.481448 0.335379
vn -0.809771 0.481448 0.335379
vn -0.809771 0.481448 0.335379
vn -0.335408 0.481441 0.809763
vn -0.335408 0.481441 0.809763
vn -0.335408 0.481441 0.809763
vn 0.335411 0.481445 0.809760
vn 0.335411 0.481445 0.809759
vn 0.335411 0.481445 0.809759
vn 0.809756 0.481445 0.335419
vn 0.809756 0.481445 0.335419
vn 0.809756 0.481445 0.335419
vn 0.809756 0.481445 -0.335419
vn 0.809756 0.481445 -0.335419
vn 0.809756 0.481445 -0.335419
s off
f 1/1/1 2/2/2 10/3/3 9/4/4
f 2/2/5 3/7/6 11/8/7 10/3/8
f 3/17/9 4/18/10 12/19/11 11/20/12
f 4/18/13 5/23/14 13/24/15 12/19/16
f 5/33/17 6/34/18 14/35/19 13/36/20
f 6/34/21 7/39/22 15/40/23 14/35/24
f 7/49/25 8/50/26 16/51/27 15/52/28
f 8/50/29 1/55/30 9/56/31 16/51/32
f 18/65/33 17/66/34 19/67/35
f 20/69/36 18/65/37 19/67/38
f 21/71/39 20/69/40 19/67/41
f 22/73/42 21/71/43 19/67/44
f 23/72/45 22/73/46 19/67/47
f 24/70/48 23/72/49 19/67/50
f 25/68/51 24/70/52 19/67/53
f 17/66/54 25/68/55 19/67/56
f 34/74/57 35/75/58 36/76/59
f 35/75/60 37/77/61 36/76/62
f 37/77/63 38/79/64 36/76/65
f 39/78/66 34/74/67 36/76/68
f 2/2/69 1/1/70 17/5/71 18/6/72
f 3/7/73 2/2/74 18/6/75 20/11/76
f 4/18/77 3/17/78 20/21/79 21/22/80
f 5/23/81 4/18/82 21/22/83 22/27/84
f 6/34/85 5/33/86 22/37/87 23/38/88
f 7/39/89 6/34/90 23/38/91 24/43/92
f 8/50/93 7/49/94 24/53/95 25/54/96
f 1/55/97 8/50/98 25/54/99 17/59/100
f 9/4/101 10/3/102 47/9/103 40/10/104
f 10/3/105 11/8/106 46/12/107 47/9/108
f 11/20/109 12/19/110 45/25/111 46/26/112
f 12/19/113 13/24/114 44/28/115 45/25/116
f 13/36/117 14/35/118 43/41/119 44/42/120
f 14/35/121 15/40/122 42/44/123 43/41/124
f 15/52/125 16/51/126 41/57/127 42/58/128
f 16/51/129 9/56/130 40/60/131 41/57/132
f 41/57/133 40/60/134 26/63/135 33/61/136
f 42/58/137 41/57/138 33/61/139 32/62/140
f 43/41/141 42/44/142 32/47/143 31/45/144
f 44/42/145 43/41/146 31/45/147 30/46/148
f 45/25/149 44/28/150 30/31/151 29/29/152
f 46/26/153 45/25/154 29/29/155 28/30/156
f 47/9/157 46/12/158 28/15/159 27/13/160
f 40/10/161 47/9/162 27/13/163 26/14/164
f 26/14/165 27/13/166 48/16/167
f 27/13/168 28/15/169 48/16/170
f 28/30/171 29/29/172 48/32/173
f 29/29/174 30/31/175 48/32/176
f 30/46/177 31/45/178 48/48/179
f 31/45/180 32/47/181 48/48/182
f 32/62/183 33/61/184 48/64/185
f 33/61/186 26/63/187 48/64/188
