# This file uses centimeters as units for non-parametric coordinates.

v -93.391731 10.176793 21.770267
v 43.752094 11.719588 99.510620
v 84.153496 11.719588 -39.617615
v 44.587357 0.000000 102.818024
v 73.255775 0.000000 -49.514919
v 79.497421 0.000000 -54.573650
v 102.453606 0.000000 -48.092819
v 59.573193 0.000000 104.627792
v 90.222000 0.000000 71.145424
v -78.042313 0.000000 -46.870899
v 92.496765 12.490986 -35.131939
v 26.898132 10.176793 -85.718132
v 8.176466 0.000000 -108.735374
v -19.831282 0.000000 98.222382
v -31.409470 0.000000 84.003616
v 106.903137 0.000000 32.685585
v 103.919640 0.000000 53.996433
v 26.615780 0.000000 -97.887733
v 57.331341 0.000000 -58.358299
v -108.954353 0.000000 5.223969
v -98.554474 0.000000 33.344391
v -45.090111 11.719588 67.829102
v -78.121048 0.000000 58.315536
v -11.785519 0.000000 97.660011
v 52.517517 0.000000 108.735374
v 97.625549 10.176793 44.081654
v -22.959061 0.000000 -105.760368
v -47.606865 0.000000 -89.949844
v -65.439720 10.176793 -72.545685
v -75.878586 0.000000 -87.550156
v -57.049595 12.748116 -17.817451
v -106.162949 0.000000 -11.275510
v 100.296288 0.000000 -1.715490
v 108.954353 0.000000 -25.694235
v 99.011360 0.000000 -51.653324
v 71.215378 10.176793 -40.498951
v 9.360744 10.176793 -97.713005
v -27.691587 12.748119 72.640053
v 84.127014 12.748116 39.217743
v 59.074390 12.748116 -28.390051
v 57.126957 7.805239 27.787727
v -23.756302 6.516163 -57.871258
vt 0.362700 0.243821
vt 0.560615 0.755832
vt 0.168055 0.624177
vt 0.606495 0.235088
vt 0.388814 0.918802
vt 0.313098 0.122743
vt 0.734435 0.606532
vt 0.188933 0.702199
vt 0.460620 0.988588
vt 0.051444 0.303799
vt 0.907338 0.458023
vt 0.798119 0.793453
vt 0.635755 0.085211
vt 0.338585 0.941952
vt 0.230218 0.850323
vt 0.057033 0.588928
vt 0.532225 0.976073
vt 0.291988 0.062211
vt 0.059474 0.552849
vt 0.855284 0.379379
vt 0.686698 0.849970
vt 0.655221 0.122624
vt 0.029237 0.232853
vt 0.490735 0.050233
vt 0.873646 0.713486
vt 0.908095 0.380645
vt 0.736550 0.242906
vt 0.863233 0.840267
vt 0.659045 0.180643
vt 0.707451 0.055996
vt 0.174540 0.095410
vt 0.011411 0.264490
vt 0.341445 0.020607
vt 0.942261 0.602957
vt 0.955172 0.463332
vt 0.720124 0.143504
vt 0.691999 0.040559
vt 0.248963 0.033985
vt 0.594796 0.011410
vt 0.891107 0.820268
vt 0.891107 0.694166
vt 0.935271 0.746068
vt 0.065074 0.606552
vt 0.115933 0.667901
vt 0.065074 0.816024
vt 0.919854 0.714714
vt 0.919854 0.650952
vt 0.970714 0.787247
vt 0.011412 0.596697
vt 0.062271 0.600443
vt 0.011412 0.849493
vt 0.011412 0.561135
vt 0.935187 0.856511
vt 0.935187 0.760947
vt 0.979350 0.812052
vt 0.189732 0.735790
vt 0.189732 0.763785
vt 0.145569 0.772932
vt 0.189732 0.835195
vt 0.120652 0.830096
vt 0.120652 0.652833
vt 0.164818 0.707404
vt 0.933269 0.641214
vt 0.987475 0.491360
vt 0.988590 0.824771
vn 0.049672 0.998636 -0.016121
vn 0.049672 0.998636 -0.016121
vn 0.049672 0.998635 -0.016121
vn -0.073244 0.966741 -0.245047
vn -0.073244 0.966741 -0.245047
vn -0.073244 0.966741 -0.245047
vn -0.437864 0.801996 0.406297
vn -0.437864 0.801996 0.406297
vn -0.437864 0.801996 0.406297
vn -0.437864 0.801996 0.406297
vn -0.707494 0.656498 0.261655
vn -0.707494 0.656498 0.261655
vn -0.707494 0.656497 0.261655
vn -0.404609 0.543111 0.735746
vn -0.404609 0.543111 0.735746
vn -0.404609 0.543111 0.735746
vn -0.774994 -0.033719 0.631069
vn -0.774994 -0.033719 0.631069
vn -0.774994 -0.033719 0.631069
vn -0.184193 0.855954 0.483131
vn -0.184193 0.855954 0.483131
vn -0.184193 0.855954 0.483131
vn -0.087866 0.264747 0.960306
vn -0.087866 0.264747 0.960306
vn -0.087866 0.264747 0.960306
vn 0.030631 0.898334 0.438244
vn 0.030631 0.898334 0.438244
vn 0.030631 0.898334 0.438244
vn -0.588212 0.180544 0.788296
vn -0.588212 0.180544 0.788296
vn -0.588212 0.180544 0.788296
vn 0.345847 0.726274 0.594068
vn 0.345847 0.726274 0.594068
vn 0.345847 0.726274 0.594068
vn 0.458778 0.783047 0.419952
vn 0.458778 0.783047 0.419952
vn 0.458778 0.783047 0.419952
vn 0.527880 0.737266 0.421641
vn 0.527880 0.737266 0.421641
vn 0.527880 0.737266 0.421641
vn 0.793194 0.598759 0.111046
vn 0.793194 0.598758 0.111046
vn 0.793194 0.598759 0.111046
vn 0.658473 0.741904 -0.126462
vn 0.658472 0.741904 -0.126462
vn 0.658472 0.741904 -0.126462
vn -0.064326 0.736641 -0.673218
vn -0.064326 0.736641 -0.673218
vn -0.064326 0.736641 -0.673218
vn -0.209125 0.921944 -0.326015
vn -0.209125 0.921944 -0.326015
vn -0.209125 0.921944 -0.326015
vn -0.218602 0.728070 -0.649713
vn -0.218602 0.728070 -0.649713
vn -0.218602 0.728070 -0.649713
vn -0.045729 0.841225 -0.538748
vn -0.045729 0.841225 -0.538748
vn -0.045729 0.841225 -0.538748
vn -0.670849 0.740735 -0.035682
vn -0.670849 0.740735 -0.035682
vn -0.670849 0.740735 -0.035682
vn -0.332990 0.910120 -0.246575
vn -0.332990 0.910120 -0.246575
vn -0.332990 0.910120 -0.246575
vn -0.256413 0.965593 -0.043380
vn -0.256413 0.965593 -0.043380
vn -0.256413 0.965593 -0.043380
vn -0.272093 0.937955 -0.214955
vn -0.272093 0.937955 -0.214955
vn -0.272093 0.937955 -0.214955
vn 0.439558 0.791327 -0.424959
vn 0.439558 0.791327 -0.424959
vn 0.439558 0.791327 -0.424959
vn 0.211927 0.817944 -0.534841
vn 0.211927 0.817944 -0.534841
vn 0.211927 0.817944 -0.534841
vn 0.660757 0.725689 -0.191772
vn 0.660757 0.725689 -0.191772
vn 0.660757 0.725689 -0.191772
vn 0.094597 0.769086 -0.632107
vn 0.094597 0.769086 -0.632107
vn 0.094597 0.769086 -0.632107
vn -0.548896 0.489946 -0.677249
vn -0.548896 0.489946 -0.677249
vn -0.548896 0.489946 -0.677249
vn -0.053432 0.794009 -0.605553
vn -0.053432 0.794009 -0.605553
vn -0.053432 0.794009 -0.605553
vn 0.365942 0.657162 -0.658958
vn 0.365942 0.657162 -0.658958
vn 0.365942 0.657162 -0.658958
vn 0.643306 0.579904 -0.499869
vn 0.643306 0.579904 -0.499869
vn 0.643306 0.579904 -0.499869
vn 0.381687 0.658301 -0.648810
vn 0.381687 0.658301 -0.648810
vn 0.381687 0.658301 -0.648810
vn 0.404947 0.696764 -0.592062
vn 0.404947 0.696764 -0.592062
vn 0.404947 0.696764 -0.592062
vn -0.052194 0.998493 0.016940
vn -0.052194 0.998493 0.016940
vn -0.052194 0.998493 0.016940
vn -0.069986 0.996745 0.040006
vn -0.069986 0.996745 0.040006
vn -0.069986 0.996745 0.040006
vn -0.191038 0.820141 0.539326
vn -0.191038 0.820141 0.539326
vn -0.191038 0.820141 0.539326
vn 0.450589 0.789904 0.415958
vn 0.450589 0.789904 0.415958
vn 0.450589 0.789904 0.415958
vn 0.145931 0.982648 0.114485
vn 0.145931 0.982648 0.114485
vn 0.145931 0.982648 0.114485
vn 0.006373 0.999752 0.021322
vn 0.006373 0.999752 0.021322
vn 0.006373 0.999752 0.021322
vn 0.251183 0.947891 -0.195987
vn 0.251183 0.947891 -0.195987
vn 0.251183 0.947891 -0.195987
vn 0.734616 0.673707 0.080368
vn 0.734616 0.673707 0.080368
vn 0.734616 0.673707 0.080368
vn 0.007158 0.999971 -0.002653
vn 0.007158 0.999971 -0.002653
vn 0.007158 0.999971 -0.002653
vn -0.082988 0.996295 0.022558
vn -0.082988 0.996295 0.022558
vn -0.082988 0.996295 0.022558
vn 0.042533 0.991066 0.126412
vn 0.042533 0.991066 0.126412
vn 0.042533 0.991066 0.126412
vn -0.566302 0.822789 0.048160
vn -0.566302 0.822789 0.048160
vn -0.566302 0.822789 0.048160
vn 0.522734 0.831339 0.188745
vn 0.522734 0.831339 0.188745
vn 0.522734 0.831339 0.188745
vn -0.019449 0.990763 -0.134205
vn -0.019449 0.990763 -0.134205
vn -0.019449 0.990763 -0.134205
vn -0.093256 0.950809 -0.295407
vn -0.093256 0.950809 -0.295407
vn -0.093256 0.950809 -0.295407
vn -0.182456 0.908534 -0.375867
vn -0.182456 0.908534 -0.375867
vn -0.182456 0.908534 -0.375867
vn 0.564960 0.746930 -0.350594
vn 0.564960 0.746930 -0.350594
vn 0.564960 0.746930 -0.350594
vn 0.049599 0.996133 -0.072518
vn 0.049599 0.996133 -0.072518
vn 0.049599 0.996133 -0.072518
vn -0.211533 0.974222 0.078385
vn -0.211533 0.974222 0.078385
vn -0.211533 0.974223 0.078385
vn 0.008005 0.996095 0.087920
vn 0.008005 0.996095 0.087920
vn 0.008005 0.996095 0.087920
vn 0.109428 0.991972 -0.063382
vn 0.109428 0.991972 -0.063382
vn 0.109428 0.991972 -0.063382
vn -0.015111 0.986014 -0.165974
vn -0.015111 0.986014 -0.165974
vn -0.015111 0.986014 -0.165974
s off
f 41/1/1 31/2/2 38/3/3
f 39/6/4 41/1/5 38/3/6
f 21/14/7 23/15/8 22/8/9 1/5/10
f 20/40/11 21/41/12 1/42/13
f 15/43/14 22/44/15 23/45/16
f 15/46/17 14/47/18 22/48/19
f 22/8/20 14/16/21 38/3/22
f 4/49/23 2/50/24 24/51/25
f 14/16/26 24/19/27 38/3/28
f 4/49/29 25/52/30 2/50/31
f 25/32/32 8/23/33 2/10/34
f 8/23/35 9/31/36 26/18/37
f 17/38/38 26/18/39 9/31/40
f 17/53/41 16/54/42 26/55/43
f 16/33/44 33/24/45 26/18/46
f 13/35/47 27/34/48 37/11/49
f 27/34/50 28/25/51 37/11/52
f 37/11/53 28/25/54 29/12/55
f 28/25/56 30/28/57 29/12/58
f 30/28/59 10/21/60 29/12/61
f 20/9/62 1/5/63 31/2/64
f 32/17/65 20/9/66 31/2/67
f 10/21/68 32/17/69 31/2/70
f 7/37/71 35/30/72 11/13/73
f 11/13/74 35/30/75 3/22/76
f 34/39/77 7/37/78 11/13/79
f 35/30/80 6/36/81 3/22/82
f 6/56/83 5/57/84 36/58/85
f 6/36/86 36/29/87 3/22/88
f 5/57/89 19/59/90 36/58/91
f 19/60/92 18/61/93 12/62/94
f 18/26/95 13/35/96 37/11/97
f 18/26/98 37/11/99 12/20/100
f 1/5/101 38/3/102 31/2/103
f 1/5/104 22/8/105 38/3/106
f 38/3/107 24/19/108 2/10/109
f 8/23/110 26/18/111 2/10/112
f 2/10/113 26/18/114 39/6/115
f 2/10/116 39/6/117 38/3/118
f 26/18/119 33/24/120 39/6/121
f 33/63/122 11/64/123 39/65/124
f 39/6/125 11/13/126 40/4/127
f 37/11/128 42/7/129 40/4/130
f 37/11/131 29/12/132 42/7/133
f 29/12/134 10/21/135 31/2/136
f 11/13/137 33/24/138 34/39/139
f 3/22/140 40/4/141 11/13/142
f 36/29/143 40/4/144 3/22/145
f 36/29/146 19/27/147 40/4/148
f 19/27/149 12/20/150 40/4/151
f 12/20/152 37/11/153 40/4/154
f 39/6/155 40/4/156 41/1/157
f 40/4/158 31/2/159 41/1/160
f 42/7/161 29/12/162 31/2/163
f 40/4/164 42/7/165 31/2/166
