# This file uses centimeters as units for non-parametric coordinates.

v 43.670940 0.000000 -79.223671
v -9.484863 0.000004 -83.182411
v -78.960281 0.000000 -44.015236
v -67.506180 0.000000 60.174980
v 76.273331 0.000000 41.071705
v 84.242355 0.000000 1.284485
v 0.714169 5.857975 75.673714
v 50.094048 4.778495 47.242012
v -29.831314 15.912374 -23.526077
v 28.456020 16.095285 -25.329208
v -7.924633 15.386497 -33.837891
v -25.685003 17.357487 31.225662
v 28.617840 6.307717 -68.493576
v 65.798546 4.129709 -25.573196
v 67.161545 4.693698 31.005020
v 22.212524 8.529593 57.480125
v -28.633118 5.528115 72.684059
v -55.698681 6.398160 53.536491
v -67.909698 5.268881 -27.519608
v -29.374008 5.489923 -62.768898
v 0.965481 11.209854 61.026192
v -57.798901 11.133257 5.381470
v 1.621513 11.289723 -57.114025
v 64.571457 7.231619 4.067001
v -72.657677 5.270176 1.422043
v -61.627979 5.315251 -42.034721
v -1.932335 5.507224 -72.634163
v 49.171715 6.410054 -53.639030
v 16.647320 18.035349 17.966080
v -0.219955 19.327173 4.221725
v 75.005661 0.000011 -35.638733
v 39.680443 0.000000 78.435745
v -25.968418 0.000004 83.182411
v -85.328690 0.000000 23.175888
v 17.865200 14.949548 41.142200
v -36.178608 15.284493 -8.055038
v -20.524120 18.416817 15.002060
v 16.868877 18.295744 -12.750549
v -36.629333 17.215239 22.651520
v 42.370201 15.412344 -15.219498
v 39.500141 14.986532 17.505112
v -18.850994 13.175893 55.961266
v -46.299019 11.785068 27.857437
v 15.162506 11.987905 -46.108021
v 34.721947 10.478038 -37.907639
v 25.951939 15.554781 27.872543
v -34.716682 12.759601 37.884979
v -7.736778 18.124901 40.858387
v 3.345108 0.000007 5.885696
v -55.896202 0.000004 71.951752
v 60.484718 0.000004 -63.601002
v -30.766754 0.000004 -75.929489
v -66.509285 0.000004 -58.432617
vt 0.556885 0.286523
vt 0.522351 0.374131
vt 0.502554 0.275179
vt 0.593813 0.310636
vt 0.421070 0.305654
vt 0.542392 0.188992
vt 0.568422 0.378579
vt 0.579954 0.140935
vt 0.384971 0.375591
vt 0.391283 0.189510
vt 0.464025 0.231948
vt 0.449764 0.477103
vt 0.490388 0.123373
vt 0.347249 0.226500
vt 0.435318 0.169505
vt 0.507170 0.492687
vt 0.525263 0.087257
vt 0.398952 0.497157
vt 0.287833 0.281057
vt 0.355892 0.145088
vt 0.456699 0.532436
vt 0.427375 0.040898
vt 0.330811 0.395855
vt 0.239718 0.227208
vt 0.241332 0.154251
vt 0.392137 0.070292
vt 0.297634 0.512316
vt 0.283773 0.464878
vt 0.250094 0.345878
vt 0.205037 0.197502
vt 0.288374 0.074208
vt 0.298116 0.011410
vt 0.221480 0.552768
vt 0.223315 0.397294
vt 0.158584 0.223320
vt 0.137230 0.120428
vt 0.194071 0.065940
vt 0.115194 0.458173
vt 0.205091 0.428165
vt 0.193300 0.362355
vt 0.159578 0.305055
vt 0.101388 0.209440
vt 0.169986 0.391188
vt 0.091955 0.495869
vt 0.088975 0.277273
vt 0.158831 0.036852
vt 0.028028 0.153673
vt 0.106705 0.340537
vt 0.050726 0.458804
vt 0.037698 0.278075
vt 0.048164 0.371766
vt 0.011411 0.363260
vt 0.011410 0.594092
vt 0.011410 0.384507
vt 0.031918 0.508907
vt 0.778521 0.988590
vt 0.543302 0.968259
vt 0.717992 0.705498
vt 0.492830 0.928509
vt 0.908046 0.931691
vt 0.431578 0.814400
vt 0.949273 0.894626
vt 0.406187 0.746458
vt 0.988590 0.799081
vt 0.420046 0.576757
vt 0.971973 0.589496
vt 0.474737 0.523079
vt 0.841170 0.472673
vt 0.572626 0.476720
vt 0.701885 0.447232
vn -0.116767 0.939114 -0.323158
vn -0.116767 0.939114 -0.323158
vn -0.116767 0.939114 -0.323158
vn -0.338107 0.935041 0.106689
vn -0.338107 0.935041 0.106689
vn -0.338107 0.935041 0.106689
vn -0.338107 0.935041 0.106689
vn -0.191699 0.930126 0.313236
vn -0.191699 0.930126 0.313236
vn -0.191699 0.930126 0.313236
vn 0.173416 0.924073 0.340611
vn 0.173416 0.924073 0.340611
vn 0.173416 0.924073 0.340611
vn 0.233316 0.942235 0.240329
vn 0.233316 0.942234 0.240329
vn 0.233316 0.942235 0.240329
vn 0.404120 0.911319 -0.078641
vn 0.404120 0.911319 -0.078641
vn 0.404120 0.911319 -0.078641
vn 0.115228 0.953840 0.277328
vn 0.115228 0.953840 0.277328
vn 0.115228 0.953840 0.277328
vn -0.026193 0.993985 -0.106336
vn -0.026193 0.993985 -0.106335
vn -0.026193 0.993985 -0.106335
vn 0.003056 0.995950 0.089859
vn 0.003056 0.995950 0.089859
vn 0.003056 0.995950 0.089859
vn -0.137035 0.914954 -0.379579
vn -0.137035 0.914954 -0.379579
vn -0.137035 0.914954 -0.379579
vn -0.278845 0.953105 -0.117631
vn -0.278845 0.953105 -0.117631
vn -0.278845 0.953105 -0.117631
vn -0.444493 0.894791 -0.042129
vn -0.444493 0.894791 -0.042129
vn -0.444493 0.894791 -0.042129
vn 0.196067 0.940426 -0.277772
vn 0.196067 0.940426 -0.277772
vn 0.196067 0.940426 -0.277772
vn -0.261908 0.962667 -0.068384
vn -0.261908 0.962667 -0.068384
vn -0.261908 0.962667 -0.068384
vn 0.171030 0.931652 0.320582
vn 0.171030 0.931652 0.320582
vn 0.171030 0.931652 0.320582
vn -0.097667 0.961590 -0.256526
vn -0.097667 0.961590 -0.256526
vn -0.097667 0.961590 -0.256526
vn -0.139023 0.963995 -0.226687
vn -0.139023 0.963995 -0.226687
vn -0.139023 0.963995 -0.226687
vn 0.045289 0.981389 -0.186612
vn 0.045289 0.981389 -0.186612
vn 0.045289 0.981389 -0.186612
vn 0.045289 0.981389 -0.186612
vn 0.202935 0.927745 -0.313219
vn 0.202935 0.927745 -0.313219
vn 0.202935 0.927745 -0.313219
vn 0.253433 0.923989 -0.286386
vn 0.253433 0.923989 -0.286386
vn 0.253433 0.923989 -0.286386
vn 0.314743 0.948336 0.039944
vn 0.314743 0.948336 0.039944
vn 0.314743 0.948336 0.039944
vn 0.356275 0.898033 0.258079
vn 0.356275 0.898033 0.258079
vn 0.356275 0.898033 0.258079
vn 0.059466 0.986836 0.150397
vn 0.059466 0.986836 0.150397
vn 0.059466 0.986836 0.150397
vn -0.295492 0.925212 0.238048
vn -0.295492 0.925212 0.238048
vn -0.295492 0.925212 0.238048
vn -0.405433 0.895933 0.181459
vn -0.405433 0.895933 0.181458
vn -0.405433 0.895933 0.181458
vn -0.226644 0.971844 -0.064434
vn -0.226644 0.971844 -0.064434
vn -0.226644 0.971844 -0.064434
vn -0.245237 0.964641 -0.096576
vn -0.245237 0.964641 -0.096576
vn -0.245237 0.964641 -0.096576
vn 0.333270 0.939039 -0.084475
vn 0.333270 0.939039 -0.084475
vn 0.333270 0.939039 -0.084475
vn 0.351298 0.934689 0.054283
vn 0.351298 0.934689 0.054283
vn 0.351298 0.934689 0.054283
vn 0.122751 0.950738 0.284658
vn 0.122751 0.950738 0.284658
vn 0.122751 0.950738 0.284658
vn 0.207488 0.954219 0.215442
vn 0.207488 0.954219 0.215442
vn 0.207488 0.954219 0.215442
vn 0.037548 0.879211 -0.474952
vn 0.037548 0.879211 -0.474952
vn 0.037548 0.879211 -0.474952
vn 0.037548 0.879211 -0.474952
vn 0.308320 0.945376 -0.105844
vn 0.308320 0.945376 -0.105844
vn 0.308320 0.945376 -0.105844
vn 0.323897 0.919270 -0.223682
vn 0.317027 0.919669 -0.231741
vn 0.267504 0.919541 -0.287899
vn 0.331065 0.939966 -0.082819
vn 0.331065 0.939966 -0.082819
vn 0.331065 0.939966 -0.082819
vn 0.387462 0.918614 0.077605
vn 0.387462 0.918613 0.077605
vn 0.387462 0.918614 0.077605
vn 0.227768 0.945061 0.234482
vn 0.227768 0.945061 0.234482
vn 0.227768 0.945061 0.234482
vn 0.225209 0.949017 0.220561
vn 0.225209 0.949017 0.220561
vn 0.225209 0.949017 0.220561
vn 0.052284 0.688739 0.723121
vn 0.052284 0.688739 0.723121
vn 0.052284 0.688739 0.723122
vn -0.058421 0.877125 0.476696
vn -0.058421 0.877125 0.476696
vn -0.058421 0.877125 0.476696
vn -0.232104 0.919583 0.317008
vn -0.216374 0.915787 0.338403
vn -0.190401 0.881865 0.431348
vn -0.385408 0.903877 0.185652
vn -0.385408 0.903877 0.185652
vn -0.385408 0.903877 0.185652
vn -0.278447 0.957906 0.069879
vn -0.278447 0.957906 0.069879
vn -0.278447 0.957906 0.069879
vn -0.357009 0.932261 -0.058610
vn -0.357009 0.932261 -0.058610
vn -0.357009 0.932261 -0.058610
vn -0.180212 0.946220 -0.268686
vn -0.209711 0.910084 -0.357447
vn -0.163775 0.924783 -0.343443
vn 0.069104 0.997569 0.008955
vn 0.069104 0.997569 0.008955
vn 0.069104 0.997569 0.008955
vn 0.104650 0.991520 -0.077052
vn 0.104650 0.991520 -0.077052
vn 0.104650 0.991520 -0.077052
vn 0.122750 0.992297 0.016715
vn 0.122750 0.992297 0.016715
vn 0.122750 0.992297 0.016715
vn 0.122750 0.992297 0.016715
vn 0.133665 0.983642 0.120759
vn 0.133665 0.983642 0.120759
vn 0.133665 0.983642 0.120759
vn 0.130080 0.983701 0.124140
vn 0.130080 0.983701 0.124140
vn 0.130080 0.983701 0.124140
vn -0.000353 0.991250 0.131999
vn -0.000353 0.991250 0.131999
vn -0.000353 0.991250 0.131999
vn 0.123476 0.991093 -0.049876
vn 0.123476 0.991093 -0.049876
vn 0.123476 0.991093 -0.049876
vn -0.066245 0.996832 0.044016
vn -0.066245 0.996832 0.044016
vn -0.066245 0.996832 0.044016
vn -0.051225 0.997492 0.048836
vn -0.051225 0.997492 0.048836
vn -0.051225 0.997492 0.048836
vn -0.085403 0.993369 -0.076966
vn -0.085403 0.993369 -0.076966
vn -0.085403 0.993369 -0.076966
vn -0.104415 0.992477 -0.063937
vn -0.104415 0.992477 -0.063937
vn -0.104415 0.992477 -0.063937
vn -0.110092 0.993910 -0.004830
vn -0.110092 0.993910 -0.004830
vn -0.110092 0.993910 -0.004830
vn -0.029898 0.995439 -0.090598
vn -0.029898 0.995439 -0.090598
vn -0.029898 0.995439 -0.090598
vn 0.017412 0.987491 -0.156708
vn 0.017412 0.987491 -0.156709
vn 0.017412 0.987491 -0.156708
vn -0.258025 0.874305 0.411114
vn -0.258025 0.874305 0.411114
vn -0.258025 0.874305 0.411113
vn -0.294456 0.906642 0.302154
vn -0.294456 0.906642 0.302154
vn -0.294456 0.906642 0.302154
vn -0.294456 0.906642 0.302154
vn 0.031898 0.974373 -0.222664
vn 0.031898 0.974373 -0.222664
vn 0.031898 0.974373 -0.222664
vn 0.375268 0.915029 -0.147971
vn 0.375268 0.915029 -0.147971
vn 0.375268 0.915029 -0.147971
vn 0.323206 0.944555 0.057914
vn 0.323206 0.944555 0.057914
vn 0.323206 0.944555 0.057914
vn 0.225796 0.943286 0.243369
vn 0.225796 0.943286 0.243369
vn 0.225796 0.943286 0.243369
vn 0.219140 0.942757 0.251371
vn 0.219139 0.942757 0.251371
vn 0.219140 0.942757 0.251371
vn -0.030480 0.926802 0.374312
vn -0.030480 0.926802 0.374312
vn -0.030480 0.926802 0.374312
vn -0.030480 0.926802 0.374312
vn -0.188130 0.971716 0.142745
vn -0.188130 0.971716 0.142745
vn -0.188130 0.971716 0.142745
vn -0.196084 0.971654 0.132057
vn -0.196084 0.971654 0.132057
vn -0.196084 0.971654 0.132057
vn -0.353028 0.933816 -0.057957
vn -0.353028 0.933816 -0.057957
vn -0.353028 0.933816 -0.057957
vn 0.101536 0.977116 -0.186906
vn 0.101536 0.977116 -0.186906
vn 0.101536 0.977117 -0.186907
vn 0.023444 0.935047 -0.353749
vn 0.023444 0.935047 -0.353749
vn 0.023444 0.935047 -0.353749
vn 0.125506 0.979337 -0.158578
vn 0.125506 0.979337 -0.158578
vn 0.125506 0.979337 -0.158578
vn 0.125506 0.979337 -0.158578
vn -0.257077 0.960316 -0.108188
vn -0.257077 0.960316 -0.108188
vn -0.257077 0.960316 -0.108188
vn -0.168976 0.952106 -0.254838
vn -0.168976 0.952105 -0.254838
vn -0.168976 0.952106 -0.254838
vn 0.000000 -1.000000 0.000000
vn 0.000000 -1.000000 0.000000
vn 0.000000 -1.000000 0.000000
vn 0.000000 -1.000000 -0.000000
vn 0.000000 -1.000000 -0.000000
vn 0.000000 -1.000000 0.000000
vn -0.000000 -1.000000 0.000000
vn -0.000000 -1.000000 0.000000
vn -0.000000 -1.000000 0.000000
vn 0.000000 -1.000000 0.000000
vn 0.000000 -1.000000 0.000000
vn 0.000000 -1.000000 0.000000
vn -0.000000 -1.000000 -0.000000
vn -0.000000 -1.000000 -0.000000
vn -0.000000 -1.000000 -0.000000
vn -0.000000 -1.000000 -0.000000
vn -0.000000 -1.000000 -0.000000
vn -0.000000 -1.000000 -0.000000
vn -0.000000 -1.000000 -0.000000
vn -0.000000 -1.000000 -0.000000
vn -0.000000 -1.000000 -0.000000
vn -0.000000 -1.000000 -0.000000
vn -0.000000 -1.000000 -0.000000
vn -0.000000 -1.000000 -0.000000
vn 0.000000 -1.000000 -0.000000
vn 0.000000 -1.000000 0.000000
vn 0.000000 -1.000000 -0.000000
vn 0.000000 -1.000000 -0.000000
vn 0.000000 -1.000000 -0.000000
vn 0.000000 -1.000000 -0.000000
vn -0.313126 0.898144 0.308690
vn -0.216374 0.915787 0.338403
vn -0.232104 0.919583 0.317008
vn -0.190401 0.881865 0.431348
vn -0.216374 0.915787 0.338403
vn -0.185485 0.849281 0.494285
vn 0.323897 0.919270 -0.223682
vn 0.356131 0.915952 -0.184941
vn 0.317027 0.919669 -0.231741
vn -0.163775 0.924783 -0.343443
vn -0.209711 0.910084 -0.357447
vn -0.126268 0.920209 -0.370501
vn -0.180212 0.946220 -0.268686
vn -0.158095 0.952149 -0.261570
vn -0.261881 0.938227 -0.226163
vn 0.000000 -1.000000 0.000000
vn 0.000000 -1.000000 0.000000
vn 0.000000 -1.000000 0.000000
vn 0.000000 -1.000000 0.000000
vn 0.000000 -1.000000 0.000000
vn 0.000000 -1.000000 0.000000
vn 0.000000 -1.000000 -0.000000
vn 0.000000 -1.000000 0.000000
vn 0.000000 -1.000000 0.000000
vn -0.180212 0.946220 -0.268686
vn -0.163775 0.924783 -0.343443
vn -0.158095 0.952149 -0.261570
vn 0.000000 -1.000000 0.000000
vn 0.000000 -1.000000 -0.000000
vn 0.000000 -1.000000 0.000000
s off
f 27/1/1 20/2/2 23/3/3
f 25/27/4 18/38/5 43/39/6 22/28/7
f 18/38/8 17/51/9 42/48/10
f 7/50/11 16/42/12 21/45/13
f 8/36/14 15/37/15 41/25/16
f 24/31/17 14/26/18 40/20/19
f 21/45/20 35/35/21 48/41/22
f 11/5/23 9/9/24 38/14/25
f 37/29/26 29/24/27 30/19/28
f 2/4/29 20/2/30 27/1/31
f 3/21/32 19/18/33 26/12/34
f 3/21/35 34/33/36 25/27/37
f 1/8/38 13/6/39 28/13/40
f 9/9/41 19/18/42 36/23/43
f 21/45/44 16/42/45 35/35/46
f 11/5/47 20/2/48 9/9/49
f 23/3/50 20/2/51 11/5/52
f 10/10/53 44/11/54 23/3/55 11/5/56
f 45/15/57 44/11/58 10/10/59
f 40/20/60 45/15/61 10/10/62
f 41/25/63 24/31/64 40/20/65
f 46/30/66 35/35/67 16/42/68
f 12/40/69 42/48/70 21/45/71
f 47/43/72 42/48/73 12/40/74
f 22/28/75 43/39/76 39/34/77
f 36/23/78 22/28/79 39/34/80
f 22/28/81 36/23/82 19/18/83
f 14/26/84 24/31/85 6/32/86
f 24/31/87 15/37/88 6/32/89
f 32/47/90 16/42/91 7/50/92
f 8/36/93 16/42/94 32/47/95
f 27/1/96 13/6/97 1/8/98 2/4/99
f 14/26/100 31/22/101 28/13/102
f 28/13/103 51/17/104 1/8/105
f 6/32/106 31/22/107 14/26/108
f 6/32/109 15/37/110 5/46/111
f 5/46/112 15/37/113 8/36/114
f 32/47/115 5/46/116 8/36/117
f 33/53/118 32/54/119 7/55/120
f 17/51/121 33/52/122 7/50/123
f 18/38/124 50/49/125 17/51/126
f 18/38/127 34/33/128 4/44/129
f 25/27/130 34/33/131 18/38/132
f 25/27/133 19/18/134 3/21/135
f 26/12/136 20/2/137 52/7/138
f 30/19/139 29/24/140 38/14/141
f 38/14/142 40/20/143 10/10/144
f 29/24/145 41/25/146 40/20/147 38/14/148
f 46/30/149 41/25/150 29/24/151
f 29/24/152 35/35/153 46/30/154
f 35/35/155 29/24/156 37/29/157
f 37/29/158 48/41/159 35/35/160
f 12/40/161 48/41/162 37/29/163
f 12/40/164 37/29/165 39/34/166
f 30/19/167 36/23/168 37/29/169
f 37/29/170 36/23/171 39/34/172
f 9/9/173 36/23/174 30/19/175
f 38/14/176 9/9/177 30/19/178
f 38/14/179 10/10/180 11/5/181
f 48/41/182 12/40/183 21/45/184
f 12/40/185 39/34/186 43/39/187 47/43/188
f 45/15/189 40/20/190 28/13/191
f 28/13/192 40/20/193 14/26/194
f 24/31/195 41/25/196 15/37/197
f 8/36/198 41/25/199 46/30/200
f 46/30/201 16/42/202 8/36/203
f 21/45/204 42/48/205 17/51/206 7/50/207
f 18/38/208 42/48/209 47/43/210
f 47/43/211 43/39/212 18/38/213
f 22/28/214 19/18/215 25/27/216
f 23/3/217 44/11/218 13/6/219
f 23/3/220 13/6/221 27/1/222
f 28/13/223 13/6/224 44/11/225 45/15/226
f 26/12/227 19/18/228 9/9/229
f 20/2/230 26/12/231 9/9/232
f 34/56/233 3/57/234 49/58/235
f 3/57/236 53/59/237 49/58/238
f 2/63/239 1/65/240 49/58/241
f 49/58/242 51/67/243 31/69/244
f 31/69/245 6/70/246 49/58/247
f 6/70/248 5/68/249 49/58/250
f 5/68/251 32/66/252 49/58/253
f 32/66/254 33/64/255 49/58/256
f 33/64/257 50/62/258 49/58/259
f 4/60/260 34/56/261 49/58/262
f 4/44/263 50/49/264 18/38/265
f 17/51/266 50/49/267 33/52/268
f 28/13/269 31/22/270 51/17/271
f 52/7/272 20/2/273 2/4/274
f 26/12/275 53/16/276 3/21/277
f 49/58/278 52/61/279 2/63/280
f 1/65/281 51/67/282 49/58/283
f 49/58/284 50/62/285 4/60/286
f 26/12/287 52/7/288 53/16/289
f 49/58/290 53/59/291 52/61/292
