# This file uses centimeters as units for non-parametric coordinates.

v 43.013573 -35.709518 -46.336334
v 2.881384 -35.709518 -56.863239
v -34.700298 -35.709518 -41.296406
v -57.206154 -35.709518 -2.942407
v -45.742035 -35.709518 24.495495
v 2.881384 -35.709518 49.433941
v 40.463116 -35.709518 33.867065
v 55.172348 -35.709518 -9.573936
v 44.876621 -42.815201 -44.988403
v 1.355457 -42.815201 -57.420826
v 1.641035 -67.964745 0.817177
v -39.824867 -42.815201 -40.363342
v -63.249874 -42.815201 1.525863
v -55.864811 -42.815201 27.414043
v 1.355457 -42.815201 59.055187
v 48.811245 -42.815201 38.361732
v 59.761429 -42.815201 -11.807294
v 5.478716 61.921822 -5.429928
v -2.328730 61.992981 -8.663829
v -10.136032 61.992981 -5.429928
v -13.369799 61.921822 2.377408
v -10.136032 61.921822 10.184740
v -2.328730 65.439163 13.418650
v 5.478716 65.439163 10.184740
v 8.712673 61.921822 2.377408
v 23.732233 2.594587 -24.737247
v 33.002186 2.594587 -2.357700
v 23.732233 18.469736 20.021830
v 1.352787 18.469736 29.291737
v -21.026850 2.594587 20.021830
v -30.296803 2.594587 -2.357700
v -21.026850 15.023553 -24.737238
v 1.352787 15.023553 -34.007122
v -2.328634 62.875771 2.377408
v -15.042782 -35.709518 -29.300379
v -18.845034 -42.815201 -30.572809
v -13.379192 -35.709518 23.428043
v -16.381788 -42.815201 34.023930
v 33.921005 -35.709518 9.106770
v 39.367817 -42.815201 12.125549
v -34.068394 -16.631886 18.653326
v -40.227032 -16.631886 -3.314646
v -27.732754 -16.631886 -33.478207
v -12.513924 -16.631886 -27.195652
v 2.430773 -16.631886 -45.972332
v 32.594254 -16.631886 -33.478207
v 45.088387 -16.631886 -3.314646
v 30.759907 -16.631886 5.723497
v 32.594254 -16.631886 26.848896
v 2.430773 -16.631886 39.343044
v -10.540056 -16.631886 21.926416
vt 0.159343 0.368822
vt 0.298360 0.368822
vt 0.304814 0.394609
vt 0.154058 0.394609
vt 0.157782 0.299588
vt 0.262268 0.299588
vt 0.154049 0.184706
vt 0.231570 0.229812
vt 0.141296 0.014252
vt 0.168341 0.014508
vt 0.076526 0.184706
vt 0.114251 0.014252
vt 0.106014 0.299588
vt 0.053297 0.299588
vt 0.097255 0.368822
vt 0.029162 0.368822
vt 0.084084 0.394609
vt 0.011411 0.394609
vt 0.155047 0.485879
vt 0.293806 0.426683
vt 0.160949 0.426683
vt 0.164182 0.400896
vt 0.309284 0.400896
vt 0.292516 0.495918
vt 0.188031 0.495918
vt 0.388850 0.426683
vt 0.368613 0.495918
vt 0.295831 0.565693
vt 0.218309 0.610798
vt 0.373354 0.565693
vt 0.312234 0.780997
vt 0.285189 0.781255
vt 0.339278 0.780997
vt 0.840473 0.356399
vt 0.935518 0.398005
vt 0.920038 0.419937
vt 0.830363 0.393137
vt 0.807466 0.249848
vt 0.844171 0.238951
vt 0.754086 0.179940
vt 0.720760 0.185478
vt 0.808010 0.043553
vt 0.792441 0.013258
vt 0.777528 0.444758
vt 0.712819 0.444758
vt 0.702361 0.418971
vt 0.785264 0.418971
vt 0.627050 0.444758
vt 0.611481 0.418971
vt 0.904871 0.444758
vt 0.900202 0.418971
vt 0.724538 0.513993
vt 0.651360 0.513993
vt 0.860331 0.513993
vt 0.755847 0.513993
vt 0.675009 0.641381
vt 0.830053 0.583768
vt 0.752532 0.583768
vt 0.763173 0.799072
vt 0.736130 0.799072
vt 0.709085 0.811837
vt 0.312404 0.223371
vt 0.355470 0.065428
vt 0.514138 0.222335
vt 0.470407 0.011410
vt 0.405405 0.296681
vt 0.553310 0.085421
vt 0.644191 0.051149
vt 0.715873 0.223371
vt 0.629165 0.287741
vt 0.606269 0.431029
vt 0.516593 0.457830
vt 0.371491 0.372818
vt 0.898507 0.466849
vt 0.988590 0.466849
vt 0.953636 0.536084
vt 0.893305 0.536084
vt 0.918819 0.663472
vt 0.538348 0.621511
vt 0.668531 0.621511
vt 0.641273 0.690745
vt 0.536787 0.690745
vt 0.610575 0.818133
vt 0.533054 0.818133
vt 0.547346 0.988589
vt 0.520301 0.988589
vt 0.493256 0.975825
vt 0.455531 0.760520
vt 0.491857 0.690745
vt 0.410356 0.690745
vt 0.369919 0.621511
vt 0.482023 0.621511
vt 0.123970 0.559248
vt 0.197585 0.559248
vt 0.162654 0.628483
vt 0.113021 0.628483
vt 0.120788 0.698258
vt 0.893410 0.584747
vt 0.904613 0.613081
vt 0.866367 0.613081
vt 0.893410 0.641415
vt 0.866367 0.573011
vt 0.866367 0.653153
vt 0.839322 0.584747
vt 0.839322 0.641415
vt 0.828121 0.613081
vt 0.013343 0.486928
vt 0.108820 0.486928
vt 0.116111 0.556163
vt 0.051069 0.556163
vt 0.104412 0.461141
vt 0.011411 0.461141
vt 0.092516 0.671043
vn 0.264374 -0.047299 -0.963260
vn 0.264374 -0.047299 -0.963260
vn 0.264374 -0.047299 -0.963260
vn 0.264374 -0.047299 -0.963260
vn 0.455499 -0.265831 -0.849620
vn 0.455500 -0.265831 -0.849620
vn 0.455499 -0.265831 -0.849620
vn 0.455499 -0.265831 -0.849620
vn -0.778352 0.442352 -0.445525
vn -0.778352 0.442352 -0.445525
vn -0.778352 0.442352 -0.445525
vn -0.778352 0.442352 -0.445525
vn -0.590201 0.779834 0.208618
vn -0.590201 0.779834 0.208618
vn -0.590201 0.779834 0.208618
vn -0.590201 0.779834 0.208618
vn -0.572855 0.725409 0.381601
vn -0.572855 0.725409 0.381601
vn -0.572855 0.725409 0.381601
vn -0.572855 0.725409 0.381601
vn 0.263585 0.740542 0.618159
vn 0.263585 0.740542 0.618159
vn 0.263585 0.740542 0.618159
vn 0.263585 0.740542 0.618159
vn 0.628327 0.477653 0.614046
vn 0.628327 0.477653 0.614046
vn 0.628327 0.477653 0.614046
vn 0.628327 0.477653 0.614046
vn 0.851850 0.407271 -0.329367
vn 0.851850 0.407271 -0.329367
vn 0.851850 0.407271 -0.329367
vn 0.851850 0.407271 -0.329367
vn 0.112664 -0.912008 -0.394395
vn 0.112664 -0.912009 -0.394395
vn 0.112664 -0.912008 -0.394395
vn 0.332383 -0.618237 -0.712253
vn 0.332383 -0.618237 -0.712253
vn 0.332383 -0.618237 -0.712253
vn -0.356030 -0.913019 -0.199097
vn -0.356030 -0.913019 -0.199097
vn -0.356030 -0.913019 -0.199097
vn -0.358509 -0.927907 0.102271
vn -0.358509 -0.927907 0.102271
vn -0.358509 -0.927907 0.102271
vn -0.095043 -0.817715 0.567722
vn -0.095043 -0.817715 0.567722
vn -0.095043 -0.817715 0.567722
vn 0.170648 -0.904284 0.391344
vn 0.170648 -0.904284 0.391344
vn 0.170648 -0.904284 0.391344
vn 0.435494 -0.820144 0.371092
vn 0.435494 -0.820144 0.371092
vn 0.435494 -0.820144 0.371092
vn 0.361943 -0.917951 -0.162365
vn 0.361943 -0.917951 -0.162365
vn 0.361943 -0.917951 -0.162365
vn 0.257338 0.562414 -0.785792
vn 0.257338 0.562414 -0.785792
vn 0.257338 0.562414 -0.785792
vn 0.257338 0.562414 -0.785792
vn 0.461177 0.114063 -0.879946
vn 0.461177 0.114063 -0.879946
vn 0.461177 0.114063 -0.879946
vn 0.461177 0.114063 -0.879946
vn -0.747456 0.543623 -0.381816
vn -0.747456 0.543623 -0.381816
vn -0.747456 0.543623 -0.381816
vn -0.747456 0.543623 -0.381816
vn -0.749156 0.606102 0.267219
vn -0.749156 0.606102 0.267219
vn -0.749156 0.606102 0.267219
vn -0.749156 0.606102 0.267219
vn -0.809899 0.216349 0.545212
vn -0.809899 0.216349 0.545212
vn -0.809899 0.216349 0.545212
vn -0.809899 0.216349 0.545212
vn 0.342595 0.445576 0.827098
vn 0.342595 0.445576 0.827097
vn 0.342595 0.445576 0.827097
vn 0.342595 0.445576 0.827098
vn 0.607422 0.152088 0.779685
vn 0.607422 0.152088 0.779685
vn 0.607422 0.152088 0.779685
vn 0.607422 0.152088 0.779685
vn 0.776883 0.560854 -0.286173
vn 0.776883 0.560854 -0.286173
vn 0.776883 0.560854 -0.286173
vn 0.776883 0.560854 -0.286173
vn 0.855182 0.378398 -0.354231
vn 0.855182 0.378398 -0.354231
vn 0.855182 0.378398 -0.354231
vn 0.855182 0.378398 -0.354231
vn 0.916961 0.373702 0.139749
vn 0.916961 0.373702 0.139749
vn 0.916961 0.373702 0.139749
vn 0.916961 0.373702 0.139749
vn 0.362069 0.323781 0.874112
vn 0.362069 0.323781 0.874112
vn 0.362069 0.323781 0.874112
vn 0.362069 0.323781 0.874112
vn -0.497263 0.235683 0.834975
vn -0.497263 0.235683 0.834975
vn -0.497263 0.235683 0.834975
vn -0.497263 0.235683 0.834975
vn -0.899769 0.226971 0.372694
vn -0.899769 0.226971 0.372694
vn -0.899769 0.226971 0.372694
vn -0.899769 0.226971 0.372694
vn -0.919097 0.298662 -0.257026
vn -0.919097 0.298662 -0.257026
vn -0.919097 0.298662 -0.257026
vn -0.919097 0.298662 -0.257026
vn -0.346536 0.424251 -0.836615
vn -0.346536 0.424251 -0.836615
vn -0.346536 0.424251 -0.836615
vn -0.346536 0.424251 -0.836615
vn 0.490488 0.421586 -0.762684
vn 0.490488 0.421586 -0.762684
vn 0.490488 0.421586 -0.762684
vn 0.490488 0.421586 -0.762684
vn 0.042060 0.995937 -0.079629
vn 0.042060 0.995937 -0.079629
vn 0.042060 0.995937 -0.079629
vn -0.032995 0.996276 -0.079656
vn -0.032995 0.996276 -0.079656
vn -0.032995 0.996276 -0.079656
vn -0.086048 0.995937 -0.026564
vn -0.086048 0.995937 -0.026564
vn -0.086048 0.995937 -0.026564
vn -0.086024 0.995656 0.035631
vn -0.086024 0.995656 0.035631
vn -0.086024 0.995656 0.035631
vn -0.326281 0.920783 -0.213776
vn -0.326281 0.920783 -0.213776
vn -0.326281 0.920783 -0.213776
vn -0.093265 0.969847 -0.225164
vn -0.093265 0.969847 -0.225165
vn -0.093265 0.969847 -0.225165
vn 0.079554 0.920783 -0.381877
vn 0.079554 0.920783 -0.381877
vn 0.079554 0.920783 -0.381877
vn 0.086023 0.995656 -0.035633
vn 0.086023 0.995656 -0.035633
vn 0.086023 0.995656 -0.035633
vn -0.792861 0.234732 -0.562381
vn -0.792861 0.234732 -0.562381
vn -0.792861 0.234732 -0.562380
vn -0.792861 0.234732 -0.562381
vn -0.765319 0.355989 -0.536244
vn -0.765319 0.355989 -0.536244
vn -0.765319 0.355989 -0.536244
vn -0.765319 0.355989 -0.536244
vn -0.038611 0.203003 0.978416
vn -0.038611 0.203003 0.978417
vn -0.038611 0.203003 0.978417
vn -0.038611 0.203003 0.978416
vn -0.053868 0.713791 0.698284
vn -0.053868 0.713791 0.698284
vn -0.053868 0.713791 0.698284
vn -0.053868 0.713791 0.698284
vn 0.957564 0.229161 -0.174804
vn 0.957564 0.229161 -0.174804
vn 0.957564 0.229161 -0.174804
vn 0.957564 0.229161 -0.174804
vn 0.756743 0.609156 -0.237211
vn 0.756743 0.609156 -0.237211
vn 0.756743 0.609156 -0.237211
vn 0.756743 0.609156 -0.237211
vn -0.829532 0.478109 0.288596
vn -0.829532 0.478109 0.288596
vn -0.829532 0.478109 0.288596
vn -0.829532 0.478109 0.288596
vn -0.892731 0.346731 -0.287766
vn -0.892731 0.346731 -0.287766
vn -0.892731 0.346731 -0.287766
vn -0.892731 0.346731 -0.287766
vn 0.375906 0.171808 -0.910592
vn 0.375906 0.171808 -0.910592
vn 0.375906 0.171808 -0.910592
vn -0.382496 -0.031147 -0.923432
vn -0.382496 -0.031147 -0.923432
vn -0.382496 -0.031147 -0.923432
vn 0.430156 0.411102 -0.803717
vn 0.430156 0.411102 -0.803717
vn 0.430156 0.411102 -0.803717
vn 0.430156 0.411102 -0.803717
vn 0.792283 0.514382 -0.328175
vn 0.792283 0.514382 -0.328175
vn 0.792283 0.514382 -0.328175
vn 0.792283 0.514382 -0.328175
vn 0.511948 0.281426 0.811609
vn 0.511948 0.281426 0.811609
vn 0.511948 0.281426 0.811609
vn 0.969897 0.228488 -0.084217
vn 0.969897 0.228488 -0.084217
vn 0.969897 0.228488 -0.084217
vn 0.368863 0.266325 0.890512
vn 0.368863 0.266325 0.890512
vn 0.368863 0.266325 0.890512
vn 0.368863 0.266325 0.890512
vn -0.793561 0.144860 0.590996
vn -0.793561 0.144860 0.590996
vn -0.793561 0.144860 0.590996
vn -0.328560 -0.086036 0.940556
vn -0.328560 -0.086036 0.940556
vn -0.328560 -0.086036 0.940556
vn -0.765915 0.204338 -0.609606
vn -0.765916 0.204338 -0.609606
vn -0.765915 0.204338 -0.609606
vn -0.137749 0.022957 0.990201
vn -0.137749 0.022957 0.990201
vn -0.137749 0.022957 0.990201
vn 0.933113 0.041314 0.357203
vn 0.933113 0.041314 0.357203
vn 0.933113 0.041314 0.357203
vn -0.464165 -0.813992 -0.349239
vn -0.464165 -0.813992 -0.349239
vn -0.464165 -0.813992 -0.349239
vn -0.486100 -0.803156 0.344452
vn -0.486100 -0.803156 0.344452
vn -0.486100 -0.803156 0.344452
vn 0.585158 -0.783089 -0.210621
vn 0.585158 -0.783089 -0.210621
vn 0.585158 -0.783089 -0.210621
s off
f 2/1/1 1/2/2 9/3/3 10/4/4
f 3/16/5 35/15/6 36/17/7 12/18/8
f 4/20/9 3/21/10 12/22/11 13/23/12
f 5/34/13 4/35/14 13/36/15 14/37/16
f 6/40/17 37/39/18 38/38/19 15/41/20
f 7/42/21 6/40/22 15/41/23 16/43/24
f 8/44/25 39/45/26 40/46/27 17/47/28
f 1/50/29 8/44/30 17/47/31 9/51/32
f 10/62/33 9/63/34 11/64/35
f 12/18/36 36/17/37 11/19/38
f 13/72/39 12/73/40 11/64/41
f 14/71/42 13/72/43 11/64/44
f 11/64/45 38/70/46 14/71/47
f 16/68/48 15/69/49 11/64/50
f 17/65/51 40/67/52 11/64/53
f 9/63/54 17/65/55 11/64/56
f 1/2/57 2/1/58 45/5/59 46/6/60
f 35/15/61 3/16/62 43/14/63 44/13/64
f 3/21/65 4/20/66 42/24/67 43/25/68
f 4/20/69 5/26/70 41/27/71 42/24/72
f 37/74/73 6/75/74 50/76/75 51/77/76
f 6/79/77 7/80/78 49/81/79 50/82/80
f 39/93/81 8/94/82 47/95/83 48/96/84
f 8/44/85 1/50/86 46/54/87 47/55/88
f 27/58/89 26/57/90 18/59/91 25/60/92
f 28/56/93 27/58/94 25/60/95 24/61/96
f 29/84/97 28/83/98 24/85/99 23/86/100
f 29/84/101 23/86/102 22/87/103 30/88/104
f 31/28/105 30/30/106 22/33/107 21/31/108
f 32/29/109 31/28/110 21/31/111 20/32/112
f 32/11/113 20/12/114 19/9/115 33/7/116
f 26/8/117 33/7/118 19/9/119 18/10/120
f 18/98/121 19/99/122 34/100/123
f 19/99/124 20/101/125 34/100/126
f 20/101/127 21/103/128 34/100/129
f 21/103/130 22/105/131 34/100/132
f 22/105/133 23/106/134 34/100/135
f 23/106/136 24/104/137 34/100/138
f 24/104/139 25/102/140 34/100/141
f 25/102/142 18/98/143 34/100/144
f 2/107/145 35/108/146 44/109/147 45/110/148
f 36/111/149 35/108/150 2/107/151 10/112/152
f 5/91/153 37/92/154 51/89/155 41/90/156
f 38/38/157 37/39/158 5/34/159 14/37/160
f 7/48/161 39/45/162 48/52/163 49/53/164
f 40/46/165 39/45/166 7/48/167 16/49/168
f 42/24/169 41/27/170 30/30/171 31/28/172
f 43/25/173 42/24/174 31/28/175 32/29/176
f 44/13/177 43/14/178 32/11/179
f 33/7/180 44/13/181 32/11/182
f 46/6/183 45/5/184 33/7/185 26/8/186
f 47/55/187 46/54/188 26/57/189 27/58/190
f 48/96/191 47/95/192 27/97/193
f 49/53/194 48/52/195 28/56/196
f 50/82/197 49/81/198 28/83/199 29/84/200
f 51/77/201 50/76/202 29/78/203
f 30/88/204 51/89/205 29/84/206
f 45/110/207 44/109/208 33/113/209
f 41/90/210 51/89/211 30/88/212
f 48/52/213 27/58/214 28/56/215
f 11/64/216 36/66/217 10/62/218
f 15/69/219 38/70/220 11/64/221
f 11/64/222 40/67/223 16/68/224
