# This file uses centimeters as units for non-parametric coordinates.

v 4.873492 2.606876 31.057461
v 7.378024 0.765156 30.572495
v 6.507380 5.096306 30.041279
v 9.011909 3.254597 29.556309
v -2.027282 -1.003861 -2.414976
v -1.539643 -4.061539 -1.855787
v 1.704444 -3.612358 -1.096902
v -0.793924 -0.554027 -17.407063
v 0.286809 -2.157098 -19.792538
v 1.131369 -3.904410 -17.413042
v -1.394999 -3.129024 -16.718628
v -16.283218 -0.508681 -43.533295
v -16.086742 -2.279236 -44.189201
v 1.393527 -1.526957 -16.525690
v 13.656691 -1.299851 -31.545856
v 12.884188 -2.598007 -32.172695
v 15.590129 2.200972 -45.148006
v 14.895310 2.288477 -45.046146
v 14.931903 1.750062 -45.548698
v 15.657424 1.618153 -45.543648
v -15.764054 2.197537 -59.163483
v -15.124624 2.012832 -59.443348
v -15.374487 1.348520 -59.575649
v -16.013893 1.533227 -59.295776
v -1.088163 -0.462548 0.724315
v -0.969868 -3.421250 1.363035
v 1.401468 -0.604214 -1.695836
v -4.621641 -5.356822 -4.104996
v -5.597732 -5.032336 -2.074473
v -5.808790 -3.028521 -2.548746
v -5.080688 -3.335461 -4.676281
v 12.627131 -1.318937 -30.284834
v 12.017926 -0.090447 -30.992886
v 11.334760 -1.340390 -31.951294
v 11.897470 -2.707693 -30.933550
v 14.578965 -4.430845 -32.537205
v 15.224514 -3.728783 -32.098846
v 14.456022 -3.811281 -33.288738
v 15.107342 -3.138987 -32.906078
v -14.028614 -0.441099 -43.258537
v -15.361006 -1.029230 -42.021706
v -15.231995 -2.843774 -42.668407
v -13.821560 -2.239541 -43.855911
v -19.183887 -0.976494 -43.445576
v -19.037796 -1.979634 -44.001179
v -18.552286 -0.446274 -44.181305
v -18.378853 -1.444157 -44.697258
vt 0.552625 0.012226
vt 0.581567 0.017455
vt 0.493627 0.354404
vt 0.464859 0.328311
vt 0.454009 0.362155
vt 0.493535 0.514293
vt 0.468261 0.523794
vt 0.418726 0.386536
vt 0.410313 0.363600
vt 0.623340 0.662642
vt 0.616300 0.670273
vt 0.322094 0.421426
vt 0.324227 0.414530
vt 0.331903 0.417217
vt 0.329770 0.424113
vt 0.220185 0.668433
vt 0.251087 0.641911
vt 0.316647 0.983362
vt 0.287705 0.988590
vt 0.213602 0.633729
vt 0.215273 0.473481
vt 0.244465 0.465996
vt 0.166711 0.631372
vt 0.177990 0.609478
vt 0.055388 0.193699
vt 0.071685 0.180897
vt 0.045510 0.177303
vt 0.011411 0.179331
vt 0.019025 0.171824
vt 0.046352 0.014428
vt 0.053741 0.011412
vt 0.376053 0.676254
vt 0.325470 0.334806
vt 0.360227 0.328347
vt 0.404812 0.665296
vt 0.322094 0.158887
vt 0.349563 0.168457
vt 0.335924 0.013118
vt 0.351967 0.020109
vt 0.799622 0.400776
vt 0.869279 0.080619
vt 0.898041 0.091575
vt 0.833811 0.407662
vt 0.899345 0.013763
vt 0.934675 0.019793
vt 0.939875 0.181432
vt 0.910121 0.174011
vt 0.934383 0.446821
vt 0.913415 0.453793
vt 0.879793 0.013468
vt 0.892281 0.039193
vt 0.726865 0.292192
vt 0.711471 0.278857
vt 0.700815 0.295158
vt 0.714201 0.466697
vt 0.706813 0.463674
vt 0.674595 0.302142
vt 0.667297 0.294214
vt 0.651054 0.441203
vt 0.630861 0.466858
vt 0.650097 0.181759
vt 0.670874 0.188204
vt 0.691557 0.012273
vt 0.699233 0.013700
vt 0.322094 0.437574
vt 0.323113 0.430083
vt 0.328316 0.437182
vt 0.329851 0.429361
vt 0.011409 0.217542
vt 0.029932 0.191823
vt 0.035288 0.338302
vt 0.020847 0.348636
vt 0.062776 0.489820
vt 0.056555 0.495239
vt 0.736504 0.551652
vt 0.726747 0.525996
vt 0.854405 0.394902
vt 0.860906 0.405876
vt 0.872310 0.392516
vt 0.895971 0.248299
vt 0.904353 0.248356
vt 0.947292 0.013354
vt 0.966229 0.019318
vt 0.988569 0.165975
vt 0.980541 0.164872
vt 0.866406 0.475074
vt 0.851401 0.468318
vt 0.900123 0.324152
vt 0.906854 0.328417
vt 0.068944 0.273316
vt 0.089406 0.266246
vt 0.120674 0.434765
vt 0.112999 0.436191
vt 0.669214 0.427206
vt 0.672963 0.405312
vt 0.696118 0.410427
vt 0.692569 0.433363
vt 0.954400 0.417755
vt 0.988590 0.419030
vt 0.958939 0.469926
vt 0.935784 0.467650
vt 0.447515 0.372447
vt 0.453149 0.405416
vt 0.417537 0.419372
vt 0.412232 0.397583
vt 0.667804 0.404528
vt 0.659626 0.391282
vt 0.674196 0.391488
vt 0.680588 0.365300
vt 0.689913 0.371658
vt 0.685655 0.357729
vt 0.694335 0.364409
vt 0.162437 0.438153
vt 0.146390 0.446021
vt 0.126478 0.417108
vt 0.134592 0.410149
vt 0.903920 0.413781
vt 0.905183 0.427141
vt 0.891164 0.439173
vt 0.884005 0.431070
vt 0.011409 0.427180
vt 0.020334 0.413187
vt 0.037095 0.433011
vt 0.029569 0.440262
vt 0.418359 0.425240
vt 0.424778 0.436055
vt 0.416277 0.441772
vt 0.410313 0.431013
vt 0.126478 0.365289
vt 0.147445 0.366680
vt 0.148054 0.407896
vt 0.136463 0.406323
vt 0.430212 0.420602
vt 0.450670 0.418485
vt 0.441011 0.443202
vt 0.429492 0.445066
vt 0.097888 0.426111
vt 0.116767 0.452952
vt 0.087825 0.472808
vt 0.068945 0.445970
vn 0.252733 0.944406 -0.210291
vn 0.252733 0.944407 -0.210291
vn 0.236399 0.949224 -0.207579
vn 0.243590 0.947140 -0.208779
vn -0.309797 0.296428 -0.903414
vn -0.309797 0.296428 -0.903414
vn -0.309797 0.296428 -0.903414
vn -0.309797 0.296428 -0.903414
vn -0.244406 -0.947265 0.207256
vn -0.235709 -0.949567 0.206792
vn -0.252820 -0.944959 0.207689
vn -0.252820 -0.944959 0.207689
vn 0.946765 -0.277262 -0.163588
vn 0.971335 -0.201788 -0.125656
vn 0.976236 -0.182948 -0.116159
vn 0.946765 -0.277262 -0.163588
vn -0.938999 0.307813 0.153402
vn -0.938999 0.307813 0.153402
vn -0.938999 0.307813 0.153402
vn -0.938999 0.307813 0.153402
vn 0.104775 0.994430 -0.011464
vn 0.104775 0.994430 -0.011464
vn 0.104775 0.994430 -0.011464
vn 0.104775 0.994430 -0.011464
vn 0.976236 -0.182948 -0.116159
vn 0.971335 -0.201788 -0.125656
vn 0.999783 0.008594 -0.018986
vn 0.999783 0.008594 -0.018986
vn -0.056209 -0.998224 -0.019733
vn -0.056209 -0.998224 -0.019733
vn -0.056209 -0.998224 -0.019733
vn -0.056209 -0.998224 -0.019733
vn -0.998908 0.010007 -0.045643
vn -0.998908 0.010007 -0.045643
vn -0.998908 0.010007 -0.045643
vn -0.998908 0.010007 -0.045643
vn 0.233220 0.965579 -0.115179
vn 0.233220 0.965579 -0.115179
vn 0.228040 0.967833 -0.106284
vn 0.227467 0.968076 -0.105302
vn 0.862659 0.001641 -0.505783
vn 0.862659 0.001641 -0.505783
vn 0.927667 0.003431 -0.373392
vn 0.914328 0.003020 -0.404963
vn -0.048462 -0.998769 -0.010545
vn -0.048462 -0.998769 -0.010545
vn -0.046238 -0.998775 -0.017629
vn -0.046519 -0.998777 -0.016732
vn -0.867822 0.097959 0.487123
vn -0.867822 0.097959 0.487123
vn -0.867822 0.097959 0.487123
vn -0.867822 0.097959 0.487123
vn -0.021430 0.681406 -0.731592
vn -0.021430 0.681406 -0.731592
vn -0.021430 0.681406 -0.731592
vn 0.108755 0.566888 -0.816585
vn 0.108755 0.566888 -0.816585
vn 0.108755 0.566888 -0.816585
vn 0.421766 0.818083 0.390967
vn 0.421766 0.818083 0.390967
vn 0.428153 0.812748 0.395128
vn 0.426151 0.814431 0.393825
vn -0.622692 0.557151 -0.549397
vn -0.622692 0.557151 -0.549397
vn -0.716278 0.536251 -0.446520
vn -0.755030 0.522903 -0.395602
vn 0.718038 -0.416519 0.557614
vn 0.718038 -0.416519 0.557614
vn 0.718038 -0.416519 0.557614
vn 0.718038 -0.416519 0.557614
vn -0.487467 -0.734759 -0.471704
vn -0.487467 -0.734759 -0.471704
vn -0.489761 -0.732456 -0.472908
vn -0.489859 -0.732357 -0.472960
vn 0.524040 0.809952 0.263362
vn 0.524040 0.809952 0.263362
vn 0.524040 0.809952 0.263362
vn 0.524040 0.809952 0.263362
vn -0.755030 0.522903 -0.395602
vn -0.716278 0.536251 -0.446520
vn -0.895822 0.426346 -0.125428
vn -0.895822 0.426346 -0.125428
vn 0.925029 -0.376066 0.053821
vn 0.925029 -0.376066 0.053821
vn 0.925029 -0.376066 0.053821
vn 0.925029 -0.376066 0.053821
vn -0.514094 -0.789469 -0.335331
vn -0.514094 -0.789469 -0.335331
vn -0.514094 -0.789469 -0.335331
vn -0.514094 -0.789469 -0.335331
vn 0.040203 0.986418 0.159261
vn 0.040203 0.986418 0.159261
vn 0.040203 0.986418 0.159261
vn 0.040203 0.986418 0.159261
vn 0.914328 0.003020 -0.404963
vn 0.927667 0.003431 -0.373392
vn 0.996653 0.006811 -0.081459
vn 0.996653 0.006811 -0.081459
vn -0.044270 -0.971899 -0.231200
vn -0.044270 -0.971899 -0.231200
vn -0.044270 -0.971899 -0.231200
vn -0.044270 -0.971899 -0.231200
vn -0.999560 0.026332 -0.013668
vn -0.999560 0.026332 -0.013668
vn -0.999560 0.026332 -0.013668
vn -0.999560 0.026332 -0.013668
vn -0.910660 -0.239123 -0.336925
vn -0.910660 -0.239123 -0.336925
vn -0.910660 -0.239123 -0.336925
vn -0.910660 -0.239123 -0.336925
vn 0.093933 -0.979498 0.178215
vn -0.235709 -0.949567 0.206792
vn -0.244406 -0.947265 0.207256
vn 0.243590 0.947140 -0.208779
vn 0.236399 0.949224 -0.207579
vn -0.084561 0.985856 -0.144697
vn 0.218463 -0.956624 0.192727
vn 0.218463 -0.956624 0.192727
vn 0.218463 -0.956624 0.192727
vn 0.218463 -0.956624 0.192727
vn -0.616517 0.133125 0.776005
vn -0.616517 0.133125 0.776005
vn -0.616518 0.133125 0.776005
vn -0.616518 0.133125 0.776005
vn -0.465081 0.876742 -0.122571
vn -0.465081 0.876742 -0.122571
vn -0.465081 0.876742 -0.122571
vn -0.465081 0.876742 -0.122571
vn 0.614250 -0.060628 -0.786779
vn 0.614250 -0.060628 -0.786779
vn 0.614250 -0.060628 -0.786779
vn 0.614250 -0.060628 -0.786779
vn 0.426151 0.814431 0.393825
vn 0.428153 0.812748 0.395128
vn 0.615287 0.599885 0.511429
vn -0.489859 -0.732357 -0.472960
vn -0.489761 -0.732456 -0.472908
vn -0.582173 -0.625889 -0.518977
vn 0.765784 -0.445610 -0.463687
vn 0.765784 -0.445610 -0.463687
vn 0.765784 -0.445610 -0.463687
vn 0.765784 -0.445610 -0.463687
vn 0.133377 -0.524829 0.840693
vn 0.133378 -0.524829 0.840693
vn 0.133378 -0.524829 0.840693
vn 0.133378 -0.524829 0.840693
vn -0.685297 -0.535526 -0.493538
vn -0.685297 -0.535526 -0.493538
vn -0.685297 -0.535526 -0.493538
vn -0.685297 -0.535526 -0.493538
vn -0.145539 0.532386 -0.833897
vn -0.145540 0.532386 -0.833897
vn -0.145539 0.532386 -0.833897
vn -0.145539 0.532386 -0.833897
vn 0.787910 0.402471 0.466063
vn 0.787910 0.402471 0.466063
vn 0.787910 0.402471 0.466063
vn 0.787910 0.402471 0.466063
vn 0.227467 0.968076 -0.105302
vn 0.228040 0.967833 -0.106284
vn -0.072175 0.928661 0.363840
vn -0.794195 0.183412 -0.579323
vn -0.794195 0.183412 -0.579323
vn -0.794195 0.183412 -0.579323
vn -0.794194 0.183412 -0.579323
vn -0.046519 -0.998777 -0.016732
vn -0.046238 -0.998775 -0.017629
vn 0.072438 -0.921061 -0.382623
vn -0.353787 -0.396092 0.847317
vn -0.353787 -0.396092 0.847317
vn -0.353787 -0.396092 0.847317
vn -0.353787 -0.396092 0.847317
vn -0.130665 0.891514 0.433739
vn -0.130665 0.891514 0.433739
vn -0.130665 0.891514 0.433739
vn -0.130665 0.891514 0.433739
vn 0.298756 0.405582 -0.863856
vn 0.298756 0.405582 -0.863856
vn 0.298756 0.405582 -0.863856
vn 0.298756 0.405582 -0.863856
vn -0.118308 -0.893614 -0.432963
vn -0.118308 -0.893614 -0.432963
vn -0.118308 -0.893614 -0.432963
vn -0.118308 -0.893614 -0.432963
vn 0.311002 0.177045 0.933773
vn 0.311002 0.177045 0.933773
vn 0.311002 0.177045 0.933773
vn 0.311002 0.177045 0.933773
s off
f 3/1/1 4/2/2 27/3/3 25/4/4
f 21/12/5 22/13/6 23/14/7 24/15/8
f 26/16/9 7/17/10 2/18/11 1/19/12
f 2/32/13 7/33/14 27/34/15 4/35/16
f 26/40/17 1/41/18 3/42/19 25/43/20
f 5/5/21 27/3/22 14/6/23 8/7/24
f 27/34/25 7/33/26 10/36/27 14/37/28
f 7/17/29 6/20/30 11/21/31 10/22/32
f 6/44/33 5/45/34 8/46/35 11/47/36
f 8/50/37 9/51/38 40/52/39 41/53/40
f 9/59/41 10/60/42 43/61/43 40/62/44
f 10/22/45 11/21/46 42/25/47 43/26/48
f 11/47/49 8/46/50 41/48/51 42/49/52
f 18/65/53 17/66/54 19/67/55
f 17/66/56 20/68/57 19/67/58
f 8/7/59 14/6/60 32/10/61 33/11/62
f 9/69/63 8/70/64 33/71/65 34/72/66
f 14/37/67 10/36/68 35/38/69 32/39/70
f 10/75/71 9/76/72 34/77/73 35/78/74
f 33/82/75 15/83/76 17/84/77 18/85/78
f 34/72/79 33/71/80 18/73/81 19/74/82
f 15/86/83 16/87/84 20/88/85 17/89/86
f 16/79/87 34/77/88 19/80/89 20/81/90
f 12/54/91 40/52/92 22/55/93 21/56/94
f 40/62/95 43/61/96 23/63/97 22/64/98
f 43/26/99 13/27/100 24/30/101 23/31/102
f 13/90/103 12/91/104 21/92/105 24/93/106
f 28/94/107 29/95/108 30/96/109 31/97/110
f 6/20/111 7/17/112 26/16/113
f 25/4/114 27/3/115 5/5/116
f 6/20/117 26/16/118 29/23/119 28/24/120
f 26/98/121 25/99/122 30/100/123 29/101/124
f 25/4/125 5/5/126 31/8/127 30/9/128
f 5/102/129 6/103/130 28/104/131 31/105/132
f 33/106/133 32/107/134 15/108/135
f 35/78/136 34/77/137 16/79/138
f 37/109/139 36/111/140 38/112/141 39/110/142
f 32/113/143 35/114/144 36/115/145 37/116/146
f 35/117/147 16/118/148 38/119/149 36/120/150
f 16/121/151 15/122/152 39/123/153 38/124/154
f 15/108/155 32/107/156 37/109/157 39/110/158
f 41/53/159 40/52/160 12/54/161
f 45/125/162 44/126/163 46/127/164 47/128/165
f 43/26/166 42/25/167 13/27/168
f 42/129/169 41/130/170 44/131/171 45/132/172
f 41/53/173 12/54/174 46/57/175 44/58/176
f 12/133/177 13/134/178 47/135/179 46/136/180
f 13/27/181 42/25/182 45/28/183 47/29/184
f 2/137/185 4/138/186 3/139/187 1/140/188
