# This file uses centimeters as units for non-parametric coordinates.

v 16.906359 34.261513 -18.339758
v 0.540145 34.261513 -25.118887
v -15.826069 34.261513 -18.339758
v -22.605242 34.261513 -1.973546
v -15.826069 34.261513 14.392697
v 0.540145 34.261513 21.171795
v 16.906359 34.261513 14.392697
v 23.685455 34.261513 -1.973546
v 23.859657 -3.493332 -23.859629
v 0.000000 -16.145620 -33.742580
v 0.000000 -22.483505 0.000000
v -23.859568 -3.493332 -23.859629
v -33.742458 -16.145620 0.000000
v -23.859568 -3.493332 23.859629
v 0.000000 -16.145620 33.742580
v 23.859657 -3.493332 23.859629
v 33.742546 -16.145620 0.000000
v 7.766616 365.190338 -7.947182
v 10.178860 365.190338 -2.123472
v 7.766616 365.190338 3.700208
v 1.942952 365.190338 6.112421
v -3.880743 365.190338 3.700208
v -6.293002 365.190338 -2.123472
v -3.880743 365.190338 -7.947182
v 1.942952 365.190338 -10.359426
v -1.541028 85.980690 -15.938596
v 11.356640 85.980690 -10.596202
v 16.699034 85.980690 2.301496
v 11.356640 85.980690 15.199193
v -1.541028 85.980690 20.541588
v -14.438741 85.980690 15.199193
v -19.781181 85.980690 2.301496
v -14.438741 85.980690 -10.596202
v 2.253581 215.363632 -14.559916
v 11.425561 215.363632 -10.760771
v 15.224735 215.363632 -1.588761
v 11.425561 215.363632 7.583220
v 2.253581 215.363632 11.382394
v -6.918415 215.363632 7.583220
v -10.717604 215.363632 -1.588761
v -6.918415 215.363632 -10.760771
v 0.206807 17.243223 25.161505
v 18.532988 17.243223 17.570553
v 26.123863 17.243223 -0.755597
v 18.532988 17.243223 -19.081749
v 0.206807 17.243223 -26.672701
v -18.119314 17.243223 -19.081749
v -25.710236 17.243223 -0.755597
v -18.119314 17.243223 17.570553
v 1.721137 382.224030 0.505244
vt 0.625192 0.865016
vt 0.689444 0.865016
vt 0.695831 0.906666
vt 0.623884 0.906666
vt 0.617021 0.738433
vt 0.667656 0.738433
vt 0.716743 0.957418
vt 0.623071 0.988385
vt 0.560939 0.865016
vt 0.551936 0.906666
vt 0.566386 0.738433
vt 0.631918 0.421769
vt 0.667928 0.421769
vt 0.529400 0.957418
vt 0.595910 0.421769
vt 0.630700 0.055072
vt 0.653563 0.055072
vt 0.607836 0.055072
vt 0.629828 0.013381
vt 0.097334 0.136956
vt 0.033082 0.136956
vt 0.030169 0.095304
vt 0.102116 0.095304
vt 0.114118 0.263538
vt 0.063483 0.263538
vt 0.011411 0.044552
vt 0.105083 0.013585
vt 0.161587 0.136956
vt 0.174063 0.095304
vt 0.164754 0.263538
vt 0.098845 0.580201
vt 0.062836 0.580201
vt 0.198754 0.044552
vt 0.134854 0.580201
vt 0.096746 0.946900
vt 0.073883 0.946900
vt 0.119609 0.946900
vt 0.107066 0.988590
vt 0.301449 0.136956
vt 0.237196 0.136956
vt 0.228193 0.095304
vt 0.300140 0.095304
vt 0.293278 0.263538
vt 0.242643 0.263538
vt 0.205657 0.044552
vt 0.299328 0.013585
vt 0.365701 0.136956
vt 0.372087 0.095304
vt 0.343913 0.263538
vt 0.308175 0.580201
vt 0.272167 0.580201
vt 0.392999 0.044552
vt 0.344184 0.580201
vt 0.306956 0.946900
vt 0.284093 0.946900
vt 0.329819 0.946900
vt 0.306085 0.988590
vt 0.501322 0.136956
vt 0.437069 0.136956
vt 0.424593 0.095304
vt 0.496540 0.095304
vt 0.484540 0.263538
vt 0.433905 0.263538
vt 0.399904 0.044552
vt 0.493575 0.013585
vt 0.565575 0.136956
vt 0.568487 0.095304
vt 0.535174 0.263538
vt 0.499812 0.580201
vt 0.463804 0.580201
vt 0.587245 0.044552
vt 0.535821 0.580201
vt 0.501910 0.946900
vt 0.479047 0.946900
vt 0.524776 0.946900
vt 0.491590 0.988590
vt 0.856118 0.011411
vt 0.949790 0.035599
vt 0.856118 0.093995
vt 0.988589 0.093995
vt 0.762448 0.035599
vt 0.949790 0.152392
vt 0.723648 0.093995
vt 0.856118 0.176580
vt 0.762448 0.152392
vn 0.381559 0.076632 -0.921163
vn 0.381559 0.076632 -0.921163
vn 0.334506 0.184519 -0.924153
vn 0.335205 0.183008 -0.924200
vn -0.381080 0.091463 -0.920007
vn -0.381080 0.091463 -0.920007
vn -0.334272 0.189885 -0.923150
vn -0.332576 0.193260 -0.923062
vn -0.914808 0.139791 -0.378927
vn -0.914808 0.139791 -0.378927
vn -0.918781 0.218814 -0.328576
vn -0.918774 0.221345 -0.326895
vn -0.906637 0.192295 0.375542
vn -0.906637 0.192295 0.375542
vn -0.913685 0.246226 0.323345
vn -0.913866 0.248433 0.321140
vn -0.373423 0.218663 0.901522
vn -0.373423 0.218663 0.901522
vn -0.318665 0.263312 0.910560
vn -0.318868 0.263151 0.910535
vn 0.374582 0.204669 0.904322
vn 0.374582 0.204669 0.904322
vn 0.319855 0.256399 0.912114
vn 0.320749 0.255579 0.912030
vn 0.912311 0.157763 0.377889
vn 0.912311 0.157763 0.377889
vn 0.917417 0.229612 0.324998
vn 0.917340 0.226221 0.327584
vn 0.918830 0.104415 -0.380590
vn 0.918830 0.104415 -0.380590
vn 0.921899 0.201214 -0.331081
vn 0.921952 0.198984 -0.332280
vn 0.512999 -0.843636 -0.158461
vn 0.512999 -0.843636 -0.158461
vn 0.512999 -0.843636 -0.158461
vn -0.513001 -0.843635 -0.158460
vn -0.513001 -0.843635 -0.158460
vn -0.513001 -0.843635 -0.158460
vn -0.158461 -0.843636 -0.513000
vn -0.158461 -0.843636 -0.513000
vn -0.158461 -0.843636 -0.513000
vn -0.158461 -0.843636 0.513000
vn -0.158461 -0.843636 0.513000
vn -0.158461 -0.843636 0.513000
vn -0.513001 -0.843635 0.158460
vn -0.513001 -0.843635 0.158460
vn -0.513001 -0.843635 0.158460
vn 0.512999 -0.843636 0.158461
vn 0.512999 -0.843636 0.158461
vn 0.512999 -0.843636 0.158461
vn 0.158461 -0.843636 0.512999
vn 0.158461 -0.843636 0.512999
vn 0.158461 -0.843636 0.512999
vn 0.158461 -0.843636 -0.512999
vn 0.158461 -0.843636 -0.512999
vn 0.158461 -0.843636 -0.512999
vn 0.376671 0.176571 -0.909363
vn 0.376671 0.176571 -0.909363
vn 0.381930 0.062730 -0.922060
vn 0.381943 0.062186 -0.922091
vn -0.378528 0.146978 -0.913846
vn -0.378528 0.146978 -0.913846
vn -0.381860 0.065520 -0.921895
vn -0.381835 0.066532 -0.921833
vn -0.920782 0.081804 -0.381404
vn -0.920782 0.081804 -0.381404
vn -0.922038 0.063084 -0.381924
vn -0.922014 0.063500 -0.381913
vn -0.923715 0.018812 0.382618
vn -0.923715 0.018812 0.382618
vn -0.922419 0.056187 0.382081
vn -0.922456 0.055475 0.382097
vn -0.382680 -0.004141 0.923872
vn -0.382679 -0.004141 0.923872
vn -0.382240 0.048108 0.922810
vn -0.382244 0.047867 0.922821
vn 0.382547 0.026647 0.923552
vn 0.382547 0.026647 0.923552
vn 0.382308 0.044287 0.922973
vn 0.382305 0.044512 0.922964
vn 0.919896 0.092767 0.381032
vn 0.919896 0.092767 0.381032
vn 0.922830 0.047645 0.382249
vn 0.922875 0.046619 0.382267
vn 0.912779 0.154554 -0.378085
vn 0.912779 0.154554 -0.378085
vn 0.922452 0.055573 -0.382092
vn 0.922549 0.053654 -0.382132
vn 0.820423 0.459808 -0.339828
vn 0.820423 0.459808 -0.339828
vn 0.820423 0.459808 -0.339828
vn 0.857897 0.371131 0.355351
vn 0.857897 0.371131 0.355351
vn 0.857897 0.371131 0.355352
vn 0.365612 0.295322 0.882674
vn 0.365612 0.295322 0.882674
vn 0.365612 0.295322 0.882674
vn -0.366626 0.286594 0.885127
vn -0.366626 0.286594 0.885127
vn -0.366626 0.286594 0.885127
vn -0.864882 0.351630 0.358240
vn -0.864882 0.351630 0.358240
vn -0.864882 0.351630 0.358240
vn -0.828412 0.442712 -0.343133
vn -0.828412 0.442712 -0.343133
vn -0.828412 0.442712 -0.343133
vn -0.330415 0.504494 -0.797692
vn -0.330415 0.504494 -0.797692
vn -0.330415 0.504494 -0.797692
vn 0.328979 0.510867 -0.794222
vn 0.328979 0.510867 -0.794222
vn 0.328979 0.510867 -0.794222
vn 0.381943 0.062186 -0.922091
vn 0.381930 0.062730 -0.922060
vn 0.382661 0.010808 -0.923826
vn 0.382660 0.010915 -0.923825
vn 0.922549 0.053654 -0.382132
vn 0.922452 0.055573 -0.382092
vn 0.923807 0.012517 -0.382653
vn 0.923810 0.012320 -0.382654
vn 0.922875 0.046619 0.382267
vn 0.922830 0.047645 0.382249
vn 0.923551 0.026647 0.382548
vn 0.923555 0.026513 0.382549
vn 0.382305 0.044512 0.922964
vn 0.382308 0.044287 0.922973
vn 0.382298 0.044901 0.922948
vn 0.382293 0.045146 0.922938
vn -0.382244 0.047867 0.922821
vn -0.382240 0.048108 0.922810
vn -0.382063 0.056861 0.922385
vn -0.382060 0.057030 0.922376
vn -0.922456 0.055475 0.382097
vn -0.922419 0.056187 0.382081
vn -0.922452 0.055547 0.382095
vn -0.922468 0.055244 0.382101
vn -0.922014 0.063500 -0.381913
vn -0.922038 0.063084 -0.381924
vn -0.923085 0.041449 -0.382356
vn -0.923098 0.041099 -0.382362
vn -0.381835 0.066532 -0.921833
vn -0.381860 0.065520 -0.921895
vn -0.382583 0.022800 -0.923640
vn -0.382582 0.022848 -0.923639
vn 0.382660 0.010915 -0.923825
vn 0.382661 0.010808 -0.923826
vn 0.382547 0.026686 -0.923551
vn 0.382547 0.026686 -0.923551
vn 0.923810 0.012320 -0.382654
vn 0.923807 0.012517 -0.382653
vn 0.923471 0.029736 -0.382514
vn 0.923471 0.029736 -0.382514
vn 0.923555 0.026513 0.382549
vn 0.923551 0.026647 0.382548
vn 0.923392 0.032463 0.382482
vn 0.923392 0.032463 0.382482
vn 0.382293 0.045146 0.922938
vn 0.382298 0.044901 0.922948
vn 0.382471 0.033271 0.923368
vn 0.382471 0.033271 0.923368
vn -0.382060 0.057030 0.922376
vn -0.382063 0.056861 0.922385
vn -0.382490 0.031687 0.923416
vn -0.382490 0.031687 0.923416
vn -0.922468 0.055244 0.382101
vn -0.922452 0.055547 0.382095
vn -0.923500 0.028637 0.382529
vn -0.923500 0.028637 0.382529
vn -0.923098 0.041099 -0.382362
vn -0.923085 0.041449 -0.382356
vn -0.923569 0.025909 -0.382556
vn -0.923569 0.025909 -0.382556
vn -0.382582 0.022848 -0.923639
vn -0.382583 0.022800 -0.923640
vn -0.382561 0.025100 -0.923589
vn -0.382561 0.025100 -0.923589
vn 0.320749 0.255579 0.912030
vn 0.319855 0.256399 0.912114
vn 0.294880 0.278975 0.913903
vn 0.294881 0.278975 0.913903
vn 0.917340 0.226221 0.327584
vn 0.917417 0.229612 0.324998
vn 0.917389 0.258771 0.302381
vn 0.917389 0.258771 0.302381
vn 0.921952 0.198984 -0.332280
vn 0.921899 0.201214 -0.331081
vn 0.919809 0.242893 -0.308146
vn 0.919809 0.242893 -0.308146
vn 0.335205 0.183008 -0.924200
vn 0.334506 0.184519 -0.924153
vn 0.312308 0.231234 -0.921409
vn 0.312308 0.231234 -0.921409
vn -0.332576 0.193260 -0.923062
vn -0.334272 0.189885 -0.923150
vn -0.310722 0.235702 -0.920813
vn -0.310722 0.235702 -0.920813
vn -0.918774 0.221345 -0.326895
vn -0.918781 0.218814 -0.328576
vn -0.917818 0.256088 -0.303365
vn -0.917818 0.256088 -0.303365
vn -0.913866 0.248433 0.321140
vn -0.913685 0.246226 0.323345
vn -0.915225 0.271622 0.297632
vn -0.915225 0.271622 0.297632
vn -0.318868 0.263151 0.910535
vn -0.318665 0.263312 0.910560
vn -0.293326 0.283100 0.913134
vn -0.293326 0.283100 0.913134
s off
f 2/1/1 1/2/2 45/3/3 46/4/4
f 3/9/5 2/1/6 46/4/7 47/10/8
f 4/20/9 3/21/10 47/22/11 48/23/12
f 5/28/13 4/20/14 48/23/15 49/29/16
f 6/39/17 5/40/18 49/41/19 42/42/20
f 7/47/21 6/39/22 42/42/23 43/48/24
f 8/58/25 7/59/26 43/60/27 44/61/28
f 1/66/29 8/58/30 44/61/31 45/67/32
f 10/77/33 9/78/34 11/79/35
f 12/81/36 10/77/37 11/79/38
f 13/83/39 12/81/40 11/79/41
f 14/85/42 13/83/43 11/79/44
f 15/84/45 14/85/46 11/79/47
f 16/82/48 15/84/49 11/79/50
f 17/80/51 16/82/52 11/79/53
f 9/78/54 17/80/55 11/79/56
f 1/2/57 2/1/58 26/5/59 27/6/60
f 2/1/61 3/9/62 33/11/63 26/5/64
f 3/21/65 4/20/66 32/24/67 33/25/68
f 4/20/69 5/28/70 31/30/71 32/24/72
f 5/40/73 6/39/74 30/43/75 31/44/76
f 6/39/77 7/47/78 29/49/79 30/43/80
f 7/59/81 8/58/82 28/62/83 29/63/84
f 8/58/85 1/66/86 27/68/87 28/62/88
f 19/73/89 18/75/90 50/76/91
f 20/74/92 19/73/93 50/76/94
f 21/54/95 20/56/96 50/57/97
f 22/55/98 21/54/99 50/57/100
f 23/35/101 22/37/102 50/38/103
f 24/36/104 23/35/105 50/38/106
f 25/16/107 24/18/108 50/19/109
f 18/17/110 25/16/111 50/19/112
f 27/6/113 26/5/114 34/12/115 35/13/116
f 28/62/117 27/68/118 35/72/119 36/69/120
f 29/63/121 28/62/122 36/69/123 37/70/124
f 30/43/125 29/49/126 37/53/127 38/50/128
f 31/44/129 30/43/130 38/50/131 39/51/132
f 32/24/133 31/30/134 39/34/135 40/31/136
f 33/25/137 32/24/138 40/31/139 41/32/140
f 26/5/141 33/11/142 41/15/143 34/12/144
f 35/13/145 34/12/146 25/16/147 18/17/148
f 36/69/149 35/72/150 18/75/151 19/73/152
f 37/70/153 36/69/154 19/73/155 20/74/156
f 38/50/157 37/53/158 20/56/159 21/54/160
f 39/51/161 38/50/162 21/54/163 22/55/164
f 40/31/165 39/34/166 22/37/167 23/35/168
f 41/32/169 40/31/170 23/35/171 24/36/172
f 34/12/173 41/15/174 24/18/175 25/16/176
f 43/48/177 42/42/178 15/46/179 16/52/180
f 44/61/181 43/60/182 16/64/183 17/65/184
f 45/67/185 44/61/186 17/65/187 9/71/188
f 46/4/189 45/3/190 9/7/191 10/8/192
f 47/10/193 46/4/194 10/8/195 12/14/196
f 48/23/197 47/22/198 12/26/199 13/27/200
f 49/29/201 48/23/202 13/27/203 14/33/204
f 42/42/205 49/41/206 14/45/207 15/46/208
