# This file uses centimeters as units for non-parametric coordinates.

v 33.728695 -14.235897 10.632511
v 8.575464 -27.369469 5.541399
v -12.535205 -13.133405 20.972765
v -13.638641 14.235870 10.441735
v 11.514760 27.369375 15.532579
v 32.625366 13.133511 0.101336
v 16.524611 -18.926598 -59.831993
v -5.874066 -27.908167 -59.448910
v -24.704636 -13.577772 -64.199280
v -21.137112 9.734077 -69.332321
v 1.262109 18.715675 -69.715126
v 20.092682 4.385412 -64.965309
v 44.235428 -51.638859 -155.259277
v 24.223690 -64.638855 -158.191910
v 7.504411 -57.170433 -158.728928
v 5.629556 -38.992443 -160.011337
v 19.009731 -28.163765 -155.670334
v 37.264618 -34.064289 -156.559174
v 17.050812 -6.232080 -316.651031
v 7.370862 -12.346083 -316.591248
v -2.756690 -7.025544 -316.104767
v -5.466826 6.883576 -308.570068
v 6.474091 10.523082 -315.737579
v 16.601299 5.202484 -316.224365
v 11.647477 -10.031292 -472.706177
v 10.177905 -11.359169 -472.377838
v 8.297559 -10.721941 -472.080292
v 7.886713 -8.756824 -472.110077
v 9.356588 -7.429056 -472.438171
v 11.237243 -8.066294 -472.735657
v 39.122101 -51.867729 -173.075073
v 27.360964 -35.268929 -185.625412
v 18.147339 -27.244068 -173.871231
v 68.630722 69.491638 -202.073303
v 80.136658 67.725441 -202.955444
v 69.643822 55.871185 -213.404053
v 63.230076 63.447174 -206.991867
v 85.568283 61.290810 -206.054977
v 76.991852 54.363190 -213.747543
v 66.872246 79.356667 -280.050568
v 70.353973 78.767029 -283.645660
v 63.390327 74.408516 -284.943695
v 63.520531 77.048080 -280.475922
v 69.969376 75.542435 -285.374573
v 66.310867 73.292557 -285.290741
v 1.236792 0.611096 -325.749115
v -52.425171 2.007697 -390.607941
v -54.029987 10.243809 -386.145874
v -45.876591 6.280890 -392.595062
v -46.959183 12.398805 -390.390015
v -60.691631 27.348377 -430.713287
v -61.196884 29.940990 -429.308411
v -58.113384 28.377728 -431.819427
v -58.971218 30.619329 -430.644989
v 9.460256 -9.731577 -474.708160
v 55.981472 106.593460 -287.890717
v 57.678596 106.439682 -289.711853
v 54.101898 104.607513 -290.602997
v 54.253643 105.595070 -288.235931
v 57.386360 104.989548 -290.773712
v 55.509354 103.995094 -290.863525
v 55.130905 107.259735 -290.028687
v 31.982141 -30.919010 -392.153839
v 25.367901 -27.102581 -391.743896
v 19.683754 -33.338001 -393.480957
v 19.231901 -38.190098 -387.909424
v 25.846178 -42.006424 -388.319366
v 32.221844 -38.370975 -390.441864
v 16.009174 -0.000004 30.105194
vt 0.133721 0.968205
vt 0.081071 0.958169
vt 0.050826 0.830047
vt 0.097710 0.829293
vt 0.036883 0.988590
vt 0.011411 0.820683
vt 0.113826 0.635387
vt 0.155713 0.641168
vt 0.078829 0.634328
vt 0.145010 0.606046
vt 0.057351 0.324079
vt 0.078550 0.323120
vt 0.098811 0.323003
vt 0.103377 0.182525
vt 0.117222 0.181716
vt 0.130567 0.177532
vt 0.080489 0.016591
vt 0.084425 0.016005
vt 0.087501 0.015358
vt 0.082923 0.011411
vt 0.440964 0.015581
vt 0.498251 0.036341
vt 0.488829 0.193607
vt 0.440034 0.183487
vt 0.386837 0.372371
vt 0.348787 0.369842
vt 0.482862 0.665237
vt 0.453748 0.680091
vt 0.489896 0.818169
vt 0.472656 0.826966
vt 0.531125 0.903259
vt 0.525698 0.906029
vt 0.241307 0.023696
vt 0.293957 0.013659
vt 0.272497 0.181716
vt 0.225612 0.180961
vt 0.338145 0.044081
vt 0.311912 0.172352
vt 0.309646 0.351168
vt 0.281639 0.359724
vt 0.347856 0.352920
vt 0.307841 0.387049
vt 0.283406 0.666721
vt 0.258412 0.652592
vt 0.327126 0.410220
vt 0.304604 0.667681
vt 0.171563 0.813890
vt 0.156762 0.805524
vt 0.336798 0.817368
vt 0.322954 0.816559
vt 0.146419 0.893249
vt 0.141761 0.890614
vt 0.293376 0.976225
vt 0.289440 0.975639
vt 0.272444 0.686458
vt 0.311056 0.819984
vt 0.800656 0.323166
vt 0.743368 0.343927
vt 0.733549 0.205014
vt 0.782345 0.194895
vt 0.773166 0.382315
vt 0.665077 0.016891
vt 0.701864 0.014327
vt 0.830454 0.353588
vt 0.633548 0.604983
vt 0.632490 0.599873
vt 0.638944 0.602953
vt 0.637149 0.598535
vt 0.573304 0.580485
vt 0.538561 0.605227
vt 0.634083 0.322183
vt 0.658019 0.323024
vt 0.566812 0.176713
vt 0.582410 0.173337
vt 0.626131 0.014538
vt 0.630244 0.014480
vt 0.611404 0.484485
vt 0.649614 0.472853
vt 0.739352 0.673520
vt 0.715269 0.677002
vt 0.664205 0.438207
vt 0.750721 0.660835
vt 0.925067 0.255640
vt 0.949671 0.271460
vt 0.880344 0.450248
vt 0.866922 0.435312
vt 0.987768 0.269647
vt 0.890640 0.462164
vt 0.726531 0.477061
vt 0.717179 0.471857
vt 0.727421 0.481611
vt 0.710288 0.533338
vt 0.705333 0.531391
vt 0.706535 0.536619
vt 0.789677 0.481541
vt 0.826968 0.481090
vt 0.912102 0.690512
vt 0.896001 0.704169
vt 0.563179 0.766562
vt 0.538562 0.733839
vt 0.627066 0.554168
vt 0.642446 0.557139
vt 0.346717 0.451669
vt 0.370801 0.453408
vt 0.350324 0.612480
vt 0.343037 0.605392
vt 0.751389 0.763177
vt 0.737919 0.757066
vt 0.767751 0.600697
vt 0.774500 0.604105
vt 0.829388 0.590053
vt 0.832423 0.592146
vt 0.775735 0.611193
vt 0.832745 0.595736
vt 0.416295 0.645743
vt 0.398344 0.630578
vt 0.375987 0.489539
vt 0.383644 0.489373
vt 0.382963 0.631255
vt 0.369874 0.490222
vt 0.898998 0.014431
vt 0.914983 0.033444
vt 0.843922 0.166969
vt 0.833766 0.155986
vt 0.895374 0.321978
vt 0.891261 0.321919
vt 0.856974 0.163545
vt 0.898154 0.322624
vt 0.893334 0.327100
vt 0.980643 0.678800
vt 0.972285 0.697812
vt 0.868321 0.550938
vt 0.882028 0.547021
vt 0.851018 0.471875
vt 0.856415 0.469695
vt 0.946524 0.537179
vt 0.925777 0.517443
vt 0.937645 0.385663
vt 0.950451 0.390010
vt 0.983897 0.308336
vt 0.988590 0.310651
vt 0.642075 0.608548
vt 0.646012 0.609804
vt 0.642292 0.613088
vt 0.646870 0.613677
vt 0.364351 0.588977
vt 0.371366 0.593527
vt 0.348570 0.647222
vt 0.344954 0.645254
vt 0.675287 0.629131
vt 0.667630 0.633565
vt 0.645020 0.573039
vt 0.648950 0.571078
vt 0.661517 0.631365
vt 0.642075 0.571831
vt 0.644229 0.566602
vt 0.649561 0.568220
vt 0.634407 0.590441
vt 0.638219 0.587094
vt 0.638882 0.592117
vt 0.635129 0.593847
vt 0.815089 0.635903
vt 0.867738 0.661794
vt 0.830648 0.689858
vt 0.770901 0.663967
vt 0.768591 0.717923
vt 0.821241 0.743814
vn 0.426077 -0.902368 -0.064730
vn 0.426077 -0.902368 -0.064730
vn 0.426077 -0.902368 -0.064730
vn 0.426077 -0.902368 -0.064730
vn -0.559882 -0.821940 0.104630
vn -0.559882 -0.821940 0.104630
vn -0.559882 -0.821940 0.104630
vn -0.559882 -0.821940 0.104630
vn -0.989764 0.083821 0.115504
vn -0.989764 0.083821 0.115504
vn -0.989764 0.083821 0.115504
vn -0.989764 0.083821 0.115504
vn -0.419319 0.907431 -0.027235
vn -0.419319 0.907431 -0.027235
vn -0.419319 0.907431 -0.027235
vn -0.419319 0.907431 -0.027235
vn 0.540746 0.822317 -0.177168
vn 0.540746 0.822317 -0.177168
vn 0.540746 0.822317 -0.177168
vn 0.540746 0.822317 -0.177168
vn 0.973071 -0.109941 -0.202599
vn 0.973071 -0.109941 -0.202599
vn 0.973071 -0.109941 -0.202599
vn 0.973071 -0.109941 -0.202599
vn 0.399686 -0.818911 0.411870
vn 0.399686 -0.818911 0.411870
vn 0.399686 -0.818911 0.411870
vn 0.399686 -0.818911 0.411870
vn -0.533418 -0.828137 0.172208
vn -0.533418 -0.828136 0.172208
vn -0.533418 -0.828136 0.172208
vn -0.533418 -0.828137 0.172208
vn -0.953903 -0.007475 -0.300024
vn -0.953902 -0.007475 -0.300024
vn -0.953903 -0.007475 -0.300024
vn -0.953902 -0.007475 -0.300024
vn -0.371807 0.773945 -0.512610
vn -0.371808 0.773945 -0.512610
vn -0.371807 0.773945 -0.512610
vn -0.371807 0.773945 -0.512610
vn 0.480627 0.823551 -0.301267
vn 0.480627 0.823551 -0.301267
vn 0.480627 0.823551 -0.301267
vn 0.480627 0.823551 -0.301267
vn 0.975128 0.111311 0.191665
vn 0.975128 0.111311 0.191665
vn 0.975128 0.111311 0.191665
vn 0.975128 0.111311 0.191665
vn 0.553935 -0.819216 -0.148461
vn 0.451346 -0.835002 -0.314736
vn 0.447369 -0.834972 -0.320440
vn -0.351012 0.896855 0.269150
vn -0.641028 0.764410 0.068999
vn -0.332179 0.900740 0.279866
vn -0.482613 0.342699 -0.806004
vn -0.482613 0.342699 -0.806004
vn -0.482613 0.342699 -0.806004
vn -0.549880 0.212745 -0.807695
vn -0.549880 0.212745 -0.807695
vn -0.549880 0.212745 -0.807695
vn -0.989032 -0.145858 0.023266
vn -0.989032 -0.145858 0.023266
vn -0.989032 -0.145858 0.023266
vn -0.989032 -0.145858 0.023266
vn -0.416244 -0.874768 -0.248035
vn -0.416244 -0.874768 -0.248035
vn -0.416244 -0.874768 -0.248035
vn -0.416244 -0.874768 -0.248035
vn 0.447369 -0.834972 -0.320440
vn 0.451346 -0.835002 -0.314736
vn 0.442227 -0.834876 -0.327747
vn 0.442227 -0.834875 -0.327747
vn 0.913777 0.405817 0.018031
vn 0.913777 0.405817 0.018031
vn 0.913777 0.405817 0.018031
vn 0.913777 0.405817 0.018031
vn 0.629143 0.759305 0.166236
vn 0.629143 0.759305 0.166236
vn 0.629143 0.759305 0.166236
vn 0.629143 0.759305 0.166236
vn -0.351012 0.896855 0.269150
vn -0.332179 0.900740 0.279866
vn -0.322607 0.902536 0.285225
vn -0.322607 0.902536 0.285225
vn 0.147593 0.360150 0.921145
vn 0.147593 0.360150 0.921145
vn 0.147593 0.360150 0.921145
vn 0.147593 0.360150 0.921145
vn -0.707193 0.105651 -0.699082
vn -0.707193 0.105651 -0.699082
vn -0.707193 0.105651 -0.699082
vn -0.707193 0.105651 -0.699082
vn -0.863940 0.487587 0.125960
vn -0.863940 0.487587 0.125960
vn -0.863940 0.487587 0.125960
vn -0.863940 0.487587 0.125960
vn 0.492861 0.190967 0.848893
vn 0.492861 0.190967 0.848893
vn 0.492861 0.190967 0.848893
vn 0.492861 0.190967 0.848893
vn 0.837287 -0.438754 -0.326259
vn 0.837287 -0.438754 -0.326259
vn 0.837287 -0.438754 -0.326259
vn 0.837287 -0.438754 -0.326259
vn 0.200997 -0.392846 -0.897370
vn 0.200997 -0.392846 -0.897370
vn 0.200997 -0.392846 -0.897370
vn 0.200997 -0.392846 -0.897370
vn 0.187652 0.975494 0.114885
vn 0.187652 0.975494 0.114885
vn 0.187652 0.975494 0.114885
vn 0.187652 0.975494 0.114885
vn -0.880418 -0.469326 -0.067805
vn -0.880418 -0.469326 -0.067805
vn -0.880418 -0.469326 -0.067805
vn -0.880418 -0.469326 -0.067805
vn -0.721203 0.683465 0.112880
vn -0.721203 0.683465 0.112880
vn -0.721203 0.683465 0.112880
vn -0.721203 0.683465 0.112880
vn 0.871700 0.486176 -0.061422
vn 0.871700 0.486176 -0.061422
vn 0.871700 0.486176 -0.061422
vn 0.871700 0.486176 -0.061422
vn 0.679298 -0.682963 -0.268544
vn 0.679298 -0.682963 -0.268544
vn 0.679298 -0.682963 -0.268544
vn 0.679298 -0.682963 -0.268544
vn -0.255347 -0.942293 -0.216521
vn -0.255347 -0.942293 -0.216521
vn -0.255347 -0.942293 -0.216521
vn -0.255347 -0.942293 -0.216521
vn -0.518704 0.703897 -0.485258
vn -0.518704 0.703897 -0.485258
vn -0.628271 0.733665 -0.258866
vn -0.666886 0.731240 -0.143358
vn -0.960263 0.001765 -0.279093
vn -0.960263 0.001765 -0.279093
vn -0.993278 0.067014 -0.094384
vn -0.967524 0.011400 -0.252522
vn -0.455872 -0.858394 0.235245
vn -0.455872 -0.858394 0.235245
vn -0.471073 -0.878563 0.078848
vn -0.472729 -0.879976 0.046570
vn 0.510053 -0.742946 0.433448
vn 0.510053 -0.742946 0.433448
vn 0.517881 -0.826328 0.221317
vn 0.510565 -0.854257 0.097812
vn 0.982741 0.048020 0.178645
vn 0.982741 0.048020 0.178645
vn 0.996880 0.041926 0.066874
vn 0.998875 0.039583 0.026097
vn 0.442881 0.841770 -0.308673
vn 0.442881 0.841770 -0.308673
vn 0.462919 0.873545 -0.150419
vn 0.460782 0.870385 -0.173523
vn -0.781750 -0.407864 0.471714
vn -0.781750 -0.407864 0.471714
vn -0.781750 -0.407864 0.471714
vn -0.781750 -0.407864 0.471714
vn 0.459368 -0.794503 -0.397173
vn 0.459368 -0.794503 -0.397173
vn 0.459368 -0.794503 -0.397173
vn 0.459368 -0.794503 -0.397173
vn -0.195900 0.966727 0.164508
vn -0.195900 0.966727 0.164508
vn -0.195900 0.966727 0.164508
vn -0.195900 0.966727 0.164508
vn 0.801103 0.217366 -0.557661
vn 0.801103 0.217366 -0.557661
vn 0.801103 0.217366 -0.557661
vn 0.801103 0.217366 -0.557661
vn -0.973137 -0.222224 0.060171
vn -0.973137 -0.222224 0.060171
vn -0.973137 -0.222224 0.060171
vn -0.973137 -0.222224 0.060171
vn 0.275500 -0.792011 -0.544810
vn 0.275500 -0.792011 -0.544810
vn 0.275500 -0.792011 -0.544810
vn 0.275500 -0.792011 -0.544810
vn -0.025450 0.907852 0.418519
vn -0.025450 0.907851 0.418519
vn -0.025450 0.907852 0.418519
vn -0.025450 0.907851 0.418519
vn 0.948654 0.279828 -0.147484
vn 0.948654 0.279828 -0.147484
vn 0.948654 0.279828 -0.147484
vn 0.948654 0.279828 -0.147484
vn 0.458779 -0.655924 -0.599405
vn 0.458779 -0.655924 -0.599405
vn 0.458779 -0.655924 -0.599405
vn -0.349365 -0.815268 -0.461825
vn -0.349365 -0.815268 -0.461825
vn -0.349365 -0.815268 -0.461825
vn -0.869757 -0.188750 -0.455956
vn -0.869757 -0.188750 -0.455956
vn -0.869757 -0.188750 -0.455956
vn -0.615393 0.539153 -0.574983
vn -0.615393 0.539153 -0.574983
vn -0.615393 0.539153 -0.574983
vn 0.125692 0.699353 -0.703638
vn 0.125692 0.699353 -0.703638
vn 0.125692 0.699353 -0.703638
vn 0.679081 0.130932 -0.722292
vn 0.679081 0.130932 -0.722292
vn 0.679081 0.130932 -0.722292
vn 0.678402 0.440140 0.588258
vn 0.678402 0.440140 0.588258
vn 0.678402 0.440140 0.588258
vn 0.678402 0.440140 0.588258
vn -0.949416 -0.259477 0.176865
vn -0.949416 -0.259477 0.176865
vn -0.949416 -0.259477 0.176865
vn -0.949416 -0.259477 0.176865
vn -0.256909 0.173064 0.950814
vn -0.256909 0.173064 0.950814
vn -0.256909 0.173064 0.950814
vn -0.256909 0.173064 0.950814
vn 0.783698 0.230799 -0.576671
vn 0.783698 0.230799 -0.576671
vn 0.783698 0.230799 -0.576671
vn 0.783698 0.230799 -0.576671
vn 0.086674 -0.146065 -0.985471
vn 0.086674 -0.146065 -0.985471
vn 0.086674 -0.146065 -0.985471
vn 0.086674 -0.146065 -0.985471
vn -0.231762 -0.249840 -0.940142
vn -0.231762 -0.249840 -0.940142
vn -0.231762 -0.249839 -0.940142
vn -0.231762 -0.249839 -0.940142
vn 0.280698 0.942380 0.182015
vn 0.280698 0.942380 0.182015
vn 0.280698 0.942379 0.182015
vn -0.920310 0.378480 -0.098903
vn -0.920310 0.378480 -0.098903
vn -0.920310 0.378480 -0.098903
vn -0.514090 0.739301 0.434909
vn -0.514090 0.739301 0.434909
vn -0.514090 0.739301 0.434909
vn 0.271090 0.532508 -0.801838
vn 0.271090 0.532508 -0.801838
vn 0.271090 0.532508 -0.801838
vn -0.079894 0.238252 -0.967912
vn -0.079894 0.238252 -0.967912
vn -0.079894 0.238252 -0.967912
vn -0.075274 0.238846 -0.968136
vn -0.075274 0.238846 -0.968136
vn -0.075274 0.238846 -0.968136
vn 0.460782 0.870385 -0.173523
vn 0.462919 0.873545 -0.150419
vn 0.468827 0.874577 0.123764
vn 0.468827 0.874577 0.123764
vn -0.666886 0.731240 -0.143358
vn -0.628271 0.733665 -0.258866
vn -0.720364 0.625598 0.299503
vn -0.720364 0.625598 0.299503
vn -0.967524 0.011400 -0.252522
vn -0.993278 0.067014 -0.094384
vn -0.969607 0.158779 0.186147
vn -0.969607 0.158779 0.186147
vn -0.472729 -0.879976 0.046570
vn -0.471073 -0.878563 0.078848
vn -0.467194 -0.855885 -0.221790
vn -0.467194 -0.855885 -0.221790
vn 0.510565 -0.854257 0.097812
vn 0.517881 -0.826328 0.221317
vn 0.405568 -0.830065 -0.382761
vn 0.405568 -0.830065 -0.382761
vn 0.998875 0.039583 0.026097
vn 0.996880 0.041926 0.066874
vn 0.970717 0.022772 -0.239143
vn 0.970717 0.022772 -0.239143
vn 0.216128 -0.684005 0.696725
vn 0.216128 -0.684005 0.696725
vn 0.216128 -0.684005 0.696725
vn 0.077734 -0.677522 0.731384
vn 0.077734 -0.677522 0.731384
vn 0.077734 -0.677522 0.731384
vn -0.416653 0.311774 0.853931
vn -0.416653 0.311774 0.853931
vn -0.416653 0.311774 0.853931
vn -0.372994 0.387597 0.842997
vn -0.372994 0.387597 0.842997
vn -0.372994 0.387597 0.842997
vn 0.702923 0.420764 0.573460
vn 0.702923 0.420764 0.573460
vn 0.702923 0.420764 0.573460
vn 0.799338 0.243581 0.549297
vn 0.799338 0.243581 0.549297
vn 0.799338 0.243581 0.549297
s off
f 1/1/1 2/2/2 8/3/3 7/4/4
f 2/2/5 3/5/6 9/6/7 8/3/8
f 3/21/9 4/22/10 10/23/11 9/24/12
f 4/33/13 5/34/14 11/35/15 10/36/16
f 5/34/17 6/37/18 12/38/19 11/35/20
f 6/57/21 1/58/22 7/59/23 12/60/24
f 7/4/25 8/3/26 14/7/27 13/8/28
f 8/3/29 9/6/30 15/9/31 14/7/32
f 9/24/33 10/23/34 16/25/35 15/26/36
f 10/36/37 11/35/38 17/39/39 16/40/40
f 11/35/41 12/38/42 18/41/43 17/39/44
f 12/60/45 7/59/46 13/62/47 18/63/48
f 13/8/49 14/7/50 31/10/51
f 16/40/52 17/39/53 33/42/54
f 51/65/55 52/66/56 53/67/57
f 52/66/58 54/68/59 53/67/60
f 15/26/61 16/25/62 22/27/63 21/28/64
f 14/7/65 15/9/66 21/11/67 20/12/68
f 31/10/69 14/7/70 20/12/71 19/13/72
f 32/69/73 31/70/74 19/71/75 24/72/76
f 33/42/77 32/45/78 24/46/79 23/43/80
f 16/40/81 33/42/82 23/43/83 22/44/84
f 17/77/85 18/78/86 35/79/87 34/80/88
f 32/83/89 33/84/90 37/85/91 36/86/92
f 33/84/93 17/87/94 34/88/95 37/85/96
f 18/78/97 13/81/98 38/82/99 35/79/100
f 13/95/101 31/96/102 39/97/103 38/98/104
f 31/99/105 32/100/106 36/101/107 39/102/108
f 34/103/109 35/104/110 41/105/111 40/106/112
f 36/86/113 37/85/114 43/89/115 42/90/116
f 37/85/117 34/88/118 40/91/119 43/89/120
f 35/107/121 38/108/122 44/109/123 41/110/124
f 38/115/125 39/116/126 45/117/127 44/118/128
f 39/116/129 36/119/130 42/120/131 45/117/132
f 46/55/133 23/43/134 64/50/135 65/56/136
f 21/121/137 46/122/138 65/123/139 66/124/140
f 20/12/141 21/11/142 66/14/143 67/15/144
f 19/13/145 20/12/146 67/15/147 68/16/148
f 24/72/149 19/71/150 68/73/151 63/74/152
f 23/43/153 24/46/154 63/49/155 64/50/156
f 21/28/157 22/27/158 48/29/159 47/30/160
f 46/130/161 21/131/162 47/132/163 49/133/164
f 22/44/165 23/43/166 50/47/167 48/48/168
f 23/136/169 46/137/170 49/138/171 50/139/172
f 47/30/173 48/29/174 52/31/175 51/32/176
f 49/133/177 47/132/178 51/134/179 53/135/180
f 48/48/181 50/47/182 54/51/183 52/52/184
f 50/139/185 49/138/186 53/140/187 54/141/188
f 25/19/189 26/18/190 55/20/191
f 26/18/192 27/17/193 55/20/194
f 27/126/195 28/125/196 55/129/197
f 28/125/198 29/128/199 55/129/200
f 29/142/201 30/143/202 55/144/203
f 30/143/204 25/145/205 55/144/206
f 40/113/207 41/110/208 57/112/209 56/114/210
f 42/90/211 43/89/212 59/92/213 58/93/214
f 43/146/215 40/147/216 56/148/217 59/149/218
f 41/110/219 44/109/220 60/111/221 57/112/222
f 44/150/223 45/151/224 61/152/225 60/153/226
f 45/151/227 42/154/228 58/155/229 61/152/230
f 56/158/231 57/159/232 62/160/233
f 58/93/234 59/92/235 62/94/236
f 59/161/237 56/158/238 62/160/239
f 57/157/240 60/153/241 62/156/242
f 60/153/243 61/152/244 62/156/245
f 61/152/246 58/155/247 62/156/248
f 64/50/249 63/49/250 30/53/251 29/54/252
f 65/123/253 64/127/254 29/128/255 28/125/256
f 66/124/257 65/123/258 28/125/259 27/126/260
f 67/15/261 66/14/262 27/17/263 26/18/264
f 68/16/265 67/15/266 26/18/267 25/19/268
f 63/74/269 68/73/270 25/75/271 30/76/272
f 2/162/273 1/163/274 69/164/275
f 3/165/276 2/162/277 69/164/278
f 4/166/279 3/165/280 69/164/281
f 5/167/282 4/166/283 69/164/284
f 6/57/285 5/64/286 69/61/287
f 1/58/288 6/57/289 69/61/290
