# This file uses centimeters as units for non-parametric coordinates.

v 9.308235 -24.004358 -42.491180
v 5.173018 -23.992779 -49.704147
v -3.115788 -24.030199 -49.766975
v -7.269444 -24.079048 -42.616684
v -3.134157 -24.090639 -35.403854
v 5.154580 -24.053455 -35.341034
v 8.947006 15.557269 -15.923302
v 5.204838 19.784000 -17.576485
v -0.552975 19.188654 -16.530628
v -2.568756 14.366590 -13.831314
v 1.173277 10.139858 -12.177990
v 6.931226 10.735196 -13.223984
v 4.752380 20.033421 22.020220
v 1.678452 24.155622 21.929264
v -2.976555 23.537228 22.197351
v -4.833710 19.288130 21.410295
v -1.818027 15.467374 21.400326
v 2.179937 15.680456 22.895638
v 2.389301 -24.094946 47.664474
v 0.314657 -24.141708 51.384109
v -4.020636 -24.155622 51.444336
v -6.281219 -24.122747 47.784794
v -4.206509 -24.075806 44.065159
v 0.128717 -24.062119 44.005066
v -7.508987 18.305016 2.927664
v -2.348877 18.912851 2.303400
v 1.030903 14.742789 3.109848
v -1.286564 10.175019 4.820257
v -6.090500 9.786903 4.488665
v -9.438730 13.793554 3.736980
v -6.211773 10.669460 41.190758
v -1.987375 9.505580 42.086662
v 0.298815 5.905572 40.021442
v -2.349150 3.711008 37.404613
v -5.766281 5.575698 35.697758
v -8.065924 8.955713 37.716267
v 4.879391 5.610498 -35.770950
v 8.782712 3.203597 -31.837448
v 5.890285 0.724495 -27.312870
v -0.905531 0.652301 -26.721519
v -4.809057 3.059204 -30.655022
v -1.916357 5.538297 -35.179604
vt 0.395967 0.080956
vt 0.396060 0.012868
vt 0.629886 0.144395
vt 0.610873 0.181530
vt 0.741833 0.316154
vt 0.708445 0.331764
vt 0.395582 0.148457
vt 0.591293 0.224242
vt 0.734952 0.503823
vt 0.702015 0.511436
vt 0.670364 0.357246
vt 0.776363 0.689099
vt 0.743807 0.689954
vt 0.665934 0.527584
vt 0.660651 0.879387
vt 0.632217 0.859893
vt 0.709421 0.698222
vt 0.394885 0.967153
vt 0.395252 0.932044
vt 0.614880 0.835188
vt 0.395512 0.897494
vt 0.389411 0.988236
vt 0.323943 0.988591
vt 0.333417 0.709455
vt 0.387092 0.708778
vt 0.012402 0.971623
vt 0.012017 0.904123
vt 0.226368 0.791202
vt 0.245950 0.833914
vt 0.011924 0.836031
vt 0.207357 0.754069
vt 0.315681 0.632384
vt 0.353769 0.657866
vt 0.282295 0.616777
vt 0.311156 0.466536
vt 0.346789 0.474176
vt 0.279507 0.459440
vt 0.354554 0.299696
vt 0.388116 0.292267
vt 0.324375 0.299791
vt 0.272942 0.145766
vt 0.286478 0.112966
vt 0.246245 0.164820
vt 0.011671 0.050717
vt 0.011411 0.016171
vt 0.012040 0.085831
vt 0.832051 0.750644
vt 0.897521 0.750995
vt 0.903332 0.984904
vt 0.849654 0.984221
vt 0.880702 0.576352
vt 0.835222 0.566480
vt 0.780281 0.382790
vt 0.821038 0.388683
vt 0.878130 0.748111
vt 0.824454 0.742528
vt 0.816079 0.200876
vt 0.852848 0.203407
vt 0.790527 0.021576
vt 0.823894 0.013119
vt 0.943112 0.154285
vt 0.988590 0.144410
vt 0.923682 0.314751
vt 0.885738 0.311622
vt 0.926692 0.016992
vt 0.980370 0.011410
vt 0.951063 0.485387
vt 0.919485 0.471271
vt 0.915290 0.622353
vt 0.888299 0.606241
vt 0.968958 0.813461
vt 0.935591 0.824449
vt 0.952898 0.495694
vt 0.987141 0.495826
vt 0.780281 0.571957
vt 0.807272 0.589559
vt 0.826843 0.851748
vt 0.792601 0.851881
vn 0.811114 0.242118 -0.532422
vn 0.811114 0.242118 -0.532422
vn 0.798910 0.338298 -0.497290
vn 0.796383 0.352223 -0.491643
vn -0.034692 0.434362 -0.900070
vn -0.034692 0.434362 -0.900070
vn -0.068125 0.583971 -0.808911
vn -0.067039 0.579257 -0.812384
vn -0.849449 0.267713 -0.454716
vn -0.849449 0.267713 -0.454716
vn -0.875750 0.326098 -0.355979
vn -0.871426 0.314694 -0.376278
vn -0.817098 -0.147871 0.557212
vn -0.817098 -0.147871 0.557212
vn -0.804226 -0.293262 0.516932
vn -0.809131 -0.257914 0.528004
vn 0.035486 -0.321435 0.946266
vn 0.035486 -0.321435 0.946266
vn 0.067687 -0.529264 0.845753
vn 0.066082 -0.519035 0.852195
vn 0.859182 -0.176115 0.480406
vn 0.859182 -0.176115 0.480406
vn 0.880953 -0.239395 0.408182
vn 0.884364 -0.252089 0.392877
vn 0.682302 0.666625 0.300125
vn 0.682302 0.666625 0.300125
vn 0.682302 0.666625 0.300125
vn 0.682302 0.666625 0.300125
vn -0.108908 0.994043 0.004172
vn -0.108908 0.994043 0.004172
vn -0.108908 0.994043 0.004172
vn -0.108908 0.994043 0.004172
vn -0.907863 0.260188 -0.328766
vn -0.907863 0.260188 -0.328766
vn -0.907863 0.260188 -0.328766
vn -0.907863 0.260188 -0.328766
vn -0.678451 -0.671377 -0.298255
vn -0.678451 -0.671377 -0.298255
vn -0.678451 -0.671377 -0.298255
vn -0.678451 -0.671377 -0.298255
vn 0.093749 -0.995473 0.015626
vn 0.093749 -0.995473 0.015626
vn 0.093749 -0.995473 0.015626
vn 0.093749 -0.995473 0.015626
vn 0.894614 -0.234107 0.380604
vn 0.894614 -0.234107 0.380604
vn 0.894614 -0.234107 0.380604
vn 0.894614 -0.234107 0.380604
vn -0.881698 0.451940 0.135492
vn -0.881698 0.451940 0.135492
vn -0.881698 0.451940 0.135492
vn -0.881698 0.451940 0.135492
vn 0.009474 0.817305 0.576127
vn 0.009474 0.817305 0.576127
vn 0.009474 0.817305 0.576127
vn 0.009474 0.817305 0.576127
vn 0.774142 0.415181 0.477837
vn 0.774142 0.415181 0.477837
vn 0.774142 0.415181 0.477837
vn 0.774142 0.415181 0.477837
vn 0.789392 -0.566459 -0.236610
vn 0.789392 -0.566459 -0.236610
vn 0.789392 -0.566459 -0.236610
vn 0.789392 -0.566459 -0.236610
vn 0.074973 -0.804845 -0.588731
vn 0.074973 -0.804845 -0.588731
vn 0.074973 -0.804845 -0.588731
vn 0.074973 -0.804845 -0.588731
vn -0.768783 -0.435583 -0.468232
vn -0.768783 -0.435583 -0.468232
vn -0.768783 -0.435583 -0.468232
vn -0.768783 -0.435583 -0.468232
vn -0.141110 0.963294 -0.228371
vn -0.141110 0.963294 -0.228371
vn -0.141110 0.963294 -0.228371
vn -0.141110 0.963294 -0.228371
vn 0.766638 0.563313 -0.308129
vn 0.766638 0.563313 -0.308129
vn 0.766638 0.563313 -0.308129
vn 0.766638 0.563314 -0.308129
vn 0.873165 -0.486640 -0.027646
vn 0.873165 -0.486640 -0.027646
vn 0.873165 -0.486640 -0.027646
vn 0.873165 -0.486640 -0.027646
vn 0.001941 -0.952625 0.304140
vn 0.001941 -0.952625 0.304140
vn 0.001941 -0.952625 0.304140
vn 0.001941 -0.952625 0.304140
vn -0.737286 -0.564226 0.371563
vn -0.737286 -0.564226 0.371563
vn -0.737286 -0.564226 0.371563
vn -0.737286 -0.564226 0.371563
vn -0.912133 0.394567 0.111040
vn -0.912133 0.394567 0.111040
vn -0.912133 0.394567 0.111040
vn -0.912134 0.394567 0.111040
vn -0.057463 0.270617 0.960971
vn -0.057463 0.270617 0.960971
vn -0.057463 0.270617 0.960971
vn -0.057463 0.270617 0.960971
vn 0.836938 0.193972 0.511771
vn 0.836938 0.193972 0.511771
vn 0.836938 0.193972 0.511771
vn 0.836938 0.193972 0.511771
vn 0.798731 -0.083738 -0.595833
vn 0.798731 -0.083738 -0.595833
vn 0.798731 -0.083738 -0.595833
vn 0.798731 -0.083738 -0.595833
vn 0.146592 -0.239836 -0.959682
vn 0.146592 -0.239836 -0.959682
vn 0.146592 -0.239836 -0.959682
vn 0.146592 -0.239836 -0.959682
vn -0.831489 -0.196992 -0.519443
vn -0.831489 -0.196992 -0.519443
vn -0.831489 -0.196992 -0.519443
vn -0.831489 -0.196992 -0.519443
vn -0.871812 0.092894 0.480953
vn -0.871812 0.092894 0.480953
vn -0.871812 0.092894 0.480953
vn -0.871812 0.092894 0.480953
vn 0.796383 0.352223 -0.491643
vn 0.798910 0.338298 -0.497290
vn 0.750023 0.516838 -0.412728
vn 0.750023 0.516838 -0.412728
vn 0.884364 -0.252089 0.392877
vn 0.880953 -0.239395 0.408182
vn 0.898646 -0.368245 0.238392
vn 0.898646 -0.368245 0.238392
vn 0.066082 -0.519035 0.852195
vn 0.067687 -0.529264 0.845753
vn 0.115756 -0.826814 0.550436
vn 0.115756 -0.826814 0.550436
vn -0.809131 -0.257914 0.528004
vn -0.804226 -0.293262 0.516932
vn -0.750093 -0.498949 0.434063
vn -0.750093 -0.498949 0.434063
vn -0.871426 0.314694 -0.376278
vn -0.875750 0.326098 -0.355979
vn -0.892449 0.406624 -0.195427
vn -0.892449 0.406624 -0.195427
vn -0.067039 0.579257 -0.812384
vn -0.068125 0.583971 -0.808911
vn -0.119841 0.794890 -0.594801
vn -0.119841 0.794890 -0.594801
s off
f 1/1/1 2/2/2 37/3/3 38/4/4
f 2/22/5 3/23/6 42/24/7 37/25/8
f 3/26/9 4/27/10 41/28/11 42/29/12
f 4/27/13 5/30/14 40/31/15 41/28/16
f 5/47/17 6/48/18 39/49/19 40/50/20
f 6/7/21 1/1/22 38/4/23 39/8/24
f 7/6/25 8/5/26 26/9/27 27/10/28
f 8/51/29 9/52/30 25/53/31 26/54/32
f 9/33/33 10/32/34 30/35/35 25/36/36
f 10/32/37 11/34/38 29/37/39 30/35/40
f 11/61/41 12/62/42 28/63/43 29/64/44
f 12/11/45 7/6/46 27/10/47 28/14/48
f 15/39/49 16/38/50 36/41/51 31/42/52
f 14/58/53 15/57/54 31/59/55 32/60/56
f 13/13/57 14/12/58 32/15/59 33/16/60
f 18/17/61 13/13/62 33/16/63 34/20/64
f 17/68/65 18/67/66 34/69/67 35/70/68
f 16/38/69 17/40/70 35/43/71 36/41/72
f 26/54/73 25/53/74 15/57/75 14/58/76
f 27/10/77 26/9/78 14/12/79 13/13/80
f 28/14/81 27/10/82 13/13/83 18/17/84
f 29/64/85 28/63/86 18/67/87 17/68/88
f 30/35/89 29/37/90 17/40/91 16/38/92
f 25/36/93 30/35/94 16/38/95 15/39/96
f 32/71/97 31/72/98 21/73/99 20/74/100
f 33/16/101 32/15/102 20/18/103 19/19/104
f 34/20/105 33/16/106 19/19/107 24/21/108
f 35/75/109 34/76/110 24/77/111 23/78/112
f 36/41/113 35/43/114 23/46/115 22/44/116
f 31/42/117 36/41/118 22/44/119 21/45/120
f 38/4/121 37/3/122 8/5/123 7/6/124
f 39/8/125 38/4/126 7/6/127 12/11/128
f 40/65/129 39/66/130 12/62/131 11/61/132
f 41/28/133 40/31/134 11/34/135 10/32/136
f 42/29/137 41/28/138 10/32/139 9/33/140
f 37/55/141 42/56/142 9/52/143 8/51/144
