# This file uses centimeters as units for non-parametric coordinates.

v 5.861185 0.889643 -5.861185
v 0.000000 0.889643 -8.288966
v -5.861185 0.889643 -5.861185
v -8.288966 0.889643 0.000000
v -5.861185 0.889643 5.861185
v 0.000000 0.889643 8.288966
v 5.861185 0.889643 5.861185
v 8.288966 0.889643 0.000000
v -0.782540 520.238647 3.377796
v -1.295094 520.238647 3.165489
v -1.807647 520.238647 3.377796
v -2.019954 520.238647 3.890350
v -1.807647 520.238647 4.402905
v -1.295094 520.238647 4.615211
v -0.782540 520.238647 4.402905
v -0.570233 520.238647 3.890350
v 0.000000 0.889643 0.000000
v -1.295094 528.286560 4.871770
v 0.947255 244.056046 -3.036819
v 3.821708 244.056046 -1.846181
v 5.012345 244.056046 1.028272
v 3.821708 244.056046 3.902724
v 0.947255 244.056046 5.093362
v -1.927198 244.056046 3.902724
v -3.117835 244.056046 1.028272
v -1.927198 244.056046 -1.846181
v -5.690742 18.251350 0.000000
v -4.023962 18.251350 -4.023962
v 0.000000 18.251350 -5.690742
v 4.023962 18.251350 -4.023962
v 5.690742 18.251350 0.000000
v 4.023962 18.251350 4.023962
v 0.000000 18.251350 5.690742
v -4.023962 18.251350 4.023962
v -1.724755 450.932861 1.724755
v -2.439171 450.932861 0.000000
v -1.724755 450.932861 -1.724755
v 0.000000 450.932861 -2.439171
v 1.724755 450.932861 -1.724755
v 2.439171 450.932861 0.000000
v 1.724755 450.932861 1.724755
v 0.000000 450.932861 2.439171
v -1.959223 497.286407 7.046607
v -2.409324 497.286407 5.959969
v -1.959223 497.286407 4.873328
v -0.872584 497.286407 4.423227
v 0.214055 497.286407 4.873328
v 0.664156 497.286407 5.959969
v 0.214055 497.286407 7.046607
v -0.872584 497.286407 7.496708
vt 0.744427 0.988105
vt 0.666283 0.988105
vt 0.666283 0.956063
vt 0.719932 0.956063
vt 0.588140 0.988105
vt 0.612635 0.956063
vt 0.678913 0.539320
vt 0.717236 0.539320
vt 0.640589 0.539320
vt 0.666283 0.157509
vt 0.689277 0.157509
vt 0.643289 0.157509
vt 0.654649 0.071959
vt 0.669136 0.071959
vt 0.640162 0.071959
vt 0.649016 0.029598
vt 0.655850 0.029598
vt 0.642182 0.029598
vt 0.649016 0.014746
vt 0.011412 0.015231
vt 0.089555 0.015231
vt 0.089555 0.047273
vt 0.035907 0.047273
vt 0.167699 0.015231
vt 0.143204 0.047273
vt 0.103264 0.464016
vt 0.064943 0.464016
vt 0.141587 0.464016
vt 0.089555 0.845827
vt 0.066561 0.845827
vt 0.112549 0.845827
vt 0.169015 0.931376
vt 0.154528 0.931376
vt 0.183502 0.931376
vt 0.141423 0.973737
vt 0.134589 0.973737
vt 0.148255 0.973737
vt 0.154507 0.988590
vt 0.229286 0.015231
vt 0.307430 0.015231
vt 0.307430 0.047273
vt 0.253781 0.047273
vt 0.385573 0.015231
vt 0.361078 0.047273
vt 0.320059 0.464016
vt 0.281736 0.464016
vt 0.358382 0.464016
vt 0.307430 0.845827
vt 0.284436 0.845827
vt 0.330424 0.845827
vt 0.295796 0.931376
vt 0.281309 0.931376
vt 0.310282 0.931376
vt 0.290163 0.973737
vt 0.283329 0.973737
vt 0.296997 0.973737
vt 0.290163 0.988590
vt 0.437345 0.015231
vt 0.515488 0.015231
vt 0.515488 0.047273
vt 0.461843 0.047273
vt 0.593632 0.015231
vt 0.569133 0.047273
vt 0.501781 0.464016
vt 0.463458 0.464016
vt 0.540105 0.464016
vt 0.515488 0.845827
vt 0.492494 0.845827
vt 0.538482 0.845827
vt 0.436028 0.931376
vt 0.421537 0.931376
vt 0.450519 0.931376
vt 0.463623 0.973737
vt 0.456789 0.973737
vt 0.470456 0.973737
vt 0.450535 0.988590
vt 0.878078 0.011411
vt 0.956222 0.015891
vt 0.878078 0.026709
vt 0.988589 0.026709
vt 0.799935 0.015891
vt 0.956222 0.037526
vt 0.767568 0.026709
vt 0.878078 0.042007
vt 0.799935 0.037526
vn 0.379077 0.136958 -0.915174
vn 0.379077 0.136958 -0.915174
vn 0.382586 0.022529 -0.923645
vn 0.382587 0.022444 -0.923647
vn -0.379077 0.136958 -0.915174
vn -0.379077 0.136958 -0.915174
vn -0.382560 0.025381 -0.923582
vn -0.382561 0.025349 -0.923583
vn -0.915174 0.136958 -0.379077
vn -0.915174 0.136958 -0.379077
vn -0.923587 0.025172 -0.382562
vn -0.923586 0.025210 -0.382562
vn -0.915174 0.136958 0.379077
vn -0.915174 0.136958 0.379077
vn -0.923656 0.022022 0.382591
vn -0.923654 0.022110 0.382590
vn -0.379077 0.136958 0.915174
vn -0.379077 0.136958 0.915174
vn -0.382623 0.017775 0.923734
vn -0.382622 0.017864 0.923732
vn 0.379077 0.136958 0.915174
vn 0.379077 0.136958 0.915174
vn 0.382641 0.014922 0.923777
vn 0.382641 0.014956 0.923776
vn 0.915174 0.136958 0.379077
vn 0.915174 0.136958 0.379077
vn 0.923774 0.015134 0.382640
vn 0.923774 0.015092 0.382640
vn 0.915174 0.136958 -0.379077
vn 0.915174 0.136958 -0.379077
vn 0.923725 0.018286 -0.382619
vn 0.923727 0.018194 -0.382620
vn 0.000000 -1.000000 0.000000
vn 0.000000 -1.000000 0.000000
vn 0.000000 -1.000000 0.000000
vn 0.000000 -1.000000 0.000000
vn 0.000000 -1.000000 0.000000
vn 0.000000 -1.000000 0.000000
vn 0.000000 -1.000000 0.000000
vn 0.000000 -1.000000 0.000000
vn 0.000000 -1.000000 0.000000
vn 0.000000 -1.000000 0.000000
vn 0.000000 -1.000000 0.000000
vn 0.000000 -1.000000 0.000000
vn 0.000000 -1.000000 0.000000
vn 0.000000 -1.000000 0.000000
vn 0.000000 -1.000000 0.000000
vn 0.000000 -1.000000 -0.000000
vn 0.000000 -1.000000 0.000000
vn 0.000000 -1.000000 0.000000
vn 0.000000 -1.000000 -0.000000
vn 0.000000 -1.000000 -0.000000
vn 0.000000 -1.000000 0.000000
vn 0.000000 -1.000000 0.000000
vn 0.000000 -1.000000 -0.000000
vn 0.000000 -1.000000 0.000000
vn 0.680962 0.175359 -0.711013
vn 0.000000 0.207407 -0.978255
vn -0.000000 0.998204 0.059907
vn 0.000000 0.207407 -0.978255
vn -0.680958 0.175358 -0.711017
vn -0.000000 0.998204 0.059907
vn -0.680958 0.175358 -0.711017
vn -0.995188 0.093289 -0.029966
vn -0.000000 0.998204 0.059907
vn -0.995188 0.093289 -0.029966
vn -0.721765 0.005646 0.692115
vn -0.000000 0.998204 0.059907
vn -0.721765 0.005646 0.692115
vn 0.000000 -0.031863 0.999492
vn -0.000000 0.998204 0.059907
vn 0.000000 -0.031863 0.999492
vn 0.721765 0.005645 0.692116
vn -0.000000 0.998204 0.059907
vn 0.721765 0.005645 0.692116
vn 0.995188 0.093289 -0.029960
vn -0.000000 0.998204 0.059907
vn 0.995188 0.093289 -0.029960
vn 0.680962 0.175359 -0.711013
vn -0.000000 0.998204 0.059907
vn 0.382673 0.007425 -0.923854
vn 0.382673 0.007424 -0.923854
vn 0.382600 0.020891 -0.923678
vn 0.382596 0.021368 -0.923669
vn 0.923860 0.006436 -0.382675
vn 0.923861 0.006437 -0.382675
vn 0.923729 0.018034 -0.382621
vn 0.923711 0.019089 -0.382613
vn 0.923865 0.005709 0.382677
vn 0.923865 0.005710 0.382677
vn 0.923830 0.010360 0.382663
vn 0.923834 0.009911 0.382664
vn 0.382677 0.005669 0.923865
vn 0.382677 0.005668 0.923865
vn 0.382683 0.001263 0.923879
vn 0.382683 0.000273 0.923880
vn -0.382676 0.006339 0.923861
vn -0.382676 0.006338 0.923861
vn -0.382680 -0.004246 0.923871
vn -0.382681 -0.003840 0.923873
vn -0.923855 0.007327 0.382673
vn -0.923855 0.007327 0.382673
vn -0.923878 -0.001853 0.382683
vn -0.923879 -0.001097 0.382683
vn -0.923850 0.008054 -0.382671
vn -0.923850 0.008055 -0.382671
vn -0.923855 0.007355 -0.382673
vn -0.923860 0.006552 -0.382675
vn -0.382671 0.008095 -0.923849
vn -0.382671 0.008095 -0.923849
vn -0.382629 0.016913 -0.923747
vn -0.382636 0.015729 -0.923765
vn -0.923586 0.025210 -0.382562
vn -0.923587 0.025172 -0.382562
vn -0.923850 0.008055 -0.382671
vn -0.923850 0.008054 -0.382671
vn -0.382561 0.025349 -0.923583
vn -0.382560 0.025381 -0.923582
vn -0.382671 0.008095 -0.923849
vn -0.382671 0.008095 -0.923849
vn 0.382587 0.022444 -0.923647
vn 0.382586 0.022529 -0.923645
vn 0.382673 0.007424 -0.923854
vn 0.382673 0.007425 -0.923854
vn 0.923727 0.018194 -0.382620
vn 0.923725 0.018286 -0.382619
vn 0.923861 0.006437 -0.382675
vn 0.923860 0.006436 -0.382675
vn 0.923774 0.015092 0.382640
vn 0.923774 0.015134 0.382640
vn 0.923865 0.005710 0.382677
vn 0.923865 0.005709 0.382677
vn 0.382641 0.014956 0.923776
vn 0.382641 0.014922 0.923777
vn 0.382677 0.005668 0.923865
vn 0.382677 0.005669 0.923865
vn -0.382622 0.017864 0.923732
vn -0.382623 0.017775 0.923734
vn -0.382676 0.006338 0.923861
vn -0.382676 0.006339 0.923861
vn -0.923654 0.022110 0.382590
vn -0.923656 0.022022 0.382591
vn -0.923855 0.007327 0.382673
vn -0.923855 0.007327 0.382673
vn -0.923879 -0.001097 0.382683
vn -0.923878 -0.001853 0.382683
vn -0.923546 -0.026887 0.382545
vn -0.923535 -0.027310 0.382541
vn -0.923860 0.006552 -0.382675
vn -0.923855 0.007355 -0.382673
vn -0.923331 0.034467 -0.382456
vn -0.923308 0.035181 -0.382446
vn -0.382636 0.015729 -0.923765
vn -0.382629 0.016913 -0.923747
vn -0.381216 0.087502 -0.920336
vn -0.381150 0.089430 -0.920178
vn 0.382596 0.021368 -0.923669
vn 0.382600 0.020891 -0.923678
vn 0.380678 0.102241 -0.919038
vn 0.380646 0.103062 -0.918960
vn 0.923711 0.019089 -0.382613
vn 0.923729 0.018034 -0.382621
vn 0.921649 0.069455 -0.381758
vn 0.921667 0.069165 -0.381766
vn 0.923834 0.009911 0.382664
vn 0.923830 0.010360 0.382663
vn 0.923857 0.007016 0.382674
vn 0.923850 0.008046 0.382671
vn 0.382683 0.000273 0.923880
vn 0.382683 0.001263 0.923879
vn 0.382251 -0.047526 0.922836
vn 0.382291 -0.045260 0.922933
vn -0.382681 -0.003840 0.923873
vn -0.382680 -0.004246 0.923871
vn -0.381966 -0.061191 0.922148
vn -0.381988 -0.060250 0.922201
vn -0.923535 -0.027310 0.382541
vn -0.923546 -0.026887 0.382545
vn -0.922719 0.050117 0.382202
vn -0.922719 0.050117 0.382202
vn -0.923308 0.035181 -0.382446
vn -0.923331 0.034467 -0.382456
vn -0.923716 -0.018830 -0.382615
vn -0.923716 -0.018830 -0.382615
vn -0.381150 0.089430 -0.920178
vn -0.381216 0.087502 -0.920336
vn -0.382048 -0.057575 -0.922347
vn -0.382048 -0.057575 -0.922347
vn 0.380646 0.103062 -0.918960
vn 0.380678 0.102241 -0.919038
vn 0.382322 -0.043541 -0.923003
vn 0.382322 -0.043541 -0.923003
vn 0.921667 0.069165 -0.381766
vn 0.921649 0.069455 -0.381758
vn 0.923773 0.015178 -0.382639
vn 0.923773 0.015178 -0.382639
vn 0.923850 0.008046 0.382671
vn 0.923857 0.007016 0.382674
vn 0.920622 0.083897 0.381334
vn 0.920622 0.083897 0.381334
vn 0.382291 -0.045260 0.922933
vn 0.382251 -0.047526 0.922836
vn 0.379821 0.122111 0.916965
vn 0.379821 0.122111 0.916965
vn -0.381988 -0.060250 0.922201
vn -0.381966 -0.061191 0.922148
vn -0.380432 0.108301 0.918446
vn -0.380432 0.108301 0.918446
s off
f 1/1/1 2/2/2 29/3/3 30/4/4
f 2/2/5 3/5/6 28/6/7 29/3/8
f 3/20/9 4/21/10 27/22/11 28/23/12
f 4/21/13 5/24/14 34/25/15 27/22/16
f 5/39/17 6/40/18 33/41/19 34/42/20
f 6/40/21 7/43/22 32/44/23 33/41/24
f 7/58/25 8/59/26 31/60/27 32/61/28
f 8/59/29 1/62/30 30/63/31 31/60/32
f 2/77/33 1/78/34 17/79/35
f 3/81/36 2/77/37 17/79/38
f 4/83/39 3/81/40 17/79/41
f 5/85/42 4/83/43 17/79/44
f 6/84/45 5/85/46 17/79/47
f 7/82/48 6/84/49 17/79/50
f 8/80/51 7/82/52 17/79/53
f 1/78/54 8/80/55 17/79/56
f 9/17/57 10/16/58 18/19/59
f 10/16/60 11/18/61 18/19/62
f 11/36/63 12/35/64 18/38/65
f 12/35/66 13/37/67 18/38/68
f 13/55/69 14/54/70 18/57/71
f 14/54/72 15/56/73 18/57/74
f 15/74/75 16/73/76 18/76/77
f 16/73/78 9/75/79 18/76/80
f 20/8/81 19/7/82 38/10/83 39/11/84
f 21/64/85 20/66/86 39/69/87 40/67/88
f 22/65/89 21/64/90 40/67/91 41/68/92
f 23/45/93 22/47/94 41/50/95 42/48/96
f 24/46/97 23/45/98 42/48/99 35/49/100
f 25/26/101 24/28/102 35/31/103 36/29/104
f 26/27/105 25/26/106 36/29/107 37/30/108
f 19/7/109 26/9/110 37/12/111 38/10/112
f 28/23/113 27/22/114 25/26/115 26/27/116
f 29/3/117 28/6/118 26/9/119 19/7/120
f 30/4/121 29/3/122 19/7/123 20/8/124
f 31/60/125 30/63/126 20/66/127 21/64/128
f 32/61/129 31/60/130 21/64/131 22/65/132
f 33/41/133 32/44/134 22/47/135 23/45/136
f 34/42/137 33/41/138 23/45/139 24/46/140
f 27/22/141 34/25/142 24/28/143 25/26/144
f 36/29/145 35/31/146 43/34/147 44/32/148
f 37/30/149 36/29/150 44/32/151 45/33/152
f 38/10/153 37/12/154 45/15/155 46/13/156
f 39/11/157 38/10/158 46/13/159 47/14/160
f 40/67/161 39/69/162 47/72/163 48/70/164
f 41/68/165 40/67/166 48/70/167 49/71/168
f 42/48/169 41/50/170 49/53/171 50/51/172
f 35/49/173 42/48/174 50/51/175 43/52/176
f 44/32/177 43/34/178 13/37/179 12/35/180
f 45/33/181 44/32/182 12/35/183 11/36/184
f 46/13/185 45/15/186 11/18/187 10/16/188
f 47/14/189 46/13/190 10/16/191 9/17/192
f 48/70/193 47/72/194 9/75/195 16/73/196
f 49/71/197 48/70/198 16/73/199 15/74/200
f 50/51/201 49/53/202 15/56/203 14/54/204
f 43/52/205 50/51/206 14/54/207 13/55/208
