# This file uses centimeters as units for non-parametric coordinates.

v 12.066972 10.931760 -12.066978
v -0.000001 10.931760 -17.065281
v -12.066978 10.931760 -12.066978
v -17.065281 10.931760 0.000000
v -12.066978 10.931760 12.066978
v -0.000001 10.931760 17.065281
v 12.066978 10.931760 12.066978
v 17.065287 10.931760 0.000000
v 11.546886 40.966820 -12.525922
v 0.368884 40.966820 -17.156006
v -10.809124 40.966820 -12.525922
v -15.439206 40.966820 -1.347914
v -10.809124 40.966820 9.830093
v 0.368884 40.966820 14.460176
v 11.546892 40.966820 9.830093
v 16.176975 40.966820 -1.347914
v 13.347095 0.000002 -13.347095
v -0.000001 0.000002 -18.875635
v -0.000001 0.000002 -0.000000
v -13.347095 0.000002 -13.347095
v -18.875635 0.000002 -0.000000
v -13.347095 0.000002 13.347095
v -0.000001 0.000002 18.875635
v 13.347095 0.000002 13.347095
v 18.875635 0.000002 -0.000000
v 2.121936 445.055573 -2.322151
v -0.200214 445.055573 -3.284018
v -2.522366 445.055573 -2.322151
v -3.484234 445.055573 0.000000
v -2.522366 445.055573 2.322151
v -0.200214 445.055573 3.284019
v 2.121936 445.055573 2.322151
v 3.083803 445.055573 0.000000
v 7.194999 124.429321 -6.259242
v 10.342849 124.429321 1.340340
v 7.194999 124.429321 8.939919
v -0.404581 124.429321 12.087768
v -8.004114 124.429321 8.939919
v -11.152011 124.429321 1.340340
v -8.004114 124.429321 -6.259242
v -0.404581 124.429321 -9.407087
vt 0.172933 0.963726
vt 0.096240 0.963726
vt 0.098584 0.897956
vt 0.169628 0.897956
vt 0.181070 0.987663
vt 0.096240 0.987663
vt 0.019547 0.963726
vt 0.027541 0.897956
vt 0.093668 0.715194
vt 0.141969 0.715194
vt 0.011410 0.987663
vt 0.045368 0.715194
vt 0.094968 0.013102
vt 0.109727 0.013102
vt 0.080208 0.013102
vt 0.202589 0.037967
vt 0.279282 0.037967
vt 0.270715 0.103736
vt 0.199671 0.103736
vt 0.194451 0.014029
vt 0.279282 0.014029
vt 0.355975 0.037967
vt 0.341758 0.103736
vt 0.287801 0.286498
vt 0.239501 0.286498
vt 0.364111 0.014029
vt 0.336100 0.286498
vt 0.279282 0.988589
vt 0.264523 0.988589
vt 0.294041 0.988589
vt 0.390712 0.037967
vt 0.467405 0.037967
vt 0.469749 0.103736
vt 0.398706 0.103736
vt 0.382575 0.014029
vt 0.467405 0.014029
vt 0.544098 0.037967
vt 0.540793 0.103736
vt 0.464833 0.286498
vt 0.416533 0.286498
vt 0.552235 0.014029
vt 0.513134 0.286498
vt 0.466133 0.988589
vt 0.451373 0.988589
vt 0.480892 0.988589
vt 0.578842 0.037967
vt 0.655535 0.037967
vt 0.664102 0.103736
vt 0.593058 0.103736
vt 0.570705 0.014029
vt 0.655535 0.014029
vt 0.732229 0.037967
vt 0.735146 0.103736
vt 0.647017 0.286498
vt 0.598718 0.286498
vt 0.740366 0.014029
vt 0.695317 0.286498
vt 0.655535 0.988589
vt 0.640778 0.988589
vt 0.670293 0.988589
vt 0.868621 0.011411
vt 0.953452 0.023517
vt 0.868621 0.052744
vt 0.988589 0.052744
vt 0.783792 0.023517
vt 0.953452 0.081971
vt 0.748655 0.052744
vt 0.868621 0.094077
vt 0.783792 0.081971
vn 0.382673 -0.007490 -0.923854
vn 0.382673 -0.007490 -0.923854
vn 0.382673 -0.007490 -0.923854
vn 0.382673 -0.007490 -0.923854
vn -0.382683 0.001909 -0.923878
vn -0.382683 0.001909 -0.923878
vn -0.382683 0.001909 -0.923878
vn -0.382683 0.001909 -0.923878
vn -0.923382 0.032826 -0.382477
vn -0.923382 0.032826 -0.382477
vn -0.923382 0.032826 -0.382477
vn -0.923382 0.032826 -0.382477
vn -0.921801 0.067041 0.381822
vn -0.921801 0.067041 0.381822
vn -0.921801 0.067041 0.381822
vn -0.921801 0.067041 0.381822
vn -0.381314 0.084530 0.920573
vn -0.381314 0.084530 0.920573
vn -0.381314 0.084530 0.920573
vn -0.381314 0.084530 0.920573
vn 0.381599 0.075219 0.921262
vn 0.381599 0.075219 0.921262
vn 0.381599 0.075219 0.921262
vn 0.381599 0.075219 0.921262
vn 0.922966 0.044454 0.382305
vn 0.922966 0.044454 0.382305
vn 0.922966 0.044455 0.382305
vn 0.922966 0.044455 0.382305
vn 0.923832 0.010150 -0.382664
vn 0.923832 0.010150 -0.382664
vn 0.923832 0.010150 -0.382664
vn 0.923832 0.010150 -0.382664
vn 0.000000 -1.000000 -0.000000
vn 0.000000 -1.000000 -0.000000
vn 0.000000 -1.000000 -0.000000
vn 0.000000 -1.000000 0.000000
vn 0.000000 -1.000000 0.000000
vn 0.000000 -1.000000 0.000000
vn 0.000000 -1.000000 0.000000
vn 0.000000 -1.000000 0.000000
vn 0.000000 -1.000000 0.000000
vn 0.000000 -1.000000 0.000000
vn 0.000000 -1.000000 0.000000
vn 0.000000 -1.000000 0.000000
vn 0.000000 -1.000000 -0.000000
vn 0.000000 -1.000000 -0.000000
vn 0.000000 -1.000000 -0.000000
vn 0.000000 -1.000000 0.000000
vn 0.000000 -1.000000 0.000000
vn 0.000000 -1.000000 0.000000
vn 0.000000 -1.000000 -0.000000
vn 0.000000 -1.000000 -0.000000
vn 0.000000 -1.000000 -0.000000
vn 0.000000 -1.000000 0.000000
vn 0.000000 -1.000000 0.000000
vn 0.000000 -1.000000 0.000000
vn 0.378281 0.151239 -0.913252
vn 0.378281 0.151239 -0.913252
vn 0.378281 0.151239 -0.913252
vn 0.378281 0.151239 -0.913252
vn -0.378281 0.151239 -0.913252
vn -0.378281 0.151239 -0.913252
vn -0.378281 0.151239 -0.913252
vn -0.378281 0.151239 -0.913252
vn -0.913252 0.151239 -0.378281
vn -0.913253 0.151239 -0.378281
vn -0.913252 0.151239 -0.378281
vn -0.913252 0.151239 -0.378281
vn -0.913253 0.151239 0.378281
vn -0.913252 0.151239 0.378281
vn -0.913252 0.151239 0.378281
vn -0.913253 0.151239 0.378281
vn -0.378281 0.151239 0.913252
vn -0.378281 0.151239 0.913252
vn -0.378281 0.151239 0.913252
vn -0.378281 0.151239 0.913252
vn 0.378281 0.151239 0.913253
vn 0.378281 0.151239 0.913252
vn 0.378281 0.151239 0.913252
vn 0.378281 0.151239 0.913252
vn 0.913252 0.151239 0.378281
vn 0.913252 0.151239 0.378281
vn 0.913252 0.151239 0.378281
vn 0.913252 0.151239 0.378281
vn 0.913252 0.151239 -0.378282
vn 0.913252 0.151239 -0.378282
vn 0.913252 0.151239 -0.378282
vn 0.913252 0.151239 -0.378282
vn 0.381166 0.088968 -0.920216
vn 0.381166 0.088968 -0.920216
vn 0.381166 0.088968 -0.920216
vn 0.381166 0.088968 -0.920216
vn -0.381397 0.081953 -0.920771
vn -0.381397 0.081953 -0.920772
vn -0.381397 0.081953 -0.920771
vn -0.381397 0.081953 -0.920772
vn -0.922232 0.059676 -0.382003
vn -0.922232 0.059676 -0.382003
vn -0.922232 0.059676 -0.382003
vn -0.922232 0.059676 -0.382003
vn -0.923309 0.035109 0.382449
vn -0.923309 0.035109 0.382450
vn -0.923309 0.035109 0.382450
vn -0.923309 0.035109 0.382450
vn -0.382586 0.022709 0.923641
vn -0.382586 0.022709 0.923641
vn -0.382586 0.022709 0.923641
vn -0.382586 0.022709 0.923641
vn 0.382513 0.029794 0.923469
vn 0.382514 0.029794 0.923469
vn 0.382514 0.029794 0.923469
vn 0.382514 0.029794 0.923469
vn 0.922621 0.052183 0.382162
vn 0.922621 0.052183 0.382162
vn 0.922621 0.052183 0.382162
vn 0.922621 0.052183 0.382162
vn 0.921159 0.076680 -0.381557
vn 0.921159 0.076680 -0.381557
vn 0.921159 0.076680 -0.381557
vn 0.921159 0.076680 -0.381557
vn 0.923707 0.019313 -0.382612
vn 0.923707 0.019313 -0.382612
vn 0.923707 0.019313 -0.382612
vn 0.923707 0.019313 -0.382612
vn 0.923645 0.022511 0.382587
vn 0.923645 0.022511 0.382587
vn 0.923645 0.022511 0.382587
vn 0.923645 0.022511 0.382587
vn 0.382563 0.025116 0.923588
vn 0.382563 0.025116 0.923588
vn 0.382563 0.025116 0.923588
vn 0.382563 0.025116 0.923588
vn -0.382560 0.025603 0.923576
vn -0.382560 0.025603 0.923576
vn -0.382560 0.025603 0.923576
vn -0.382560 0.025603 0.923576
vn -0.923619 0.023688 0.382580
vn -0.923619 0.023688 0.382580
vn -0.923619 0.023688 0.382580
vn -0.923619 0.023688 0.382580
vn -0.923684 0.020490 -0.382607
vn -0.923684 0.020490 -0.382607
vn -0.923684 0.020490 -0.382607
vn -0.923684 0.020490 -0.382607
vn -0.382623 0.017885 -0.923731
vn -0.382623 0.017885 -0.923731
vn -0.382623 0.017885 -0.923731
vn -0.382623 0.017885 -0.923731
vn 0.382625 0.017397 -0.923740
vn 0.382625 0.017397 -0.923740
vn 0.382625 0.017397 -0.923740
vn 0.382625 0.017397 -0.923740
s off
f 1/1/1 2/2/2 10/3/3 9/4/4
f 2/2/5 3/7/6 11/8/7 10/3/8
f 3/16/9 4/17/10 12/18/11 11/19/12
f 4/17/13 5/22/14 13/23/15 12/18/16
f 5/31/17 6/32/18 14/33/19 13/34/20
f 6/32/21 7/37/22 15/38/23 14/33/24
f 7/46/25 8/47/26 16/48/27 15/49/28
f 8/47/29 1/52/30 9/53/31 16/48/32
f 18/61/33 17/62/34 19/63/35
f 20/65/36 18/61/37 19/63/38
f 21/67/39 20/65/40 19/63/41
f 22/69/42 21/67/43 19/63/44
f 23/68/45 22/69/46 19/63/47
f 24/66/48 23/68/49 19/63/50
f 25/64/51 24/66/52 19/63/53
f 17/62/54 25/64/55 19/63/56
f 2/2/57 1/1/58 17/5/59 18/6/60
f 3/7/61 2/2/62 18/6/63 20/11/64
f 4/17/65 3/16/66 20/20/67 21/21/68
f 5/22/69 4/17/70 21/21/71 22/26/72
f 6/32/73 5/31/74 22/35/75 23/36/76
f 7/37/77 6/32/78 23/36/79 24/41/80
f 8/47/81 7/46/82 24/50/83 25/51/84
f 1/52/85 8/47/86 25/51/87 17/56/88
f 9/4/89 10/3/90 41/9/91 34/10/92
f 10/3/93 11/8/94 40/12/95 41/9/96
f 11/19/97 12/18/98 39/24/99 40/25/100
f 12/18/101 13/23/102 38/27/103 39/24/104
f 13/34/105 14/33/106 37/39/107 38/40/108
f 14/33/109 15/38/110 36/42/111 37/39/112
f 15/49/113 16/48/114 35/54/115 36/55/116
f 16/48/117 9/53/118 34/57/119 35/54/120
f 35/54/121 34/57/122 26/60/123 33/58/124
f 36/55/125 35/54/126 33/58/127 32/59/128
f 37/39/129 36/42/130 32/45/131 31/43/132
f 38/40/133 37/39/134 31/43/135 30/44/136
f 39/24/137 38/27/138 30/30/139 29/28/140
f 40/25/141 39/24/142 29/28/143 28/29/144
f 41/9/145 40/12/146 28/15/147 27/13/148
f 34/10/149 41/9/150 27/13/151 26/14/152
