# This file uses centimeters as units for non-parametric coordinates.

v -77.961784 -0.187993 2.697037
v 77.994148 -0.186791 1.472998
v -74.314812 0.001202 2.669020
v 74.393578 0.000000 1.500756
v -74.347168 0.001202 -1.553677
v 74.361618 0.000000 -2.668273
v -77.994148 -0.187993 -1.525657
v 77.962196 -0.186791 -2.696031
v -0.007091 -162.631638 -2.485755
v 0.030813 -162.631638 2.459578
v 0.030813 -165.848221 2.459578
v -0.007091 -165.848221 -2.485755
v 64.890137 -121.930283 1.832956
v 62.086185 -120.130997 1.618385
v 61.908768 -120.938911 -2.832085
v 64.712723 -122.738197 -2.617514
v -61.731766 -121.052994 -1.851474
v -61.696327 -121.052994 2.772857
v -65.020416 -121.816193 2.798520
v -65.055862 -121.816193 -1.825811
v -74.087212 -77.393890 2.220259
v -77.380318 -77.512680 2.425434
v -77.518318 -77.388168 -1.082410
v -74.225204 -77.269386 -1.287581
v -36.963108 -154.200668 2.832083
v -34.874969 -151.529739 2.815960
v -34.914227 -151.529739 -2.306235
v -37.002365 -154.200668 -2.290112
v 34.986992 -151.641022 -2.629206
v 35.022980 -151.641022 2.066141
v 36.937107 -154.089386 2.051359
v 36.901123 -154.089386 -2.643985
v 77.736404 -77.640556 -2.664465
v 77.749908 -77.138252 1.461816
v 73.915901 -77.141510 1.474619
v 73.902374 -77.643814 -2.651662
vt 0.561013 0.083325
vt 0.570324 0.070932
vt 0.706299 0.233717
vt 0.692659 0.242824
vt 0.390798 0.027692
vt 0.390798 0.011411
vt 0.768853 0.460447
vt 0.750204 0.460430
vt 0.221002 0.083888
vt 0.210845 0.070369
vt 0.770043 0.849963
vt 0.752527 0.850909
vt 0.090533 0.238157
vt 0.074363 0.234294
vt 0.030259 0.459153
vt 0.014240 0.458551
vt 0.011411 0.849957
vt 0.029151 0.850914
vt 0.144676 0.181099
vt 0.167515 0.181099
vt 0.165338 0.340597
vt 0.143688 0.336508
vt 0.164638 0.558204
vt 0.144566 0.555661
vt 0.164765 0.948682
vt 0.144486 0.948682
vt 0.788853 0.867548
vt 0.779541 0.855152
vt 0.910499 0.699742
vt 0.924138 0.708853
vt 0.609316 0.927064
vt 0.609316 0.910782
vt 0.968841 0.480591
vt 0.987492 0.480573
vt 0.429357 0.868108
vt 0.439514 0.854587
vt 0.971074 0.087569
vt 0.988590 0.088515
vt 0.292893 0.704182
vt 0.309063 0.700319
vt 0.232271 0.479293
vt 0.248290 0.478692
vt 0.247697 0.087563
vt 0.229956 0.088521
vt 0.172447 0.150750
vt 0.195288 0.150750
vt 0.195159 0.309445
vt 0.173511 0.313534
vt 0.195388 0.537722
vt 0.175315 0.540264
vt 0.195540 0.929781
vt 0.175260 0.929781
vt 0.987617 0.562473
vt 0.987461 0.583576
vt 0.969945 0.583436
vt 0.970101 0.562334
vt 0.229956 0.577797
vt 0.230114 0.556424
vt 0.247854 0.556567
vt 0.247697 0.577940
vt 0.135720 0.375832
vt 0.113225 0.375832
vt 0.113016 0.221563
vt 0.137931 0.221563
vt 0.132975 0.597458
vt 0.115913 0.596828
vt 0.113731 0.988589
vt 0.134271 0.988589
vt 0.224037 0.284186
vt 0.201543 0.284186
vt 0.199284 0.120260
vt 0.224200 0.120260
vt 0.222222 0.508443
vt 0.205159 0.509073
vt 0.203003 0.899849
vt 0.223544 0.899849
vt 0.074666 0.750513
vt 0.049752 0.750314
vt 0.051485 0.573629
vt 0.075541 0.573819
vt 0.053398 0.396503
vt 0.076239 0.396685
vt 0.108979 0.662961
vt 0.084063 0.663160
vt 0.083113 0.475895
vt 0.107169 0.475703
vt 0.082342 0.289071
vt 0.105182 0.288890
vn 0.007699 -0.000026 0.999970
vn 0.007701 -0.000027 0.999970
vn 0.007695 -0.000014 0.999970
vn 0.007701 -0.000020 0.999970
vn -0.559615 0.828742 0.004289
vn -0.559613 0.828743 0.004289
vn -0.884204 0.467051 0.006777
vn -0.884205 0.467050 0.006777
vn -0.007702 0.000028 -0.999970
vn -0.007700 0.000026 -0.999970
vn -0.007702 0.000020 -0.999970
vn -0.007696 0.000014 -0.999970
vn 0.559611 -0.828744 -0.004291
vn 0.559613 -0.828743 -0.004291
vn 0.884206 -0.467047 -0.006777
vn 0.884206 -0.467048 -0.006777
vn 0.051805 0.998657 -0.000397
vn 0.051805 0.998657 -0.000397
vn 0.051805 0.998657 -0.000397
vn 0.051805 0.998657 -0.000397
vn -0.051805 0.998657 0.000397
vn -0.051805 0.998657 0.000397
vn -0.051805 0.998657 0.000397
vn -0.051805 0.998657 0.000397
vn 0.884204 0.467051 -0.006777
vn 0.884205 0.467050 -0.006777
vn 0.559613 0.828743 -0.004289
vn 0.559610 0.828745 -0.004289
vn 0.007702 0.000016 0.999970
vn 0.007700 0.000013 0.999970
vn 0.007695 0.000021 0.999970
vn 0.007694 0.000020 0.999970
vn -0.884207 -0.467047 0.006777
vn -0.884206 -0.467048 0.006777
vn -0.559608 -0.828746 0.004291
vn -0.559611 -0.828744 0.004291
vn -0.007700 -0.000013 -0.999970
vn -0.007702 -0.000016 -0.999970
vn -0.007694 -0.000020 -0.999970
vn -0.007695 -0.000020 -0.999970
vn 0.007701 -0.000020 0.999970
vn 0.007695 -0.000014 0.999970
vn 0.007670 -0.000000 0.999971
vn 0.007674 -0.000001 0.999971
vn -0.884205 0.467050 0.006777
vn -0.884204 0.467051 0.006777
vn -0.994673 0.102801 0.007624
vn -0.994673 0.102801 0.007624
vn -0.007696 0.000014 -0.999970
vn -0.007702 0.000020 -0.999970
vn -0.007675 0.000001 -0.999971
vn -0.007670 0.000000 -0.999971
vn 0.884206 -0.467048 -0.006777
vn 0.884206 -0.467047 -0.006777
vn 0.994267 -0.106658 -0.007620
vn 0.994267 -0.106658 -0.007620
vn 0.994673 0.102801 -0.007624
vn 0.994673 0.102801 -0.007624
vn 0.884205 0.467050 -0.006777
vn 0.884204 0.467051 -0.006777
vn 0.007689 0.000002 0.999970
vn 0.007683 0.000001 0.999971
vn 0.007700 0.000013 0.999970
vn 0.007702 0.000016 0.999970
vn -0.994267 -0.106658 0.007621
vn -0.994267 -0.106658 0.007621
vn -0.884206 -0.467048 0.006777
vn -0.884207 -0.467047 0.006777
vn -0.007683 -0.000001 -0.999971
vn -0.007688 -0.000002 -0.999970
vn -0.007702 -0.000016 -0.999970
vn -0.007700 -0.000013 -0.999970
vn 0.007680 -0.000001 0.999971
vn 0.007683 0.000001 0.999971
vn 0.007689 0.000002 0.999970
vn 0.007680 -0.000001 0.999971
vn -0.999960 -0.004686 0.007664
vn -0.994267 -0.106658 0.007621
vn -0.994267 -0.106658 0.007621
vn -0.999960 -0.004686 0.007664
vn -0.007679 0.000001 -0.999971
vn -0.007688 -0.000002 -0.999970
vn -0.007683 -0.000001 -0.999971
vn -0.007679 0.000001 -0.999971
vn 0.999961 0.004417 -0.007664
vn 0.994673 0.102801 -0.007624
vn 0.994673 0.102801 -0.007624
vn 0.999961 0.004417 -0.007664
vn 0.007694 0.000020 0.999970
vn 0.007695 0.000021 0.999970
vn 0.007680 -0.000001 0.999971
vn 0.007680 -0.000001 0.999971
vn 0.559610 0.828745 -0.004289
vn 0.559613 0.828743 -0.004289
vn 0.000002 1.000000 -0.000000
vn -0.000002 1.000000 0.000000
vn -0.007695 -0.000020 -0.999970
vn -0.007694 -0.000020 -0.999970
vn -0.007681 0.000001 -0.999971
vn -0.007681 0.000001 -0.999971
vn -0.559611 -0.828744 0.004291
vn -0.559608 -0.828746 0.004291
vn 0.000002 -1.000000 0.000000
vn -0.000002 -1.000000 0.000000
vn -0.000002 1.000000 0.000000
vn 0.000002 1.000000 -0.000000
vn -0.559613 0.828743 0.004289
vn -0.559615 0.828742 0.004289
vn 0.007680 -0.000001 0.999971
vn 0.007680 -0.000001 0.999971
vn 0.007701 -0.000027 0.999970
vn 0.007699 -0.000026 0.999970
vn -0.000002 -1.000000 0.000000
vn 0.000002 -1.000000 0.000000
vn 0.559613 -0.828743 -0.004291
vn 0.559611 -0.828744 -0.004291
vn -0.007681 0.000001 -0.999971
vn -0.007681 0.000001 -0.999971
vn -0.007700 0.000026 -0.999970
vn -0.007702 0.000028 -0.999970
vn 0.994267 -0.106658 -0.007620
vn 0.994267 -0.106658 -0.007620
vn 0.999960 -0.004686 -0.007664
vn 0.999960 -0.004686 -0.007664
vn 0.007674 -0.000001 0.999971
vn 0.007670 -0.000000 0.999971
vn 0.007667 0.000000 0.999971
vn 0.007667 0.000000 0.999971
vn -0.994673 0.102801 0.007624
vn -0.994673 0.102801 0.007624
vn -0.999961 0.004418 0.007664
vn -0.999961 0.004418 0.007664
vn -0.007670 0.000000 -0.999971
vn -0.007675 0.000001 -0.999971
vn -0.007667 -0.000000 -0.999971
vn -0.007667 -0.000000 -0.999971
s off
f 30/1/1 31/2/2 13/3/3 14/4/4
f 29/19/5 30/20/6 14/21/7 15/22/8
f 32/27/9 29/28/10 15/29/11 16/30/12
f 31/45/13 32/46/14 16/47/15 13/48/16
f 2/53/17 8/54/18 6/55/19 4/56/20
f 7/57/21 1/58/22 3/59/23 5/60/24
f 17/61/25 18/62/26 26/63/27 27/64/28
f 18/13/29 19/14/30 25/10/31 26/9/32
f 19/69/33 20/70/34 28/71/35 25/72/36
f 20/39/37 17/40/38 27/36/39 28/35/40
f 14/4/41 13/3/42 34/7/43 35/8/44
f 15/22/45 14/21/46 35/23/47 36/24/48
f 16/30/49 15/29/50 36/33/51 33/34/52
f 13/48/53 16/47/54 33/49/55 34/50/56
f 24/65/57 21/66/58 18/62/59 17/61/60
f 21/15/61 22/16/62 19/14/63 18/13/64
f 22/73/65 23/74/66 20/70/67 19/69/68
f 23/41/69 24/42/70 17/40/71 20/39/72
f 1/17/73 22/16/74 21/15/75 3/18/76
f 7/75/77 23/74/78 22/73/79 1/76/80
f 5/43/81 24/42/82 23/41/83 7/44/84
f 3/67/85 21/66/86 24/65/87 5/68/88
f 26/9/89 25/10/90 11/6/91 10/5/92
f 27/77/93 26/78/94 10/79/95 9/80/96
f 28/35/97 27/36/98 9/32/99 12/31/100
f 25/83/101 28/84/102 12/85/103 11/86/104
f 9/80/105 10/79/106 30/81/107 29/82/108
f 10/5/109 11/6/110 31/2/111 30/1/112
f 11/86/113 12/85/114 32/87/115 31/88/116
f 12/31/117 9/32/118 29/28/119 32/27/120
f 34/50/121 33/49/122 8/51/123 2/52/124
f 35/8/125 34/7/126 2/11/127 4/12/128
f 36/24/129 35/23/130 4/25/131 6/26/132
f 33/34/133 36/33/134 6/37/135 8/38/136
