# This file uses centimeters as units for non-parametric coordinates.

v 12.665959 11.425706 -27.670729
v -0.000001 11.425706 -32.917152
v -12.665962 11.425706 -27.670729
v -17.912374 11.425706 -15.004736
v -12.665962 11.425706 -2.338880
v -0.000001 11.425706 2.907544
v 12.665960 11.425706 -2.338880
v 17.912376 11.425706 -15.004736
v 12.120057 42.951649 -28.152515
v 0.387195 42.951649 -33.012409
v -11.345670 42.951649 -28.152515
v -16.205584 42.951649 -16.419605
v -11.345670 42.951649 -4.686731
v 0.387195 42.951649 0.173130
v 12.120061 42.951649 -4.686731
v 16.979973 42.951649 -16.419605
v 14.009621 -0.048691 -29.014378
v -0.000001 -0.048691 -34.817429
v -0.000001 -0.048691 -15.004736
v -14.009623 -0.048691 -29.014378
v -19.812592 -0.048691 -15.004736
v -14.009623 -0.048691 -0.995163
v -0.000001 -0.048691 4.807855
v 14.009623 -0.048691 -0.995163
v 19.812592 -0.048691 -15.004736
v 9.853457 96.994164 -23.875980
v 14.110797 69.873566 -13.597855
v 9.853458 63.480793 -3.319832
v -0.424664 81.697205 0.937481
v -10.702786 96.994164 -3.319832
v -14.960124 92.927963 -13.597855
v -10.702786 110.900772 -23.875980
v -0.424664 110.900772 -28.133362
v -5.597448 119.965248 -25.990673
v 7.792128 98.636978 -21.814756
v 11.195635 76.955559 -13.597855
v 7.792129 70.562782 -5.381124
v -0.424664 86.407898 -1.977616
v -8.641457 98.636978 -5.381124
v -12.044964 95.386269 -13.597855
v -8.641457 106.694588 -21.814756
v -4.560019 112.883263 -23.505260
v -0.424664 106.694588 -25.218195
v -0.884148 81.053329 -16.442141
v 9.936417 98.546272 -16.637915
v 12.327852 94.800568 -17.902285
v -9.712963 84.260574 -20.686546
v -3.580571 82.332848 -17.442245
v -7.725760 105.337631 -19.040394
v -2.867776 95.144524 -16.952778
v -1.960196 97.469742 -23.110775
v 4.747088 109.942055 -17.902216
v -3.102950 82.932083 -26.686464
v 6.026959 81.780106 -20.831858
v -2.265739 114.307587 -17.053089
v -4.696386 101.077774 -19.506783
v 0.942063 106.604996 -18.500940
v -0.297860 114.211388 -17.415171
v -11.609791 77.776711 -14.505639
v -6.661773 76.428566 -7.374644
v -10.421696 99.120842 -11.833261
v -6.732584 89.268394 -7.231416
v -3.136820 91.481239 -12.362164
v -0.108164 104.434372 -5.240422
v -1.938823 76.815636 -15.348791
v 3.428602 76.320053 -5.867008
v -6.859185 108.426552 -7.968794
v -7.371461 95.024139 -10.627514
v -3.065666 100.878113 -7.380141
v -4.948359 108.429848 -7.367303
v 6.364288 68.720299 -5.195354
v 10.045512 69.520897 -15.300070
v 8.352106 90.591125 -5.193852
v 10.445391 82.068001 -12.598773
v 4.262365 84.493248 -12.796732
v 9.310797 98.344200 -16.012285
v 0.792621 70.139381 -15.509978
v 6.543981 71.500397 -24.676659
v 10.216737 100.704681 -8.102463
v 7.876158 87.281311 -9.238592
v 8.779059 94.113350 -13.221330
v 9.831609 101.129623 -10.021824
vt 0.196969 0.719353
vt 0.108863 0.719353
vt 0.111556 0.513731
vt 0.193173 0.513731
vt 0.206317 0.794195
vt 0.108863 0.794195
vt 0.020757 0.719353
vt 0.029941 0.513731
vt 0.105909 0.070533
vt 0.177405 0.161240
vt 0.011411 0.794195
vt 0.069927 0.011412
vt 0.034414 0.070533
vt 0.220251 0.086783
vt 0.308359 0.086783
vt 0.298517 0.292411
vt 0.216900 0.292411
vt 0.210906 0.011943
vt 0.308359 0.011943
vt 0.396463 0.086783
vt 0.380131 0.292411
vt 0.318144 0.618380
vt 0.246650 0.735605
vt 0.405810 0.011943
vt 0.389640 0.644900
vt 0.419748 0.086783
vt 0.507853 0.086783
vt 0.510546 0.292411
vt 0.428931 0.292411
vt 0.410401 0.011943
vt 0.507853 0.011943
vt 0.595959 0.086783
vt 0.592163 0.292411
vt 0.504899 0.545127
vt 0.433404 0.644900
vt 0.605307 0.011943
vt 0.576395 0.426311
vt 0.504899 0.575852
vt 0.447742 0.655616
vt 0.619258 0.086783
vt 0.707364 0.086783
vt 0.717206 0.292411
vt 0.635590 0.292411
vt 0.609911 0.011943
vt 0.707364 0.011943
vt 0.795470 0.086783
vt 0.798819 0.292411
vt 0.697575 0.468007
vt 0.626083 0.426311
vt 0.804818 0.011943
vt 0.727519 0.630593
vt 0.697575 0.514200
vt 0.640419 0.472502
vt 0.769071 0.644900
vt 0.596466 0.545127
vt 0.616744 0.575852
vt 0.718723 0.655024
vt 0.754735 0.655616
vt 0.586584 0.568020
vt 0.684037 0.605870
vt 0.586584 0.697248
vt 0.724402 0.697248
vt 0.489132 0.605870
vt 0.684037 0.788624
vt 0.448765 0.697248
vt 0.586584 0.826474
vt 0.489132 0.788624
vt 0.757596 0.922376
vt 0.787210 0.855341
vt 0.801548 0.868783
vt 0.777874 0.922376
vt 0.815984 0.618641
vt 0.786369 0.501416
vt 0.806647 0.517450
vt 0.830322 0.591206
vt 0.884283 0.423964
vt 0.851497 0.677765
vt 0.858713 0.631574
vt 0.887479 0.591206
vt 0.944637 0.538653
vt 0.968310 0.397236
vt 0.959552 0.538060
vt 0.988590 0.351043
vt 0.976188 0.513629
vt 0.817970 0.860540
vt 0.847587 0.927575
vt 0.827309 0.927575
vt 0.803634 0.873982
vt 0.642087 0.847116
vt 0.627183 0.906239
vt 0.609895 0.860048
vt 0.621810 0.819681
vt 0.341345 0.875159
vt 0.398501 0.852960
vt 0.418288 0.931750
vt 0.464113 0.899616
vt 0.487789 0.796266
vt 0.564731 0.864691
vt 0.487789 0.979380
vt 0.544945 0.958178
vt 0.297225 0.664366
vt 0.339883 0.651792
vt 0.344842 0.735356
vt 0.311049 0.801841
vt 0.406715 0.648188
vt 0.397811 0.831873
vt 0.371343 0.810107
vt 0.362718 0.859718
vt 0.349029 0.860347
vt 0.932371 0.672593
vt 0.979028 0.591249
vt 0.987931 0.774932
vt 0.924422 0.767417
vt 0.952559 0.613011
vt 0.878442 0.758752
vt 0.892266 0.621277
vt 0.943935 0.563398
vt 0.930246 0.562769
vt 0.011411 0.838928
vt 0.029178 0.800228
vt 0.028479 0.925220
vt 0.646974 0.896190
vt 0.618661 0.947509
vt 0.621904 0.919724
vt 0.604141 0.881024
vt 0.205002 0.910137
vt 0.185969 0.886604
vt 0.202877 0.800314
vt 0.671277 0.801940
vt 0.720880 0.793147
vt 0.721876 0.876893
vt 0.689865 0.941156
vt 0.258526 0.837367
vt 0.208988 0.921853
vt 0.213347 0.738481
vt 0.279302 0.741713
vt 0.405140 0.769772
vt 0.475328 0.769065
vt 0.450727 0.952438
vt 0.404647 0.853518
vt 0.335725 0.922215
vt 0.268452 0.915942
vt 0.276716 0.776726
vt 0.327391 0.826554
vt 0.067040 0.837216
vt 0.090664 0.799672
vt 0.085534 0.924631
vt 0.035311 0.799672
vt 0.060818 0.875398
vt 0.047722 0.924652
vt 0.034430 0.924631
vt 0.170215 0.800889
vt 0.182816 0.911433
vt 0.156922 0.800912
vt 0.153359 0.888329
vt 0.742808 0.808516
vt 0.739128 0.858346
vt 0.730741 0.831626
vt 0.237761 0.905158
vt 0.263424 0.840895
vt 0.258979 0.878438
vt 0.831521 0.806925
vt 0.845370 0.905844
vt 0.830486 0.882650
vt 0.602190 0.828487
vt 0.581122 0.912975
vt 0.581617 0.851683
vt 0.115084 0.862791
vt 0.149738 0.801499
vt 0.114994 0.912046
vt 0.730749 0.669066
vt 0.801039 0.674288
vt 0.782250 0.756125
vt 0.730741 0.811717
vt 0.866263 0.687198
vt 0.805995 0.862287
vt 0.786581 0.834691
vt 0.764324 0.880453
vt 0.750974 0.877683
vt 0.918880 0.880081
vt 0.896514 0.970424
vt 0.836242 0.795334
vt 0.900008 0.786458
vt 0.915926 0.942828
vt 0.971757 0.777203
vt 0.971768 0.919854
vt 0.938183 0.988590
vt 0.951535 0.985819
vt 0.093895 0.833478
vt 0.111769 0.799473
vt 0.110178 0.921031
vt 0.707724 0.917242
vt 0.736173 0.867656
vt 0.732861 0.894034
vt 0.750734 0.915954
vt 0.638669 0.811572
vt 0.663420 0.829757
vt 0.671324 0.917310
vn 0.382673 -0.007492 -0.923854
vn 0.382673 -0.007492 -0.923854
vn 0.382673 -0.007492 -0.923854
vn 0.382673 -0.007492 -0.923854
vn -0.382683 0.001908 -0.923878
vn -0.382683 0.001908 -0.923878
vn -0.382683 0.001908 -0.923878
vn -0.382683 0.001908 -0.923878
vn -0.923382 0.032826 -0.382476
vn -0.923382 0.032826 -0.382476
vn -0.923382 0.032826 -0.382476
vn -0.923382 0.032826 -0.382476
vn -0.921800 0.067041 0.381824
vn -0.921800 0.067041 0.381824
vn -0.921800 0.067041 0.381824
vn -0.921800 0.067041 0.381824
vn -0.381313 0.084529 0.920574
vn -0.381313 0.084529 0.920574
vn -0.381313 0.084529 0.920574
vn -0.381313 0.084529 0.920574
vn 0.381598 0.075218 0.921263
vn 0.381598 0.075218 0.921263
vn 0.381598 0.075218 0.921263
vn 0.381598 0.075218 0.921263
vn 0.922966 0.044454 0.382306
vn 0.922966 0.044454 0.382306
vn 0.922966 0.044454 0.382306
vn 0.922966 0.044454 0.382307
vn 0.923832 0.010149 -0.382663
vn 0.923832 0.010149 -0.382663
vn 0.923832 0.010149 -0.382663
vn 0.923832 0.010149 -0.382663
vn 0.000000 -1.000000 0.000000
vn 0.000000 -1.000000 0.000000
vn 0.000000 -1.000000 0.000000
vn 0.000000 -1.000000 0.000000
vn 0.000000 -1.000000 0.000000
vn 0.000000 -1.000000 0.000000
vn 0.000000 -1.000000 0.000000
vn 0.000000 -1.000000 0.000000
vn 0.000000 -1.000000 0.000000
vn 0.000000 -1.000000 -0.000000
vn 0.000000 -1.000000 -0.000000
vn 0.000000 -1.000000 -0.000000
vn 0.000000 -1.000000 0.000000
vn 0.000000 -1.000000 0.000000
vn 0.000000 -1.000000 0.000000
vn 0.000000 -1.000000 0.000000
vn 0.000000 -1.000000 0.000000
vn 0.000000 -1.000000 0.000000
vn 0.000000 -1.000000 0.000000
vn 0.000000 -1.000000 0.000000
vn 0.000000 -1.000000 0.000000
vn 0.000000 -1.000000 0.000000
vn 0.000000 -1.000000 0.000000
vn 0.000000 -1.000000 0.000000
vn 0.378284 0.151241 -0.913251
vn 0.378284 0.151241 -0.913251
vn 0.378284 0.151241 -0.913251
vn 0.378284 0.151241 -0.913251
vn -0.378284 0.151241 -0.913251
vn -0.378284 0.151241 -0.913251
vn -0.378284 0.151241 -0.913251
vn -0.378284 0.151241 -0.913251
vn -0.913253 0.151239 -0.378281
vn -0.913253 0.151239 -0.378281
vn -0.913253 0.151239 -0.378281
vn -0.913253 0.151239 -0.378281
vn -0.913252 0.151240 0.378283
vn -0.913252 0.151240 0.378283
vn -0.913252 0.151240 0.378283
vn -0.913252 0.151240 0.378283
vn -0.378283 0.151245 0.913251
vn -0.378283 0.151245 0.913251
vn -0.378283 0.151245 0.913251
vn -0.378283 0.151245 0.913251
vn 0.378283 0.151245 0.913251
vn 0.378283 0.151245 0.913251
vn 0.378283 0.151245 0.913251
vn 0.378283 0.151245 0.913251
vn 0.913251 0.151240 0.378283
vn 0.913251 0.151240 0.378283
vn 0.913252 0.151240 0.378283
vn 0.913251 0.151240 0.378283
vn 0.913253 0.151239 -0.378281
vn 0.913253 0.151239 -0.378281
vn 0.913253 0.151239 -0.378281
vn 0.913253 0.151239 -0.378281
vn 0.423395 0.078421 -0.902545
vn 0.423394 0.078421 -0.902545
vn 0.423395 0.078421 -0.902545
vn 0.423395 0.078421 -0.902545
vn -0.382115 0.054416 -0.922511
vn -0.382115 0.054416 -0.922511
vn -0.382115 0.054416 -0.922511
vn -0.933434 0.036430 -0.356894
vn -0.933434 0.036430 -0.356894
vn -0.933434 0.036430 -0.356894
vn -0.933434 0.036430 -0.356894
vn -0.923968 0.001372 0.382468
vn -0.923968 0.001372 0.382468
vn -0.923968 0.001372 0.382468
vn -0.923968 0.001372 0.382468
vn -0.395490 -0.021811 0.918211
vn -0.395490 -0.021811 0.918211
vn -0.395490 -0.021811 0.918211
vn -0.395490 -0.021811 0.918211
vn 0.372730 -0.014003 0.927834
vn 0.372730 -0.014003 0.927834
vn 0.372730 -0.014003 0.927834
vn 0.372730 -0.014003 0.927834
vn 0.915284 0.063958 0.397700
vn 0.915284 0.063958 0.397700
vn 0.915284 0.063958 0.397700
vn 0.915284 0.063958 0.397700
vn 0.930295 0.067548 -0.360538
vn 0.930295 0.067548 -0.360538
vn 0.930295 0.067548 -0.360538
vn -0.470847 0.059851 -0.880183
vn -0.470847 0.059851 -0.880183
vn -0.470847 0.059851 -0.880183
vn -0.281958 0.065362 -0.957198
vn -0.281958 0.065362 -0.957198
vn -0.281958 0.065362 -0.957198
vn 0.712487 0.684370 -0.154921
vn 0.712487 0.684370 -0.154921
vn 0.712487 0.684370 -0.154921
vn 0.712487 0.684370 -0.154921
vn 0.757389 0.346638 0.553357
vn 0.757389 0.346638 0.553357
vn 0.757389 0.346638 0.553357
vn 0.757389 0.346638 0.553357
vn 0.817548 0.339263 0.465313
vn 0.817548 0.339262 0.465313
vn 0.817548 0.339263 0.465313
vn 0.817548 0.339263 0.465313
vn 0.395763 0.483255 0.780920
vn 0.395763 0.483255 0.780920
vn 0.395763 0.483255 0.780920
vn 0.395763 0.483255 0.780920
vn -0.644259 0.763988 -0.035385
vn -0.644259 0.763988 -0.035385
vn -0.644259 0.763988 -0.035385
vn -0.644259 0.763988 -0.035385
vn -0.144297 0.555150 0.819138
vn -0.144297 0.555150 0.819138
vn -0.144297 0.555150 0.819138
vn -0.144297 0.555150 0.819138
vn -0.162594 0.329911 0.929904
vn -0.162594 0.329911 0.929904
vn -0.162594 0.329911 0.929904
vn -0.162594 0.329911 0.929904
vn 0.533404 0.641462 0.551368
vn 0.533404 0.641462 0.551368
vn 0.533404 0.641462 0.551368
vn 0.533404 0.641462 0.551368
vn 0.769611 0.331745 0.545567
vn 0.769611 0.331745 0.545567
vn 0.769611 0.331745 0.545567
vn 0.769611 0.331745 0.545567
vn -0.413139 0.265304 0.871166
vn -0.413139 0.265304 0.871166
vn -0.413139 0.265304 0.871166
vn -0.413139 0.265304 0.871166
vn 0.108383 0.762355 0.638019
vn 0.108383 0.762355 0.638019
vn 0.108383 0.762355 0.638019
vn 0.849760 0.485024 -0.206542
vn 0.849760 0.485025 -0.206543
vn 0.849760 0.485024 -0.206543
vn 0.837406 0.503392 -0.212950
vn 0.837406 0.503392 -0.212950
vn 0.837406 0.503392 -0.212950
vn 0.634088 0.592382 -0.497008
vn 0.634088 0.592382 -0.497008
vn 0.634088 0.592382 -0.497008
vn 0.612974 0.335344 0.715408
vn 0.612973 0.335344 0.715408
vn 0.612973 0.335344 0.715408
vn 0.064333 0.223259 0.972634
vn 0.064333 0.223259 0.972634
vn 0.064333 0.223259 0.972634
vn -0.072830 0.324129 0.943205
vn -0.072830 0.324129 0.943205
vn -0.072830 0.324129 0.943205
vn 0.651067 0.235318 0.721622
vn 0.651067 0.235318 0.721622
vn 0.651067 0.235318 0.721622
vn 0.535535 0.165766 0.828084
vn 0.535535 0.165766 0.828084
vn 0.535535 0.165766 0.828084
vn 0.535535 0.165766 0.828084
vn 0.958126 0.078089 -0.275492
vn 0.958126 0.078089 -0.275492
vn 0.958126 0.078089 -0.275492
vn 0.958126 0.078089 -0.275492
vn -0.454127 -0.019950 0.890714
vn -0.454127 -0.019950 0.890714
vn -0.454127 -0.019950 0.890714
vn -0.454127 -0.019950 0.890714
vn 0.502643 0.131781 -0.854391
vn 0.502643 0.131781 -0.854391
vn 0.502643 0.131781 -0.854391
vn 0.502643 0.131781 -0.854391
vn 0.301610 -0.075139 0.950466
vn 0.301610 -0.075139 0.950466
vn 0.301610 -0.075139 0.950466
vn 0.301610 -0.075139 0.950466
vn -0.543877 0.168336 -0.822108
vn -0.543877 0.168336 -0.822108
vn -0.543877 0.168336 -0.822108
vn -0.543877 0.168336 -0.822108
vn -0.781072 0.027804 0.623822
vn -0.781072 0.027804 0.623822
vn -0.781072 0.027804 0.623822
vn 0.408530 -0.032943 0.912150
vn 0.488627 -0.044728 0.871346
vn 0.253207 -0.010669 0.967353
vn -0.012339 0.323150 -0.946267
vn 0.397475 0.259924 -0.880030
vn -0.154979 0.331943 -0.930481
vn 0.816412 0.575841 0.043346
vn 0.816412 0.575841 0.043346
vn 0.816412 0.575841 0.043346
vn 0.715539 0.450388 0.533998
vn 0.715540 0.450388 0.533998
vn 0.715539 0.450388 0.533998
vn -0.632427 0.252041 -0.732470
vn -0.632427 0.252041 -0.732470
vn -0.632427 0.252041 -0.732470
vn -0.352263 0.239328 0.904783
vn -0.352263 0.239328 0.904783
vn -0.352263 0.239328 0.904783
vn -0.317209 0.505641 -0.802313
vn -0.317209 0.505641 -0.802313
vn -0.317209 0.505641 -0.802313
vn 0.408530 -0.032943 0.912150
vn 0.253207 -0.010669 0.967353
vn 0.180934 -0.000536 0.983495
vn 0.588343 0.207467 -0.781544
vn 0.397475 0.259924 -0.880030
vn -0.012339 0.323150 -0.946267
vn -0.814658 -0.021109 0.579558
vn -0.814658 -0.021109 0.579558
vn -0.814658 -0.021109 0.579558
vn -0.814658 -0.021109 0.579558
vn 0.838621 0.137337 -0.527118
vn 0.838621 0.137337 -0.527118
vn 0.838621 0.137337 -0.527118
vn 0.838621 0.137337 -0.527118
vn -0.175370 -0.033943 0.983917
vn -0.175370 -0.033943 0.983917
vn -0.175370 -0.033943 0.983917
vn -0.175370 -0.033943 0.983917
vn -0.001191 0.155246 -0.987875
vn -0.001191 0.155246 -0.987875
vn -0.001191 0.155246 -0.987875
vn -0.001191 0.155246 -0.987875
vn -0.982556 0.000665 0.185966
vn -0.982556 0.000665 0.185966
vn -0.982556 0.000665 0.185966
vn -0.064586 0.013090 0.997826
vn 0.025667 0.004699 0.999660
vn -0.228385 0.028168 0.973163
vn 0.419743 0.297568 -0.857478
vn 0.753016 0.258777 -0.604981
vn 0.286063 0.298878 -0.910406
vn 0.679554 0.620953 0.390671
vn 0.679554 0.620953 0.390672
vn 0.679554 0.620953 0.390671
vn 0.365607 0.502759 0.783304
vn 0.365607 0.502759 0.783304
vn 0.365607 0.502759 0.783304
vn -0.225251 0.197860 -0.953999
vn -0.225251 0.197860 -0.953999
vn -0.225251 0.197860 -0.953999
vn -0.743043 0.242679 0.623693
vn -0.743043 0.242679 0.623693
vn -0.743043 0.242679 0.623693
vn 0.076452 0.466595 -0.881161
vn 0.076452 0.466595 -0.881161
vn 0.076452 0.466594 -0.881161
vn -0.064586 0.013090 0.997826
vn -0.228385 0.028168 0.973163
vn -0.300130 0.034707 0.953267
vn 0.877453 0.219479 -0.426503
vn 0.753016 0.258777 -0.604981
vn 0.419743 0.297568 -0.857478
vn 0.932868 -0.092064 0.348255
vn 0.932868 -0.092064 0.348255
vn 0.932868 -0.092064 0.348255
vn 0.932868 -0.092064 0.348255
vn -0.861200 0.252234 -0.441262
vn -0.861200 0.252234 -0.441262
vn -0.861200 0.252234 -0.441262
vn -0.861200 0.252234 -0.441262
vn 0.947219 0.016234 -0.320175
vn 0.947219 0.016234 -0.320175
vn 0.947219 0.016234 -0.320175
vn 0.947219 0.016234 -0.320175
vn -0.886452 0.099681 0.451959
vn -0.886452 0.099681 0.451959
vn -0.886452 0.099681 0.451959
vn -0.886452 0.099681 0.451959
vn 0.633000 -0.174216 0.754294
vn 0.633000 -0.174216 0.754294
vn 0.633000 -0.174216 0.754294
vn 0.907353 0.084876 -0.411712
vn 0.865659 0.094343 -0.491664
vn 0.964283 0.065738 -0.256589
vn -0.948074 0.299550 0.106892
vn -0.886382 0.347710 -0.305655
vn -0.930628 0.270407 0.246600
vn 0.029850 0.771842 -0.635113
vn 0.029850 0.771842 -0.635113
vn 0.029850 0.771842 -0.635113
vn 0.522478 0.628717 -0.575961
vn 0.522478 0.628717 -0.575961
vn 0.522478 0.628717 -0.575961
vn -0.726376 0.068776 0.683847
vn -0.726376 0.068776 0.683847
vn -0.726376 0.068776 0.683847
vn 0.907432 0.145899 0.394056
vn 0.907432 0.145899 0.394056
vn 0.907432 0.145899 0.394056
vn -0.801616 0.396126 0.447768
vn -0.801616 0.396126 0.447768
vn -0.801616 0.396126 0.447768
vn 0.907353 0.084876 -0.411712
vn 0.964283 0.065738 -0.256589
vn 0.981230 0.056521 -0.184374
vn -0.789876 0.348582 -0.504565
vn -0.886382 0.347710 -0.305655
vn -0.948074 0.299550 0.106892
s off
f 1/1/1 2/2/2 10/3/3 9/4/4
f 2/2/5 3/7/6 11/8/7 10/3/8
f 3/14/9 4/15/10 12/16/11 11/17/12
f 4/15/13 5/20/14 13/21/15 12/16/16
f 5/26/17 6/27/18 14/28/19 13/29/20
f 6/27/21 7/32/22 15/33/23 14/28/24
f 7/40/25 8/41/26 16/42/27 15/43/28
f 8/41/29 1/46/30 9/47/31 16/42/32
f 18/59/33 17/60/34 19/61/35
f 20/63/36 18/59/37 19/61/38
f 21/65/39 20/63/40 19/61/41
f 22/67/42 21/65/43 19/61/44
f 23/66/45 22/67/46 19/61/47
f 24/64/48 23/66/49 19/61/50
f 25/62/51 24/64/52 19/61/53
f 17/60/54 25/62/55 19/61/56
f 2/2/57 1/1/58 17/5/59 18/6/60
f 3/7/61 2/2/62 18/6/63 20/11/64
f 4/15/65 3/14/66 20/18/67 21/19/68
f 5/20/69 4/15/70 21/19/71 22/24/72
f 6/27/73 5/26/74 22/30/75 23/31/76
f 7/32/77 6/27/78 23/31/79 24/36/80
f 8/41/81 7/40/82 24/44/83 25/45/84
f 1/46/85 8/41/86 25/45/87 17/50/88
f 9/4/89 10/3/90 33/9/91 26/10/92
f 10/3/93 11/8/94 34/12/95
f 11/17/96 12/16/97 31/22/98 32/23/99
f 12/16/100 13/21/101 30/25/102 31/22/103
f 13/29/104 14/28/105 29/34/106 30/35/107
f 14/28/108 15/33/109 28/37/110 29/34/111
f 15/43/112 16/42/113 27/48/114 28/49/115
f 46/51/116 9/47/117 26/54/118
f 34/12/119 11/8/120 32/13/121
f 10/3/122 34/12/123 33/9/124
f 45/57/125 46/51/126 26/54/127 35/58/128
f 28/49/129 27/48/130 36/52/131 37/53/132
f 29/55/133 28/49/134 37/53/135 38/56/136
f 30/35/137 29/34/138 38/38/139 39/39/140
f 31/68/141 30/69/142 39/70/143 40/71/144
f 32/72/145 31/73/146 40/74/147 41/75/148
f 34/77/149 32/72/150 41/75/151 42/78/152
f 26/85/153 33/86/154 43/87/155 35/88/156
f 33/89/157 34/90/158 42/91/159 43/92/160
f 36/81/161 45/82/162 35/80/163 44/76/164
f 37/93/165 36/94/166 44/95/167
f 38/96/168 37/97/169 44/98/170
f 39/99/171 38/96/172 44/98/173
f 40/100/174 39/99/175 44/98/176
f 41/75/177 40/74/178 44/76/179
f 42/78/180 41/75/181 44/76/182
f 35/80/183 43/79/184 44/76/185
f 43/79/186 42/78/187 44/76/188
f 27/83/189 46/84/190 45/82/191 36/81/192
f 16/42/193 9/47/194 46/51/195 27/48/196
f 47/101/197 48/102/198 50/103/199 49/104/200
f 51/110/201 52/111/202 54/112/203 53/113/204
f 48/102/205 54/105/206 52/106/207 50/103/208
f 53/113/209 47/115/210 49/116/211 51/110/212
f 56/119/213 50/120/214 55/121/215
f 50/103/216 57/107/217 58/108/218
f 58/117/219 51/110/220 55/118/221
f 51/122/222 49/123/223 56/124/224
f 49/123/225 50/125/226 56/124/227
f 51/126/228 56/127/229 55/128/230
f 50/103/231 52/106/232 57/107/233
f 52/111/234 51/110/235 57/114/236
f 50/103/237 58/108/238 55/109/239
f 57/114/240 51/110/241 58/117/242
f 59/129/243 60/130/244 62/131/245 61/132/246
f 63/133/247 64/134/248 66/135/249 65/136/250
f 60/137/251 66/138/252 64/139/253 62/140/254
f 65/141/255 59/142/256 61/143/257 63/144/258
f 68/145/259 62/146/260 67/147/261
f 62/148/262 69/149/263 70/150/264
f 70/152/265 63/153/266 67/154/267
f 63/156/268 61/157/269 68/158/270
f 61/159/271 62/160/272 68/161/273
f 63/153/274 68/155/275 67/154/276
f 62/162/277 64/163/278 69/164/279
f 64/165/280 63/166/281 69/167/282
f 62/148/283 70/150/284 67/151/285
f 69/168/286 63/169/287 70/170/288
f 71/171/289 72/172/290 74/173/291 73/174/292
f 75/180/293 76/181/294 78/182/295 77/183/296
f 72/172/297 78/175/298 76/176/299 74/173/300
f 77/183/301 71/185/302 73/186/303 75/180/304
f 80/189/305 74/190/306 79/191/307
f 74/173/308 81/177/309 82/178/310
f 82/187/311 75/180/312 79/188/313
f 75/192/314 73/193/315 80/194/316
f 73/193/317 74/195/318 80/194/319
f 75/196/320 80/197/321 79/198/322
f 74/173/323 76/176/324 81/177/325
f 76/181/326 75/180/327 81/184/328
f 74/173/329 82/178/330 79/179/331
f 81/184/332 75/180/333 82/187/334
