# This file uses centimeters as units for non-parametric coordinates.

v -20.752951 8.181474 52.047813
v -11.406805 0.002432 51.458931
v -60.102638 0.000000 -1.450013
v 19.463797 0.000189 -53.965530
v 50.341751 0.000016 -46.695797
v -34.165012 8.852440 39.202400
v 15.250144 0.001841 69.294930
v 19.313934 7.575063 -35.294075
v -4.756279 0.003405 51.792160
v -58.299938 0.000000 -5.508575
v -60.637283 0.000000 13.356875
v -44.918770 8.816634 15.907476
v -34.846184 0.000000 46.005962
v -12.637121 5.855375 42.358990
v 46.261784 0.000016 68.959602
v 51.220707 8.762783 59.606262
v -49.282864 6.283806 -21.965122
v 57.086750 0.000000 -30.697227
v 51.806599 9.672225 -22.271597
v 37.929527 9.227268 -29.818188
v 34.174046 8.847127 -32.272625
v 43.534763 9.616802 52.098541
v -0.158757 10.909501 -53.628967
v 0.137089 8.735189 -22.654100
v -29.956511 9.098913 -3.073087
v 59.151367 0.000011 50.152222
v 25.667986 7.242271 62.437920
v 21.918163 7.854601 -25.146494
v -41.168941 11.161713 -23.398991
v 60.199413 0.000184 35.216965
v -52.000580 0.000087 -14.182855
v 16.565823 0.000000 -65.450157
v 37.669949 0.000479 -49.356285
v -51.332405 0.000000 23.221439
v -44.658203 0.000000 35.971405
v -49.713612 4.915323 26.095064
v -40.274685 8.152306 4.902609
v -29.151978 0.000000 51.583908
v -23.422184 0.000099 57.790936
v -23.038666 4.711087 54.263535
v -10.581307 1.509953 48.188393
v 7.764946 0.003077 59.589962
v 3.301992 0.318847 51.021431
v 18.654640 0.001375 72.906898
v 38.007088 0.001421 61.526134
v 62.420155 0.000000 62.919693
v 51.127110 8.555955 49.911472
v 62.171631 0.000231 46.772385
v 51.452553 6.259648 4.078870
v 47.804024 6.585433 29.111944
v 45.711487 7.933235 37.943615
v 1.312132 0.000000 -72.906898
v -23.144339 0.000000 -62.755829
v -31.162933 0.000000 -43.583740
v -31.713921 6.354773 -39.948727
v -6.571648 6.345398 -65.487015
v -48.788578 0.000000 -40.776665
v -42.455875 10.317127 -26.525053
v -62.420155 0.000000 -31.649700
v -46.286777 8.478013 -13.773885
v -49.625084 6.357898 -31.862495
v -44.545639 9.543285 -21.819660
v 56.880856 0.000051 19.712029
v 53.881500 0.000011 2.841034
v 56.507298 0.000000 -13.891649
v 55.210312 0.000000 -38.439949
v 52.051628 6.330283 -35.779976
v 9.202510 8.212014 -36.543705
v 10.606955 0.000000 -68.293884
v 5.646018 8.852440 -61.023174
v -32.300789 10.979282 27.747311
v 6.913599 4.842068 43.079155
v 20.094896 7.689821 56.767769
v 5.113824 4.946554 21.281015
v 47.310238 10.560081 -12.224823
v 40.655872 10.161120 3.072187
v 42.032944 10.514088 -14.791970
v 42.502338 8.584648 38.071659
v 32.427971 6.871091 39.416855
vt 0.927678 0.523397
vt 0.927678 0.457288
vt 0.961257 0.438032
vt 0.927678 0.371843
vt 0.988152 0.350191
vt 0.927678 0.304597
vt 0.959862 0.249258
vt 0.027243 0.509718
vt 0.023591 0.410489
vt 0.162696 0.467145
vt 0.130970 0.393396
vt 0.039558 0.536916
vt 0.098215 0.325123
vt 0.217169 0.314049
vt 0.121624 0.592307
vt 0.233183 0.520595
vt 0.204433 0.237282
vt 0.438763 0.651819
vt 0.133519 0.646226
vt 0.156587 0.656811
vt 0.296056 0.151199
vt 0.472762 0.357382
vt 0.101158 0.647202
vt 0.147795 0.677760
vt 0.280442 0.136348
vt 0.351498 0.216128
vt 0.587558 0.668522
vt 0.221177 0.767720
vt 0.098819 0.713530
vt 0.365542 0.177061
vt 0.575103 0.119566
vt 0.569768 0.736524
vt 0.485056 0.211302
vt 0.436743 0.859397
vt 0.011411 0.712104
vt 0.405335 0.152909
vt 0.659354 0.235845
vt 0.500693 0.744899
vt 0.671283 0.716276
vt 0.392934 0.938866
vt 0.082592 0.595049
vt 0.104534 0.773267
vt 0.359903 0.155142
vt 0.460385 0.158077
vt 0.490872 0.100653
vt 0.735231 0.150856
vt 0.728177 0.244858
vt 0.695164 0.830766
vt 0.715564 0.479412
vt 0.476398 0.908951
vt 0.279720 0.920564
vt 0.542006 0.035614
vt 0.613176 0.081567
vt 0.570792 0.861654
vt 0.696939 0.699829
vt 0.446790 0.988589
vt 0.550995 0.938618
vt 0.565265 0.011410
vt 0.787095 0.165515
vt 0.750101 0.245717
vt 0.781730 0.812936
vt 0.724971 0.599130
vt 0.510288 0.957677
vt 0.787736 0.100543
vt 0.764394 0.304902
vt 0.793412 0.739782
vt 0.761021 0.581927
vt 0.791737 0.649255
vt 0.864242 0.078340
vt 0.697467 0.087677
vt 0.789320 0.472664
vt 0.862546 0.186551
vt 0.753859 0.037863
vt 0.826403 0.367896
vt 0.849073 0.263991
vt 0.841913 0.163900
vt 0.862506 0.752296
vt 0.862506 0.714137
vt 0.894689 0.673167
vt 0.895093 0.726043
vt 0.895093 0.684445
vt 0.927276 0.708084
vt 0.812667 0.745482
vt 0.812683 0.664961
vt 0.844851 0.742914
vt 0.964883 0.733574
vt 0.943014 0.650090
vt 0.988590 0.718256
vt 0.854840 0.603821
vt 0.854840 0.474131
vt 0.904305 0.556820
vt 0.920526 0.437085
vt 0.833753 0.699590
vt 0.833753 0.591305
vt 0.893615 0.666358
vt 0.804999 0.538517
vt 0.804999 0.452958
vt 0.863443 0.451342
vt 0.859195 0.371141
vt 0.988276 0.444450
vt 0.988276 0.608344
vt 0.944930 0.497285
vt 0.803084 0.545883
vt 0.846495 0.521523
vt 0.803084 0.674365
vt 0.953836 0.538531
vt 0.953836 0.656649
vt 0.910427 0.542218
vt 0.922687 0.695891
vt 0.879759 0.643738
vt 0.937675 0.640998
vt 0.879759 0.585606
vt 0.870173 0.343526
vt 0.870173 0.231391
vt 0.912936 0.351822
vt 0.942311 0.242559
vt 0.870173 0.456590
vt 0.936247 0.175231
vt 0.870173 0.118768
vt 0.913418 0.084704
vt 0.870173 0.066879
vt 0.870173 0.011550
vn -0.718128 -0.159512 0.677383
vn -0.718128 -0.159512 0.677383
vn -0.718128 -0.159512 0.677383
vn -0.885767 0.020642 0.463671
vn -0.885767 0.020642 0.463671
vn -0.885767 0.020642 0.463671
vn -0.622153 0.525733 0.580112
vn -0.622153 0.525733 0.580112
vn -0.622153 0.525733 0.580112
vn -0.376501 0.926316 -0.013595
vn -0.376501 0.926316 -0.013595
vn -0.376501 0.926316 -0.013595
vn -0.445022 0.862793 -0.239885
vn -0.445022 0.862793 -0.239885
vn -0.445022 0.862793 -0.239885
vn -0.498691 0.861535 0.095211
vn -0.498691 0.861535 0.095211
vn -0.498691 0.861535 0.095211
vn -0.625463 0.448456 0.638500
vn -0.625463 0.448456 0.638500
vn -0.625463 0.448456 0.638500
vn -0.639006 0.493689 0.589867
vn -0.639006 0.493690 0.589867
vn -0.639006 0.493690 0.589867
vn -0.492399 0.675072 0.549382
vn -0.492399 0.675073 0.549382
vn -0.492399 0.675072 0.549382
vn -0.620576 0.507300 0.597940
vn -0.620576 0.507300 0.597940
vn -0.620576 0.507300 0.597940
vn -0.615169 0.509640 0.601527
vn -0.615169 0.509640 0.601527
vn -0.615169 0.509640 0.601527
vn 0.395358 0.529693 0.750412
vn 0.395358 0.529693 0.750412
vn 0.395358 0.529693 0.750412
vn 0.426229 0.775836 0.465196
vn 0.426229 0.775836 0.465196
vn 0.426229 0.775836 0.465196
vn 0.473750 0.230621 0.849927
vn 0.473750 0.230621 0.849927
vn 0.473750 0.230621 0.849927
vn 0.602065 0.727180 0.329737
vn 0.602065 0.727180 0.329737
vn 0.602065 0.727180 0.329737
vn -0.020885 0.909962 0.414166
vn -0.020885 0.909962 0.414166
vn -0.020885 0.909962 0.414166
vn 0.013877 0.866149 0.499593
vn 0.013877 0.866149 0.499593
vn 0.013877 0.866149 0.499593
vn -0.461231 0.844764 0.271366
vn -0.461231 0.844764 0.271366
vn -0.461231 0.844764 0.271366
vn -0.006329 0.847371 0.530963
vn -0.006329 0.847371 0.530963
vn -0.006329 0.847371 0.530963
vn -0.006329 0.847371 0.530963
vn -0.389765 0.844416 0.367485
vn -0.389765 0.844416 0.367485
vn -0.389765 0.844416 0.367485
vn -0.440345 0.831070 0.339733
vn -0.440345 0.831070 0.339733
vn -0.440345 0.831070 0.339733
vn -0.320977 0.865826 0.383823
vn -0.320977 0.865826 0.383823
vn -0.320977 0.865826 0.383823
vn 0.404505 0.602700 0.687843
vn 0.404505 0.602700 0.687843
vn 0.404505 0.602700 0.687843
vn 0.273183 0.625497 0.730838
vn 0.273183 0.625497 0.730838
vn 0.273183 0.625497 0.730838
vn -0.434294 0.760699 0.482417
vn -0.434294 0.760699 0.482417
vn -0.434294 0.760699 0.482417
vn 0.719506 0.669611 -0.184211
vn 0.719506 0.669610 -0.184211
vn 0.719506 0.669610 -0.184211
vn 0.689419 0.636867 -0.345110
vn 0.689419 0.636867 -0.345110
vn 0.689419 0.636867 -0.345110
vn 0.620222 0.784097 -0.022716
vn 0.620222 0.784097 -0.022716
vn 0.620222 0.784097 -0.022716
vn 0.499905 0.861867 -0.085325
vn 0.499905 0.861867 -0.085325
vn 0.499905 0.861867 -0.085325
vn 0.447174 0.893928 -0.030471
vn 0.447174 0.893928 -0.030471
vn 0.447174 0.893928 -0.030471
vn 0.298521 0.916347 0.266821
vn 0.298521 0.916347 0.266821
vn 0.298521 0.916347 0.266821
vn 0.507594 0.854718 -0.108649
vn 0.507594 0.854718 -0.108649
vn 0.507594 0.854718 -0.108649
vn 0.640332 0.763558 0.083390
vn 0.640332 0.763558 0.083390
vn 0.640332 0.763558 0.083390
vn -0.384708 0.841617 -0.379052
vn -0.384708 0.841617 -0.379052
vn -0.384708 0.841617 -0.379052
vn -0.328188 0.516823 -0.790687
vn -0.328188 0.516823 -0.790687
vn -0.328188 0.516823 -0.790688
vn -0.913559 0.139350 -0.382089
vn -0.913558 0.139350 -0.382089
vn -0.913558 0.139350 -0.382089
vn -0.137737 0.482764 -0.864851
vn -0.137737 0.482764 -0.864851
vn -0.137737 0.482764 -0.864851
vn -0.260238 0.774375 -0.576732
vn -0.260238 0.774375 -0.576732
vn -0.260238 0.774375 -0.576732
vn -0.185862 0.892012 -0.412032
vn -0.185861 0.892012 -0.412032
vn -0.185862 0.892012 -0.412032
vn -0.605475 0.709187 0.361183
vn -0.605475 0.709187 0.361183
vn -0.605475 0.709187 0.361183
vn -0.822740 0.547049 0.154392
vn -0.822740 0.547049 0.154392
vn -0.822740 0.547049 0.154392
vn -0.566507 0.823946 -0.013503
vn -0.566507 0.823946 -0.013503
vn -0.566507 0.823946 -0.013503
vn -0.375770 0.737440 -0.561230
vn -0.375769 0.737440 -0.561230
vn -0.375770 0.737440 -0.561230
vn -0.444590 0.895462 0.022076
vn -0.444590 0.895462 0.022076
vn -0.444590 0.895462 0.022076
vn -0.567189 0.823184 0.025774
vn -0.567189 0.823184 0.025774
vn -0.567189 0.823184 0.025774
vn -0.451569 0.890595 -0.054085
vn -0.451569 0.890595 -0.054085
vn -0.451569 0.890595 -0.054085
vn -0.701855 0.497611 -0.509690
vn -0.701855 0.497611 -0.509690
vn -0.701855 0.497611 -0.509690
vn -0.334894 0.930440 -0.148751
vn -0.334894 0.930440 -0.148751
vn -0.334894 0.930440 -0.148751
vn -0.486530 0.856655 0.171557
vn -0.486530 0.856655 0.171557
vn -0.486530 0.856655 0.171557
vn 0.931665 0.332604 0.146202
vn 0.931665 0.332604 0.146203
vn 0.931665 0.332604 0.146202
vn 0.752603 0.658240 -0.017592
vn 0.752603 0.658240 -0.017592
vn 0.752603 0.658240 -0.017592
vn 0.908829 0.384609 -0.161574
vn 0.908829 0.384609 -0.161574
vn 0.908829 0.384609 -0.161574
vn 0.888297 0.458248 0.030628
vn 0.888297 0.458248 0.030628
vn 0.888296 0.458248 0.030628
vn 0.745367 0.604945 0.280123
vn 0.745367 0.604945 0.280123
vn 0.745367 0.604945 0.280123
vn 0.724442 0.540995 -0.427210
vn 0.724442 0.540995 -0.427210
vn 0.724442 0.540995 -0.427210
vn -0.032260 0.866797 -0.497617
vn -0.032260 0.866797 -0.497617
vn -0.032260 0.866797 -0.497617
vn 0.839267 0.504243 -0.203395
vn 0.839267 0.504243 -0.203395
vn 0.839267 0.504243 -0.203395
vn 0.822319 0.555672 -0.122556
vn 0.822319 0.555672 -0.122556
vn 0.822319 0.555672 -0.122556
vn 0.089532 0.900149 -0.426281
vn 0.089532 0.900149 -0.426281
vn 0.089532 0.900149 -0.426281
vn 0.185708 0.887556 -0.421613
vn 0.185708 0.887556 -0.421613
vn 0.185708 0.887556 -0.421613
vn 0.016809 0.889275 -0.457065
vn 0.016809 0.889275 -0.457065
vn 0.016809 0.889275 -0.457065
vn 0.095625 0.920949 -0.377769
vn 0.095625 0.920949 -0.377769
vn 0.095625 0.920949 -0.377769
vn 0.103278 0.925724 -0.363826
vn 0.103278 0.925724 -0.363826
vn 0.103278 0.925724 -0.363826
vn 0.485081 0.865858 -0.122417
vn 0.485081 0.865858 -0.122417
vn 0.485081 0.865858 -0.122417
vn 0.611441 0.788345 -0.068209
vn 0.611441 0.788345 -0.068209
vn 0.611441 0.788345 -0.068209
vn 0.313043 0.701379 -0.640368
vn 0.313043 0.701379 -0.640368
vn 0.313043 0.701379 -0.640368
vn 0.313043 0.701379 -0.640368
vn 0.061010 0.789670 -0.610492
vn 0.061010 0.789670 -0.610492
vn 0.061010 0.789670 -0.610492
vn -0.081559 0.992196 -0.094314
vn -0.081559 0.992196 -0.094314
vn -0.081559 0.992196 -0.094314
vn -0.338975 0.920772 0.193067
vn -0.338975 0.920772 0.193067
vn -0.338975 0.920772 0.193067
vn -0.336575 0.934150 0.118667
vn -0.336575 0.934150 0.118667
vn -0.336575 0.934150 0.118667
vn -0.145626 0.986769 -0.071280
vn -0.145626 0.986769 -0.071280
vn -0.145626 0.986769 -0.071280
vn -0.028979 0.997589 -0.063068
vn -0.028979 0.997589 -0.063068
vn -0.028979 0.997588 -0.063068
vn -0.108399 0.980421 0.164392
vn -0.108399 0.980421 0.164392
vn -0.108399 0.980421 0.164392
vn 0.261153 0.965210 -0.012974
vn 0.261153 0.965210 -0.012974
vn 0.261153 0.965210 -0.012974
vn 0.176138 0.978627 0.106140
vn 0.176138 0.978627 0.106140
vn 0.176138 0.978627 0.106140
vn 0.169873 0.983284 0.065549
vn 0.169873 0.983284 0.065549
vn 0.169873 0.983284 0.065549
vn 0.051741 0.998660 0.000515
vn 0.051741 0.998660 0.000515
vn 0.051741 0.998660 0.000515
vn -0.234914 0.971718 0.024054
vn -0.234914 0.971718 0.024054
vn -0.234914 0.971718 0.024054
vn 0.049432 0.995548 0.080249
vn 0.049432 0.995548 0.080249
vn 0.049432 0.995548 0.080249
vn -0.463772 0.843453 0.271113
vn -0.463772 0.843454 0.271113
vn -0.463772 0.843453 0.271113
vn -0.175694 0.984443 -0.001930
vn -0.175694 0.984443 -0.001930
vn -0.175694 0.984443 -0.001930
vn 0.369357 0.533616 0.760809
vn 0.369357 0.533616 0.760809
vn 0.369357 0.533616 0.760809
vn -0.420343 0.746860 0.515278
vn -0.420343 0.746860 0.515278
vn -0.420343 0.746860 0.515278
vn -0.055028 0.989694 0.132203
vn -0.055028 0.989694 0.132203
vn -0.055028 0.989694 0.132203
vn 0.015543 0.999227 -0.036102
vn -0.105332 0.986994 -0.121443
vn 0.041514 0.998982 -0.017630
vn 0.132010 0.990995 -0.022416
vn 0.132010 0.990995 -0.022416
vn 0.132010 0.990995 -0.022416
vn 0.114912 0.990042 -0.081309
vn 0.114912 0.990042 -0.081309
vn 0.114912 0.990042 -0.081309
vn -0.175093 0.982757 -0.059428
vn -0.164766 0.986084 0.022154
vn -0.163745 0.986054 0.029762
vn 0.191778 0.971780 -0.137347
vn 0.191778 0.971780 -0.137347
vn 0.191778 0.971780 -0.137347
vn 0.493089 0.869833 -0.015915
vn 0.493089 0.869834 -0.015915
vn 0.493089 0.869833 -0.015915
vn 0.200103 0.979200 0.033549
vn 0.200103 0.979200 0.033549
vn 0.200103 0.979200 0.033549
vn 0.336582 0.940934 0.036811
vn 0.336582 0.940934 0.036811
vn 0.336582 0.940934 0.036811
vn -0.202781 0.977693 0.054736
vn -0.202781 0.977693 0.054736
vn -0.202781 0.977693 0.054736
vn -0.162212 0.985684 -0.045986
vn -0.035997 0.992142 -0.119831
vn -0.069905 0.997517 -0.008556
vn -0.452147 0.890283 -0.054393
vn -0.452147 0.890283 -0.054393
vn -0.452147 0.890283 -0.054393
vn -0.188396 0.967348 0.169545
vn -0.188396 0.967348 0.169545
vn -0.188396 0.967348 0.169545
vn -0.188396 0.967348 0.169545
vn 0.057253 0.995938 0.069491
vn 0.057253 0.995938 0.069491
vn 0.057253 0.995938 0.069491
vn -0.062501 0.997340 0.037513
vn -0.062501 0.997340 0.037513
vn -0.062501 0.997340 0.037513
vn 0.321654 0.932504 0.164243
vn 0.321654 0.932504 0.164243
vn 0.321654 0.932504 0.164243
vn 0.028054 0.996749 -0.075529
vn 0.028054 0.996749 -0.075529
vn 0.028054 0.996749 -0.075529
vn -0.017659 0.999675 0.018391
vn -0.017659 0.999675 0.018391
vn -0.017659 0.999675 0.018391
vn 0.098071 0.966468 -0.237323
vn 0.098071 0.966468 -0.237323
vn 0.098071 0.966468 -0.237323
vn 0.016966 0.995805 -0.089912
vn 0.016966 0.995805 -0.089912
vn 0.016966 0.995805 -0.089912
vn -0.288215 0.957560 -0.003297
vn -0.288215 0.957560 -0.003297
vn -0.288215 0.957560 -0.003297
vn -0.092299 0.995529 -0.020084
vn -0.092299 0.995529 -0.020084
vn -0.092299 0.995529 -0.020084
vn -0.087050 0.995981 -0.021063
vn -0.087050 0.995981 -0.021063
vn -0.087050 0.995981 -0.021063
vn -0.084105 0.996440 -0.005865
vn -0.084105 0.996440 -0.005865
vn -0.084105 0.996440 -0.005865
vn 0.062476 0.998041 0.003184
vn 0.062476 0.998041 0.003184
vn 0.062476 0.998041 0.003184
vn 0.036165 0.998668 -0.036792
vn 0.036165 0.998668 -0.036792
vn 0.036165 0.998668 -0.036792
vn 0.310873 0.950235 -0.020305
vn 0.310873 0.950235 -0.020305
vn 0.310873 0.950234 -0.020305
vn 0.160392 0.984736 0.067593
vn 0.160392 0.984736 0.067593
vn 0.160392 0.984736 0.067593
vn -0.075938 0.943643 -0.322136
vn -0.075938 0.943643 -0.322136
vn -0.075938 0.943643 -0.322136
vn -0.069905 0.997517 -0.008556
vn -0.035997 0.992142 -0.119831
vn 0.058893 0.967156 -0.247268
vn -0.162212 0.985684 -0.045986
vn -0.237647 0.942669 -0.234308
vn -0.035997 0.992142 -0.119831
vn 0.058893 0.967156 -0.247268
vn -0.035997 0.992142 -0.119831
vn 0.019868 0.963106 -0.268386
vn -0.163745 0.986054 0.029762
vn -0.164766 0.986084 0.022154
vn -0.162161 0.985895 0.041415
vn 0.015543 0.999227 -0.036102
vn 0.041514 0.998982 -0.017630
vn 0.071270 0.997451 0.003593
s off
f 11/1/1 34/2/2 36/3/3
f 34/2/4 35/4/5 36/3/6
f 36/3/7 35/4/8 6/5/9
f 3/8/10 11/9/11 37/10/12
f 37/10/13 11/9/14 12/11/15
f 11/9/16 36/13/17 12/11/18
f 13/77/19 38/78/20 40/79/21
f 38/80/22 39/81/23 40/82/24
f 40/25/25 1/21/26 6/17/27
f 13/6/28 40/7/29 6/5/30
f 35/4/31 13/6/32 6/5/33
f 39/83/34 2/84/35 40/85/36
f 2/43/37 41/30/38 40/25/39
f 40/86/40 41/87/41 1/88/42
f 1/21/43 41/30/44 14/26/45
f 2/43/46 9/36/47 41/30/48
f 9/36/49 43/44/50 72/33/51
f 43/44/52 42/45/53 72/33/54
f 41/30/55 9/36/56 72/33/57 14/26/58
f 7/52/59 44/58/60 73/31/61
f 42/45/62 7/52/63 73/31/64
f 44/58/65 27/53/66 73/31/67
f 44/89/68 45/90/69 27/91/70
f 15/93/71 46/94/72 16/95/73
f 45/70/74 15/73/75 16/64/76
f 46/96/77 26/97/78 47/98/79
f 26/97/80 51/99/81 47/98/82
f 46/69/83 47/59/84 16/64/85
f 48/72/86 30/75/87 50/65/88
f 48/72/89 50/65/90 51/60/91
f 26/76/92 48/72/93 51/60/94
f 30/75/95 63/74/96 50/65/97
f 63/74/98 49/71/99 50/65/100
f 53/51/101 55/28/102 56/40/103
f 52/100/104 53/101/105 56/102/106
f 54/103/107 55/104/108 53/105/109
f 54/106/110 57/107/111 55/108/112
f 57/42/113 61/29/114 55/28/115
f 55/28/116 61/29/117 58/24/118
f 59/35/119 31/41/120 17/23/121
f 17/109/122 31/110/123 60/111/124
f 17/23/125 60/15/126 62/19/127
f 57/42/128 59/35/129 61/29/130
f 59/35/131 17/23/132 61/29/133
f 61/29/134 17/23/135 62/19/136
f 61/29/137 62/19/138 58/24/139
f 31/110/140 10/112/141 60/111/142
f 10/12/143 3/8/144 37/10/145
f 10/12/146 37/10/147 60/15/148
f 64/113/149 65/114/150 49/115/151
f 49/115/152 65/114/153 75/116/154
f 63/117/155 64/113/156 49/115/157
f 65/114/158 18/119/159 19/118/160
f 65/114/161 19/118/162 75/116/163
f 66/121/164 5/122/165 67/120/166
f 5/61/167 20/55/168 67/66/169
f 18/119/170 66/121/171 67/120/172
f 18/119/173 67/120/174 19/118/175
f 5/61/176 33/48/177 20/55/178
f 33/48/179 21/39/180 20/55/181
f 33/48/182 8/32/183 21/39/184
f 33/48/185 4/54/186 68/38/187
f 33/48/188 68/38/189 8/32/190
f 4/54/191 32/57/192 68/38/193
f 32/57/194 70/50/195 68/38/196
f 32/57/197 69/63/198 52/56/199 70/50/200
f 52/56/201 56/40/202 70/50/203
f 37/10/204 12/11/205 71/14/206
f 12/11/207 36/13/208 71/14/209
f 36/13/210 6/17/211 71/14/212
f 37/10/213 71/14/214 25/16/215
f 25/16/216 71/14/217 24/18/218
f 6/17/219 1/21/220 71/14/221
f 1/21/222 14/26/223 71/14/224
f 71/14/225 14/26/226 74/22/227
f 74/22/228 24/18/229 71/14/230
f 14/26/231 72/33/232 74/22/233
f 72/33/234 73/31/235 74/22/236
f 74/22/237 28/27/238 24/18/239
f 42/45/240 73/31/241 72/33/242
f 74/22/243 73/31/244 28/27/245
f 27/91/246 45/90/247 22/92/248
f 45/70/249 16/64/250 22/46/251
f 27/53/252 22/46/253 73/31/254
f 73/31/255 22/46/256 79/37/257
f 16/64/258 47/59/259 22/46/260
f 22/46/261 47/59/262 78/47/263
f 22/46/264 78/47/265 79/37/266
f 47/59/267 51/60/268 78/47/269
f 50/65/270 76/49/271 51/60/272
f 51/60/273 76/49/274 78/47/275
f 50/65/276 49/71/277 76/49/278
f 78/47/279 76/49/280 28/27/281
f 23/34/282 55/28/283 24/18/284
f 58/24/285 62/19/286 29/20/287
f 62/19/288 60/15/289 25/16/290 29/20/291
f 29/20/292 25/16/293 24/18/294
f 60/15/295 37/10/296 25/16/297
f 49/71/298 75/67/299 76/49/300
f 19/68/301 77/62/302 75/67/303
f 75/67/304 77/62/305 76/49/306
f 19/68/307 67/66/308 20/55/309
f 19/68/310 20/55/311 77/62/312
f 20/55/313 76/49/314 77/62/315
f 21/39/316 28/27/317 76/49/318
f 20/55/319 21/39/320 76/49/321
f 21/39/322 8/32/323 28/27/324
f 8/32/325 68/38/326 24/18/327
f 8/32/328 24/18/329 28/27/330
f 68/38/331 70/50/332 23/34/333
f 68/38/334 23/34/335 24/18/336
f 70/50/337 56/40/338 23/34/339
f 24/18/340 55/28/341 29/20/342
f 23/34/343 56/40/344 55/28/345
f 29/20/346 55/28/347 58/24/348
f 79/37/349 78/47/350 28/27/351
f 73/31/352 79/37/353 28/27/354
