# This file uses centimeters as units for non-parametric coordinates.

v 4.342180 0.657325 26.857040
v 7.316829 0.160157 25.960342
v 4.651186 3.715753 26.186304
v 7.625877 3.218658 25.289757
v -2.678980 0.046434 -8.391662
v -2.191357 -3.011237 -7.832488
v 1.052812 -2.562000 -7.073552
v 8.086721 1.400702 -29.933552
v 7.795290 -1.034540 -30.350761
v 5.512686 -0.391958 -43.510891
v 3.549896 -0.153233 -43.598480
v 3.360663 -1.693768 -43.871010
v 5.300292 -1.940282 -43.666077
v -1.739798 0.587823 -5.252249
v -1.621535 -2.370921 -4.613597
v 0.749805 0.446123 -7.672444
v -4.275403 -4.235579 -7.254342
v -5.251508 -3.911111 -5.223885
v -5.462561 -1.907267 -5.698111
v -4.734437 -2.214207 -7.825607
v 7.785674 1.258205 -27.767872
v 4.982389 1.799414 -28.584093
v 4.849513 -0.613587 -29.308960
v 7.516806 -0.968804 -28.156857
v 10.522581 -0.836805 -30.759056
v 10.812035 0.453191 -30.353975
v 9.687017 -0.303293 -31.689466
v 9.989157 0.977786 -31.332846
v 5.360116 -0.452405 -46.054855
v 3.397290 -0.213656 -46.142521
v 3.208067 -1.754194 -46.414974
v 5.147676 -2.000702 -46.210190
v 9.815290 -1.467033 -61.350334
v 9.007833 -1.368844 -61.386387
v 8.930008 -2.002555 -61.498474
v 9.727898 -2.103970 -61.414227
v -0.408692 -0.540797 -47.535179
v -0.340614 -1.583585 -47.757408
v 0.501243 -0.544581 -48.203949
v 0.569287 -1.587373 -48.426144
vt 0.323953 0.014319
vt 0.360527 0.024240
vt 0.275985 0.388787
vt 0.245376 0.362022
vt 0.233828 0.396744
vt 0.362493 0.611036
vt 0.328026 0.620066
vt 0.208558 0.390484
vt 0.199605 0.366950
vt 0.366194 0.634987
vt 0.399700 0.639635
vt 0.389585 0.650466
vt 0.334545 0.785151
vt 0.310413 0.786119
vt 0.332669 0.813281
vt 0.308537 0.814257
vt 0.387446 0.982448
vt 0.377519 0.982845
vt 0.272928 0.837050
vt 0.261742 0.829658
vt 0.056042 0.640535
vt 0.088923 0.613328
vt 0.165938 0.978671
vt 0.129367 0.988589
vt 0.049035 0.604935
vt 0.135605 0.367414
vt 0.168399 0.380153
vt 0.011411 0.633787
vt 0.023412 0.611329
vt 0.171821 0.355891
vt 0.117298 0.206361
vt 0.141144 0.208630
vt 0.195082 0.341085
vt 0.205356 0.351376
vt 0.115422 0.178227
vt 0.139269 0.180493
vt 0.071791 0.163381
vt 0.082979 0.155983
vt 0.185773 0.011410
vt 0.195584 0.012340
vt 0.440655 0.612468
vt 0.407192 0.247128
vt 0.444175 0.240503
vt 0.478266 0.605050
vt 0.426779 0.013950
vt 0.454156 0.018254
vt 0.537186 0.361885
vt 0.574416 0.013833
vt 0.612019 0.021251
vt 0.573563 0.368952
vt 0.484804 0.014043
vt 0.522400 0.020226
vt 0.543952 0.243547
vt 0.514284 0.251563
vt 0.519943 0.409601
vt 0.501004 0.412617
vt 0.515180 0.453139
vt 0.502359 0.455596
vt 0.979542 0.022537
vt 0.980756 0.013604
vt 0.987333 0.023395
vt 0.988590 0.014566
vt 0.661762 0.362829
vt 0.631819 0.358214
vt 0.620682 0.210949
vt 0.639718 0.212665
vt 0.619944 0.182812
vt 0.638981 0.184535
vt 0.618672 0.014665
vt 0.626500 0.015368
vt 0.878655 0.035824
vt 0.882644 0.013365
vt 0.907282 0.018612
vt 0.903506 0.042139
vt 0.739624 0.030265
vt 0.738169 0.062987
vt 0.692399 0.035393
vt 0.694993 0.013230
vt 0.768114 0.014462
vt 0.774109 0.048268
vt 0.748486 0.061817
vt 0.742844 0.039453
vt 0.940738 0.028339
vt 0.945725 0.014072
vt 0.957158 0.019972
vt 0.952779 0.034141
vt 0.851709 0.047149
vt 0.824329 0.050123
vt 0.825951 0.016879
vt 0.841812 0.013680
vt 0.911637 0.040415
vt 0.915222 0.013487
vt 0.938613 0.018155
vt 0.934898 0.032328
vt 0.816275 0.014625
vt 0.820077 0.048450
vt 0.783503 0.053947
vt 0.779705 0.020122
vt 0.962917 0.025527
vt 0.962080 0.013994
vt 0.973266 0.014033
vt 0.974105 0.025566
vt 0.668295 0.016426
vt 0.687235 0.013412
vt 0.673029 0.182004
vt 0.665238 0.183243
vt 0.857312 0.013370
vt 0.876248 0.015463
vt 0.874196 0.044654
vt 0.861374 0.045408
vn 0.054113 0.993296 -0.102155
vn 0.054113 0.993296 -0.102155
vn 0.047462 0.993418 -0.104253
vn 0.050596 0.993366 -0.103265
vn -0.057902 -0.993096 0.102014
vn -0.054255 -0.993108 0.103889
vn -0.061463 -0.993069 0.100181
vn -0.061463 -0.993069 0.100181
vn 0.980570 -0.041114 -0.191812
vn 0.998864 -0.023776 -0.041306
vn 0.999792 -0.017759 0.010051
vn 0.980570 -0.041114 -0.191812
vn -0.980048 0.071430 0.185481
vn -0.980048 0.071430 0.185481
vn -0.980048 0.071430 0.185481
vn -0.980048 0.071430 0.185481
vn 0.006429 0.997807 0.065874
vn 0.006429 0.997807 0.065874
vn 0.013019 0.997681 0.066810
vn 0.009488 0.997754 0.066309
vn 0.999792 -0.017759 0.010051
vn 0.998864 -0.023776 -0.041306
vn 0.949748 0.018722 0.312455
vn 0.949748 0.018722 0.312455
vn 0.041747 -0.995909 -0.080140
vn 0.041747 -0.995909 -0.080140
vn 0.037809 -0.996226 -0.078132
vn 0.035832 -0.996378 -0.077124
vn -0.940208 -0.050767 -0.336795
vn -0.940208 -0.050767 -0.336795
vn -0.970532 -0.025562 -0.239613
vn -0.984954 -0.008412 -0.172610
vn 0.064140 0.166169 -0.984009
vn 0.064140 0.166169 -0.984009
vn 0.064140 0.166169 -0.984009
vn 0.115132 0.083496 -0.989835
vn 0.115132 0.083496 -0.989835
vn 0.115132 0.083496 -0.989835
vn 0.088769 0.985937 -0.141590
vn 0.088769 0.985937 -0.141590
vn 0.088769 0.985937 -0.141590
vn 0.088769 0.985937 -0.141590
vn -0.984954 -0.008412 -0.172610
vn -0.970532 -0.025562 -0.239613
vn -0.994060 0.057712 0.092268
vn -0.994060 0.057712 0.092268
vn 0.979645 -0.098793 -0.174742
vn 0.979645 -0.098793 -0.174742
vn 0.979645 -0.098793 -0.174742
vn 0.979645 -0.098793 -0.174742
vn -0.120099 -0.988889 0.087609
vn -0.120099 -0.988889 0.087609
vn -0.120099 -0.988889 0.087609
vn -0.120099 -0.988889 0.087609
vn -0.910656 -0.239115 -0.336942
vn -0.910656 -0.239115 -0.336942
vn -0.910656 -0.239115 -0.336942
vn -0.910656 -0.239115 -0.336942
vn 0.093944 -0.979497 0.178215
vn -0.054255 -0.993108 0.103889
vn -0.057902 -0.993096 0.102014
vn 0.050596 0.993366 -0.103265
vn 0.047462 0.993418 -0.104253
vn -0.084565 0.985854 -0.144711
vn 0.426241 -0.883270 0.195327
vn 0.426241 -0.883270 0.195327
vn 0.426241 -0.883270 0.195327
vn 0.426241 -0.883270 0.195327
vn -0.244352 0.196719 0.949523
vn -0.244352 0.196719 0.949523
vn -0.244352 0.196719 0.949523
vn -0.244352 0.196719 0.949523
vn -0.633629 0.767378 -0.098209
vn -0.633629 0.767378 -0.098209
vn -0.633629 0.767378 -0.098209
vn -0.633629 0.767378 -0.098209
vn -0.074675 -0.229888 -0.970348
vn -0.074675 -0.229888 -0.970348
vn -0.074675 -0.229888 -0.970348
vn -0.074675 -0.229888 -0.970348
vn 0.009488 0.997754 0.066309
vn 0.013019 0.997681 0.066810
vn 0.164221 0.982537 0.087477
vn 0.035832 -0.996378 -0.077124
vn 0.037809 -0.996226 -0.078132
vn -0.137202 -0.990467 0.012262
vn 0.759697 0.017776 -0.650035
vn 0.759697 0.017776 -0.650035
vn 0.759697 0.017776 -0.650035
vn 0.759697 0.017776 -0.650035
vn 0.611519 -0.265374 0.745401
vn 0.611519 -0.265374 0.745401
vn 0.611519 -0.265374 0.745401
vn 0.611519 -0.265374 0.745400
vn 0.048129 -0.986538 -0.156287
vn 0.048129 -0.986538 -0.156287
vn 0.048129 -0.986538 -0.156287
vn 0.048129 -0.986538 -0.156287
vn -0.579494 0.253815 -0.774444
vn -0.579494 0.253815 -0.774445
vn -0.579494 0.253815 -0.774444
vn -0.579494 0.253815 -0.774444
vn 0.344337 0.928378 0.139806
vn 0.344337 0.928378 0.139806
vn 0.344337 0.928378 0.139806
vn 0.344337 0.928378 0.139806
vn 0.310688 0.173534 0.934537
vn 0.310688 0.173534 0.934537
vn 0.310688 0.173534 0.934537
vn 0.310688 0.173534 0.934537
vn 0.122041 0.992044 -0.030887
vn 0.122041 0.992044 -0.030887
vn 0.122041 0.992044 -0.030887
vn 0.122041 0.992044 -0.030887
vn -0.586682 0.131969 -0.798992
vn -0.586682 0.131969 -0.798992
vn -0.586682 0.131969 -0.798992
vn -0.586682 0.131969 -0.798992
vn 0.989894 -0.130163 -0.056283
vn 0.989894 -0.130163 -0.056283
vn 0.989894 -0.130163 -0.056283
vn 0.989894 -0.130163 -0.056283
vn -0.129269 -0.991116 0.031294
vn -0.129269 -0.991116 0.031294
vn -0.129269 -0.991116 0.031294
vn -0.129269 -0.991116 0.031294
vn 0.122013 0.992067 -0.030271
vn 0.122013 0.992067 -0.030271
vn 0.122013 0.992067 -0.030271
vn 0.122013 0.992067 -0.030271
vn -0.919572 0.175151 -0.351724
vn -0.919572 0.175151 -0.351724
vn -0.919572 0.175151 -0.351724
vn -0.919572 0.175151 -0.351724
vn 0.945118 -0.158350 0.285793
vn 0.945118 -0.158350 0.285793
vn 0.945118 -0.158350 0.285793
vn 0.945118 -0.158350 0.285793
vn -0.122877 -0.991960 -0.030280
vn -0.122877 -0.991960 -0.030280
vn -0.122877 -0.991960 -0.030280
vn -0.122877 -0.991960 -0.030280
vn -0.709130 -0.100403 0.697893
vn -0.709130 -0.100403 0.697893
vn -0.709130 -0.100403 0.697893
vn -0.709130 -0.100403 0.697893
vn -0.072159 0.996709 -0.036928
vn -0.072159 0.996709 -0.036928
vn -0.072159 0.996709 -0.036928
vn -0.072159 0.996709 -0.036928
vn 0.585524 0.125873 -0.800823
vn 0.585524 0.125874 -0.800823
vn 0.585524 0.125873 -0.800823
vn 0.585524 0.125873 -0.800823
vn -0.051015 -0.998666 0.007936
vn -0.051015 -0.998666 0.007936
vn -0.051015 -0.998666 0.007936
vn -0.051015 -0.998666 0.007936
s off
f 3/1/1 4/2/2 16/3/3 14/4/4
f 15/21/5 7/22/6 2/23/7 1/24/8
f 2/41/9 7/42/10 16/43/11 4/44/12
f 15/47/13 1/48/14 3/49/15 14/50/16
f 5/5/17 16/3/18 21/6/19 22/7/20
f 16/43/21 7/42/22 24/45/23 21/46/24
f 7/22/25 6/25/26 23/26/27 24/27/28
f 6/51/29 5/52/30 22/53/31 23/54/32
f 34/59/33 33/60/34 35/61/35
f 33/60/36 36/62/37 35/61/38
f 22/7/39 8/10/40 10/13/41 11/14/42
f 23/54/43 22/53/44 11/55/45 12/56/46
f 8/63/47 9/64/48 13/65/49 10/66/50
f 9/30/51 23/26/52 12/31/53 13/32/54
f 17/71/55 18/72/56 19/73/57 20/74/58
f 6/25/59 7/22/60 15/21/61
f 14/4/62 16/3/63 5/5/64
f 6/25/65 15/21/66 18/28/67 17/29/68
f 15/75/69 14/76/70 19/77/71 18/78/72
f 14/4/73 5/5/74 20/8/75 19/9/76
f 5/79/77 6/80/78 17/81/79 20/82/80
f 22/7/81 21/6/82 8/10/83
f 24/27/84 23/26/85 9/30/86
f 26/83/87 25/84/88 27/85/89 28/86/90
f 21/87/91 24/88/92 25/89/93 26/90/94
f 24/27/95 9/30/96 27/33/97 25/34/98
f 9/91/99 8/92/100 28/93/101 27/94/102
f 8/10/103 21/6/104 26/11/105 28/12/106
f 2/95/107 4/96/108 3/97/109 1/98/110
f 11/14/111 10/13/112 29/15/113 30/16/114
f 38/99/115 37/100/116 39/101/117 40/102/118
f 10/66/119 13/65/120 32/67/121 29/68/122
f 13/32/123 12/31/124 31/35/125 32/36/126
f 30/16/127 29/15/128 33/17/129 34/18/130
f 31/103/131 30/104/132 34/105/133 35/106/134
f 29/68/135 32/67/136 36/69/137 33/70/138
f 32/36/139 31/35/140 35/39/141 36/40/142
f 12/56/143 11/55/144 37/57/145 38/58/146
f 11/14/147 30/16/148 39/19/149 37/20/150
f 30/107/151 31/108/152 40/109/153 39/110/154
f 31/35/155 12/31/156 38/37/157 40/38/158
