# This file uses centimeters as units for non-parametric coordinates.

v -10.634613 5.882835 11.228561
v -0.712943 11.627579 9.340668
v 1.868629 11.378860 -2.333164
v -8.975220 12.532043 -2.235794
v -30.561821 -4.509164 1.059675
v 15.176392 -4.509164 27.166748
v 14.879608 -4.509164 -24.218750
v -13.575745 0.625610 -10.859680
v 3.713226 2.140236 -16.085815
v 5.984879 -4.509164 -32.060242
v -6.340218 15.992737 7.821655
v -8.778763 17.040253 3.666115
v -1.641035 14.581299 8.469391
v -12.590027 0.656152 15.926361
v -13.954926 -4.509164 30.461121
v -28.900909 -4.509164 15.070343
v 2.781010 1.220417 18.085480
v 25.267792 -4.509164 17.776489
v -4.611397 1.214981 21.525574
v 15.003967 1.510668 0.439131
v -16.261292 6.209564 1.762104
v 0.198936 16.028595 3.511906
v 2.368164 11.911774 3.898048
v -7.041550 15.128326 -2.180099
v -6.422997 16.407776 -1.446962
v -4.244423 14.484406 -4.624748
v -0.628567 16.523743 -0.664330
v 0.933361 14.491653 -1.353407
v 1.284695 11.662292 -4.711342
v -6.916428 11.612701 10.040665
v -9.127045 -4.509164 31.939705
v -17.208099 0.490618 14.756012
v -18.038940 -4.509164 27.980804
v -21.986389 -4.509164 24.908447
v -11.180115 12.758255 4.540062
v -19.397736 2.153206 7.926559
v -2.591133 -4.509164 32.060242
v 12.370300 1.572752 9.333420
v 26.986694 -4.509164 10.788727
v 10.086823 1.293945 15.635681
v 20.629883 -4.509164 23.807526
v -24.717712 -4.509164 -6.686974
v -21.699524 -4.509164 -12.556076
v 6.615829 2.800846 -8.993912
v 11.688995 0.767994 -7.415009
v 30.561829 -4.509164 -4.655457
v 25.885773 -4.509164 -15.019989
v -14.146423 1.123857 -6.819344
v -10.735703 3.210163 -9.164810
v -19.650269 -4.509164 -20.684052
v -14.439774 -4.509164 -26.113129
v -6.206894 -4.509164 -31.037903
v -6.488419 -0.921917 -17.684937
v -4.554749 18.538666 2.442360
v -10.921478 13.476563 1.145887
v -8.605194 17.238617 1.832199
v -10.012054 15.306854 4.528046
v -1.510620 17.479706 0.604892
v 7.088470 -4.509164 29.893486
v -12.800980 4.404449 -2.057838
vt 0.471127 0.695834
vt 0.594155 0.785627
vt 0.560885 0.785465
vt 0.570262 0.830950
vt 0.475393 0.822694
vt 0.619375 0.821753
vt 0.422440 0.740084
vt 0.616785 0.797179
vt 0.608528 0.865697
vt 0.591826 0.875520
vt 0.557930 0.876268
vt 0.451827 0.873882
vt 0.436237 0.969124
vt 0.409003 0.937693
vt 0.714570 0.893878
vt 0.661693 0.902055
vt 0.659427 0.877478
vt 0.691262 0.821792
vt 0.690180 0.946003
vt 0.643327 0.865929
vt 0.752608 0.813111
vt 0.754311 0.918503
vt 0.765826 0.935511
vt 0.776629 0.879549
vt 0.718622 0.988589
vt 0.924670 0.825518
vt 0.928377 0.752581
vt 0.982125 0.747406
vt 0.963232 0.813844
vt 0.921424 0.669080
vt 0.962065 0.682212
vt 0.925123 0.637208
vt 0.988586 0.691444
vt 0.809439 0.579821
vt 0.800821 0.484780
vt 0.681973 0.786186
vt 0.645457 0.777552
vt 0.653532 0.760411
vt 0.597232 0.937259
vt 0.308008 0.430520
vt 0.298868 0.513651
vt 0.148936 0.482764
vt 0.283360 0.563476
vt 0.222030 0.589684
vt 0.237308 0.651569
vt 0.012985 0.543278
vt 0.326472 0.680912
vt 0.104772 0.715604
vt 0.011411 0.455689
vt 0.032284 0.607975
vt 0.233210 0.808267
vt 0.064668 0.662708
vt 0.039697 0.325979
vt 0.416111 0.830520
vt 0.193843 0.383697
vt 0.406940 0.638878
vt 0.075297 0.217586
vt 0.225828 0.285789
vt 0.119145 0.144507
vt 0.197880 0.082354
vt 0.289100 0.059320
vt 0.308100 0.255193
vt 0.424214 0.219902
vt 0.490724 0.011410
vt 0.379061 0.389235
vt 0.526745 0.264323
vt 0.460404 0.395923
vt 0.626030 0.074075
vt 0.746112 0.221564
vt 0.547357 0.332313
vt 0.639943 0.371203
vt 0.365902 0.865638
vt 0.358781 0.957776
vt 0.251501 0.815660
vt 0.011480 0.825079
vt 0.012440 0.727174
vt 0.147343 0.871902
vt 0.011411 0.924145
vt 0.129851 0.741238
vt 0.106276 0.787620
vt 0.011411 0.716061
vt 0.246202 0.979262
vt 0.528086 0.620650
vt 0.568789 0.382641
vt 0.629221 0.542333
vt 0.630947 0.400673
vt 0.705837 0.501890
vt 0.683690 0.393024
vt 0.661566 0.354960
vt 0.811944 0.474421
vt 0.772792 0.298046
vt 0.882821 0.404596
vt 0.947113 0.294273
vt 0.960458 0.130887
vt 0.858088 0.011694
vt 0.936749 0.883827
vt 0.766254 0.677369
vt 0.877480 0.732742
vt 0.741283 0.781633
vt 0.813464 0.782791
vt 0.845169 0.935219
vt 0.808879 0.737787
vt 0.547294 0.740655
vt 0.708446 0.634010
vt 0.748412 0.770731
vt 0.795238 0.484370
vt 0.850763 0.810086
vt 0.899302 0.886871
vt 0.906825 0.945570
vt 0.858890 0.936377
vt 0.980287 0.887072
vt 0.968170 0.926656
vt 0.397123 0.832757
vt 0.397215 0.902142
vt 0.370587 0.853696
vn -0.810937 0.373687 0.450265
vn -0.810937 0.373687 0.450265
vn -0.810937 0.373688 0.450265
vn -0.245808 0.926299 0.285568
vn -0.245808 0.926299 0.285568
vn -0.245808 0.926299 0.285568
vn -0.245808 0.926299 0.285568
vn -0.908926 0.416530 0.018881
vn -0.908926 0.416530 0.018881
vn -0.908926 0.416530 0.018881
vn -0.818221 0.574701 -0.015246
vn -0.818221 0.574701 -0.015246
vn -0.818221 0.574701 -0.015246
vn 0.383389 0.864514 0.325004
vn 0.383389 0.864515 0.325004
vn 0.383389 0.864514 0.325004
vn 0.383389 0.864515 0.325004
vn 0.789004 0.424631 0.444029
vn 0.789004 0.424631 0.444029
vn 0.789004 0.424631 0.444029
vn 0.789004 0.424631 0.444029
vn 0.915836 0.397796 -0.054802
vn 0.915836 0.397796 -0.054802
vn 0.915836 0.397796 -0.054802
vn 0.915836 0.397796 -0.054802
vn -0.673990 0.513362 -0.531222
vn -0.673990 0.513362 -0.531222
vn -0.673990 0.513362 -0.531222
vn -0.655981 0.588116 -0.473085
vn -0.655981 0.588116 -0.473085
vn -0.655981 0.588116 -0.473085
vn -0.230263 0.895825 -0.380100
vn -0.230263 0.895825 -0.380100
vn -0.230263 0.895825 -0.380100
vn -0.445364 0.597367 -0.666936
vn -0.445364 0.597367 -0.666936
vn -0.445364 0.597367 -0.666936
vn 0.697634 0.714450 -0.053553
vn 0.697634 0.714450 -0.053553
vn 0.697634 0.714450 -0.053553
vn 0.776984 0.624423 -0.079946
vn 0.776984 0.624423 -0.079946
vn 0.776984 0.624423 -0.079946
vn 0.923141 0.336132 -0.186617
vn 0.923141 0.336132 -0.186617
vn 0.923141 0.336132 -0.186617
vn 0.072811 0.746588 0.661291
vn 0.072811 0.746588 0.661291
vn 0.072811 0.746588 0.661291
vn -0.543624 0.597926 0.589032
vn -0.543623 0.597926 0.589032
vn -0.543624 0.597926 0.589032
vn -0.543623 0.597926 0.589032
vn -0.308781 0.883683 0.351794
vn -0.308781 0.883683 0.351794
vn -0.308781 0.883683 0.351794
vn -0.099568 0.940499 0.324881
vn -0.099568 0.940499 0.324881
vn -0.099568 0.940499 0.324881
vn -0.199881 0.695300 0.690367
vn -0.199881 0.695300 0.690367
vn -0.199881 0.695300 0.690367
vn -0.228913 0.927940 0.294153
vn -0.228913 0.927940 0.294153
vn -0.228913 0.927940 0.294153
vn -0.190029 0.930593 0.312865
vn -0.190029 0.930593 0.312865
vn -0.190029 0.930593 0.312865
vn -0.130959 0.912434 0.387704
vn -0.130959 0.912434 0.387704
vn -0.130959 0.912434 0.387704
vn -0.790291 0.612731 0.001132
vn -0.790291 0.612731 0.001132
vn -0.790291 0.612731 0.001132
vn -0.592963 0.777398 0.209875
vn -0.592963 0.777398 0.209875
vn -0.592963 0.777398 0.209875
vn -0.492050 0.586672 0.643197
vn -0.492050 0.586672 0.643197
vn -0.492050 0.586672 0.643197
vn -0.475256 0.807682 0.348973
vn -0.475256 0.807682 0.348973
vn -0.475256 0.807682 0.348973
vn -0.540116 0.839151 0.064040
vn -0.540116 0.839151 0.064040
vn -0.540116 0.839151 0.064040
vn -0.363800 0.871520 0.328789
vn -0.363800 0.871520 0.328789
vn -0.363800 0.871520 0.328789
vn -0.373389 0.889773 0.262458
vn -0.373389 0.889773 0.262458
vn -0.373389 0.889773 0.262458
vn 0.229861 0.670154 0.705732
vn 0.229861 0.670154 0.705732
vn 0.229861 0.670154 0.705732
vn 0.125403 0.907330 0.401280
vn 0.125403 0.907330 0.401280
vn 0.125403 0.907330 0.401280
vn 0.132524 0.909869 0.393163
vn 0.132524 0.909869 0.393163
vn 0.132524 0.909869 0.393163
vn 0.174985 0.909358 0.377424
vn 0.174985 0.909358 0.377424
vn 0.174985 0.909358 0.377424
vn 0.102907 0.882146 0.459597
vn 0.102907 0.882146 0.459597
vn 0.102907 0.882146 0.459597
vn 0.312683 0.670385 0.672914
vn 0.312683 0.670385 0.672914
vn 0.312683 0.670385 0.672914
vn -0.008764 0.877925 0.478718
vn -0.008764 0.877925 0.478718
vn -0.008764 0.877925 0.478718
vn 0.612131 0.782209 -0.115948
vn 0.612131 0.782209 -0.115948
vn 0.612131 0.782209 -0.115948
vn 0.568530 0.739493 0.360450
vn 0.568530 0.739493 0.360450
vn 0.568530 0.739493 0.360450
vn 0.654388 0.732244 0.188669
vn 0.654388 0.732244 0.188669
vn 0.654388 0.732244 0.188669
vn 0.373223 0.921884 0.104088
vn 0.373223 0.921884 0.104088
vn 0.373223 0.921884 0.104088
vn 0.354345 0.926567 0.126147
vn 0.354345 0.926567 0.126147
vn 0.354345 0.926567 0.126147
vn 0.354345 0.926567 0.126147
vn 0.590436 0.768077 0.247875
vn 0.590436 0.768077 0.247875
vn 0.590436 0.768077 0.247875
vn 0.221021 0.906855 0.358837
vn 0.221021 0.906855 0.358837
vn 0.221021 0.906855 0.358837
vn 0.316237 0.916980 0.243189
vn 0.316237 0.916980 0.243189
vn 0.316237 0.916980 0.243189
vn -0.801513 0.594465 0.064717
vn -0.801513 0.594465 0.064717
vn -0.801513 0.594465 0.064717
vn -0.766737 0.349115 -0.538733
vn -0.766736 0.349115 -0.538733
vn -0.766737 0.349115 -0.538733
vn -0.592164 0.374639 -0.713433
vn -0.592164 0.374639 -0.713433
vn -0.592164 0.374639 -0.713433
vn -0.423267 0.608716 -0.671052
vn -0.423267 0.608716 -0.671052
vn -0.423267 0.608716 -0.671052
vn -0.468404 0.809750 -0.353414
vn -0.468404 0.809750 -0.353414
vn -0.468405 0.809750 -0.353414
vn -0.429401 0.795808 -0.426972
vn -0.429401 0.795808 -0.426972
vn -0.429401 0.795808 -0.426972
vn -0.904463 0.424927 -0.037200
vn -0.904463 0.424927 -0.037200
vn -0.904463 0.424927 -0.037200
vn -0.499624 0.848339 -0.175205
vn -0.499624 0.848339 -0.175205
vn -0.499624 0.848339 -0.175205
vn -0.459259 0.856326 -0.236192
vn -0.459259 0.856326 -0.236192
vn -0.459259 0.856326 -0.236192
vn 0.818998 0.557778 -0.134633
vn 0.818998 0.557778 -0.134633
vn 0.818998 0.557778 -0.134633
vn 0.452344 0.689528 -0.565629
vn 0.452344 0.689528 -0.565629
vn 0.452344 0.689528 -0.565629
vn 0.417294 0.886666 -0.199221
vn 0.417293 0.886666 -0.199221
vn 0.417294 0.886666 -0.199221
vn 0.610857 0.721492 -0.326043
vn 0.610857 0.721492 -0.326043
vn 0.610857 0.721492 -0.326043
vn 0.384640 0.918761 0.089054
vn 0.384640 0.918761 0.089054
vn 0.384640 0.918761 0.089054
vn 0.291732 0.932860 -0.211341
vn 0.291732 0.932860 -0.211341
vn 0.291732 0.932860 -0.211341
vn 0.213590 0.942906 -0.255554
vn 0.213590 0.942906 -0.255554
vn 0.213590 0.942906 -0.255554
vn 0.284409 0.950075 -0.128330
vn 0.284409 0.950075 -0.128330
vn 0.284409 0.950075 -0.128330
vn -0.677263 0.517002 -0.523473
vn -0.677263 0.517002 -0.523473
vn -0.677263 0.517002 -0.523473
vn -0.677263 0.517002 -0.523473
vn -0.474266 0.549916 -0.687506
vn -0.474266 0.549916 -0.687506
vn -0.474266 0.549916 -0.687506
vn -0.600736 0.778710 -0.180904
vn -0.600736 0.778710 -0.180904
vn -0.600736 0.778710 -0.180904
vn -0.510506 0.850189 -0.128695
vn -0.510506 0.850189 -0.128695
vn -0.510506 0.850189 -0.128695
vn -0.300996 0.908819 -0.288877
vn -0.300996 0.908819 -0.288877
vn -0.300996 0.908819 -0.288877
vn -0.590780 0.570070 -0.570963
vn -0.590780 0.570070 -0.570963
vn -0.590780 0.570070 -0.570963
vn -0.361380 0.755461 -0.546520
vn -0.361380 0.755461 -0.546520
vn -0.361380 0.755461 -0.546520
vn -0.124223 0.949822 -0.287065
vn -0.124223 0.949822 -0.287065
vn -0.124223 0.949822 -0.287065
vn -0.124223 0.949822 -0.287065
vn 0.718300 0.601283 -0.350007
vn 0.718300 0.601282 -0.350007
vn 0.718300 0.601283 -0.350007
vn 0.366112 0.900734 -0.233753
vn 0.366112 0.900734 -0.233753
vn 0.366112 0.900734 -0.233753
vn 0.373700 0.748949 -0.547196
vn 0.373700 0.748949 -0.547196
vn 0.373700 0.748949 -0.547196
vn -0.077128 0.651226 -0.754954
vn -0.077128 0.651226 -0.754955
vn -0.077128 0.651226 -0.754955
vn 0.122486 0.982697 -0.138941
vn 0.122486 0.982697 -0.138941
vn 0.122486 0.982697 -0.138941
vn -0.099003 0.699465 -0.707776
vn -0.099003 0.699465 -0.707776
vn -0.099003 0.699465 -0.707776
vn -0.021791 0.965412 -0.259818
vn -0.021791 0.965412 -0.259818
vn -0.021791 0.965412 -0.259818
vn -0.595095 0.471949 0.650482
vn -0.595095 0.471949 0.650482
vn -0.595095 0.471949 0.650482
vn -0.595095 0.471949 0.650482
vn -0.569518 0.653318 0.498823
vn -0.569518 0.653318 0.498823
vn -0.569518 0.653318 0.498823
vn 0.054364 0.389943 0.919233
vn 0.054364 0.389943 0.919233
vn 0.054364 0.389943 0.919233
vn 0.054364 0.389943 0.919233
vn 0.193560 0.860416 0.471400
vn 0.193560 0.860416 0.471400
vn 0.193560 0.860416 0.471400
vn 0.029537 0.855222 -0.517420
vn 0.029537 0.855222 -0.517420
vn 0.029537 0.855222 -0.517420
vn 0.029537 0.855222 -0.517420
vn 0.363921 0.730720 -0.577590
vn 0.363921 0.730720 -0.577590
vn 0.363921 0.730720 -0.577590
vn 0.437642 0.571786 -0.693924
vn 0.437642 0.571786 -0.693924
vn 0.437642 0.571786 -0.693924
vn 0.049204 0.869028 -0.492311
vn 0.049204 0.869027 -0.492311
vn 0.049204 0.869028 -0.492311
vn -0.845059 0.531252 -0.060385
vn -0.845059 0.531252 -0.060385
vn -0.845059 0.531252 -0.060385
vn -0.653896 0.505285 -0.563122
vn -0.653896 0.505285 -0.563122
vn -0.653896 0.505285 -0.563122
s off
f 1/1/1 57/2/2 35/3/3
f 54/15/4 56/16/5 12/17/6 11/18/7
f 55/4/8 35/3/9 57/2/10
f 57/2/11 12/8/12 56/6/13
f 54/15/14 13/21/15 22/24/16 58/22/17
f 2/26/18 23/27/19 22/28/20 13/29/21
f 3/30/22 28/31/23 22/28/24 23/27/25
f 4/11/26 55/4/27 24/10/28
f 55/4/29 25/9/30 24/10/31
f 54/15/32 25/19/33 56/16/34
f 26/36/35 24/37/36 25/38/37
f 58/22/38 22/24/39 27/23/40
f 28/31/41 27/33/42 22/28/43
f 29/32/44 28/31/45 3/30/46
f 2/40/47 30/41/48 19/42/49
f 1/43/50 14/44/51 19/42/52 30/41/53
f 31/46/54 19/42/55 14/44/56
f 31/46/57 14/44/58 15/50/59
f 1/43/60 32/45/61 14/44/62
f 34/48/63 33/52/64 14/44/65
f 33/52/66 15/50/67 14/44/68
f 34/48/69 14/44/70 32/45/71
f 35/3/72 21/5/73 36/7/74
f 5/54/75 36/47/76 21/56/77
f 1/72/78 35/73/79 36/74/80
f 1/43/81 36/47/82 32/45/83
f 5/54/84 16/51/85 36/47/86
f 16/51/87 32/45/88 36/47/89
f 34/48/90 32/45/91 16/51/92
f 17/75/93 40/76/94 2/77/95
f 6/57/96 40/58/97 17/55/98
f 6/57/99 17/55/100 59/53/101
f 59/53/102 17/55/103 19/42/104
f 59/53/105 19/42/106 37/49/107
f 2/77/108 19/78/109 17/75/110
f 31/46/111 37/49/112 19/42/113
f 3/67/114 23/65/115 20/63/116
f 2/40/117 38/62/118 23/65/119
f 38/62/120 20/63/121 23/65/122
f 39/61/123 20/63/124 38/62/125
f 39/61/126 38/62/127 40/58/128 18/60/129
f 2/40/130 40/58/131 38/62/132
f 6/57/133 41/59/134 40/58/135
f 41/59/136 18/60/137 40/58/138
f 35/3/139 55/4/140 21/5/141
f 4/11/142 60/12/143 55/4/144
f 60/79/145 21/80/146 55/81/147
f 5/82/148 21/80/149 60/79/150
f 5/83/151 60/84/152 42/85/153
f 42/85/154 60/84/155 48/86/156
f 4/11/157 48/14/158 60/12/159
f 43/87/160 48/86/161 8/88/162
f 43/87/163 42/85/164 48/86/165
f 29/32/166 3/30/167 44/34/168
f 3/67/169 45/66/170 44/70/171
f 7/69/172 44/70/173 45/66/174
f 3/67/175 20/63/176 45/66/177
f 39/61/178 46/64/179 20/63/180
f 46/64/181 45/66/182 20/63/183
f 7/69/184 45/66/185 47/68/186
f 47/68/187 45/66/188 46/64/189
f 4/11/190 24/10/191 49/13/192 48/14/193
f 26/36/194 49/39/195 24/37/196
f 8/88/197 48/86/198 49/89/199
f 43/87/200 8/88/201 50/90/202
f 50/90/203 8/88/204 51/92/205
f 26/96/206 53/97/207 49/98/208
f 49/89/209 53/91/210 8/88/211
f 52/93/212 51/92/213 8/88/214 53/91/215
f 29/32/216 44/34/217 9/35/218
f 7/69/219 9/71/220 44/70/221
f 26/99/222 29/100/223 9/101/224
f 26/103/225 9/104/226 53/105/227
f 7/95/228 10/94/229 53/91/230
f 7/106/231 53/105/232 9/104/233
f 52/93/234 53/91/235 10/94/236
f 1/107/237 30/108/238 11/109/239 57/110/240
f 57/20/241 11/18/242 12/17/243
f 2/111/244 13/112/245 11/109/246 30/108/247
f 54/15/248 11/18/249 13/21/250
f 54/15/251 58/22/252 27/23/253 25/19/254
f 29/100/255 26/99/256 28/102/257
f 28/113/258 26/114/259 27/115/260
f 26/25/261 25/19/262 27/23/263
f 57/2/264 56/6/265 55/4/266
f 55/4/267 56/6/268 25/9/269
