# This file uses centimeters as units for non-parametric coordinates.

v 6.931586 0.000000 -6.931586
v 0.000000 0.000000 -9.802742
v -6.931586 0.000000 -6.931586
v -9.802742 0.000000 -0.000000
v -6.931586 0.000000 6.931586
v 0.000000 0.000000 9.802742
v 6.931586 0.000000 6.931586
v 9.802742 0.000000 -0.000000
v -0.925452 519.348999 3.994667
v -1.531610 519.348999 3.743587
v -2.137769 519.348999 3.994667
v -2.388849 519.348999 4.600826
v -2.137769 519.348999 5.206986
v -1.531610 519.348999 5.458066
v -0.925452 519.348999 5.206986
v -0.674371 519.348999 4.600826
v 0.000000 0.000000 -0.000000
v -1.370700 520.746643 4.628263
v 1.120248 243.166351 -3.591418
v 4.519648 243.166351 -2.183340
v 5.927726 243.166351 1.216061
v 4.519648 243.166351 4.615460
v 1.120248 243.166351 6.023539
v -2.279152 243.166351 4.615460
v -3.687231 243.166351 1.216061
v -2.279152 243.166351 -2.183340
v -6.730015 17.361708 -0.000000
v -4.758840 17.361708 -4.758840
v 0.000000 17.361708 -6.730015
v 4.758840 17.361708 -4.758840
v 6.730015 17.361708 -0.000000
v 4.758840 17.361708 4.758840
v 0.000000 17.361708 6.730015
v -4.758840 17.361708 4.758840
v -2.039738 450.043182 2.039738
v -2.884625 450.043182 -0.000000
v -2.039738 450.043182 -2.039738
v 0.000000 450.043182 -2.884625
v 2.039738 450.043182 -2.039738
v 2.884625 450.043182 -0.000000
v 2.039738 450.043182 2.039738
v 0.000000 450.043182 2.884625
v -2.317027 496.396759 8.333497
v -2.849327 496.396759 7.048408
v -2.317027 496.396759 5.763322
v -1.031940 496.396759 5.231020
v 0.253147 496.396759 5.763322
v 0.785448 496.396759 7.048408
v 0.253147 496.396759 8.333497
v -1.031940 496.396759 8.865797
vt 0.164785 0.988590
vt 0.088097 0.988590
vt 0.088097 0.956127
vt 0.140745 0.956127
vt 0.011411 0.988590
vt 0.035449 0.956127
vt 0.100489 0.533929
vt 0.138098 0.533929
vt 0.062882 0.533929
vt 0.088097 0.147118
vt 0.110664 0.147118
vt 0.065530 0.147118
vt 0.076680 0.060448
vt 0.090897 0.060448
vt 0.062462 0.060448
vt 0.071153 0.017533
vt 0.077859 0.017533
vt 0.064446 0.017533
vt 0.072933 0.014919
vt 0.190921 0.014447
vt 0.267609 0.014447
vt 0.267609 0.046910
vt 0.214960 0.046910
vt 0.344295 0.014447
vt 0.320257 0.046910
vt 0.281063 0.469110
vt 0.243455 0.469110
vt 0.318672 0.469110
vt 0.267609 0.855920
vt 0.245042 0.855920
vt 0.290175 0.855920
vt 0.345588 0.942590
vt 0.331371 0.942590
vt 0.359806 0.942590
vt 0.318509 0.985505
vt 0.311804 0.985505
vt 0.325216 0.985505
vt 0.318813 0.988118
vt 0.391549 0.014447
vt 0.468235 0.014447
vt 0.468235 0.046910
vt 0.415587 0.046910
vt 0.544923 0.014447
vt 0.520883 0.046910
vt 0.480627 0.469110
vt 0.443020 0.469110
vt 0.518236 0.469110
vt 0.468235 0.855920
vt 0.445668 0.855920
vt 0.490802 0.855920
vt 0.456818 0.942590
vt 0.442600 0.942590
vt 0.471035 0.942590
vt 0.451291 0.985505
vt 0.444584 0.985505
vt 0.457997 0.985505
vt 0.453071 0.988118
vt 0.597129 0.014447
vt 0.673817 0.014447
vt 0.673817 0.046910
vt 0.621166 0.046910
vt 0.750505 0.014447
vt 0.726469 0.046910
vt 0.660362 0.469110
vt 0.622753 0.469110
vt 0.697971 0.469110
vt 0.673817 0.855920
vt 0.651250 0.855920
vt 0.696384 0.855920
vt 0.595835 0.942590
vt 0.581619 0.942590
vt 0.610058 0.942590
vt 0.622915 0.985505
vt 0.616210 0.985505
vt 0.629620 0.985505
vt 0.622616 0.988118
vt 0.880139 0.011411
vt 0.956827 0.016779
vt 0.880139 0.029739
vt 0.988590 0.029739
vt 0.803453 0.016779
vt 0.956827 0.042699
vt 0.771687 0.029739
vt 0.880139 0.048068
vt 0.803453 0.042699
vn 0.377668 0.161368 -0.911771
vn 0.377668 0.161368 -0.911771
vn 0.382547 0.026741 -0.923549
vn 0.382548 0.026622 -0.923552
vn -0.377668 0.161368 -0.911771
vn -0.377668 0.161368 -0.911771
vn -0.382510 0.030104 -0.923461
vn -0.382510 0.030060 -0.923462
vn -0.911772 0.161368 -0.377668
vn -0.911772 0.161368 -0.377668
vn -0.923468 0.029850 -0.382513
vn -0.923466 0.029904 -0.382512
vn -0.911772 0.161368 0.377668
vn -0.911772 0.161368 0.377668
vn -0.923564 0.026123 0.382553
vn -0.923561 0.026247 0.382552
vn -0.377668 0.161368 0.911771
vn -0.377668 0.161368 0.911771
vn -0.382598 0.021105 0.923674
vn -0.382597 0.021230 0.923671
vn 0.377668 0.161368 0.911771
vn 0.377668 0.161368 0.911771
vn 0.382623 0.017740 0.923734
vn 0.382623 0.017788 0.923733
vn 0.911772 0.161368 0.377668
vn 0.911772 0.161368 0.377668
vn 0.923730 0.017999 0.382621
vn 0.923731 0.017940 0.382622
vn 0.911772 0.161368 -0.377668
vn 0.911772 0.161368 -0.377668
vn 0.923661 0.021728 -0.382593
vn 0.923664 0.021600 -0.382594
vn 0.000000 -1.000000 0.000000
vn 0.000000 -1.000000 0.000000
vn 0.000000 -1.000000 0.000000
vn 0.000000 -1.000000 0.000000
vn 0.000000 -1.000000 0.000000
vn 0.000000 -1.000000 0.000000
vn 0.000000 -1.000000 0.000000
vn 0.000000 -1.000000 0.000000
vn 0.000000 -1.000000 0.000000
vn 0.000000 -1.000000 0.000000
vn 0.000000 -1.000000 0.000000
vn 0.000000 -1.000000 0.000000
vn 0.000000 -1.000000 0.000000
vn 0.000000 -1.000000 0.000000
vn 0.000000 -1.000000 0.000000
vn 0.000000 -1.000000 0.000000
vn 0.000000 -1.000000 0.000000
vn 0.000000 -1.000000 0.000000
vn 0.000000 -1.000000 0.000000
vn 0.000000 -1.000000 0.000000
vn 0.000000 -1.000000 0.000000
vn 0.000000 -1.000000 0.000000
vn 0.000000 -1.000000 0.000000
vn 0.000000 -1.000000 0.000000
vn 0.605413 0.480489 -0.634512
vn -0.023427 0.536593 -0.843516
vn 0.042224 0.999082 0.007194
vn -0.023427 0.536593 -0.843516
vn -0.585819 0.578709 -0.567372
vn 0.042224 0.999082 0.007194
vn -0.585819 0.578709 -0.567372
vn -0.808233 0.588851 -0.003749
vn 0.042224 0.999082 0.007194
vn -0.808233 0.588851 -0.003749
vn -0.597066 0.563916 0.570535
vn 0.042224 0.999082 0.007194
vn -0.597066 0.563916 0.570535
vn -0.024044 0.512393 0.858415
vn 0.042224 0.999082 0.007194
vn -0.024044 0.512393 0.858415
vn 0.617005 0.460721 0.637998
vn 0.042224 0.999082 0.007194
vn 0.617005 0.460721 0.637998
vn 0.895022 0.446000 -0.004377
vn 0.042224 0.999082 0.007194
vn 0.895022 0.446000 -0.004377
vn 0.605413 0.480489 -0.634512
vn 0.042224 0.999082 0.007194
vn 0.382669 0.008782 -0.923844
vn 0.382669 0.008781 -0.923844
vn 0.382567 0.024633 -0.923599
vn 0.382561 0.025297 -0.923584
vn 0.923853 0.007611 -0.382672
vn 0.923853 0.007612 -0.382672
vn 0.923672 0.021200 -0.382598
vn 0.923642 0.022672 -0.382585
vn 0.923859 0.006749 0.382675
vn 0.923859 0.006750 0.382675
vn 0.923810 0.012305 0.382655
vn 0.923817 0.011678 0.382657
vn 0.382675 0.006702 0.923859
vn 0.382675 0.006701 0.923859
vn 0.382683 0.001616 0.923878
vn 0.382683 0.000234 0.923880
vn -0.382673 0.007496 0.923854
vn -0.382673 0.007495 0.923854
vn -0.382679 -0.005046 0.923868
vn -0.382679 -0.004479 0.923870
vn -0.923845 0.008665 0.382669
vn -0.923845 0.008666 0.382669
vn -0.923877 -0.002262 0.382683
vn -0.923879 -0.001207 0.382683
vn -0.923838 0.009527 -0.382666
vn -0.923838 0.009528 -0.382666
vn -0.923844 0.008774 -0.382669
vn -0.923852 0.007654 -0.382672
vn -0.382666 0.009576 -0.923837
vn -0.382666 0.009575 -0.923837
vn -0.382606 0.020105 -0.923693
vn -0.382618 0.018456 -0.923722
vn -0.923466 0.029904 -0.382512
vn -0.923468 0.029850 -0.382513
vn -0.923838 0.009528 -0.382666
vn -0.923838 0.009527 -0.382666
vn -0.382510 0.030060 -0.923462
vn -0.382510 0.030104 -0.923461
vn -0.382666 0.009575 -0.923837
vn -0.382666 0.009576 -0.923837
vn 0.382548 0.026622 -0.923552
vn 0.382547 0.026741 -0.923549
vn 0.382669 0.008781 -0.923844
vn 0.382669 0.008782 -0.923844
vn 0.923664 0.021600 -0.382594
vn 0.923661 0.021728 -0.382593
vn 0.923853 0.007612 -0.382672
vn 0.923853 0.007611 -0.382672
vn 0.923731 0.017940 0.382622
vn 0.923730 0.017999 0.382621
vn 0.923859 0.006750 0.382675
vn 0.923859 0.006749 0.382675
vn 0.382623 0.017788 0.923733
vn 0.382623 0.017740 0.923734
vn 0.382675 0.006701 0.923859
vn 0.382675 0.006702 0.923859
vn -0.382597 0.021230 0.923671
vn -0.382598 0.021105 0.923674
vn -0.382673 0.007495 0.923854
vn -0.382673 0.007496 0.923854
vn -0.923561 0.026247 0.382552
vn -0.923564 0.026123 0.382553
vn -0.923845 0.008666 0.382669
vn -0.923845 0.008665 0.382669
vn -0.923879 -0.001207 0.382683
vn -0.923877 -0.002262 0.382683
vn -0.923413 -0.031791 0.382490
vn -0.923396 -0.032374 0.382482
vn -0.923852 0.007654 -0.382672
vn -0.923844 0.008774 -0.382669
vn -0.923114 0.040701 -0.382366
vn -0.923076 0.041690 -0.382351
vn -0.382618 0.018456 -0.923722
vn -0.382606 0.020105 -0.923693
vn -0.380641 0.103201 -0.918946
vn -0.380533 0.105865 -0.918688
vn 0.382561 0.025297 -0.923584
vn 0.382567 0.024633 -0.923599
vn 0.379888 0.120661 -0.917129
vn 0.379834 0.121812 -0.916999
vn 0.923642 0.022672 -0.382585
vn 0.923672 0.021200 -0.382598
vn 0.920759 0.082116 -0.381391
vn 0.920789 0.081720 -0.381403
vn 0.923817 0.011678 0.382657
vn 0.923810 0.012305 0.382655
vn 0.923849 0.008160 0.382670
vn 0.923837 0.009593 0.382665
vn 0.382683 0.000234 0.923880
vn 0.382683 0.001616 0.923878
vn 0.382072 -0.056503 0.922404
vn 0.382138 -0.053351 0.922564
vn -0.382679 -0.004479 0.923870
vn -0.382679 -0.005046 0.923868
vn -0.381676 -0.072522 0.921447
vn -0.381712 -0.071207 0.921534
vn -0.923396 -0.032374 0.382482
vn -0.923413 -0.031791 0.382490
vn -0.922257 0.059240 0.382010
vn -0.922257 0.059240 0.382010
vn -0.923076 0.041690 -0.382351
vn -0.923114 0.040701 -0.382366
vn -0.923651 -0.022268 -0.382588
vn -0.923651 -0.022268 -0.382588
vn -0.380533 0.105865 -0.918688
vn -0.380641 0.103201 -0.918946
vn -0.381797 -0.068046 -0.921738
vn -0.381797 -0.068046 -0.921738
vn 0.379834 0.121812 -0.916999
vn 0.379888 0.120661 -0.917129
vn 0.382178 -0.051473 -0.922654
vn 0.382178 -0.051473 -0.922654
vn 0.920789 0.081720 -0.381403
vn 0.920759 0.082116 -0.381391
vn 0.923731 0.017949 -0.382620
vn 0.923731 0.017949 -0.382620
vn 0.923837 0.009593 0.382665
vn 0.923849 0.008160 0.382670
vn 0.919334 0.099080 0.380798
vn 0.919334 0.099080 0.380798
vn 0.382138 -0.053351 0.922564
vn 0.382072 -0.056503 0.922404
vn 0.378697 0.143984 0.914252
vn 0.378697 0.143984 0.914252
vn -0.381712 -0.071207 0.921534
vn -0.381676 -0.072522 0.921447
vn -0.379547 0.127782 0.916306
vn -0.379546 0.127782 0.916306
s off
f 1/1/1 2/2/2 29/3/3 30/4/4
f 2/2/5 3/5/6 28/6/7 29/3/8
f 3/20/9 4/21/10 27/22/11 28/23/12
f 4/21/13 5/24/14 34/25/15 27/22/16
f 5/39/17 6/40/18 33/41/19 34/42/20
f 6/40/21 7/43/22 32/44/23 33/41/24
f 7/58/25 8/59/26 31/60/27 32/61/28
f 8/59/29 1/62/30 30/63/31 31/60/32
f 2/77/33 1/78/34 17/79/35
f 3/81/36 2/77/37 17/79/38
f 4/83/39 3/81/40 17/79/41
f 5/85/42 4/83/43 17/79/44
f 6/84/45 5/85/46 17/79/47
f 7/82/48 6/84/49 17/79/50
f 8/80/51 7/82/52 17/79/53
f 1/78/54 8/80/55 17/79/56
f 9/17/57 10/16/58 18/19/59
f 10/16/60 11/18/61 18/19/62
f 11/36/63 12/35/64 18/38/65
f 12/35/66 13/37/67 18/38/68
f 13/55/69 14/54/70 18/57/71
f 14/54/72 15/56/73 18/57/74
f 15/74/75 16/73/76 18/76/77
f 16/73/78 9/75/79 18/76/80
f 20/8/81 19/7/82 38/10/83 39/11/84
f 21/64/85 20/66/86 39/69/87 40/67/88
f 22/65/89 21/64/90 40/67/91 41/68/92
f 23/45/93 22/47/94 41/50/95 42/48/96
f 24/46/97 23/45/98 42/48/99 35/49/100
f 25/26/101 24/28/102 35/31/103 36/29/104
f 26/27/105 25/26/106 36/29/107 37/30/108
f 19/7/109 26/9/110 37/12/111 38/10/112
f 28/23/113 27/22/114 25/26/115 26/27/116
f 29/3/117 28/6/118 26/9/119 19/7/120
f 30/4/121 29/3/122 19/7/123 20/8/124
f 31/60/125 30/63/126 20/66/127 21/64/128
f 32/61/129 31/60/130 21/64/131 22/65/132
f 33/41/133 32/44/134 22/47/135 23/45/136
f 34/42/137 33/41/138 23/45/139 24/46/140
f 27/22/141 34/25/142 24/28/143 25/26/144
f 36/29/145 35/31/146 43/34/147 44/32/148
f 37/30/149 36/29/150 44/32/151 45/33/152
f 38/10/153 37/12/154 45/15/155 46/13/156
f 39/11/157 38/10/158 46/13/159 47/14/160
f 40/67/161 39/69/162 47/72/163 48/70/164
f 41/68/165 40/67/166 48/70/167 49/71/168
f 42/48/169 41/50/170 49/53/171 50/51/172
f 35/49/173 42/48/174 50/51/175 43/52/176
f 44/32/177 43/34/178 13/37/179 12/35/180
f 45/33/181 44/32/182 12/35/183 11/36/184
f 46/13/185 45/15/186 11/18/187 10/16/188
f 47/14/189 46/13/190 10/16/191 9/17/192
f 48/70/193 47/72/194 9/75/195 16/73/196
f 49/71/197 48/70/198 16/73/199 15/74/200
f 50/51/201 49/53/202 15/56/203 14/54/204
f 43/52/205 50/51/206 14/54/207 13/55/208
