# This file uses centimeters as units for non-parametric coordinates.

v 8.050656 10.931760 -8.050656
v -0.000020 10.931760 -11.385339
v -8.050656 10.931760 -8.050656
v -11.385345 10.931760 0.000000
v -8.050656 10.931760 8.050656
v -0.000020 10.931760 11.385345
v 8.050656 10.931760 8.050656
v 11.385345 10.931760 0.000000
v 6.378811 40.966820 -7.031989
v 0.246105 40.966820 -9.572238
v -5.886602 40.966820 -7.031989
v -8.426875 40.966820 -0.899279
v -5.886602 40.966820 5.233431
v 0.246105 40.966820 7.773685
v 6.378811 40.966820 5.233431
v 8.919048 40.966820 -0.899279
v 8.904702 0.000000 -8.904696
v -0.000020 0.000000 -12.593139
v -0.000020 0.000000 -0.000000
v -8.904702 0.000000 -8.904696
v -12.593114 0.000000 -0.000000
v -8.904702 0.000000 8.904696
v -0.000020 0.000000 12.593139
v 8.904702 0.000000 8.904696
v 12.593114 0.000000 -0.000000
v 1.141416 298.022095 -1.858089
v -1.180751 298.022095 -2.819955
v -3.502917 298.022095 -1.858089
v -4.464727 298.022095 0.464062
v -3.502917 298.022095 2.786213
v -1.180751 298.022095 3.748080
v 1.141416 298.022095 2.786213
v 2.103286 298.022095 0.464062
v 4.535681 124.429321 -3.599939
v 6.582022 124.429321 1.340340
v 4.535681 124.429321 6.280619
v -0.404574 124.429321 8.326941
v -5.344868 124.429321 6.280619
v -7.391202 124.429321 1.340340
v -5.344868 124.429321 -3.599939
v -0.404574 124.429321 -5.646265
v -1.180743 303.545776 0.464062
vt 0.708389 0.952738
vt 0.627420 0.952738
vt 0.629894 0.856346
vt 0.691575 0.856346
vt 0.716979 0.987820
vt 0.627420 0.987820
vt 0.546451 0.952738
vt 0.568215 0.856346
vt 0.623351 0.588492
vt 0.673038 0.588492
vt 0.537861 0.987820
vt 0.573664 0.588492
vt 0.615544 0.031385
vt 0.638898 0.031385
vt 0.592190 0.031385
vt 0.615544 0.013659
vt 0.020001 0.049512
vt 0.100970 0.049512
vt 0.091924 0.145902
vt 0.030246 0.145902
vt 0.011410 0.014428
vt 0.100970 0.014428
vt 0.181939 0.049512
vt 0.153605 0.145902
vt 0.114451 0.413756
vt 0.064764 0.413756
vt 0.190529 0.014428
vt 0.164137 0.413756
vt 0.105637 0.970863
vt 0.082282 0.970863
vt 0.128991 0.970863
vt 0.105637 0.988590
vt 0.217418 0.049512
vt 0.298387 0.049512
vt 0.300862 0.145902
vt 0.239182 0.145902
vt 0.208828 0.014428
vt 0.298387 0.014428
vt 0.379356 0.049512
vt 0.362542 0.145902
vt 0.294318 0.413756
vt 0.244632 0.413756
vt 0.387947 0.014428
vt 0.344005 0.413756
vt 0.286511 0.970863
vt 0.263157 0.970863
vt 0.309866 0.970863
vt 0.286511 0.988590
vt 0.414836 0.049512
vt 0.495808 0.049512
vt 0.504854 0.145902
vt 0.443173 0.145902
vt 0.406252 0.014428
vt 0.495808 0.014428
vt 0.576780 0.049512
vt 0.566534 0.145902
vt 0.482329 0.413756
vt 0.432643 0.413756
vt 0.585364 0.014428
vt 0.532014 0.413756
vt 0.491144 0.970863
vt 0.467785 0.970863
vt 0.514496 0.970863
vt 0.491144 0.988590
vt 0.861935 0.011411
vt 0.951494 0.023248
vt 0.861935 0.051825
vt 0.988589 0.051825
vt 0.772375 0.023248
vt 0.951494 0.080403
vt 0.735280 0.051825
vt 0.861935 0.092240
vt 0.772375 0.080403
vn 0.382153 0.052563 -0.922603
vn 0.382153 0.052563 -0.922603
vn 0.382153 0.052563 -0.922603
vn 0.382153 0.052563 -0.922603
vn -0.382021 0.058805 -0.922281
vn -0.382021 0.058805 -0.922281
vn -0.382021 0.058805 -0.922281
vn -0.382021 0.058805 -0.922281
vn -0.920970 0.079295 -0.381479
vn -0.920970 0.079295 -0.381479
vn -0.920970 0.079295 -0.381479
vn -0.920970 0.079295 -0.381479
vn -0.919068 0.101927 0.380691
vn -0.919067 0.101927 0.380691
vn -0.919067 0.101927 0.380691
vn -0.919068 0.101927 0.380691
vn -0.380212 0.113493 0.917910
vn -0.380212 0.113493 0.917910
vn -0.380212 0.113493 0.917910
vn -0.380212 0.113493 0.917910
vn 0.380472 0.107335 0.918542
vn 0.380472 0.107335 0.918542
vn 0.380472 0.107335 0.918542
vn 0.380472 0.107335 0.918542
vn 0.920378 0.086990 0.381232
vn 0.920378 0.086990 0.381232
vn 0.920378 0.086990 0.381232
vn 0.920378 0.086990 0.381232
vn 0.921970 0.064272 -0.381891
vn 0.921970 0.064272 -0.381891
vn 0.921970 0.064272 -0.381891
vn 0.921970 0.064272 -0.381891
vn 0.000000 -1.000000 0.000000
vn 0.000000 -1.000000 0.000000
vn 0.000000 -1.000000 0.000000
vn 0.000000 -1.000000 0.000000
vn 0.000000 -1.000000 0.000000
vn 0.000000 -1.000000 0.000000
vn 0.000000 -1.000000 0.000000
vn 0.000000 -1.000000 0.000000
vn 0.000000 -1.000000 0.000000
vn 0.000000 -1.000000 0.000000
vn 0.000000 -1.000000 0.000000
vn 0.000000 -1.000000 0.000000
vn 0.000000 -1.000000 0.000000
vn 0.000000 -1.000000 0.000000
vn 0.000000 -1.000000 0.000000
vn 0.000000 -1.000000 0.000000
vn 0.000000 -1.000000 0.000000
vn 0.000000 -1.000000 0.000000
vn 0.000000 -1.000000 0.000000
vn 0.000000 -1.000000 0.000000
vn 0.000000 -1.000000 0.000000
vn 0.000000 -1.000000 0.000000
vn 0.000000 -1.000000 0.000000
vn 0.000000 -1.000000 0.000000
vn 0.380704 0.101547 -0.919104
vn 0.380704 0.101547 -0.919104
vn 0.380704 0.101547 -0.919104
vn 0.380704 0.101547 -0.919104
vn -0.380705 0.101547 -0.919104
vn -0.380705 0.101547 -0.919104
vn -0.380705 0.101547 -0.919104
vn -0.380705 0.101547 -0.919104
vn -0.919105 0.101546 -0.380704
vn -0.919105 0.101546 -0.380704
vn -0.919105 0.101546 -0.380704
vn -0.919105 0.101546 -0.380704
vn -0.919105 0.101546 0.380704
vn -0.919105 0.101546 0.380704
vn -0.919105 0.101546 0.380704
vn -0.919105 0.101546 0.380704
vn -0.380706 0.101547 0.919104
vn -0.380706 0.101547 0.919104
vn -0.380706 0.101547 0.919104
vn -0.380706 0.101547 0.919104
vn 0.380704 0.101547 0.919104
vn 0.380704 0.101547 0.919104
vn 0.380704 0.101547 0.919104
vn 0.380704 0.101547 0.919104
vn 0.919105 0.101546 0.380704
vn 0.919105 0.101546 0.380704
vn 0.919105 0.101546 0.380704
vn 0.919105 0.101546 0.380704
vn 0.919105 0.101546 -0.380704
vn 0.919105 0.101546 -0.380704
vn 0.919105 0.101546 -0.380704
vn 0.919105 0.101546 -0.380704
vn 0.382272 0.046392 -0.922885
vn 0.382272 0.046392 -0.922885
vn 0.382272 0.046392 -0.922885
vn 0.382272 0.046392 -0.922885
vn -0.382369 0.040442 -0.923124
vn -0.382369 0.040442 -0.923124
vn -0.382369 0.040442 -0.923124
vn -0.382369 0.040442 -0.923124
vn -0.923661 0.021728 -0.382595
vn -0.923661 0.021728 -0.382595
vn -0.923661 0.021728 -0.382595
vn -0.923661 0.021728 -0.382595
vn -0.923878 0.001195 0.382685
vn -0.923878 0.001195 0.382685
vn -0.923878 0.001195 0.382685
vn -0.923878 0.001195 0.382685
vn -0.382667 -0.009107 0.923841
vn -0.382667 -0.009107 0.923842
vn -0.382667 -0.009107 0.923842
vn -0.382667 -0.009107 0.923841
vn 0.382682 -0.003141 0.923875
vn 0.382682 -0.003141 0.923875
vn 0.382682 -0.003141 0.923875
vn 0.382682 -0.003141 0.923875
vn 0.923767 0.015599 0.382637
vn 0.923767 0.015599 0.382637
vn 0.923767 0.015599 0.382637
vn 0.923767 0.015599 0.382637
vn 0.923277 0.036115 -0.382434
vn 0.923277 0.036115 -0.382434
vn 0.923277 0.036115 -0.382434
vn 0.923277 0.036115 -0.382434
vn 0.923657 0.021899 -0.382593
vn 0.923657 0.021899 -0.382593
vn 0.923657 0.021899 -0.382593
vn 0.923657 0.021899 -0.382593
vn 0.923572 0.025759 0.382558
vn 0.923572 0.025759 0.382558
vn 0.923572 0.025759 0.382558
vn 0.923572 0.025759 0.382558
vn 0.382553 0.026071 0.923566
vn 0.382553 0.026071 0.923566
vn 0.382553 0.026071 0.923566
vn 0.382553 0.026071 0.923566
vn -0.382583 0.022652 0.923643
vn -0.382583 0.022652 0.923643
vn -0.382583 0.022652 0.923643
vn -0.382583 0.022652 0.923643
vn -0.923740 0.017504 0.382619
vn -0.923740 0.017504 0.382619
vn -0.923740 0.017504 0.382619
vn -0.923740 0.017504 0.382619
vn -0.923796 0.013642 -0.382642
vn -0.923796 0.013642 -0.382642
vn -0.923796 0.013642 -0.382642
vn -0.923796 0.013642 -0.382642
vn -0.382648 0.013330 -0.923798
vn -0.382647 0.013330 -0.923798
vn -0.382647 0.013330 -0.923798
vn -0.382648 0.013330 -0.923798
vn 0.382629 0.016751 -0.923750
vn 0.382630 0.016751 -0.923750
vn 0.382630 0.016751 -0.923750
vn 0.382630 0.016751 -0.923750
vn 0.335414 0.481433 -0.809765
vn 0.335414 0.481433 -0.809765
vn 0.335414 0.481433 -0.809765
vn -0.335414 0.481434 -0.809765
vn -0.335414 0.481434 -0.809765
vn -0.335414 0.481434 -0.809765
vn -0.809774 0.481433 -0.335393
vn -0.809774 0.481433 -0.335393
vn -0.809774 0.481433 -0.335393
vn -0.809774 0.481433 0.335393
vn -0.809774 0.481433 0.335393
vn -0.809774 0.481433 0.335393
vn -0.335414 0.481434 0.809765
vn -0.335414 0.481434 0.809765
vn -0.335414 0.481434 0.809765
vn 0.335414 0.481433 0.809765
vn 0.335414 0.481433 0.809765
vn 0.335414 0.481433 0.809765
vn 0.809765 0.481435 0.335412
vn 0.809765 0.481435 0.335412
vn 0.809765 0.481435 0.335412
vn 0.809765 0.481435 -0.335412
vn 0.809765 0.481435 -0.335412
vn 0.809765 0.481435 -0.335412
s off
f 1/1/1 2/2/2 10/3/3 9/4/4
f 2/2/5 3/7/6 11/8/7 10/3/8
f 3/17/9 4/18/10 12/19/11 11/20/12
f 4/18/13 5/23/14 13/24/15 12/19/16
f 5/33/17 6/34/18 14/35/19 13/36/20
f 6/34/21 7/39/22 15/40/23 14/35/24
f 7/49/25 8/50/26 16/51/27 15/52/28
f 8/50/29 1/55/30 9/56/31 16/51/32
f 18/65/33 17/66/34 19/67/35
f 20/69/36 18/65/37 19/67/38
f 21/71/39 20/69/40 19/67/41
f 22/73/42 21/71/43 19/67/44
f 23/72/45 22/73/46 19/67/47
f 24/70/48 23/72/49 19/67/50
f 25/68/51 24/70/52 19/67/53
f 17/66/54 25/68/55 19/67/56
f 2/2/57 1/1/58 17/5/59 18/6/60
f 3/7/61 2/2/62 18/6/63 20/11/64
f 4/18/65 3/17/66 20/21/67 21/22/68
f 5/23/69 4/18/70 21/22/71 22/27/72
f 6/34/73 5/33/74 22/37/75 23/38/76
f 7/39/77 6/34/78 23/38/79 24/43/80
f 8/50/81 7/49/82 24/53/83 25/54/84
f 1/55/85 8/50/86 25/54/87 17/59/88
f 9/4/89 10/3/90 41/9/91 34/10/92
f 10/3/93 11/8/94 40/12/95 41/9/96
f 11/20/97 12/19/98 39/25/99 40/26/100
f 12/19/101 13/24/102 38/28/103 39/25/104
f 13/36/105 14/35/106 37/41/107 38/42/108
f 14/35/109 15/40/110 36/44/111 37/41/112
f 15/52/113 16/51/114 35/57/115 36/58/116
f 16/51/117 9/56/118 34/60/119 35/57/120
f 35/57/121 34/60/122 26/63/123 33/61/124
f 36/58/125 35/57/126 33/61/127 32/62/128
f 37/41/129 36/44/130 32/47/131 31/45/132
f 38/42/133 37/41/134 31/45/135 30/46/136
f 39/25/137 38/28/138 30/31/139 29/29/140
f 40/26/141 39/25/142 29/29/143 28/30/144
f 41/9/145 40/12/146 28/15/147 27/13/148
f 34/10/149 41/9/150 27/13/151 26/14/152
f 26/14/153 27/13/154 42/16/155
f 27/13/156 28/15/157 42/16/158
f 28/30/159 29/29/160 42/32/161
f 29/29/162 30/31/163 42/32/164
f 30/46/165 31/45/166 42/48/167
f 31/45/168 32/47/169 42/48/170
f 32/62/171 33/61/172 42/64/173
f 33/61/174 26/63/175 42/64/176
