# This file uses centimeters as units for non-parametric coordinates.

v 11.546863 40.966820 -12.525922
v 0.368857 40.966820 -17.156006
v -10.809147 40.966820 -12.525922
v -15.439272 40.966820 -1.347914
v -10.809147 40.966820 9.830093
v 0.368857 40.966820 14.460176
v 11.546863 40.966820 9.830093
v 16.176922 40.966820 -1.347914
v 13.347065 0.000002 -13.347089
v -0.000060 0.000002 -18.875635
v -0.000060 0.000002 -0.000000
v -13.347125 0.000002 -13.347089
v -18.875624 0.000002 -0.000000
v -13.347125 0.000002 13.347089
v -0.000060 0.000002 18.875635
v 13.347065 0.000002 13.347089
v 18.875563 0.000002 -0.000000
v 1.141386 845.098877 -1.858089
v -1.180781 845.098877 -2.819955
v -3.502949 845.098877 -1.858089
v -4.464757 845.098877 0.464062
v -3.502949 845.098877 2.786213
v -1.180781 845.098877 3.748080
v 1.141386 845.098877 2.786213
v 2.103256 845.098877 0.464062
v 7.194951 414.073578 -6.259242
v 10.342813 414.073578 1.340340
v 7.194951 414.073578 8.939919
v -0.404594 414.073578 12.087768
v -8.004150 414.073578 8.939919
v -11.152059 414.073578 1.340340
v -8.004150 414.073578 -6.259242
v -0.404594 414.073578 -9.407087
v -1.180773 850.622192 0.464062
v -1.052577 117.799774 -10.885947
v 7.756436 117.799774 -7.237131
v 11.405252 117.799774 1.571901
v 7.756436 117.799774 10.380930
v -1.052577 117.799774 14.029748
v -9.861619 117.799774 10.380930
v -13.510464 117.799774 1.571901
v -9.861619 117.799774 -7.237131
v 1.539131 310.008240 -12.428368
v 9.559995 310.008240 -9.106007
v 12.882363 310.008240 -1.085117
v 9.559995 310.008240 6.935775
v 1.539131 310.008240 10.258126
v -6.481773 310.008240 6.935775
v -9.804153 310.008240 -1.085117
v -6.481773 310.008240 -9.106007
vt 0.092115 0.940626
vt 0.157885 0.940626
vt 0.168478 0.987596
vt 0.089945 0.987596
vt 0.083752 0.852534
vt 0.135583 0.852534
vt 0.026344 0.940626
vt 0.011411 0.987596
vt 0.031919 0.852534
vt 0.099001 0.632158
vt 0.146195 0.632158
vt 0.051806 0.632158
vt 0.087564 0.512843
vt 0.132280 0.512843
vt 0.042848 0.512843
vt 0.082997 0.018653
vt 0.096660 0.018653
vt 0.069333 0.018653
vt 0.082997 0.012321
vt 0.275381 0.060285
vt 0.209609 0.060285
vt 0.204778 0.013314
vt 0.283312 0.013314
vt 0.292560 0.148377
vt 0.240729 0.148377
vt 0.341152 0.060285
vt 0.361846 0.013314
vt 0.344393 0.148377
vt 0.276927 0.368752
vt 0.229732 0.368752
vt 0.324122 0.368752
vt 0.291198 0.488068
vt 0.246483 0.488068
vt 0.335913 0.488068
vt 0.286042 0.982257
vt 0.272378 0.982257
vt 0.299705 0.982257
vt 0.286042 0.988590
vt 0.478849 0.060285
vt 0.413078 0.060285
vt 0.398144 0.013314
vt 0.476678 0.013314
vt 0.470486 0.148377
vt 0.418653 0.148377
vt 0.544619 0.060285
vt 0.555212 0.013314
vt 0.522317 0.148377
vt 0.485735 0.368752
vt 0.438539 0.368752
vt 0.532928 0.368752
vt 0.474298 0.488068
vt 0.429582 0.488068
vt 0.519014 0.488068
vt 0.469731 0.982257
vt 0.456067 0.982257
vt 0.483394 0.982257
vt 0.469731 0.988590
vt 0.677978 0.060285
vt 0.612206 0.060285
vt 0.591512 0.013314
vt 0.670047 0.013314
vt 0.660798 0.148377
vt 0.608965 0.148377
vt 0.743750 0.060285
vt 0.748582 0.013314
vt 0.712631 0.148377
vt 0.676432 0.368752
vt 0.629237 0.368752
vt 0.723627 0.368752
vt 0.662161 0.488068
vt 0.617446 0.488068
vt 0.706876 0.488068
vt 0.667318 0.982257
vt 0.653652 0.982257
vt 0.680980 0.982257
vt 0.667318 0.988590
vt 0.877527 0.011411
vt 0.956060 0.017750
vt 0.877527 0.033053
vt 0.988589 0.033053
vt 0.798993 0.017750
vt 0.956060 0.048356
vt 0.766463 0.033053
vt 0.877527 0.054694
vt 0.798993 0.048356
vn 0.382444 0.035313 -0.923303
vn 0.382444 0.035313 -0.923303
vn 0.382444 0.035313 -0.923303
vn 0.382444 0.035313 -0.923303
vn -0.382343 0.042189 -0.923057
vn -0.382343 0.042189 -0.923057
vn -0.382343 0.042189 -0.923057
vn -0.382343 0.042189 -0.923057
vn -0.921940 0.064770 -0.381880
vn -0.921940 0.064770 -0.381880
vn -0.921940 0.064770 -0.381880
vn -0.921940 0.064770 -0.381880
vn -0.920153 0.089725 0.381140
vn -0.920153 0.089725 0.381140
vn -0.920153 0.089725 0.381140
vn -0.920153 0.089725 0.381140
vn -0.380669 0.102481 0.919015
vn -0.380669 0.102481 0.919015
vn -0.380669 0.102481 0.919015
vn -0.380669 0.102481 0.919015
vn 0.380927 0.095690 0.919640
vn 0.380927 0.095690 0.919640
vn 0.380927 0.095690 0.919640
vn 0.380927 0.095690 0.919640
vn 0.921398 0.073254 0.381653
vn 0.921398 0.073254 0.381653
vn 0.921398 0.073254 0.381653
vn 0.921398 0.073254 0.381653
vn 0.922806 0.048212 -0.382236
vn 0.922806 0.048212 -0.382236
vn 0.922806 0.048212 -0.382236
vn 0.922806 0.048212 -0.382236
vn 0.000000 -1.000000 0.000000
vn 0.000000 -1.000000 0.000000
vn 0.000000 -1.000000 0.000000
vn 0.000000 -1.000000 0.000000
vn 0.000000 -1.000000 0.000000
vn 0.000000 -1.000000 0.000000
vn 0.000000 -1.000000 0.000000
vn 0.000000 -1.000000 0.000000
vn 0.000000 -1.000000 0.000000
vn 0.000000 -1.000000 0.000000
vn 0.000000 -1.000000 0.000000
vn 0.000000 -1.000000 0.000000
vn 0.000000 -1.000000 0.000000
vn 0.000000 -1.000000 0.000000
vn 0.000000 -1.000000 0.000000
vn 0.000000 -1.000000 0.000000
vn 0.000000 -1.000000 0.000000
vn 0.000000 -1.000000 0.000000
vn 0.000000 -1.000000 -0.000000
vn 0.000000 -1.000000 -0.000000
vn 0.000000 -1.000000 -0.000000
vn 0.000000 -1.000000 0.000000
vn 0.000000 -1.000000 0.000000
vn 0.000000 -1.000000 0.000000
vn 0.381389 0.082195 -0.920753
vn 0.381389 0.082195 -0.920753
vn 0.382620 0.018330 -0.923724
vn 0.382621 0.018206 -0.923726
vn -0.381794 0.068156 -0.921731
vn -0.381793 0.068156 -0.921731
vn -0.382603 0.020508 -0.923685
vn -0.382601 0.020773 -0.923680
vn -0.923221 0.037709 -0.382414
vn -0.923221 0.037709 -0.382414
vn -0.923682 0.020617 -0.382604
vn -0.923679 0.020784 -0.382603
vn -0.923844 0.008650 0.382672
vn -0.923844 0.008650 0.382672
vn -0.923721 0.018452 0.382621
vn -0.923723 0.018371 0.382621
vn -0.382683 -0.001904 0.923878
vn -0.382683 -0.001904 0.923878
vn -0.382639 0.015128 0.923774
vn -0.382639 0.015095 0.923775
vn 0.382655 0.012255 0.923810
vn 0.382655 0.012255 0.923810
vn 0.382653 0.012735 0.923805
vn 0.382653 0.012738 0.923805
vn 0.923034 0.042795 0.382332
vn 0.923034 0.042795 0.382332
vn 0.923804 0.012823 0.382652
vn 0.923807 0.012527 0.382653
vn 0.921500 0.071735 -0.381696
vn 0.921500 0.071735 -0.381697
vn 0.923773 0.015202 -0.382639
vn 0.923779 0.014731 -0.382642
vn 0.923747 0.016881 -0.382630
vn 0.923747 0.016881 -0.382630
vn 0.923747 0.016881 -0.382630
vn 0.923747 0.016881 -0.382630
vn 0.923722 0.018436 0.382620
vn 0.923722 0.018436 0.382620
vn 0.923722 0.018436 0.382620
vn 0.923722 0.018436 0.382620
vn 0.382618 0.018562 0.923720
vn 0.382618 0.018562 0.923720
vn 0.382618 0.018562 0.923720
vn 0.382618 0.018562 0.923720
vn -0.382627 0.017184 0.923743
vn -0.382627 0.017184 0.923743
vn -0.382627 0.017184 0.923743
vn -0.382627 0.017184 0.923743
vn -0.923774 0.015110 0.382640
vn -0.923774 0.015110 0.382640
vn -0.923774 0.015110 0.382640
vn -0.923774 0.015110 0.382640
vn -0.923795 0.013554 -0.382648
vn -0.923795 0.013554 -0.382648
vn -0.923795 0.013554 -0.382648
vn -0.923795 0.013554 -0.382648
vn -0.382649 0.013429 -0.923796
vn -0.382649 0.013429 -0.923796
vn -0.382649 0.013429 -0.923796
vn -0.382649 0.013429 -0.923796
vn 0.382642 0.014807 -0.923778
vn 0.382642 0.014807 -0.923778
vn 0.382642 0.014807 -0.923778
vn 0.382642 0.014807 -0.923778
vn 0.335407 0.481455 -0.809756
vn 0.335406 0.481454 -0.809756
vn 0.335407 0.481454 -0.809756
vn -0.335403 0.481450 -0.809759
vn -0.335403 0.481450 -0.809759
vn -0.335403 0.481450 -0.809760
vn -0.809766 0.481460 -0.335373
vn -0.809766 0.481460 -0.335373
vn -0.809766 0.481460 -0.335373
vn -0.809766 0.481461 0.335373
vn -0.809766 0.481461 0.335373
vn -0.809766 0.481461 0.335373
vn -0.335402 0.481449 0.809760
vn -0.335402 0.481450 0.809760
vn -0.335402 0.481450 0.809760
vn 0.335406 0.481454 0.809756
vn 0.335406 0.481454 0.809756
vn 0.335406 0.481454 0.809756
vn 0.809759 0.481463 0.335386
vn 0.809759 0.481463 0.335386
vn 0.809759 0.481463 0.335386
vn 0.809755 0.481461 -0.335399
vn 0.809755 0.481461 -0.335399
vn 0.809755 0.481461 -0.335399
vn 0.382621 0.018206 -0.923726
vn 0.382620 0.018330 -0.923724
vn 0.382683 0.002971 -0.923875
vn 0.382683 0.002956 -0.923875
vn 0.923779 0.014731 -0.382642
vn 0.923773 0.015202 -0.382639
vn 0.923877 0.002207 -0.382683
vn 0.923877 0.002292 -0.382683
vn 0.923807 0.012527 0.382653
vn 0.923804 0.012823 0.382652
vn 0.923874 0.003319 0.382682
vn 0.923874 0.003366 0.382682
vn 0.382653 0.012738 0.923805
vn 0.382653 0.012735 0.923805
vn 0.382678 0.005630 0.923865
vn 0.382678 0.005577 0.923865
vn -0.382639 0.015095 0.923775
vn -0.382639 0.015128 0.923774
vn -0.382671 0.007714 0.923852
vn -0.382671 0.007698 0.923853
vn -0.923723 0.018371 0.382621
vn -0.923721 0.018452 0.382621
vn -0.923846 0.008378 0.382673
vn -0.923845 0.008462 0.382672
vn -0.923679 0.020784 -0.382603
vn -0.923682 0.020617 -0.382604
vn -0.923854 0.007303 -0.382676
vn -0.923854 0.007351 -0.382676
vn -0.382601 0.020773 -0.923680
vn -0.382603 0.020508 -0.923685
vn -0.382678 0.005092 -0.923868
vn -0.382678 0.005040 -0.923868
vn 0.382683 0.002956 -0.923875
vn 0.382683 0.002971 -0.923875
vn 0.382464 0.033951 -0.923347
vn 0.382464 0.033951 -0.923347
vn 0.923877 0.002292 -0.382683
vn 0.923877 0.002207 -0.382683
vn 0.923422 0.031450 -0.382495
vn 0.923422 0.031450 -0.382495
vn 0.923874 0.003366 0.382682
vn 0.923874 0.003319 0.382682
vn 0.923793 0.013625 0.382649
vn 0.923793 0.013625 0.382649
vn 0.382678 0.005577 0.923865
vn 0.382678 0.005630 0.923865
vn 0.382668 -0.009095 0.923841
vn 0.382668 -0.009095 0.923841
vn -0.382671 0.007698 0.923853
vn -0.382671 0.007714 0.923852
vn -0.382578 -0.023385 0.923627
vn -0.382578 -0.023385 0.923627
vn -0.923845 0.008462 0.382672
vn -0.923846 0.008378 0.382673
vn -0.923677 -0.020881 0.382604
vn -0.923677 -0.020881 0.382604
vn -0.923854 0.007351 -0.382676
vn -0.923854 0.007303 -0.382676
vn -0.923874 -0.003047 -0.382686
vn -0.923874 -0.003047 -0.382685
vn -0.382678 0.005040 -0.923868
vn -0.382678 0.005092 -0.923868
vn -0.382609 0.019671 -0.923701
vn -0.382609 0.019671 -0.923701
s off
f 2/1/1 1/2/2 9/3/3 10/4/4
f 3/7/5 2/1/6 10/4/7 12/8/8
f 4/20/9 3/21/10 12/22/11 13/23/12
f 5/26/13 4/20/14 13/23/15 14/27/16
f 6/39/17 5/40/18 14/41/19 15/42/20
f 7/45/21 6/39/22 15/42/23 16/46/24
f 8/58/25 7/59/26 16/60/27 17/61/28
f 1/64/29 8/58/30 17/61/31 9/65/32
f 10/77/33 9/78/34 11/79/35
f 12/81/36 10/77/37 11/79/38
f 13/83/39 12/81/40 11/79/41
f 14/85/42 13/83/43 11/79/44
f 15/84/45 14/85/46 11/79/47
f 16/82/48 15/84/49 11/79/50
f 17/80/51 16/82/52 11/79/53
f 9/78/54 17/80/55 11/79/56
f 1/2/57 2/1/58 35/5/59 36/6/60
f 2/1/61 3/7/62 42/9/63 35/5/64
f 3/21/65 4/20/66 41/24/67 42/25/68
f 4/20/69 5/26/70 40/28/71 41/24/72
f 5/40/73 6/39/74 39/43/75 40/44/76
f 6/39/77 7/45/78 38/47/79 39/43/80
f 7/59/81 8/58/82 37/62/83 38/63/84
f 8/58/85 1/64/86 36/66/87 37/62/88
f 27/70/89 26/72/90 18/75/91 25/73/92
f 28/71/93 27/70/94 25/73/95 24/74/96
f 29/51/97 28/53/98 24/56/99 23/54/100
f 30/52/101 29/51/102 23/54/103 22/55/104
f 31/32/105 30/34/106 22/37/107 21/35/108
f 32/33/109 31/32/110 21/35/111 20/36/112
f 33/13/113 32/15/114 20/18/115 19/16/116
f 26/14/117 33/13/118 19/16/119 18/17/120
f 18/17/121 19/16/122 34/19/123
f 19/16/124 20/18/125 34/19/126
f 20/36/127 21/35/128 34/38/129
f 21/35/130 22/37/131 34/38/132
f 22/55/133 23/54/134 34/57/135
f 23/54/136 24/56/137 34/57/138
f 24/74/139 25/73/140 34/76/141
f 25/73/142 18/75/143 34/76/144
f 36/6/145 35/5/146 43/10/147 44/11/148
f 37/62/149 36/66/150 44/69/151 45/67/152
f 38/63/153 37/62/154 45/67/155 46/68/156
f 39/43/157 38/47/158 46/50/159 47/48/160
f 40/44/161 39/43/162 47/48/163 48/49/164
f 41/24/165 40/28/166 48/31/167 49/29/168
f 42/25/169 41/24/170 49/29/171 50/30/172
f 35/5/173 42/9/174 50/12/175 43/10/176
f 44/11/177 43/10/178 33/13/179 26/14/180
f 45/67/181 44/69/182 26/72/183 27/70/184
f 46/68/185 45/67/186 27/70/187 28/71/188
f 47/48/189 46/50/190 28/53/191 29/51/192
f 48/49/193 47/48/194 29/51/195 30/52/196
f 49/29/197 48/31/198 30/34/199 31/32/200
f 50/30/201 49/29/202 31/32/203 32/33/204
f 43/10/205 50/12/206 32/15/207 33/13/208
