# This file uses centimeters as units for non-parametric coordinates.

v -14.582443 3.187752 25.576782
v 11.489105 9.321594 23.296356
v 19.268036 9.088898 -11.881256
v -13.407898 10.168076 -11.587524
v -37.551880 -5.782318 2.788639
v 25.968170 -5.782318 32.534027
v 21.192932 -5.782318 -34.437561
v -19.464874 -0.976253 -19.992828
v 10.027313 0.441408 -26.545715
v 12.472153 -5.782318 -41.390991
v -5.468178 13.407516 18.719482
v -12.815475 14.387894 6.196404
v 8.692360 12.086105 20.670319
v -16.044617 -1.704407 31.010437
v -21.206665 -5.782318 39.317322
v -35.543060 -5.782318 18.261719
v 11.925125 -0.419497 30.008698
v 34.925842 -5.782318 22.307587
v -1.041484 -0.424600 32.653809
v 28.442383 -0.147820 -0.192565
v -24.796295 4.250336 1.303434
v 14.236832 13.440704 5.732155
v 20.773315 9.587479 6.895828
v -7.581329 12.598419 -11.420059
v -5.717468 13.796234 -9.210587
v 0.847697 11.995697 -18.786621
v 11.743546 13.903809 -6.852531
v 16.450119 12.002182 -8.928871
v 14.081955 9.354019 -15.128326
v -7.203865 9.307671 25.405121
v -15.283203 -5.782318 41.390999
v -23.084259 -1.859379 24.700928
v -26.045990 -5.782318 35.906982
v -29.975128 -5.782318 31.191254
v -20.051575 10.379791 8.830261
v -26.218414 0.453579 12.147141
v 0.507820 -5.782318 41.390999
v 26.282501 -0.089750 13.879013
v 37.058258 -5.782318 15.587616
v 21.508026 -0.350678 23.070526
v 31.346130 -5.782318 27.889252
v -35.414124 -5.782318 -12.865448
v -28.689575 -5.782318 -27.422333
v 20.240021 1.059771 -18.759918
v 26.438141 -0.842977 -13.793945
v 37.551880 -5.782318 -12.332535
v 32.676697 -5.782318 -22.914886
v -24.546814 -0.509906 -12.241745
v -14.269257 1.442909 -19.309998
v -23.475647 -5.782318 -33.946991
v -16.420746 -5.782318 -38.015747
v -6.721497 -5.782318 -39.743042
v -3.554821 -2.424717 -30.193329
v -0.087562 15.790176 2.509212
v -19.272614 11.051941 -1.397419
v -12.293243 14.573288 0.670528
v -16.532898 12.765503 8.793831
v 9.085464 14.799118 -3.027821
v 18.438721 -5.782318 36.444092
v -22.230530 2.560806 -9.386063
vt 0.677472 0.489167
vt 0.660309 0.636521
vt 0.629345 0.636201
vt 0.742401 0.490674
vt 0.757674 0.549376
vt 0.636200 0.725999
vt 0.906892 0.509192
vt 0.882280 0.532247
vt 0.693020 0.659328
vt 0.697616 0.707842
vt 0.988589 0.653186
vt 0.931072 0.663405
vt 0.805021 0.691698
vt 0.755480 0.794599
vt 0.975345 0.818046
vt 0.950547 0.792127
vt 0.885741 0.740315
vt 0.739078 0.814000
vt 0.929709 0.846556
vt 0.909132 0.773893
vt 0.813251 0.878673
vt 0.687807 0.815466
vt 0.680228 0.883272
vt 0.894027 0.946799
vt 0.202467 0.746845
vt 0.202346 0.910967
vt 0.116706 0.856864
vt 0.148493 0.975749
vt 0.105443 0.988590
vt 0.116749 0.743018
vt 0.117356 0.658880
vt 0.207366 0.011412
vt 0.332688 0.088121
vt 0.200666 0.102552
vt 0.346322 0.011412
vt 0.155242 0.029615
vt 0.504107 0.054843
vt 0.112658 0.059560
vt 0.446788 0.111346
vt 0.078082 0.100962
vt 0.570364 0.089174
vt 0.138719 0.157945
vt 0.531116 0.172262
vt 0.213533 0.150255
vt 0.029087 0.214485
vt 0.617689 0.129952
vt 0.111140 0.268170
vt 0.649188 0.178961
vt 0.011410 0.350335
vt 0.667952 0.237963
vt 0.573129 0.252961
vt 0.123655 0.363377
vt 0.592136 0.376512
vt 0.442953 0.170280
vt 0.146232 0.457226
vt 0.672297 0.483098
vt 0.030221 0.487774
vt 0.574499 0.495928
vt 0.125850 0.482298
vt 0.629397 0.576008
vt 0.223868 0.476554
vt 0.089395 0.615583
vt 0.528343 0.677175
vt 0.170569 0.550352
vt 0.519959 0.539529
vt 0.216289 0.544360
vt 0.135275 0.672870
vt 0.430088 0.607888
vt 0.310571 0.639912
vt 0.197357 0.708590
vt 0.282706 0.723759
vt 0.451604 0.738225
vt 0.647610 0.776821
vt 0.593672 0.842903
vt 0.560261 0.747697
vt 0.653525 0.866618
vt 0.584322 0.629787
vt 0.578806 0.936757
vt 0.645745 0.956085
vt 0.098809 0.637441
vt 0.103196 0.802301
vt 0.017526 0.740064
vt 0.018038 0.863615
vt 0.011412 0.620647
vt 0.100858 0.946295
vt 0.028156 0.577046
vt 0.326133 0.791028
vt 0.328461 0.745497
vt 0.399120 0.736961
vt 0.404561 0.826629
vt 0.228536 0.765636
vt 0.207152 0.714479
vt 0.305320 0.773191
vt 0.322503 0.863428
vt 0.439358 0.756924
vt 0.566244 0.795580
vt 0.532218 0.889646
vt 0.541032 0.676328
vn -0.490692 0.731003 0.474190
vn -0.490692 0.731003 0.474190
vn -0.490692 0.731003 0.474190
vn -0.081779 0.992112 0.095004
vn -0.081779 0.992112 0.095004
vn -0.081779 0.992112 0.095004
vn -0.081779 0.992112 0.095004
vn -0.561032 0.827712 0.011655
vn -0.561032 0.827712 0.011655
vn -0.561032 0.827712 0.011655
vn -0.404437 0.914535 -0.007536
vn -0.404437 0.914535 -0.007536
vn -0.404437 0.914535 -0.007536
vn 0.135556 0.984083 0.114915
vn 0.135556 0.984083 0.114915
vn 0.135556 0.984083 0.114915
vn 0.135556 0.984083 0.114915
vn 0.481190 0.833739 0.270806
vn 0.481190 0.833739 0.270806
vn 0.481190 0.833739 0.270806
vn 0.481190 0.833739 0.270806
vn 0.581336 0.812920 -0.034786
vn 0.581336 0.812920 -0.034786
vn 0.581336 0.812920 -0.034786
vn 0.581336 0.812920 -0.034786
vn -0.361932 0.887485 -0.285263
vn -0.361932 0.887485 -0.285264
vn -0.361932 0.887485 -0.285264
vn -0.318601 0.919621 -0.229761
vn -0.318601 0.919621 -0.229761
vn -0.318601 0.919621 -0.229761
vn -0.078909 0.988335 -0.130260
vn -0.078909 0.988335 -0.130260
vn -0.078909 0.988335 -0.130260
vn -0.213721 0.922976 -0.320061
vn -0.213721 0.922976 -0.320061
vn -0.213721 0.922976 -0.320061
vn 0.290175 0.956714 -0.022274
vn 0.290175 0.956714 -0.022274
vn 0.290175 0.956714 -0.022274
vn 0.360269 0.932112 -0.037068
vn 0.360269 0.932112 -0.037068
vn 0.360269 0.932112 -0.037068
vn 0.339615 0.811114 -0.476189
vn 0.339615 0.811114 -0.476189
vn 0.339615 0.811114 -0.476189
vn 0.086612 0.629789 0.771922
vn 0.086612 0.629789 0.771922
vn 0.086612 0.629789 0.771922
vn -0.245343 0.588932 0.770043
vn -0.245343 0.588932 0.770043
vn -0.245343 0.588932 0.770043
vn -0.245343 0.588932 0.770043
vn -0.119171 0.921116 0.370598
vn -0.119171 0.921116 0.370598
vn -0.119171 0.921116 0.370598
vn -0.129756 0.919611 0.370783
vn -0.129756 0.919611 0.370783
vn -0.129756 0.919611 0.370783
vn -0.476426 0.713298 0.514028
vn -0.476426 0.713298 0.514028
vn -0.476426 0.713298 0.514028
vn -0.270990 0.935733 0.225762
vn -0.270990 0.935733 0.225762
vn -0.270990 0.935733 0.225762
vn -0.222012 0.922759 0.315001
vn -0.222012 0.922759 0.315001
vn -0.222012 0.922759 0.315001
vn -0.266822 0.923676 0.275008
vn -0.266822 0.923676 0.275008
vn -0.266822 0.923676 0.275008
vn -0.834134 0.545492 0.081603
vn -0.834134 0.545492 0.081603
vn -0.834134 0.545492 0.081603
vn -0.592042 0.781696 0.196055
vn -0.592042 0.781696 0.196055
vn -0.592042 0.781696 0.196055
vn -0.673092 0.574004 0.466334
vn -0.673092 0.574004 0.466334
vn -0.673092 0.574004 0.466334
vn -0.511421 0.813278 0.277540
vn -0.511421 0.813278 0.277540
vn -0.511421 0.813278 0.277540
vn -0.523462 0.849336 0.067938
vn -0.523462 0.849336 0.067938
vn -0.523462 0.849336 0.067938
vn -0.410948 0.872775 0.263414
vn -0.410948 0.872775 0.263414
vn -0.410948 0.872775 0.263414
vn -0.370580 0.914987 0.159590
vn -0.370580 0.914987 0.159590
vn -0.370580 0.914987 0.159590
vn 0.503662 0.505368 0.700662
vn 0.503662 0.505368 0.700662
vn 0.503662 0.505368 0.700662
vn 0.269332 0.884576 0.380770
vn 0.269332 0.884576 0.380770
vn 0.269332 0.884576 0.380770
vn 0.241563 0.851614 0.465189
vn 0.241563 0.851614 0.465189
vn 0.241563 0.851614 0.465189
vn 0.114882 0.817226 0.564751
vn 0.114882 0.817226 0.564751
vn 0.114882 0.817226 0.564751
vn 0.137903 0.855041 0.499887
vn 0.137903 0.855041 0.499887
vn 0.137903 0.855041 0.499887
vn 0.164746 0.564658 0.808715
vn 0.164746 0.564658 0.808715
vn 0.164746 0.564658 0.808715
vn 0.000000 0.852475 0.522768
vn 0.000000 0.852475 0.522768
vn 0.000000 0.852475 0.522768
vn 0.754842 0.651276 -0.077804
vn 0.754842 0.651275 -0.077804
vn 0.754842 0.651276 -0.077804
vn 0.656851 0.649867 0.382387
vn 0.656851 0.649867 0.382387
vn 0.656851 0.649867 0.382387
vn 0.821321 0.556878 0.123770
vn 0.821321 0.556878 0.123770
vn 0.821321 0.556878 0.123770
vn 0.457802 0.886555 0.066611
vn 0.457802 0.886555 0.066611
vn 0.457802 0.886555 0.066611
vn 0.404009 0.894797 0.190041
vn 0.404009 0.894797 0.190041
vn 0.404009 0.894797 0.190041
vn 0.404009 0.894797 0.190041
vn 0.652679 0.667723 0.357989
vn 0.652679 0.667723 0.357989
vn 0.652679 0.667723 0.357989
vn 0.310109 0.880278 0.359087
vn 0.310109 0.880278 0.359087
vn 0.310109 0.880278 0.359087
vn 0.375912 0.894751 0.241062
vn 0.375912 0.894751 0.241062
vn 0.375912 0.894751 0.241062
vn -0.779648 0.625951 -0.018265
vn -0.779648 0.625951 -0.018265
vn -0.779648 0.625951 -0.018265
vn -0.649070 0.628855 -0.428076
vn -0.649070 0.628855 -0.428076
vn -0.649070 0.628855 -0.428076
vn -0.796784 0.537439 -0.276214
vn -0.796784 0.537439 -0.276214
vn -0.796784 0.537439 -0.276214
vn -0.615015 0.742647 -0.265014
vn -0.615015 0.742647 -0.265014
vn -0.615015 0.742647 -0.265014
vn -0.519953 0.851241 -0.070972
vn -0.519953 0.851241 -0.070972
vn -0.519953 0.851241 -0.070972
vn -0.339783 0.765061 -0.547018
vn -0.339783 0.765061 -0.547018
vn -0.339783 0.765061 -0.547018
vn -0.667919 0.710353 -0.221999
vn -0.667919 0.710353 -0.221999
vn -0.667919 0.710353 -0.221998
vn -0.286526 0.926581 -0.243618
vn -0.286526 0.926581 -0.243618
vn -0.286526 0.926581 -0.243618
vn -0.419218 0.886991 -0.193657
vn -0.419218 0.886991 -0.193657
vn -0.419218 0.886991 -0.193657
vn 0.441152 0.614049 -0.654468
vn 0.441152 0.614049 -0.654468
vn 0.441152 0.614049 -0.654468
vn 0.617577 0.553459 -0.558821
vn 0.617577 0.553459 -0.558821
vn 0.617577 0.553459 -0.558821
vn 0.502790 0.803034 -0.319905
vn 0.502790 0.803034 -0.319905
vn 0.502790 0.803034 -0.319905
vn 0.788400 0.597414 -0.146705
vn 0.788400 0.597414 -0.146705
vn 0.788400 0.597414 -0.146705
vn 0.535132 0.844716 0.009453
vn 0.535132 0.844716 0.009453
vn 0.535132 0.844716 0.009453
vn 0.415572 0.903198 -0.107397
vn 0.415572 0.903198 -0.107397
vn 0.415572 0.903198 -0.107397
vn 0.293294 0.910235 -0.292321
vn 0.293294 0.910235 -0.292321
vn 0.293294 0.910235 -0.292321
vn 0.419617 0.886887 -0.193272
vn 0.419617 0.886886 -0.193272
vn 0.419617 0.886886 -0.193272
vn -0.445732 0.617536 -0.648053
vn -0.445732 0.617536 -0.648053
vn -0.445732 0.617536 -0.648053
vn -0.445732 0.617536 -0.648053
vn -0.454538 0.679677 -0.575704
vn -0.454538 0.679677 -0.575704
vn -0.454538 0.679677 -0.575704
vn -0.370892 0.880192 -0.296145
vn -0.370892 0.880192 -0.296145
vn -0.370892 0.880192 -0.296145
vn -0.293714 0.926627 -0.234722
vn -0.293714 0.926627 -0.234722
vn -0.293714 0.926627 -0.234722
vn -0.161293 0.946465 -0.279622
vn -0.161293 0.946465 -0.279622
vn -0.161293 0.946465 -0.279622
vn -0.423139 0.638047 -0.643311
vn -0.423139 0.638047 -0.643311
vn -0.423139 0.638047 -0.643311
vn -0.288140 0.776940 -0.559768
vn -0.288140 0.776940 -0.559768
vn -0.288140 0.776940 -0.559768
vn -0.077589 0.956061 -0.282716
vn -0.077589 0.956061 -0.282716
vn -0.077589 0.956061 -0.282716
vn -0.077589 0.956061 -0.282716
vn 0.452799 0.617676 -0.643001
vn 0.452799 0.617676 -0.643001
vn 0.452799 0.617676 -0.643001
vn 0.233158 0.896374 -0.377029
vn 0.233158 0.896374 -0.377029
vn 0.233158 0.896374 -0.377029
vn 0.317558 0.689455 -0.651006
vn 0.317558 0.689455 -0.651006
vn 0.317558 0.689455 -0.651006
vn 0.086267 0.601737 -0.794022
vn 0.086267 0.601737 -0.794022
vn 0.086267 0.601737 -0.794022
vn 0.109908 0.984337 -0.137842
vn 0.109908 0.984337 -0.137842
vn 0.109908 0.984337 -0.137842
vn 0.000442 0.785509 -0.618851
vn 0.000442 0.785509 -0.618851
vn 0.000442 0.785509 -0.618850
vn -0.027757 0.945873 -0.323349
vn -0.027757 0.945873 -0.323349
vn -0.027757 0.945873 -0.323349
vn -0.504497 0.743957 0.438190
vn -0.504497 0.743957 0.438190
vn -0.504497 0.743957 0.438190
vn -0.504497 0.743958 0.438190
vn -0.254766 0.940906 0.223136
vn -0.254766 0.940906 0.223136
vn -0.254766 0.940906 0.223136
vn 0.034926 0.806330 0.590433
vn 0.034926 0.806330 0.590433
vn 0.034926 0.806330 0.590433
vn 0.034926 0.806330 0.590433
vn 0.068728 0.983496 0.167370
vn 0.068728 0.983496 0.167370
vn 0.068728 0.983496 0.167370
vn 0.010541 0.982742 -0.184684
vn 0.010541 0.982742 -0.184684
vn 0.010541 0.982742 -0.184684
vn 0.010541 0.982742 -0.184684
vn 0.295671 0.832497 -0.468538
vn 0.295671 0.832497 -0.468538
vn 0.295671 0.832497 -0.468538
vn 0.217156 0.913392 -0.344323
vn 0.217156 0.913392 -0.344323
vn 0.217156 0.913392 -0.344323
vn 0.017316 0.984721 -0.173278
vn 0.017316 0.984721 -0.173278
vn 0.017316 0.984721 -0.173278
vn -0.442752 0.896086 -0.031637
vn -0.442752 0.896086 -0.031637
vn -0.442752 0.896086 -0.031637
vn -0.355104 0.883390 -0.305815
vn -0.355104 0.883390 -0.305815
vn -0.355104 0.883390 -0.305815
s off
f 1/1/1 57/2/2 35/3/3
f 54/13/4 56/10/5 12/9/6 11/5/7
f 55/6/8 35/3/9 57/2/10
f 57/2/11 12/9/12 56/10/13
f 54/13/14 13/8/15 22/12/16 58/17/17
f 2/7/18 23/11/19 22/12/20 13/8/21
f 3/15/22 28/16/23 22/12/24 23/11/25
f 4/22/26 55/6/27 24/18/28
f 55/6/29 25/14/30 24/18/31
f 54/13/32 25/14/33 56/10/34
f 26/21/35 24/18/36 25/14/37
f 58/17/38 22/12/39 27/20/40
f 28/16/41 27/20/42 22/12/43
f 29/19/44 28/16/45 3/15/46
f 2/25/47 30/26/48 19/27/49
f 1/28/50 14/29/51 19/27/52 30/26/53
f 31/32/54 19/33/55 14/34/56
f 31/32/57 14/34/58 15/36/59
f 1/44/60 32/42/61 14/34/62
f 34/40/63 33/38/64 14/34/65
f 33/38/66 15/36/67 14/34/68
f 34/40/69 14/34/70 32/42/71
f 35/73/72 21/74/73 36/75/74
f 5/49/75 36/47/76 21/52/77
f 1/77/78 35/73/79 36/75/80
f 1/44/81 36/47/82 32/42/83
f 5/49/84 16/45/85 36/47/86
f 16/45/87 32/42/88 36/47/89
f 34/40/90 32/42/91 16/45/92
f 17/30/93 40/31/94 2/25/95
f 6/41/96 40/43/97 17/39/98
f 6/41/99 17/39/100 59/37/101
f 59/37/102 17/39/103 19/33/104
f 59/37/105 19/33/106 37/35/107
f 2/25/108 19/27/109 17/30/110
f 31/32/111 37/35/112 19/33/113
f 3/80/114 23/81/115 20/82/116
f 2/85/117 38/83/118 23/81/119
f 38/83/120 20/82/121 23/81/122
f 39/50/123 20/53/124 38/51/125
f 39/50/126 38/51/127 40/43/128 18/48/129
f 2/54/130 40/43/131 38/51/132
f 6/41/133 41/46/134 40/43/135
f 41/46/136 18/48/137 40/43/138
f 35/73/139 55/76/140 21/74/141
f 4/79/142 60/78/143 55/76/144
f 60/78/145 21/74/146 55/76/147
f 5/49/148 21/52/149 60/55/150
f 5/49/151 60/55/152 42/57/153
f 42/57/154 60/55/155 48/59/156
f 4/61/157 48/59/158 60/55/159
f 43/62/160 48/59/161 8/64/162
f 43/62/163 42/57/164 48/59/165
f 29/87/166 3/88/167 44/89/168
f 3/80/169 45/84/170 44/86/171
f 7/63/172 44/65/173 45/58/174
f 3/80/175 20/82/176 45/84/177
f 39/50/178 46/56/179 20/53/180
f 46/56/181 45/58/182 20/53/183
f 7/63/184 45/58/185 47/60/186
f 47/60/187 45/58/188 46/56/189
f 4/91/190 24/92/191 49/93/192 48/94/193
f 26/21/194 49/23/195 24/18/196
f 8/64/197 48/59/198 49/66/199
f 43/62/200 8/64/201 50/67/202
f 50/67/203 8/64/204 51/70/205
f 26/95/206 53/96/207 49/97/208
f 49/66/209 53/69/210 8/64/211
f 52/71/212 51/70/213 8/64/214 53/69/215
f 29/87/216 44/89/217 9/90/218
f 7/63/219 9/68/220 44/65/221
f 26/21/222 29/19/223 9/24/224
f 26/95/225 9/98/226 53/96/227
f 7/63/228 10/72/229 53/69/230
f 7/63/231 53/69/232 9/68/233
f 52/71/234 53/69/235 10/72/236
f 1/1/237 30/4/238 11/5/239 57/2/240
f 57/2/241 11/5/242 12/9/243
f 2/7/244 13/8/245 11/5/246 30/4/247
f 54/13/248 11/5/249 13/8/250
f 54/13/251 58/17/252 27/20/253 25/14/254
f 29/19/255 26/21/256 28/16/257
f 28/16/258 26/21/259 27/20/260
f 26/21/261 25/14/262 27/20/263
f 57/2/264 56/10/265 55/6/266
f 55/6/267 56/10/268 25/14/269
