# This file uses centimeters as units for non-parametric coordinates.

v -2.854919 84.217117 -31.655407
v -29.174042 85.060448 -6.661415
v -19.897461 81.125992 -22.887325
v 0.768280 29.882574 0.672436
v -2.697754 50.514359 -29.707336
v -12.312317 54.143242 -13.805676
v -28.450012 51.870918 -4.168510
v -1.302338 29.991636 2.725792
v 10.399628 106.498550 11.293316
v 9.224701 100.139137 40.654087
v 4.582977 102.363419 25.698471
v 12.336731 54.273113 15.633297
v 0.895691 80.804604 5.724716
v 5.081940 78.497223 20.656395
v 0.484467 74.584770 35.125637
v 12.303926 53.772999 17.997074
v 23.289490 79.865913 6.741619
v 27.286530 70.035835 -27.979088
v 30.674744 71.718033 -9.257221
v -0.101471 21.255684 1.436901
v 22.052002 47.250835 15.368080
v 19.132233 45.287422 -3.235245
v 25.261688 37.893021 -19.551468
v 0.156403 20.503298 -1.370621
v 28.928375 114.059471 26.847744
v 53.075409 97.698303 29.801464
v 39.991760 105.054321 33.349133
v 14.279175 65.201653 23.184395
v 13.924408 92.683586 34.665966
v 26.920319 85.255890 31.555367
v 38.219452 76.442894 36.885643
v 16.233063 63.895908 23.362827
v -45.964050 92.204155 -13.106823
v -20.956421 111.402626 3.956318
v -35.611725 99.886276 1.080227
v 0.590515 52.907097 0.980854
v -33.899689 64.610001 1.181602
v -19.431305 75.959610 4.549694
v -8.577728 84.088577 17.418575
v 2.626038 54.473186 2.286339
v 12.328340 123.145752 -1.794243
v -9.922028 116.725647 -29.158878
v 5.948639 117.640068 -19.011784
v -3.141022 62.634415 1.221848
v 19.959259 90.707848 -0.964546
v 4.501343 89.593758 -11.419106
v -2.983856 84.623123 -27.812672
v -4.985809 62.145176 -0.936794
vt 0.133157 0.860060
vt 0.288074 0.636543
vt 0.267444 0.890121
vt 0.129292 0.540596
vt 0.260894 0.568320
vt 0.185734 0.774476
vt 0.380715 0.382963
vt 0.718950 0.764610
vt 0.477140 0.596613
vt 0.610695 0.579251
vt 0.547921 0.373097
vt 0.638951 0.714457
vt 0.655944 0.730279
vt 0.598887 0.937694
vt 0.988590 0.940924
vt 0.846245 0.707042
vt 0.987288 0.683428
vt 0.824093 0.701493
vt 0.902113 0.489259
vt 0.947866 0.684501
vt 0.782366 0.519150
vt 0.740795 0.334071
vt 0.658792 0.536780
vt 0.760357 0.330251
vt 0.704877 0.733086
vt 0.215211 0.397760
vt 0.300404 0.139327
vt 0.370151 0.384909
vt 0.165375 0.195824
vt 0.126709 0.012214
vt 0.011412 0.210825
vt 0.082804 0.460012
vt 0.185109 0.970036
vt 0.161875 0.968066
vt 0.011410 0.776256
vt 0.511219 0.835708
vt 0.496551 0.617110
vt 0.619498 0.779506
vt 0.403039 0.684442
vt 0.298423 0.531223
vt 0.295487 0.741192
vt 0.314593 0.521246
vt 0.419657 0.904509
vt 0.376651 0.370342
vt 0.600383 0.249644
vt 0.497938 0.458330
vt 0.510559 0.187536
vt 0.676259 0.011410
vt 0.390820 0.100822
vt 0.693106 0.023374
vt 0.129660 0.560874
vt 0.128822 0.830393
vt 0.011410 0.771700
vt 0.855842 0.736334
vt 0.781919 0.988593
vt 0.724499 0.743322
vt 0.803590 0.253776
vt 0.675662 0.262291
vt 0.687639 0.048009
vt 0.612414 0.468265
vt 0.699380 0.017931
vt 0.939670 0.185932
vt 0.803999 0.223907
vt 0.717249 0.014195
vt 0.866833 0.438190
vt 0.287760 0.740469
vt 0.437116 0.946238
vt 0.294624 0.988303
vn -0.686454 -0.159736 -0.709412
vn -0.527555 -0.425525 -0.735265
vn -0.872537 -0.055492 -0.485386
vn -0.748814 -0.405969 -0.523896
vn -0.615240 -0.519707 -0.592777
vn -0.555705 -0.643700 -0.526158
vn -0.487424 -0.747169 -0.451838
vn -0.449117 -0.053645 -0.891861
vn -0.972868 0.230755 0.016721
vn -0.983882 -0.010741 -0.178495
vn -0.915390 0.243779 0.320363
vn -0.990271 -0.064672 0.123210
vn -0.987806 -0.148944 -0.045325
vn -0.952631 -0.294574 -0.075630
vn -0.898869 -0.426035 -0.102612
vn -0.889486 0.383024 -0.249214
vn 0.982771 -0.119351 0.141129
vn 0.879083 -0.337617 0.336493
vn 0.980119 -0.105759 -0.167876
vn 0.911827 -0.408619 0.040023
vn 0.854614 -0.476543 0.206258
vn 0.766659 -0.599060 0.231001
vn 0.666957 -0.702110 0.249420
vn 0.918575 0.068123 0.389332
vn 0.020375 0.197099 0.980172
vn -0.250176 0.044801 0.967163
vn 0.311186 0.097571 0.945327
vn 0.009004 -0.116971 0.993095
vn -0.177927 -0.132909 0.975027
vn -0.256644 -0.256586 0.931825
vn -0.325562 -0.368152 0.870904
vn -0.163138 0.437872 0.884112
vn -0.574935 0.032632 0.817548
vn -0.528908 -0.274351 0.803111
vn -0.381254 0.263900 0.886003
vn -0.318649 -0.100107 0.942572
vn -0.358468 -0.277103 0.891468
vn -0.261323 -0.394600 0.880909
vn -0.163808 -0.497294 0.851977
vn -0.797609 -0.036980 0.602041
vn 0.766253 0.045341 -0.640938
vn 0.856963 -0.200951 -0.474587
vn 0.533666 0.080034 -0.841899
vn 0.662766 -0.244021 -0.707951
vn 0.752872 -0.332483 -0.568014
vn 0.720816 -0.469960 -0.509472
vn 0.674977 -0.589949 -0.443132
vn 0.895991 0.200646 -0.396157
s 1
f 3/1/1 7/2/2 2/3/3
f 5/4/4 6/5/5 3/6/1
f 5/4/4 4/7/6 6/5/5
f 4/8/6 7/9/2 6/10/5
f 4/12/6 8/13/7 7/14/2
f 5/15/4 3/16/1 1/17/8
f 6/10/5 7/9/2 3/11/1
s 3
f 11/18/9 15/19/10 10/20/11
f 13/23/12 14/21/13 11/18/9
f 13/23/12 12/22/14 14/21/13
f 12/22/14 15/19/10 14/21/13
f 12/22/14 16/24/15 15/19/10
f 13/23/12 11/18/9 9/25/16
f 14/21/13 15/19/10 11/18/9
s 5
f 19/26/17 23/27/18 18/28/19
f 21/31/20 22/29/21 19/26/17
f 21/31/20 20/30/22 22/29/21
f 20/30/22 23/27/18 22/29/21
f 20/33/22 24/34/23 23/35/18
f 21/31/20 19/26/17 17/32/24
f 22/29/21 23/27/18 19/26/17
s 7
f 27/36/25 31/37/26 26/38/27
f 29/41/28 30/39/29 27/36/25
f 29/41/28 28/40/30 30/39/29
f 28/40/30 31/37/26 30/39/29
f 28/40/30 32/42/31 31/37/26
f 29/41/28 27/36/25 25/43/32
f 30/39/29 31/37/26 27/36/25
s 9
f 35/44/33 39/45/34 34/46/35
f 37/49/36 38/47/37 35/44/33
f 37/49/36 36/48/38 38/47/37
f 36/48/38 39/45/34 38/47/37
f 36/48/38 40/50/39 39/45/34
f 37/51/36 35/52/33 33/53/40
f 38/47/37 39/45/34 35/44/33
s 11
f 43/54/41 47/55/42 42/56/43
f 45/57/44 46/58/45 43/59/41
f 45/57/44 44/60/46 46/58/45
f 44/61/46 47/62/42 46/63/45
f 44/61/46 48/64/47 47/62/42
f 45/66/44 43/67/41 41/68/48
f 46/63/45 47/62/42 43/65/41
