# This file uses centimeters as units for non-parametric coordinates.

v 97.216385 -6.568101 -23.556946
v -11.540908 -0.000000 101.721962
v -105.593178 -6.568101 -4.680385
v 0.000000 0.000000 -107.272293
v 123.953209 0.000000 17.022331
v 129.882645 0.000000 44.272156
v 100.922661 -6.568101 69.285095
v 76.055443 0.000000 103.554642
v 40.901684 0.000000 109.850555
v 9.588684 -6.568101 93.554619
v -40.335155 0.000000 89.594635
v -76.593979 0.000000 93.898026
v -94.292862 3.339573 56.486439
v -84.804855 0.000000 19.310461
v -107.102257 0.000000 -53.048256
v -63.807388 0.000000 -107.802025
v -39.796001 -6.568101 -95.993515
v 27.914219 0.000000 -106.453102
v 35.318382 -6.568101 -79.275764
v 86.029480 0.000000 -92.929520
v 120.081421 0.000000 -69.498062
v 9.588684 9.543435 93.554619
v -11.540908 13.579503 101.721962
v 40.901684 13.579503 109.850555
v 76.055443 13.579503 103.554642
v 100.922661 7.075588 69.285095
v 129.882645 13.579503 44.272156
v 123.953209 13.579503 17.022331
v 97.216385 13.579503 -23.556946
v -84.804855 13.579503 19.310461
v -105.593178 7.075588 -4.680385
v -94.292862 13.579503 56.486439
v -76.593979 13.579503 93.898026
v -40.335155 7.075588 89.594635
v -39.796001 7.075588 -95.993515
v 0.000000 10.339748 -107.272293
v -63.807388 13.579503 -107.802025
v -107.102257 10.672872 -53.048256
v 120.081421 13.579503 -69.498062
v 86.029480 13.579503 -92.929520
v 35.318382 7.075588 -79.275764
v 27.914219 13.579503 -106.453102
v -8.961831 -16.154444 90.396423
v 1.281062 -16.154444 0.115200
v 87.563454 -16.154444 -20.792282
v 111.293175 -16.154444 15.223019
v 116.555717 -16.154444 39.408039
v 90.852875 -16.154444 61.607754
v 68.782494 -16.154444 92.022972
v 37.582508 -16.154444 97.610794
v 9.791301 -16.154444 83.147675
v -92.435974 -16.154444 -4.038779
v -34.517574 -16.154444 79.633064
v -66.698334 -16.154444 83.452446
v -82.406616 -16.154444 50.248573
v -73.985733 -16.154444 17.253801
v 1.281062 -16.154444 -95.092102
v -93.775337 -16.154444 -46.966679
v -55.349869 -16.154444 -95.562256
v -34.039055 -16.154444 -85.081848
v 26.055750 -16.154444 -94.365044
v 32.627159 -16.154444 -70.244370
v 69.579399 -16.154444 -81.720749
v 107.856834 -16.154444 -61.566368
v 8.794745 11.832583 87.753616
v -11.628875 15.868651 95.648071
v 39.915657 15.868651 106.214508
v 66.091652 15.868651 94.355858
v 90.128021 15.868651 61.231316
v 125.923637 15.868651 42.827179
v 120.192307 15.868651 16.487812
v 86.124886 15.868651 -23.876524
v -30.381226 12.025270 0.034053
v -79.969315 15.868651 19.720625
v -92.242989 15.868651 -9.905292
v -89.140305 15.868651 55.654499
v -71.320320 15.868651 77.873535
v -38.606937 15.868651 86.635361
v -39.879417 15.868651 -85.521149
v -3.285178 12.628898 -95.288330
v -63.088551 15.868651 -96.935112
v -93.701653 12.962020 -56.657120
v 108.225960 15.868651 -68.282677
v 82.391838 15.868651 -83.757156
v 30.207418 15.868651 -68.986145
v 20.785223 15.868651 -94.301125
v 21.586161 15.868651 -5.879192
v 83.799965 12.025270 -61.169701
v 50.562084 12.218152 -44.437866
v -13.940771 15.868651 -62.124725
v -50.489361 12.025270 48.519310
v -4.619230 15.868651 39.840370
v 42.568165 15.868651 39.983227
v 88.304092 12.025270 22.454144
vt 0.341016 0.113742
vt 0.226823 0.108646
vt 0.241527 0.034073
vt 0.296658 0.264672
vt 0.176607 0.020670
vt 0.240210 0.025278
vt 0.340229 0.087804
vt 0.183618 0.215604
vt 0.391696 0.196910
vt 0.131246 0.104380
vt 0.173046 0.011411
vt 0.453462 0.034331
vt 0.450467 0.062056
vt 0.183970 0.325956
vt 0.432935 0.119180
vt 0.435289 0.347756
vt 0.111395 0.079137
vt 0.511215 0.113966
vt 0.488609 0.122473
vt 0.065875 0.294586
vt 0.282082 0.386204
vt 0.452202 0.244511
vt 0.026928 0.137291
vt 0.049601 0.160592
vt 0.477562 0.232558
vt 0.162578 0.433228
vt 0.046417 0.342349
vt 0.306581 0.530874
vt 0.517029 0.322837
vt 0.011411 0.219501
vt 0.020372 0.221807
vt 0.544548 0.249874
vt 0.514597 0.266545
vt 0.233560 0.502170
vt 0.068631 0.405440
vt 0.031446 0.342143
vt 0.051576 0.292730
vt 0.492955 0.408416
vt 0.546567 0.315154
vt 0.144991 0.523617
vt 0.090226 0.481943
vt 0.421813 0.534284
vt 0.293702 0.562093
vt 0.234571 0.513478
vt 0.518768 0.408221
vt 0.142941 0.535667
vt 0.050730 0.494277
vt 0.061337 0.409481
vt 0.521089 0.462693
vt 0.412917 0.565623
vt 0.547873 0.464374
vt 0.956142 0.755784
vt 0.733621 0.731830
vt 0.938276 0.711928
vt 0.775864 0.907849
vt 0.682088 0.530050
vt 0.929614 0.815549
vt 0.723382 0.950996
vt 0.498957 0.731830
vt 0.770858 0.474557
vt 0.857188 0.927541
vt 0.523630 0.814430
vt 0.560201 0.658524
vt 0.973924 0.646936
vt 0.939027 0.890806
vt 0.617575 0.954129
vt 0.500749 0.673892
vt 0.531914 0.572108
vt 0.960151 0.573972
vt 0.721801 0.981766
vt 0.602585 0.985295
vt 0.497799 0.864267
vt 0.581590 0.482592
vt 0.885185 0.522358
vt 0.467631 0.884045
vt 0.504287 0.533638
vt 0.562040 0.454004
vt 0.830468 0.462249
vt 0.904108 0.498809
vt 0.988575 0.556963
vt 0.842458 0.431083
vt 0.206496 0.730855
vt 0.190307 0.681441
vt 0.230018 0.681441
vt 0.239966 0.730855
vt 0.166679 0.724824
vt 0.166679 0.680968
vt 0.206496 0.608213
vt 0.239966 0.608213
vt 0.206496 0.798193
vt 0.223936 0.798193
vt 0.166679 0.784588
vt 0.166679 0.615975
vt 0.206496 0.526003
vt 0.239966 0.526003
vt 0.245609 0.731061
vt 0.245609 0.794151
vt 0.206496 0.882988
vt 0.239966 0.882988
vt 0.166679 0.859846
vt 0.166679 0.543011
vt 0.347722 0.869502
vt 0.331532 0.789358
vt 0.365161 0.789358
vt 0.381192 0.869502
vt 0.394790 0.894247
vt 0.410978 0.826521
vt 0.444448 0.826521
vt 0.428418 0.894247
vt 0.292758 0.831211
vt 0.292758 0.767484
vt 0.326228 0.767484
vt 0.326228 0.831211
vt 0.252940 0.819835
vt 0.252940 0.763276
vt 0.276568 0.672585
vt 0.326228 0.672585
vt 0.252940 0.679051
vt 0.292758 0.565148
vt 0.326228 0.565148
vt 0.252940 0.583697
vt 0.035039 0.747430
vt 0.051228 0.691325
vt 0.084698 0.691325
vt 0.068668 0.747430
vt 0.059459 0.604386
vt 0.084698 0.604386
vt 0.051228 0.860544
vt 0.077534 0.860544
vt 0.011411 0.696135
vt 0.011411 0.618974
vt 0.051228 0.516895
vt 0.084698 0.516895
vt 0.051228 0.988590
vt 0.084698 0.988590
vt 0.011411 0.541323
vt 0.366920 0.632842
vt 0.383110 0.725908
vt 0.349482 0.725908
vt 0.341435 0.632842
vt 0.406738 0.629845
vt 0.406738 0.712445
vt 0.366920 0.782062
vt 0.333448 0.782062
vt 0.366920 0.567560
vt 0.333448 0.567560
vt 0.406738 0.571907
vt 0.406738 0.762283
vt 0.125392 0.745333
vt 0.125392 0.824969
vt 0.091920 0.824969
vt 0.091920 0.745333
vt 0.141582 0.943561
vt 0.107954 0.943561
vt 0.165210 0.863438
vt 0.165210 0.949854
vt 0.410750 0.819469
vt 0.426939 0.755912
vt 0.460409 0.755912
vt 0.444379 0.819469
vt 0.387122 0.840589
vt 0.387122 0.784180
vt 0.988590 0.805231
vt 0.972401 0.853846
vt 0.948773 0.823077
vt 0.948773 0.779929
vn -0.103137 0.990851 0.087048
vn -0.103137 0.990851 0.087048
vn -0.103137 0.990851 0.087048
vn 0.092318 0.994993 0.038287
vn 0.092318 0.994993 0.038287
vn 0.092318 0.994993 0.038287
vn -0.090486 0.995191 -0.037527
vn -0.090486 0.995191 -0.037527
vn -0.090486 0.995191 -0.037527
vn -0.085443 0.994585 -0.059169
vn -0.085443 0.994585 -0.059169
vn -0.085443 0.994585 -0.059169
vn -0.025789 0.998291 0.052440
vn -0.025789 0.998291 0.052440
vn -0.025789 0.998291 0.052440
vn -0.180250 0.979521 -0.089711
vn -0.180250 0.979521 -0.089711
vn -0.180250 0.979521 -0.089711
vn 0.000000 -1.000000 0.000000
vn 0.000000 -1.000000 -0.000000
vn 0.000000 -1.000000 0.000000
vn 0.000000 -1.000000 -0.000000
vn 0.000000 -1.000000 0.000000
vn 0.000000 -1.000000 0.000000
vn 0.000000 -1.000000 0.000000
vn 0.000000 -1.000000 0.000000
vn 0.000000 -1.000000 0.000000
vn 0.000000 -1.000000 0.000000
vn 0.000000 -1.000000 0.000000
vn 0.000000 -1.000000 0.000000
vn 0.000000 -1.000000 0.000000
vn 0.000000 -1.000000 0.000000
vn 0.000000 -1.000000 -0.000000
vn 0.000000 -1.000000 -0.000000
vn 0.000000 -1.000000 0.000000
vn 0.000000 -1.000000 -0.000000
vn 0.000000 -1.000000 0.000000
vn 0.000000 -1.000000 0.000000
vn 0.000000 -1.000000 -0.000000
vn 0.000000 -1.000000 -0.000000
vn 0.000000 -1.000000 -0.000000
vn 0.000000 -1.000000 -0.000000
vn 0.000000 -1.000000 -0.000000
vn 0.000000 -1.000000 0.000000
vn 0.000000 -1.000000 -0.000000
vn 0.000000 -1.000000 0.000000
vn 0.000000 -1.000000 0.000000
vn 0.000000 -1.000000 -0.000000
vn 0.000000 -1.000000 -0.000000
vn 0.000000 -1.000000 0.000000
vn 0.000000 -1.000000 -0.000000
vn 0.000000 -1.000000 0.000000
vn 0.000000 -1.000000 0.000000
vn 0.000000 -1.000000 -0.000000
vn 0.000000 -1.000000 0.000000
vn 0.000000 -1.000000 0.000000
vn 0.000000 -1.000000 0.000000
vn 0.000000 -1.000000 0.000000
vn 0.000000 -1.000000 0.000000
vn 0.000000 -1.000000 0.000000
vn 0.000000 -1.000000 0.000000
vn 0.000000 -1.000000 0.000000
vn 0.000000 -1.000000 0.000000
vn 0.000000 -1.000000 0.000000
vn 0.000000 -1.000000 0.000000
vn 0.000000 -1.000000 0.000000
vn 0.000000 -1.000000 0.000000
vn 0.000000 -1.000000 -0.000000
vn 0.000000 -1.000000 -0.000000
vn 0.000000 -1.000000 -0.000000
vn 0.000000 -1.000000 -0.000000
vn 0.000000 -1.000000 -0.000000
vn 0.000000 -1.000000 0.000000
vn 0.000000 -1.000000 -0.000000
vn 0.000000 -1.000000 -0.000000
vn 0.000000 -1.000000 -0.000000
vn 0.000000 -1.000000 -0.000000
vn 0.000000 -1.000000 -0.000000
vn 0.000000 -1.000000 -0.000000
vn 0.000000 -1.000000 -0.000000
vn 0.000000 -1.000000 -0.000000
vn 0.360539 0.000000 0.932744
vn 0.360539 0.000000 0.932744
vn 0.360539 0.000000 0.932744
vn 0.360539 0.000000 0.932744
vn -0.461647 0.000000 0.887064
vn -0.461647 0.000000 0.887064
vn -0.461647 0.000000 0.887064
vn -0.461647 0.000000 0.887064
vn 0.176291 0.000000 0.984338
vn 0.176291 0.000000 0.984338
vn 0.176291 0.000000 0.984338
vn 0.176291 0.000000 0.984338
vn 0.809366 0.000000 0.587305
vn 0.809366 0.000000 0.587305
vn 0.809366 0.000000 0.587305
vn 0.809366 0.000000 0.587305
vn 0.653651 0.000000 0.756797
vn 0.653651 0.000000 0.756796
vn 0.653651 0.000000 0.756796
vn 0.653651 0.000000 0.756797
vn 0.977135 0.000000 -0.212620
vn 0.977135 0.000000 -0.212620
vn 0.977135 0.000000 -0.212620
vn 0.977135 0.000000 -0.212620
vn 0.835040 0.000000 -0.550190
vn 0.835040 0.000000 -0.550190
vn 0.835040 0.000000 -0.550190
vn 0.835040 0.000000 -0.550190
vn -0.755748 0.000000 0.654863
vn -0.755747 0.000000 0.654863
vn -0.755747 0.000000 0.654863
vn -0.755747 0.000000 0.654863
vn -0.968941 0.000000 -0.247292
vn -0.968941 0.000000 -0.247292
vn -0.968941 0.000000 -0.247292
vn -0.968941 0.000000 -0.247292
vn -0.903947 0.000000 0.427644
vn -0.903947 0.000000 0.427644
vn -0.903947 0.000000 0.427644
vn -0.903947 0.000000 0.427644
vn 0.117858 0.000000 0.993030
vn 0.117858 0.000000 0.993030
vn 0.117858 0.000000 0.993030
vn 0.117858 0.000000 0.993030
vn -0.388151 0.000000 0.921596
vn -0.388151 0.000000 0.921596
vn -0.388151 0.000000 0.921596
vn -0.388151 0.000000 0.921596
vn -0.272675 0.000000 -0.962106
vn -0.272675 0.000000 -0.962106
vn -0.272675 0.000000 -0.962106
vn -0.272675 0.000000 -0.962106
vn 0.441309 0.000000 -0.897355
vn 0.441309 0.000000 -0.897355
vn 0.441309 0.000000 -0.897355
vn 0.441309 0.000000 -0.897355
vn -0.784407 0.000000 -0.620246
vn -0.784407 0.000000 -0.620246
vn -0.784407 0.000000 -0.620246
vn -0.784407 0.000000 -0.620246
vn -0.999514 0.000000 0.031185
vn -0.999514 0.000000 0.031185
vn -0.999514 0.000000 0.031185
vn -0.999514 0.000000 0.031185
vn 0.895248 0.000000 0.445568
vn 0.895248 0.000000 0.445568
vn 0.895248 0.000000 0.445568
vn 0.895248 0.000000 0.445568
vn 0.566870 0.000000 -0.823808
vn 0.566870 0.000000 -0.823808
vn 0.566870 0.000000 -0.823808
vn 0.566870 0.000000 -0.823808
vn -0.259987 0.000000 -0.965612
vn -0.259987 0.000000 -0.965612
vn -0.259987 0.000000 -0.965612
vn -0.259987 0.000000 -0.965612
vn 0.964834 0.000000 -0.262859
vn 0.964834 0.000000 -0.262859
vn 0.964834 0.000000 -0.262859
vn 0.964834 0.000000 -0.262859
vn 0.029334 0.000000 -0.999570
vn 0.029334 0.000000 -0.999570
vn 0.029334 0.000000 -0.999570
vn 0.029334 0.000000 -0.999570
vn 0.685306 -0.609021 -0.399309
vn 0.685306 -0.609021 -0.399309
vn 0.685307 -0.609021 -0.399309
vn 0.685307 -0.609021 -0.399309
vn 0.784679 -0.595925 -0.170742
vn 0.784679 -0.595925 -0.170742
vn 0.784679 -0.595925 -0.170742
vn 0.784679 -0.595925 -0.170742
vn 0.510573 -0.704353 0.493154
vn 0.510573 -0.704353 0.493154
vn 0.510573 -0.704353 0.493154
vn 0.510573 -0.704353 0.493154
vn 0.537056 -0.706166 0.461411
vn 0.537056 -0.706166 0.461411
vn 0.537056 -0.706166 0.461411
vn 0.537056 -0.706166 0.461411
vn 0.138870 -0.616024 0.775390
vn 0.138870 -0.616024 0.775390
vn 0.138870 -0.616024 0.775390
vn 0.138870 -0.616024 0.775390
vn -0.313371 -0.605602 0.731467
vn -0.313371 -0.605602 0.731467
vn -0.313371 -0.605602 0.731467
vn -0.313371 -0.605602 0.731467
vn 0.191517 -0.621002 0.760052
vn 0.191517 -0.621002 0.760052
vn 0.191517 -0.621002 0.760052
vn 0.191517 -0.621002 0.760052
vn -0.316778 -0.577880 0.752135
vn -0.316778 -0.577880 0.752135
vn -0.316778 -0.577880 0.752135
vn -0.316778 -0.577880 0.752135
vn 0.102397 -0.495141 0.862758
vn 0.102397 -0.495141 0.862758
vn 0.102397 -0.495141 0.862758
vn 0.102397 -0.495141 0.862758
vn -0.734799 -0.598418 0.319322
vn -0.734799 -0.598418 0.319322
vn -0.734799 -0.598418 0.319322
vn -0.734799 -0.598418 0.319322
vn -0.847340 -0.494853 -0.192706
vn -0.847340 -0.494853 -0.192706
vn -0.847340 -0.494853 -0.192706
vn -0.847340 -0.494853 -0.192706
vn -0.577976 -0.570438 0.583561
vn -0.577976 -0.570438 0.583561
vn -0.577976 -0.570438 0.583561
vn -0.577976 -0.570438 0.583561
vn -0.692696 -0.720596 -0.030230
vn -0.692696 -0.720596 -0.030230
vn -0.692696 -0.720596 -0.030230
vn -0.692696 -0.720596 -0.030230
vn -0.588686 -0.660887 -0.465486
vn -0.588686 -0.660887 -0.465486
vn -0.588686 -0.660887 -0.465486
vn -0.588686 -0.660887 -0.465486
vn 0.308673 -0.536166 -0.785651
vn 0.308673 -0.536166 -0.785651
vn 0.308673 -0.536166 -0.785651
vn 0.308673 -0.536166 -0.785651
vn -0.143503 -0.682309 -0.716841
vn -0.143503 -0.682309 -0.716841
vn -0.143503 -0.682309 -0.716841
vn -0.143503 -0.682309 -0.716841
vn 0.023452 -0.600682 -0.799144
vn 0.023452 -0.600682 -0.799144
vn 0.023452 -0.600682 -0.799144
vn 0.023452 -0.600682 -0.799144
vn 0.874121 -0.390962 -0.288203
vn 0.874121 -0.390962 -0.288203
vn 0.874121 -0.390962 -0.288203
vn 0.874121 -0.390962 -0.288203
vn -0.201937 -0.508171 -0.837248
vn -0.201937 -0.508171 -0.837248
vn -0.201937 -0.508171 -0.837248
vn -0.201937 -0.508171 -0.837248
vn 0.371312 -0.694585 -0.616181
vn 0.371312 -0.694585 -0.616181
vn 0.371312 -0.694585 -0.616181
vn 0.371312 -0.694585 -0.616181
vn 0.780614 -0.518327 0.349254
vn 0.780614 -0.518327 0.349254
vn 0.780614 -0.518327 0.349254
vn 0.780614 -0.518327 0.349254
vn 0.299496 0.897481 0.323776
vn 0.299496 0.897481 0.323776
vn 0.299496 0.897481 0.323776
vn 0.299496 0.897481 0.323776
vn -0.361551 0.810249 0.461278
vn -0.361551 0.810249 0.461278
vn -0.361551 0.810249 0.461278
vn -0.361551 0.810249 0.461278
vn 0.080813 0.958613 0.273002
vn 0.080813 0.958613 0.273002
vn 0.080813 0.958613 0.273002
vn 0.080813 0.958613 0.273002
vn 0.352683 0.920708 0.167066
vn 0.352683 0.920708 0.167066
vn 0.352683 0.920708 0.167066
vn 0.352683 0.920708 0.167066
vn 0.269894 0.808088 0.523593
vn 0.269894 0.808089 0.523593
vn 0.269894 0.808089 0.523593
vn 0.269894 0.808088 0.523593
vn 0.528355 0.841203 -0.114968
vn 0.528355 0.841203 -0.114968
vn 0.528355 0.841203 -0.114968
vn 0.528355 0.841203 -0.114968
vn 0.298823 0.927532 -0.224474
vn 0.298823 0.927532 -0.224474
vn 0.298823 0.927532 -0.224474
vn 0.298823 0.927532 -0.224474
vn -0.474286 0.860033 0.188136
vn -0.474286 0.860033 0.188136
vn -0.474286 0.860033 0.188136
vn -0.474286 0.860033 0.188136
vn -0.418027 0.902148 -0.106688
vn -0.418027 0.902148 -0.106688
vn -0.418027 0.902148 -0.106688
vn -0.418027 0.902148 -0.106688
vn -0.216477 0.967735 0.128944
vn -0.216477 0.967735 0.128944
vn -0.216477 0.967735 0.128944
vn -0.216477 0.967735 0.128944
vn 0.047233 0.854967 0.516528
vn 0.047233 0.854967 0.516528
vn 0.047233 0.854967 0.516528
vn 0.047233 0.854967 0.516528
vn -0.339546 0.623956 0.703837
vn -0.339546 0.623956 0.703837
vn -0.339546 0.623956 0.703837
vn -0.339546 0.623956 0.703837
vn -0.125393 0.882075 -0.454114
vn -0.125393 0.882075 -0.454114
vn -0.125393 0.882075 -0.454114
vn -0.125393 0.882075 -0.454114
vn 0.332325 0.832936 -0.442468
vn 0.332324 0.832936 -0.442468
vn 0.332324 0.832936 -0.442468
vn 0.332324 0.832936 -0.442468
vn -0.244158 0.960832 -0.131110
vn -0.244158 0.960832 -0.131110
vn -0.244158 0.960832 -0.131110
vn -0.244158 0.960832 -0.131110
vn -0.377447 0.925846 0.018499
vn -0.377447 0.925846 0.018499
vn -0.377447 0.925846 0.018499
vn -0.377447 0.925846 0.018499
vn 0.198410 0.975132 0.098749
vn 0.198410 0.975132 0.098749
vn 0.198410 0.975132 0.098749
vn 0.198410 0.975132 0.098749
vn 0.140504 0.966170 -0.216271
vn 0.140504 0.966170 -0.216271
vn 0.140504 0.966171 -0.216271
vn 0.140504 0.966171 -0.216271
vn -0.203595 0.808625 -0.551974
vn -0.203595 0.808625 -0.551974
vn -0.203595 0.808624 -0.551974
vn -0.203595 0.808625 -0.551974
vn 0.578628 0.811152 -0.084975
vn 0.578628 0.811153 -0.084975
vn 0.578628 0.811152 -0.084975
vn 0.578628 0.811153 -0.084975
vn -0.112383 0.966255 -0.231778
vn -0.112383 0.966255 -0.231778
vn -0.112383 0.966255 -0.231778
vn -0.112383 0.966255 -0.231778
vn -0.068770 0.996686 0.043438
vn -0.068770 0.996686 0.043438
vn -0.068770 0.996686 0.043438
vn 0.068226 0.996739 -0.043095
vn 0.068226 0.996739 -0.043095
vn 0.068226 0.996739 -0.043095
vn 0.000000 1.000000 0.000000
vn 0.000000 1.000000 0.000000
vn 0.000000 1.000000 0.000000
vn -0.078791 0.995868 -0.045161
vn -0.078791 0.995868 -0.045161
vn -0.078791 0.995868 -0.045161
vn -0.044407 0.994029 -0.099675
vn -0.044407 0.994029 -0.099675
vn -0.044407 0.994029 -0.099675
vn -0.033145 0.992358 -0.118858
vn -0.033145 0.992358 -0.118858
vn -0.033145 0.992358 -0.118858
vn 0.071278 0.996923 -0.032609
vn 0.071278 0.996923 -0.032609
vn 0.071278 0.996923 -0.032609
vn 0.022751 0.996407 0.081587
vn 0.022751 0.996407 0.081587
vn 0.022751 0.996407 0.081587
vn -0.064797 0.996790 -0.047019
vn -0.064797 0.996790 -0.047019
vn -0.064797 0.996790 -0.047019
vn -0.055645 0.990867 -0.122827
vn -0.055645 0.990867 -0.122827
vn -0.055645 0.990867 -0.122827
vn 0.103755 0.994250 0.026480
vn 0.103755 0.994250 0.026480
vn 0.103755 0.994250 0.026480
vn 0.049864 0.995953 0.074770
vn 0.049864 0.995953 0.074770
vn 0.049864 0.995953 0.074770
vn 0.066387 0.997415 -0.027503
vn 0.066387 0.997415 -0.027503
vn 0.066387 0.997415 -0.027503
vn -0.103697 0.979427 0.173119
vn -0.103698 0.979427 0.173119
vn -0.103697 0.979427 0.173119
vn 0.033827 0.992257 0.119507
vn 0.033827 0.992257 0.119507
vn 0.033827 0.992257 0.119507
vn 0.087165 0.982963 0.161823
vn 0.087165 0.982963 0.161823
vn 0.087165 0.982963 0.161823
vn 0.020294 0.991231 0.130576
vn 0.020294 0.991231 0.130576
vn 0.020294 0.991231 0.130576
vn -0.015895 0.994630 -0.102272
vn -0.015895 0.994629 -0.102272
vn -0.015895 0.994629 -0.102272
vn -0.135251 0.989532 0.050340
vn -0.135251 0.989532 0.050340
vn -0.135251 0.989532 0.050340
vn 0.067964 0.994838 -0.075349
vn 0.067964 0.994838 -0.075349
vn 0.067964 0.994838 -0.075349
vn 0.000000 1.000000 0.000000
vn 0.000000 1.000000 0.000000
vn 0.000000 1.000000 0.000000
vn 0.029278 0.993576 -0.109313
vn 0.029278 0.993576 -0.109313
vn 0.029278 0.993576 -0.109313
vn 0.086085 0.993893 -0.069042
vn 0.086085 0.993893 -0.069042
vn 0.086085 0.993893 -0.069042
vn -0.096445 0.992870 -0.070049
vn -0.096445 0.992870 -0.070049
vn -0.096445 0.992870 -0.070049
vn 0.000000 1.000000 0.000000
vn 0.000000 1.000000 0.000000
vn 0.000000 1.000000 0.000000
vn 0.203295 0.978785 0.025535
vn 0.203295 0.978785 0.025535
vn 0.203295 0.978785 0.025535
vn -0.000254 0.996465 0.084010
vn -0.000254 0.996465 0.084010
vn -0.000254 0.996465 0.084010
vn 0.044956 0.993908 -0.100625
vn 0.044956 0.993908 -0.100625
vn 0.044956 0.993908 -0.100625
vn -0.028615 0.997536 0.064050
vn -0.028615 0.997536 0.064050
vn -0.028615 0.997536 0.064050
vn -0.115007 0.993049 0.025025
vn -0.115007 0.993050 0.025025
vn -0.115007 0.993049 0.025025
vn -0.049464 0.994132 -0.096206
vn -0.049464 0.994132 -0.096206
vn -0.049464 0.994132 -0.096206
s off
f 72/1/1 94/2/2 71/3/3
f 74/34/4 91/26/5 73/21/6
f 73/21/7 91/26/8 92/14/9
f 75/28/10 79/38/11 82/42/12
f 82/42/13 79/38/14 81/49/15
f 83/13/16 88/15/17 72/1/18
f 43/52/19 44/53/20 51/54/21
f 44/53/22 45/56/23 51/54/24
f 45/56/25 46/60/26 51/54/27
f 51/54/28 46/60/29 50/64/30
f 50/64/31 46/60/32 49/69/33
f 49/69/34 46/60/35 48/74/36
f 46/60/37 47/78/38 48/74/39
f 52/58/40 44/53/41 56/55/42
f 44/53/43 43/52/44 56/55/45
f 43/52/46 53/57/47 56/55/48
f 56/55/49 53/57/50 55/61/51
f 53/57/52 54/65/53 55/61/54
f 57/59/55 44/53/56 60/62/57
f 44/53/58 52/58/59 60/62/60
f 52/58/61 58/66/62 60/62/63
f 58/66/64 59/72/65 60/62/66
f 44/53/67 57/59/68 45/56/69
f 64/73/70 45/56/71 63/68/72
f 61/67/73 62/63/74 57/59/75
f 57/59/76 62/63/77 45/56/78
f 62/63/79 63/68/80 45/56/81
f 2/82/82 10/83/83 22/84/84 23/85/85
f 10/83/86 9/88/87 24/89/88 22/84/89
f 9/88/90 8/94/91 25/95/92 24/89/93
f 8/102/94 7/103/95 26/104/96 25/105/97
f 7/106/98 6/107/99 27/108/100 26/109/101
f 6/110/102 5/111/103 28/112/104 27/113/105
f 5/111/106 1/116/107 29/117/108 28/112/109
f 3/122/110 14/123/111 30/124/112 31/125/113
f 14/123/114 13/126/115 32/127/116 30/124/117
f 13/126/118 12/132/119 33/133/120 32/127/121
f 12/98/122 11/90/123 34/91/124 33/99/125
f 11/90/126 2/82/127 23/85/128 34/91/129
f 4/137/130 17/138/131 35/139/132 36/140/133
f 17/138/134 16/143/135 37/144/136 35/139/137
f 16/134/138 15/128/139 38/129/140 37/135/141
f 15/128/142 3/122/143 31/125/144 38/129/145
f 1/116/146 21/119/147 39/120/148 29/117/149
f 21/149/150 20/150/151 40/151/152 39/152/153
f 20/150/154 19/153/155 41/154/156 40/151/157
f 19/157/158 18/158/159 42/159/160 41/160/161
f 18/145/162 4/137/163 36/140/164 42/146/165
f 1/116/166 5/111/167 46/115/168 45/118/169
f 5/111/170 6/110/171 47/114/172 46/115/173
f 6/81/174 7/79/175 48/74/176 47/78/177
f 7/79/178 8/80/179 49/69/180 48/74/181
f 8/94/182 9/88/183 50/93/184 49/101/185
f 9/88/186 10/83/187 51/87/188 50/93/189
f 10/83/190 2/82/191 43/86/192 51/87/193
f 2/82/194 11/90/195 53/92/196 43/86/197
f 11/90/198 12/98/199 54/100/200 53/92/201
f 12/132/202 13/126/203 55/131/204 54/136/205
f 13/126/206 14/123/207 56/130/208 55/131/209
f 14/163/210 3/164/211 52/165/212 56/166/213
f 3/70/214 15/71/215 58/66/216 52/58/217
f 15/71/218 16/75/219 59/72/220 58/66/221
f 16/143/222 17/138/223 60/142/224 59/148/225
f 17/138/226 4/137/227 57/141/228 60/142/229
f 4/137/230 18/145/231 61/147/232 57/141/233
f 18/158/234 19/157/235 62/161/236 61/162/237
f 19/153/238 20/150/239 63/155/240 62/156/241
f 20/76/242 21/77/243 64/73/244 63/68/245
f 21/119/246 1/116/247 45/118/248 64/121/249
f 23/36/250 22/37/251 65/20/252 66/27/253
f 22/37/254 24/30/255 67/31/256 65/20/257
f 24/30/258 25/23/259 68/24/260 67/31/261
f 25/23/262 26/17/263 69/10/264 68/24/265
f 26/17/266 27/11/267 70/5/268 69/10/269
f 27/11/270 28/6/271 71/3/272 70/5/273
f 28/6/274 29/7/275 72/1/276 71/3/277
f 31/43/278 30/44/279 74/34/280 75/28/281
f 30/44/282 32/46/283 76/40/284 74/34/285
f 32/46/286 33/47/287 77/41/288 76/40/289
f 33/47/290 34/48/291 78/35/292 77/41/293
f 34/91/294 23/85/295 66/96/296 78/97/297
f 36/39/298 35/45/299 79/38/300 80/29/301
f 35/45/302 37/51/303 81/49/304 79/38/305
f 37/51/306 38/50/307 82/42/308 81/49/309
f 38/50/310 31/43/311 75/28/312 82/42/313
f 29/7/314 39/12/315 83/13/316 72/1/317
f 39/12/318 40/18/319 84/19/320 83/13/321
f 40/18/322 41/25/323 85/22/324 84/19/325
f 41/25/326 42/32/327 86/33/328 85/22/329
f 42/32/330 36/39/331 80/29/332 86/33/333
f 73/21/334 87/4/335 90/16/336
f 90/16/337 87/4/338 89/9/339
f 93/8/340 87/4/341 92/14/342
f 92/14/343 87/4/344 73/21/345
f 88/15/346 89/9/347 72/1/348
f 72/1/349 89/9/350 87/4/351
f 93/8/352 94/2/353 87/4/354
f 87/4/355 94/2/356 72/1/357
f 69/10/358 65/20/359 68/24/360
f 68/24/361 65/20/362 67/31/363
f 76/40/364 91/26/365 74/34/366
f 73/21/367 90/16/368 75/28/369
f 75/28/370 74/34/371 73/21/372
f 84/19/373 88/15/374 83/13/375
f 85/22/376 89/9/377 84/19/378
f 84/19/379 89/9/380 88/15/381
f 89/9/382 85/22/383 90/16/384
f 90/16/385 85/22/386 80/29/387
f 85/22/388 86/33/389 80/29/390
f 80/29/391 79/38/392 90/16/393
f 75/28/394 90/16/395 79/38/396
f 78/35/397 91/26/398 77/41/399
f 77/41/400 91/26/401 76/40/402
f 91/26/403 78/35/404 92/14/405
f 92/14/406 78/35/407 66/27/408
f 66/27/409 65/20/410 92/14/411
f 92/14/412 65/20/413 93/8/414
f 94/2/415 93/8/416 69/10/417
f 69/10/418 93/8/419 65/20/420
f 71/3/421 94/2/422 70/5/423
f 70/5/424 94/2/425 69/10/426
