# This file uses centimeters as units for non-parametric coordinates.

v 32.111534 7.665269 -49.153076
v 3.825167 7.665269 -56.572750
v -22.663553 7.665269 -45.600811
v -38.526283 7.665269 -18.567774
v -30.446091 7.665269 0.771293
v 3.825167 7.665269 18.348669
v 30.313871 7.665269 7.376662
v 40.681381 7.665269 -23.241831
v 33.424637 0.206867 -48.203026
v 2.749658 0.206867 -56.965801
v 2.950945 -26.191051 -15.917896
v -26.275501 0.206867 -44.943161
v -42.786125 0.206867 -15.418389
v -37.580910 0.206867 2.828386
v 2.749658 0.206867 25.130009
v 36.197876 0.206867 10.544620
v 43.915916 0.206867 -24.816011
v 19.358578 51.101692 -34.766537
v 26.239067 51.101692 -18.155672
v 19.358578 54.101826 -1.544738
v 2.747763 54.101826 5.335684
v -13.863188 51.101692 -1.544738
v -20.743645 51.101692 -18.155672
v -13.863188 53.450550 -34.766537
v 2.747763 53.450550 -41.646961
v -8.808321 7.665269 -37.145668
v -11.488261 0.206867 -38.042526
v -7.635778 7.665269 0.018926
v -9.752109 0.206867 7.487216
v 25.702826 7.665269 -10.075137
v 29.541889 0.206867 -7.947436
v -22.218128 27.689882 -3.346444
v -26.558954 27.689882 -18.830126
v -17.752613 27.689882 -40.090328
v -7.025923 27.689882 -35.662167
v 3.507556 27.689882 -48.896534
v 24.767673 27.689882 -40.090328
v 33.573910 27.689882 -18.830126
v 23.474777 27.689882 -12.459794
v 24.767673 27.689882 2.430010
v 3.507556 27.689882 11.236281
v -5.634662 27.689882 -1.039495
v 12.167782 51.362083 -34.214527
v 22.161293 51.362083 -18.155672
v 14.438864 53.841434 -2.934607
v 2.747746 53.841434 1.257894
v -7.476793 51.362083 -4.070666
v -16.665855 51.362083 -18.155672
v -7.371190 53.303211 -32.417068
v 2.747746 53.303211 -37.569168
v 8.880989 48.442642 -29.749025
v 18.476383 48.442642 -18.155672
v 12.082903 50.451382 -7.600133
v 3.237043 50.451382 -2.748945
v -4.871164 48.442642 -6.676295
v -12.980943 48.442642 -18.155672
v -4.765561 50.015324 -29.811440
v 2.747746 50.015324 -33.884293
v 2.747729 49.337997 -18.155672
vt 0.692258 0.757268
vt 0.846330 0.757268
vt 0.853481 0.797424
vt 0.686398 0.797424
vt 0.690527 0.649454
vt 0.806328 0.649454
vt 0.686389 0.510764
vt 0.776866 0.523410
vt 0.585256 0.260664
vt 0.660724 0.260664
vt 0.646127 0.300820
vt 0.565583 0.300820
vt 0.612006 0.152850
vt 0.670433 0.152850
vt 0.724775 0.442947
vt 0.633191 0.014159
vt 0.723669 0.014159
vt 0.158659 0.508303
vt 0.011413 0.508303
vt 0.014996 0.468147
vt 0.175813 0.468147
vt 0.157229 0.616116
vt 0.041428 0.616116
vt 0.263996 0.508303
vt 0.275201 0.468147
vt 0.241567 0.616116
vt 0.160903 0.742164
vt 0.070426 0.754811
vt 0.251381 0.742164
vt 0.381639 0.343428
vt 0.281799 0.343428
vt 0.322478 0.303272
vt 0.418576 0.303272
vt 0.342899 0.451241
vt 0.276033 0.451241
vt 0.310759 0.593441
vt 0.502883 0.483687
vt 0.358604 0.483687
vt 0.352745 0.443531
vt 0.534934 0.443531
vt 0.472674 0.591499
vt 0.356873 0.591499
vt 0.443212 0.733700
vt 0.352735 0.733700
vt 0.195438 0.193692
vt 0.123724 0.193692
vt 0.112133 0.153537
vt 0.204013 0.153537
vt 0.028664 0.193692
vt 0.011410 0.153537
vt 0.336575 0.193692
vt 0.331401 0.153537
vt 0.136710 0.301505
vt 0.055608 0.301505
vt 0.155547 0.011411
vt 0.287213 0.301505
vt 0.171409 0.301505
vt 0.077259 0.443705
vt 0.258214 0.427553
vt 0.167736 0.427553
vt 0.720904 0.472600
vt 0.768633 0.307447
vt 0.944488 0.471516
vt 0.896020 0.250962
vt 0.823977 0.549256
vt 0.987902 0.328351
vt 0.433271 0.765017
vt 0.523203 0.606058
vt 0.682396 0.762329
vt 0.461624 0.863258
vt 0.562001 0.011411
vt 0.492810 0.153537
vt 0.341229 0.153537
vt 0.504337 0.193692
vt 0.380091 0.193692
vt 0.515237 0.301505
vt 0.424908 0.301505
vt 0.470417 0.427553
vt 0.560895 0.443705
vt 0.909144 0.739380
vt 0.988590 0.919466
vt 0.765007 0.918383
vt 0.892492 0.986775
vt 0.096415 0.754728
vt 0.178001 0.754728
vt 0.139288 0.862541
vt 0.084279 0.862541
vt 0.099337 0.988589
vt 0.567725 0.441814
vt 0.673541 0.441814
vt 0.681623 0.549627
vt 0.609537 0.549627
vt 0.668657 0.401658
vt 0.565583 0.401658
vt 0.649023 0.688322
vt 0.443735 0.851018
vt 0.406258 0.940450
vt 0.367090 0.937479
vt 0.421524 0.851018
vt 0.315780 0.977495
vt 0.315780 0.955540
vt 0.349186 0.913435
vt 0.401452 0.851018
vt 0.406258 0.761585
vt 0.379460 0.769067
vt 0.225302 0.940450
vt 0.260663 0.927800
vt 0.315780 0.935700
vt 0.315780 0.851018
vt 0.366627 0.794186
vt 0.315780 0.724540
vt 0.315780 0.746495
vt 0.187825 0.851018
vt 0.210036 0.851018
vt 0.274856 0.913771
vt 0.318446 0.768067
vt 0.225302 0.761585
vt 0.260088 0.775185
vt 0.230108 0.851018
vt 0.274280 0.789214
vn 0.264537 -0.031777 -0.963852
vn 0.264537 -0.031777 -0.963852
vn 0.264537 -0.031777 -0.963852
vn 0.264537 -0.031777 -0.963852
vn 0.464601 -0.182071 -0.866600
vn 0.464601 -0.182071 -0.866600
vn 0.464601 -0.182071 -0.866600
vn 0.464601 -0.182071 -0.866600
vn -0.823869 0.314412 -0.471578
vn -0.823869 0.314412 -0.471578
vn -0.823869 0.314412 -0.471578
vn -0.823869 0.314412 -0.471578
vn -0.723166 0.641632 0.255616
vn -0.723166 0.641632 0.255616
vn -0.723166 0.641632 0.255616
vn -0.723166 0.641632 0.255616
vn -0.679347 0.577663 0.452540
vn -0.679347 0.577663 0.452540
vn -0.679347 0.577663 0.452540
vn -0.679347 0.577663 0.452540
vn 0.315299 0.594830 0.739435
vn 0.315299 0.594830 0.739435
vn 0.315299 0.594830 0.739435
vn 0.315299 0.594830 0.739435
vn 0.671817 0.342941 0.656547
vn 0.671817 0.342941 0.656547
vn 0.671817 0.342941 0.656547
vn 0.671817 0.342941 0.656547
vn 0.893510 0.286857 -0.345475
vn 0.893510 0.286857 -0.345475
vn 0.893510 0.286857 -0.345475
vn 0.893510 0.286857 -0.345475
vn 0.152853 -0.830861 -0.535076
vn 0.152853 -0.830861 -0.535076
vn 0.152853 -0.830861 -0.535076
vn 0.373927 -0.467039 -0.801282
vn 0.373927 -0.467039 -0.801282
vn 0.373927 -0.467039 -0.801282
vn -0.483477 -0.832557 -0.270367
vn -0.483477 -0.832557 -0.270367
vn -0.483477 -0.832557 -0.270367
vn -0.493743 -0.858125 0.140849
vn -0.493743 -0.858125 0.140849
vn -0.493743 -0.858126 0.140849
vn -0.119473 -0.690236 0.713653
vn -0.119473 -0.690236 0.713653
vn -0.119473 -0.690236 0.713653
vn 0.229895 -0.818044 0.527212
vn 0.229895 -0.818044 0.527212
vn 0.229895 -0.818044 0.527212
vn 0.548383 -0.693483 0.467287
vn 0.548383 -0.693483 0.467287
vn 0.548383 -0.693483 0.467287
vn 0.493770 -0.840909 -0.221502
vn 0.493770 -0.840909 -0.221502
vn 0.493770 -0.840909 -0.221502
vn 0.283093 0.415457 -0.864439
vn 0.283093 0.415457 -0.864439
vn 0.283093 0.415457 -0.864439
vn 0.283093 0.415457 -0.864439
vn 0.462833 0.076869 -0.883106
vn 0.462833 0.076869 -0.883106
vn 0.462833 0.076869 -0.883106
vn 0.462833 0.076869 -0.883106
vn -0.816647 0.398831 -0.417158
vn -0.816647 0.398831 -0.417158
vn -0.816647 0.398831 -0.417158
vn -0.816647 0.398831 -0.417158
vn -0.838481 0.455523 0.299080
vn -0.838481 0.455523 0.299080
vn -0.838481 0.455523 0.299080
vn -0.838481 0.455523 0.299080
vn -0.820512 0.147182 0.552356
vn -0.820512 0.147182 0.552356
vn -0.820512 0.147182 0.552356
vn -0.820512 0.147182 0.552356
vn 0.362950 0.316981 0.876236
vn 0.362950 0.316981 0.876236
vn 0.362950 0.316981 0.876236
vn 0.362950 0.316981 0.876236
vn 0.611316 0.102782 0.784684
vn 0.611316 0.102782 0.784684
vn 0.611316 0.102782 0.784684
vn 0.611316 0.102782 0.784684
vn 0.854141 0.414065 -0.314632
vn 0.854141 0.414065 -0.314632
vn 0.854141 0.414065 -0.314632
vn 0.854141 0.414065 -0.314632
vn -0.805134 0.160062 -0.571086
vn -0.805134 0.160062 -0.571086
vn -0.805134 0.160062 -0.571086
vn -0.805134 0.160062 -0.571086
vn -0.793421 0.247825 -0.555936
vn -0.793422 0.247825 -0.555936
vn -0.793421 0.247825 -0.555936
vn -0.793421 0.247825 -0.555936
vn -0.039055 0.137886 0.989678
vn -0.039055 0.137886 0.989678
vn -0.039055 0.137886 0.989678
vn -0.039055 0.137886 0.989678
vn -0.063473 0.564777 0.822799
vn -0.063473 0.564777 0.822799
vn -0.063473 0.564777 0.822799
vn -0.063473 0.564777 0.822799
vn 0.971676 0.156149 -0.177379
vn 0.971676 0.156149 -0.177379
vn 0.971676 0.156149 -0.177379
vn 0.971676 0.156149 -0.177379
vn 0.848055 0.458405 -0.265833
vn 0.848055 0.458405 -0.265833
vn 0.848055 0.458405 -0.265833
vn 0.848055 0.458405 -0.265833
vn -0.911740 0.259063 0.318773
vn -0.911740 0.259063 0.318773
vn -0.911740 0.259063 0.318773
vn -0.911740 0.259063 0.318773
vn -0.905470 0.222771 -0.361243
vn -0.905470 0.222771 -0.361243
vn -0.905470 0.222771 -0.361243
vn -0.905470 0.222771 -0.361243
vn 0.378230 0.132242 -0.916217
vn 0.378230 0.132242 -0.916217
vn 0.378230 0.132242 -0.916217
vn -0.381761 -0.069281 -0.921661
vn -0.381761 -0.069281 -0.921661
vn -0.381761 -0.069281 -0.921661
vn 0.382514 0.273642 -0.882498
vn 0.382514 0.273642 -0.882498
vn 0.382514 0.273642 -0.882498
vn 0.382514 0.273642 -0.882498
vn 0.884800 0.287765 -0.366497
vn 0.884800 0.287765 -0.366497
vn 0.884800 0.287765 -0.366497
vn 0.884800 0.287765 -0.366497
vn 0.528154 0.141347 0.837302
vn 0.528154 0.141347 0.837302
vn 0.528154 0.141347 0.837302
vn 0.978560 0.187619 -0.084969
vn 0.978560 0.187619 -0.084969
vn 0.978560 0.187619 -0.084969
vn 0.373949 0.212446 0.902790
vn 0.373949 0.212446 0.902790
vn 0.373949 0.212446 0.902790
vn 0.373949 0.212446 0.902790
vn -0.797181 0.109702 0.593690
vn -0.797181 0.109702 0.593690
vn -0.797181 0.109702 0.593690
vn -0.363754 -0.107881 0.925227
vn -0.363754 -0.107881 0.925227
vn -0.363754 -0.107881 0.925227
vn -0.773519 0.150444 -0.615658
vn -0.773519 0.150444 -0.615658
vn -0.773519 0.150444 -0.615658
vn -0.137734 -0.027042 0.990100
vn -0.137734 -0.027042 0.990100
vn -0.137734 -0.027042 0.990100
vn 0.922792 -0.015290 0.384995
vn 0.922792 -0.015290 0.384995
vn 0.922792 -0.015290 0.384995
vn -0.581944 -0.685290 -0.437857
vn -0.581944 -0.685290 -0.437857
vn -0.581944 -0.685290 -0.437857
vn -0.604887 -0.671112 0.428626
vn -0.604887 -0.671112 0.428626
vn -0.604887 -0.671112 0.428626
vn 0.718496 -0.645665 -0.258614
vn 0.718496 -0.645665 -0.258614
vn 0.718496 -0.645665 -0.258614
vn 0.045017 0.998716 -0.023251
vn 0.045017 0.998716 -0.023251
vn 0.045017 0.998716 -0.023251
vn 0.045017 0.998716 -0.023251
vn 0.024509 0.987029 -0.158661
vn 0.024509 0.987029 -0.158661
vn 0.024509 0.987029 -0.158661
vn 0.024509 0.987029 -0.158661
vn -0.027484 0.997151 -0.070247
vn -0.027484 0.997151 -0.070247
vn -0.027484 0.997151 -0.070247
vn -0.027484 0.997151 -0.070247
vn -0.044130 0.998759 0.023102
vn -0.044130 0.998759 0.023102
vn -0.044130 0.998759 0.023102
vn -0.044130 0.998759 0.023102
vn -0.036958 0.992264 0.118521
vn -0.036958 0.992264 0.118521
vn -0.036958 0.992264 0.118521
vn -0.036958 0.992264 0.118521
vn 0.106568 0.984188 0.141484
vn 0.106568 0.984188 0.141484
vn 0.106568 0.984188 0.141484
vn 0.106568 0.984188 0.141484
vn 0.014179 0.999403 0.031498
vn 0.014179 0.999403 0.031498
vn 0.014179 0.999403 0.031498
vn 0.014179 0.999403 0.031498
vn -0.139118 0.981094 -0.134539
vn -0.139118 0.981094 -0.134539
vn -0.139118 0.981094 -0.134539
vn -0.139118 0.981094 -0.134539
vn -0.470631 0.816917 0.333396
vn -0.470631 0.816917 0.333396
vn -0.470631 0.816917 0.333396
vn -0.470631 0.816917 0.333396
vn -0.492824 0.770623 -0.404060
vn -0.492824 0.770623 -0.404060
vn -0.492824 0.770623 -0.404060
vn -0.492824 0.770623 -0.404060
vn -0.247925 0.788391 -0.563004
vn -0.247925 0.788391 -0.563004
vn -0.247925 0.788391 -0.563004
vn -0.247925 0.788391 -0.563004
vn 0.545510 0.752435 -0.369134
vn 0.545510 0.752435 -0.369134
vn 0.545510 0.752435 -0.369134
vn 0.545510 0.752435 -0.369134
vn 0.524535 0.721380 0.452188
vn 0.524535 0.721380 0.452188
vn 0.524535 0.721380 0.452188
vn 0.524535 0.721380 0.452188
vn -0.095540 0.810105 0.578448
vn -0.095540 0.810105 0.578448
vn -0.095540 0.810105 0.578448
vn -0.095540 0.810105 0.578448
vn 0.322705 0.717920 0.616808
vn 0.322705 0.717920 0.616808
vn 0.322705 0.717920 0.616808
vn 0.322705 0.717920 0.616808
vn 0.143484 0.748679 -0.647219
vn 0.143484 0.748679 -0.647219
vn 0.143484 0.748679 -0.647219
vn 0.143484 0.748679 -0.647219
vn 0.056770 0.997281 -0.046987
vn 0.056770 0.997281 -0.046987
vn 0.056770 0.997281 -0.046987
vn 0.056158 0.986517 -0.153722
vn 0.056158 0.986517 -0.153722
vn 0.056158 0.986517 -0.153722
vn -0.038826 0.996735 -0.070796
vn -0.038826 0.996735 -0.070796
vn -0.038826 0.996735 -0.070796
vn -0.056787 0.997580 0.040118
vn -0.056787 0.997580 0.040118
vn -0.056787 0.997580 0.040118
vn -0.056580 0.993941 0.094230
vn -0.056580 0.993941 0.094230
vn -0.056580 0.993941 0.094230
vn 0.221529 0.974251 0.041954
vn 0.221529 0.974251 0.041954
vn 0.221529 0.974251 0.041954
vn 0.023316 0.998802 0.043012
vn 0.023316 0.998803 0.043012
vn 0.023316 0.998803 0.043012
vn -0.210758 0.975454 -0.063799
vn -0.210759 0.975454 -0.063799
vn -0.210758 0.975454 -0.063799
s off
f 2/1/1 1/2/2 9/3/3 10/4/4
f 3/9/5 26/10/6 27/11/7 12/12/8
f 4/18/9 3/19/10 12/20/11 13/21/12
f 5/24/13 4/18/14 13/21/15 14/25/16
f 6/30/17 28/31/18 29/32/19 15/33/20
f 7/37/21 6/38/22 15/39/23 16/40/24
f 8/45/25 30/46/26 31/47/27 17/48/28
f 1/51/29 8/45/30 17/48/31 9/52/32
f 10/61/33 9/62/34 11/63/35
f 12/12/36 27/11/37 11/15/38
f 13/67/39 12/68/40 11/69/41
f 14/70/42 13/67/43 11/69/44
f 11/71/45 29/72/46 14/73/47
f 16/80/48 15/81/49 11/82/50
f 17/64/51 31/66/52 11/63/53
f 9/62/54 17/64/55 11/63/56
f 1/2/57 2/1/58 36/5/59 37/6/60
f 26/10/61 3/9/62 34/13/63 35/14/64
f 3/19/65 4/18/66 33/22/67 34/23/68
f 4/18/69 5/24/70 32/26/71 33/22/72
f 28/31/73 6/30/74 41/34/75 42/35/76
f 6/38/77 7/37/78 40/41/79 41/42/80
f 30/84/81 8/85/82 38/86/83 39/87/84
f 8/45/85 1/51/86 37/56/87 38/57/88
f 2/89/89 26/90/90 35/91/91 36/92/92
f 27/93/93 26/90/94 2/89/95 10/94/96
f 5/75/97 28/74/98 42/76/99 32/77/100
f 29/72/101 28/74/102 5/75/103 14/73/104
f 7/49/105 30/46/106 39/53/107 40/54/108
f 31/47/109 30/46/110 7/49/111 16/50/112
f 33/22/113 32/26/114 22/29/115 23/27/116
f 34/23/117 33/22/118 23/27/119 24/28/120
f 35/14/121 34/13/122 24/16/123
f 25/17/124 35/14/125 24/16/126
f 37/6/127 36/5/128 25/7/129 18/8/130
f 38/57/131 37/56/132 18/59/133 19/60/134
f 39/87/135 38/86/136 19/88/137
f 40/54/138 39/53/139 20/58/140
f 41/42/141 40/41/142 20/43/143 21/44/144
f 42/35/145 41/34/146 21/36/147
f 22/78/148 42/76/149 21/79/150
f 36/92/151 35/91/152 25/95/153
f 32/77/154 42/76/155 22/78/156
f 39/53/157 19/60/158 20/58/159
f 11/63/160 27/65/161 10/61/162
f 15/81/163 29/83/164 11/82/165
f 11/55/166 31/47/167 16/50/168
f 19/96/169 18/97/170 43/98/171 44/99/172
f 20/104/173 19/96/174 44/99/175 45/105/176
f 21/111/177 20/104/178 45/105/179 46/112/180
f 23/113/181 22/117/182 47/118/183 48/114/184
f 24/106/185 23/113/186 48/114/187 49/107/188
f 18/97/189 25/100/190 50/101/191 43/98/192
f 25/100/193 24/106/194 49/107/195 50/101/196
f 22/117/197 21/111/198 46/112/199 47/118/200
f 44/99/201 43/98/202 51/102/203 52/103/204
f 45/105/205 44/99/206 52/103/207 53/110/208
f 46/112/209 45/105/210 53/110/211 54/116/212
f 48/114/213 47/118/214 55/120/215 56/119/216
f 49/107/217 48/114/218 56/119/219 57/115/220
f 43/98/221 50/101/222 58/108/223 51/102/224
f 50/101/225 49/107/226 57/115/227 58/108/228
f 47/118/229 46/112/230 54/116/231 55/120/232
f 52/103/233 51/102/234 59/109/235
f 53/110/236 52/103/237 59/109/238
f 54/116/239 53/110/240 59/109/241
f 56/119/242 55/120/243 59/109/244
f 57/115/245 56/119/246 59/109/247
f 51/102/248 58/108/249 59/109/250
f 58/108/251 57/115/252 59/109/253
f 55/120/254 54/116/255 59/109/256
