# This file uses centimeters as units for non-parametric coordinates.

v 5.785751 -508.756134 7.255555
v 6.150436 -508.756134 6.720734
v 2.665102 0.000000 13.094937
v 6.721342 0.000000 13.094937
v 2.665102 0.000000 9.038699
v 6.721342 0.000000 9.038699
v 5.250931 -508.756134 6.890869
v 5.615616 -508.756134 6.356049
v 2.313948 -370.814789 8.687544
v 2.313948 -370.814789 13.446093
v 7.072497 -370.814789 13.446093
v 7.072497 -370.814789 8.687544
v -3.882656 -431.655914 15.244121
v 0.867379 -431.515656 15.258695
v 0.873619 -429.967438 10.551345
v -3.876409 -430.107666 10.537815
v 9.533959 -168.554596 15.558892
v 4.847446 -168.554596 15.558892
v 4.847446 -168.554596 10.872383
v 9.533959 -168.554596 10.872383
v 2.335447 -244.874634 8.709044
v 2.335447 -244.874634 13.424593
v 7.050997 -244.874634 13.424593
v 7.050997 -244.874634 8.709044
v 7.026022 -98.572563 13.399619
v 2.360421 -98.572563 13.399619
v 2.360421 -98.572563 8.734017
v 7.026022 -98.572563 8.734017
v -8.018112 -279.086243 -13.819504
v -7.944107 -279.040466 -13.178635
v 0.071299 0.000000 -9.319728
v -3.042954 0.000000 -6.613290
v 2.775925 0.000000 -6.204569
v -0.338328 0.000000 -3.499943
v -7.375717 -279.055023 -13.897325
v -7.301712 -279.009308 -13.254929
v -3.449437 -196.217682 -12.212143
v -6.153199 -196.571625 -15.324953
v -9.276896 -196.571625 -12.611219
v -6.574044 -196.217682 -9.499315
v -0.717217 -232.544571 -18.601227
v -3.355462 -232.484131 -16.330719
v -1.143700 -231.511871 -13.776398
v 1.494545 -231.572342 -16.047668
v -6.113022 -100.957817 -6.582361
v -3.239757 -100.957817 -9.079367
v -0.742751 -100.957817 -6.204432
v -3.616852 -100.957817 -3.708261
v 2.446401 -146.670654 -7.512438
v -0.048530 -146.670654 -10.386071
v -2.921329 -146.670654 -7.889473
v -0.426400 -146.670654 -5.017510
v -3.272428 -59.041237 -6.629339
v 0.087455 -59.041237 -9.549233
v 3.005403 -59.041237 -6.188378
v -0.354484 -59.041237 -3.270438
vt 0.145849 0.520147
vt 0.174458 0.520147
vt 0.189522 0.666147
vt 0.161090 0.666147
vt 0.145719 0.279225
vt 0.174588 0.279225
vt 0.174306 0.800021
vt 0.146001 0.800021
vt 0.108125 0.162837
vt 0.136943 0.163105
vt 0.172457 0.988590
vt 0.147850 0.988590
vt 0.166781 0.015345
vt 0.168994 0.015345
vt 0.921663 0.013705
vt 0.946270 0.013705
vt 0.946270 0.021465
vt 0.921663 0.021465
vt 0.064338 0.337091
vt 0.092770 0.337091
vt 0.077706 0.483091
vt 0.049097 0.483091
vt 0.049249 0.203218
vt 0.077554 0.203218
vt 0.077836 0.724015
vt 0.048967 0.724015
vt 0.051098 0.014649
vt 0.075705 0.014649
vt 0.040228 0.837172
vt 0.011411 0.837439
vt 0.068997 0.987894
vt 0.066786 0.987894
vt 0.961486 0.012434
vt 0.963697 0.011411
vt 0.966942 0.012109
vt 0.964729 0.013132
vt 0.223479 0.518353
vt 0.252087 0.518353
vt 0.238964 0.664353
vt 0.210533 0.664353
vt 0.223351 0.277431
vt 0.252219 0.277431
vt 0.251938 0.798228
vt 0.223632 0.798228
vt 0.212352 0.161311
vt 0.240911 0.164273
vt 0.250090 0.986796
vt 0.225480 0.986796
vt 0.264152 0.013551
vt 0.266363 0.013551
vt 0.295516 0.518353
vt 0.324124 0.518353
vt 0.337073 0.664353
vt 0.308640 0.664353
vt 0.295386 0.277431
vt 0.324255 0.277431
vt 0.323973 0.798228
vt 0.295667 0.798228
vt 0.306611 0.164005
vt 0.335164 0.161043
vt 0.322125 0.986796
vt 0.297516 0.986796
vt 0.284485 0.013551
vt 0.286698 0.013551
vt 0.414431 0.293397
vt 0.397002 0.293397
vt 0.377639 0.205949
vt 0.395070 0.205949
vt 0.377395 0.388857
vt 0.358443 0.388857
vt 0.394872 0.125764
vt 0.415257 0.125764
vt 0.410375 0.457675
vt 0.394368 0.457558
vt 0.396265 0.012819
vt 0.415159 0.012819
vt 0.889356 0.026087
vt 0.870461 0.020909
vt 0.886870 0.014954
vt 0.905764 0.020128
vt 0.649830 0.264473
vt 0.632393 0.264473
vt 0.651748 0.177025
vt 0.669179 0.177025
vt 0.672568 0.344659
vt 0.652185 0.344659
vt 0.614452 0.082242
vt 0.633409 0.082242
vt 0.671177 0.457604
vt 0.652283 0.457604
vt 0.647397 0.014725
vt 0.663403 0.014609
vt 0.988140 0.012130
vt 0.988590 0.013360
vt 0.984693 0.013506
vt 0.984243 0.012279
vt 0.574639 0.178819
vt 0.592063 0.178819
vt 0.600006 0.266267
vt 0.582568 0.266267
vt 0.545993 0.083359
vt 0.564872 0.084036
vt 0.602662 0.346453
vt 0.582285 0.346453
vt 0.523427 0.014659
vt 0.538924 0.016519
vt 0.601270 0.459398
vt 0.582381 0.459398
vt 0.440436 0.177025
vt 0.457872 0.177025
vt 0.449944 0.264473
vt 0.432501 0.264473
vt 0.468949 0.082242
vt 0.487832 0.081565
vt 0.452794 0.344659
vt 0.432405 0.344659
vt 0.492219 0.014609
vt 0.507710 0.012749
vt 0.451399 0.457604
vt 0.432501 0.457604
vt 0.853958 0.013409
vt 0.857847 0.013497
vt 0.838723 0.102559
vt 0.824948 0.102443
vt 0.722545 0.013497
vt 0.726442 0.013557
vt 0.763801 0.104418
vt 0.750383 0.102559
vt 0.705357 0.106096
vt 0.691577 0.106212
vt 0.688413 0.015350
vt 0.692311 0.015263
vt 0.783333 0.103551
vt 0.779436 0.103609
vt 0.823730 0.014577
vt 0.837148 0.012717
vn 0.000000 -0.017352 0.999849
vn 0.000000 -0.018118 0.999836
vn 0.000000 -0.000080 1.000000
vn 0.000000 0.000074 1.000000
vn 0.000000 1.000000 0.000000
vn 0.000000 1.000000 0.000000
vn 0.000000 1.000000 0.000000
vn 0.000000 1.000000 0.000000
vn 0.000000 -0.000074 -1.000000
vn 0.000000 0.000080 -1.000000
vn 0.000000 0.018113 -0.999836
vn 0.000000 0.017346 -0.999850
vn 0.000000 -1.000000 -0.000006
vn 0.000000 -1.000000 -0.000006
vn 0.000000 -1.000000 -0.000006
vn 0.000000 -1.000000 -0.000006
vn 0.999780 -0.020999 0.000000
vn 0.999795 -0.020232 0.000000
vn 1.000000 0.000067 0.000000
vn 1.000000 -0.000087 0.000000
vn -0.999796 0.020221 0.000000
vn -0.999780 0.020987 0.000000
vn -1.000000 0.000071 0.000000
vn -1.000000 -0.000082 0.000000
vn -0.997038 0.061949 0.045583
vn -0.998098 0.001590 0.061628
vn -0.998381 0.056624 0.005338
vn -0.998515 0.054232 0.005112
vn 0.054403 0.077314 0.995521
vn 0.052645 0.076477 0.995681
vn -0.000635 0.015115 0.999886
vn -0.000735 0.017495 0.999847
vn 0.997113 -0.034813 -0.067485
vn 0.995337 -0.082737 -0.049585
vn 0.998514 -0.054253 -0.005114
vn 0.998379 -0.056665 -0.005341
vn 0.000741 -0.017920 -0.999839
vn 0.000638 -0.015428 -0.999881
vn -0.053165 -0.103024 -0.993257
vn -0.055659 -0.105312 -0.992881
vn 0.131999 0.114028 0.984669
vn 0.131999 0.114028 0.984669
vn 0.052645 0.076477 0.995681
vn 0.054403 0.077314 0.995521
vn 0.987384 0.105012 -0.118510
vn 0.987384 0.105012 -0.118510
vn 0.995337 -0.082737 -0.049585
vn 0.997113 -0.034813 -0.067485
vn -0.055659 -0.105312 -0.992881
vn -0.053165 -0.103024 -0.993257
vn -0.130629 -0.173761 -0.976086
vn -0.130629 -0.173761 -0.976086
vn -0.979723 -0.170064 0.105925
vn -0.979724 -0.170064 0.105925
vn -0.998098 0.001590 0.061628
vn -0.997038 0.061949 0.045583
vn 0.000000 0.000074 1.000000
vn 0.000000 -0.000080 1.000000
vn 0.000000 0.021749 0.999763
vn 0.000000 0.020808 0.999784
vn -1.000000 -0.000082 0.000000
vn -1.000000 0.000071 0.000000
vn -0.999683 -0.025193 0.000000
vn -0.999706 -0.024252 0.000000
vn 0.000000 -0.020801 -0.999784
vn 0.000000 -0.021742 -0.999764
vn 0.000000 0.000080 -1.000000
vn 0.000000 -0.000074 -1.000000
vn 1.000000 -0.000087 0.000000
vn 1.000000 0.000067 0.000000
vn 0.999706 0.024252 0.000000
vn 0.999683 0.025194 0.000000
vn -0.998515 0.054232 0.005112
vn -0.998381 0.056624 0.005338
vn -0.999780 0.020987 0.000000
vn -0.999796 0.020221 0.000000
vn -0.000735 0.017495 0.999847
vn -0.000635 0.015115 0.999886
vn 0.000000 -0.018118 0.999836
vn 0.000000 -0.017352 0.999849
vn 0.998379 -0.056665 -0.005341
vn 0.998514 -0.054253 -0.005114
vn 0.999795 -0.020232 0.000000
vn 0.999780 -0.020999 0.000000
vn 0.000000 0.017346 -0.999850
vn 0.000000 0.018113 -0.999836
vn 0.000638 -0.015428 -0.999881
vn 0.000741 -0.017920 -0.999839
vn 0.000000 0.020808 0.999784
vn 0.000000 0.021749 0.999763
vn 0.000000 0.000000 1.000000
vn 0.000000 0.000000 1.000000
vn -0.999706 -0.024252 0.000000
vn -0.999683 -0.025193 0.000000
vn -1.000000 0.000000 0.000000
vn -1.000000 0.000000 0.000000
vn 0.000000 0.000000 -1.000000
vn 0.000000 0.000000 -1.000000
vn 0.000000 -0.021742 -0.999764
vn 0.000000 -0.020801 -0.999784
vn 0.999683 0.025194 0.000000
vn 0.999706 0.024252 0.000000
vn 1.000000 0.000000 0.000000
vn 1.000000 0.000000 0.000000
vn -0.653732 0.080857 -0.752394
vn -0.653948 0.076694 -0.752642
vn -0.655921 -0.000080 -0.754830
vn -0.655921 0.000074 -0.754830
vn 0.000000 1.000000 0.000000
vn 0.000000 1.000000 0.000000
vn 0.000000 1.000000 0.000000
vn 0.000000 1.000000 0.000000
vn 0.655724 -0.000074 0.755001
vn 0.655724 0.000080 0.755001
vn 0.653733 -0.077048 0.752792
vn 0.653514 -0.081231 0.752543
vn 0.056181 -0.996328 0.064615
vn 0.056181 -0.996328 0.064615
vn 0.056181 -0.996328 0.064615
vn 0.056181 -0.996328 0.064615
vn -0.754782 -0.025215 0.655491
vn -0.754728 -0.027776 0.655449
vn -0.755020 0.000074 0.655701
vn -0.755020 -0.000079 0.655702
vn 0.754773 0.027784 -0.655397
vn 0.754827 0.025223 -0.655439
vn 0.755073 0.000079 -0.655640
vn 0.755073 -0.000074 -0.655640
vn 0.719515 0.057837 -0.692064
vn 0.713230 -0.003655 -0.700921
vn 0.742760 0.081399 -0.664591
vn 0.745844 0.063926 -0.663046
vn -0.696038 -0.008160 -0.717958
vn -0.694767 -0.009006 -0.719178
vn -0.651726 0.103646 -0.751340
vn -0.652415 0.091682 -0.752296
vn -0.706828 -0.028882 0.706795
vn -0.714508 -0.078168 0.695247
vn -0.745847 -0.063954 0.663041
vn -0.742767 -0.081473 0.664574
vn 0.652168 -0.093864 0.752241
vn 0.651442 -0.105979 0.751261
vn 0.694828 -0.017740 0.718957
vn 0.696583 -0.020050 0.717196
vn -0.749624 0.029325 -0.661214
vn -0.749624 0.029325 -0.661214
vn -0.694767 -0.009006 -0.719178
vn -0.696038 -0.008160 -0.717958
vn -0.673948 0.114809 0.729804
vn -0.673948 0.114809 0.729804
vn -0.714508 -0.078168 0.695247
vn -0.706828 -0.028882 0.706795
vn 0.696583 -0.020050 0.717196
vn 0.694828 -0.017740 0.718957
vn 0.745784 -0.089679 0.660124
vn 0.745784 -0.089679 0.660124
vn 0.680092 -0.178384 -0.711093
vn 0.680092 -0.178384 -0.711093
vn 0.713230 -0.003655 -0.700921
vn 0.719515 0.057837 -0.692064
vn -0.655921 0.000074 -0.754830
vn -0.655921 -0.000080 -0.754830
vn -0.655780 0.021753 -0.754638
vn -0.655793 0.020811 -0.754653
vn 0.755073 -0.000074 -0.655640
vn 0.755073 0.000079 -0.655640
vn 0.754872 -0.025202 -0.655388
vn 0.754890 -0.024261 -0.655403
vn 0.655460 -0.020794 0.754944
vn 0.655451 -0.021735 0.754925
vn 0.655724 0.000080 0.755001
vn 0.655724 -0.000074 0.755001
vn -0.755020 -0.000079 0.655702
vn -0.755020 0.000074 0.655701
vn -0.754677 0.024258 0.655648
vn -0.754664 0.025199 0.655628
vn 0.745844 0.063926 -0.663046
vn 0.742760 0.081399 -0.664591
vn 0.754827 0.025223 -0.655439
vn 0.754773 0.027784 -0.655397
vn -0.652415 0.091682 -0.752296
vn -0.651726 0.103646 -0.751340
vn -0.653948 0.076694 -0.752642
vn -0.653732 0.080857 -0.752394
vn -0.742767 -0.081473 0.664574
vn -0.745847 -0.063954 0.663041
vn -0.754728 -0.027776 0.655449
vn -0.754782 -0.025215 0.655491
vn 0.653514 -0.081231 0.752543
vn 0.653733 -0.077048 0.752792
vn 0.651442 -0.105979 0.751261
vn 0.652168 -0.093864 0.752241
vn -0.655793 0.020811 -0.754653
vn -0.655780 0.021753 -0.754638
vn -0.655934 0.000000 -0.754818
vn -0.655934 0.000000 -0.754818
vn 0.754890 -0.024261 -0.655403
vn 0.754872 -0.025202 -0.655388
vn 0.755115 0.000000 -0.655593
vn 0.755115 0.000000 -0.655593
vn 0.655511 0.000000 0.755186
vn 0.655511 0.000000 0.755186
vn 0.655451 -0.021735 0.754925
vn 0.655460 -0.020794 0.754944
vn -0.754664 0.025199 0.655628
vn -0.754677 0.024258 0.655648
vn -0.754795 0.000000 0.655960
vn -0.754795 0.000000 0.655960
s off
f 22/1/1 23/2/2 17/3/3 18/4/4
f 3/15/5 4/16/6 6/17/7 5/18/8
f 19/19/9 20/20/10 24/21/11 21/22/12
f 7/33/13 8/34/14 2/35/15 1/36/16
f 23/37/17 24/38/18 20/39/19 17/40/20
f 21/51/21 22/52/22 18/53/23 19/54/24
f 16/59/25 13/60/26 10/56/27 9/55/28
f 13/9/29 14/10/30 11/6/31 10/5/32
f 14/45/33 15/46/34 12/42/35 11/41/36
f 9/26/37 12/25/38 15/29/39 16/30/40
f 1/13/41 2/14/42 14/10/43 13/9/44
f 2/49/45 8/50/46 15/46/47 14/45/48
f 16/30/49 15/29/50 8/31/51 7/32/52
f 7/63/53 1/64/54 13/60/55 16/59/56
f 18/4/57 17/3/58 25/7/59 26/8/60
f 19/54/61 18/53/62 26/57/63 27/58/64
f 27/23/65 28/24/66 20/20/67 19/19/68
f 17/40/69 20/39/70 28/43/71 25/44/72
f 9/55/73 10/56/74 22/52/75 21/51/76
f 10/5/77 11/6/78 23/2/79 22/1/80
f 11/41/81 12/42/82 24/38/83 23/37/84
f 21/22/85 24/21/86 12/25/87 9/26/88
f 26/8/89 25/7/90 4/11/91 3/12/92
f 27/58/93 26/57/94 3/61/95 5/62/96
f 5/27/97 6/28/98 28/24/99 27/23/100
f 25/44/101 28/43/102 6/47/103 4/48/104
f 50/65/105 51/66/106 45/67/107 46/68/108
f 31/77/109 32/78/110 34/79/111 33/80/112
f 47/81/113 48/82/114 52/83/115 49/84/116
f 35/93/117 36/94/118 30/95/119 29/96/120
f 51/97/121 52/98/122 48/99/123 45/100/124
f 49/109/125 50/110/126 46/111/127 47/112/128
f 44/117/129 41/118/130 38/114/131 37/113/132
f 41/73/133 42/74/134 39/70/135 38/69/136
f 42/105/137 43/106/138 40/102/139 39/101/140
f 37/88/141 40/87/142 43/91/143 44/92/144
f 29/121/145 30/122/146 42/123/147 41/124/148
f 30/125/149 36/126/150 43/127/151 42/128/152
f 44/129/153 43/130/154 36/131/155 35/132/156
f 35/133/157 29/134/158 41/135/159 44/136/160
f 46/68/161 45/67/162 53/71/163 54/72/164
f 47/112/165 46/111/166 54/115/167 55/116/168
f 55/85/169 56/86/170 48/82/171 47/81/172
f 45/100/173 48/99/174 56/103/175 53/104/176
f 37/113/177 38/114/178 50/110/179 49/109/180
f 38/69/181 39/70/182 51/66/183 50/65/184
f 39/101/185 40/102/186 52/98/187 51/97/188
f 49/84/189 52/83/190 40/87/191 37/88/192
f 54/72/193 53/71/194 32/75/195 31/76/196
f 55/116/197 54/115/198 31/119/199 33/120/200
f 33/89/201 34/90/202 56/86/203 55/85/204
f 53/104/205 56/103/206 34/107/207 32/108/208
